  0
SECTION
  2
HEADER
  9
$ACADVER
  1
AC1014
  9
$ACADMAINTVER
 70
     9
  9
$DWGCODEPAGE
  3
ANSI_1251
  9
$INSBASE
 10
0.0
 20
0.0
 30
0.0
  9
$EXTMIN
 10
0.0
 20
0.0
 30
0.0
  9
$EXTMAX
 10
1465.469195819107
 20
621.1004969233402
 30
0.0
  9
$LIMMIN
 10
0.0
 20
0.0
  9
$LIMMAX
 10
1465.469195819107
 20
621.1004969233402
  9
$ORTHOMODE
 70
     0
  9
$REGENMODE
 70
     1
  9
$FILLMODE
 70
     1
  9
$QTEXTMODE
 70
     0
  9
$MIRRTEXT
 70
     1
  9
$DRAGMODE
 70
     2
  9
$LTSCALE
 40
1.0
  9
$OSMODE
 70
    37
  9
$ATTMODE
 70
     1
  9
$TEXTSIZE
 40
2.5
  9
$TRACEWID
 40
1.0
  9
$TEXTSTYLE
  7
STANDARD
  9
$CLAYER
  8
0
  9
$CELTYPE
  6
BYLAYER
  9
$CECOLOR
 62
   256
  9
$CELTSCALE
 40
1.0
  9
$DELOBJ
 70
     1
  9
$DISPSILH
 70
     0
  9
$DIMSCALE
 40
1.0
  9
$DIMASZ
 40
2.5
  9
$DIMEXO
 40
0.625
  9
$DIMDLI
 40
3.75
  9
$DIMRND
 40
0.0
  9
$DIMDLE
 40
0.0
  9
$DIMEXE
 40
1.25
  9
$DIMTP
 40
0.0
  9
$DIMTM
 40
0.0
  9
$DIMTXT
 40
2.5
  9
$DIMCEN
 40
2.5
  9
$DIMTSZ
 40
0.0
  9
$DIMTOL
 70
     0
  9
$DIMLIM
 70
     0
  9
$DIMTIH
 70
     0
  9
$DIMTOH
 70
     0
  9
$DIMSE1
 70
     0
  9
$DIMSE2
 70
     0
  9
$DIMTAD
 70
     1
  9
$DIMZIN
 70
     8
  9
$DIMBLK
  1

  9
$DIMASO
 70
     1
  9
$DIMSHO
 70
     1
  9
$DIMPOST
  1

  9
$DIMAPOST
  1

  9
$DIMALT
 70
     0
  9
$DIMALTD
 70
     3
  9
$DIMALTF
 40
0.03937007874016
  9
$DIMLFAC
 40
1.0
  9
$DIMTOFL
 70
     1
  9
$DIMTVP
 40
0.0
  9
$DIMTIX
 70
     0
  9
$DIMSOXD
 70
     0
  9
$DIMSAH
 70
     0
  9
$DIMBLK1
  1

  9
$DIMBLK2
  1

  9
$DIMSTYLE
  2
ISO-25
  9
$DIMCLRD
 70
     0
  9
$DIMCLRE
 70
     0
  9
$DIMCLRT
 70
     0
  9
$DIMTFAC
 40
1.0
  9
$DIMGAP
 40
0.625
  9
$DIMJUST
 70
     0
  9
$DIMSD1
 70
     0
  9
$DIMSD2
 70
     0
  9
$DIMTOLJ
 70
     0
  9
$DIMTZIN
 70
     8
  9
$DIMALTZ
 70
     0
  9
$DIMALTTZ
 70
     0
  9
$DIMFIT
 70
     3
  9
$DIMUPT
 70
     0
  9
$DIMUNIT
 70
     2
  9
$DIMDEC
 70
     2
  9
$DIMTDEC
 70
     2
  9
$DIMALTU
 70
     2
  9
$DIMALTTD
 70
     3
  9
$DIMTXSTY
  7
STANDARD
  9
$DIMAUNIT
 70
     0
  9
$LUNITS
 70
     2
  9
$LUPREC
 70
     4
  9
$SKETCHINC
 40
1.0
  9
$FILLETRAD
 40
0.0
  9
$AUNITS
 70
     0
  9
$AUPREC
 70
     0
  9
$MENU
  1
.
  9
$ELEVATION
 40
0.0
  9
$PELEVATION
 40
0.0
  9
$THICKNESS
 40
0.0
  9
$LIMCHECK
 70
     0
  9
$CHAMFERA
 40
0.0
  9
$CHAMFERB
 40
0.0
  9
$CHAMFERC
 40
0.0
  9
$CHAMFERD
 40
0.0
  9
$SKPOLY
 70
     0
  9
$TDCREATE
 40
2461156.428158299
  9
$TDUPDATE
 40
2461156.428159364
  9
$TDINDWG
 40
0.0000000116
  9
$TDUSRTIMER
 40
0.0000000116
  9
$USRTIMER
 70
     1
  9
$ANGBASE
 50
0.0
  9
$ANGDIR
 70
     0
  9
$PDMODE
 70
     0
  9
$PDSIZE
 40
0.0
  9
$PLINEWID
 40
0.0
  9
$COORDS
 70
     1
  9
$SPLFRAME
 70
     0
  9
$SPLINETYPE
 70
     6
  9
$SPLINESEGS
 70
     8
  9
$ATTDIA
 70
     0
  9
$ATTREQ
 70
     1
  9
$HANDLING
 70
     1
  9
$HANDSEED
  5
38E
  9
$SURFTAB1
 70
     6
  9
$SURFTAB2
 70
     6
  9
$SURFTYPE
 70
     6
  9
$SURFU
 70
     6
  9
$SURFV
 70
     6
  9
$UCSNAME
  2

  9
$UCSORG
 10
0.0
 20
0.0
 30
0.0
  9
$UCSXDIR
 10
1.0
 20
0.0
 30
0.0
  9
$UCSYDIR
 10
0.0
 20
1.0
 30
0.0
  9
$PUCSNAME
  2

  9
$PUCSORG
 10
0.0
 20
0.0
 30
0.0
  9
$PUCSXDIR
 10
1.0
 20
0.0
 30
0.0
  9
$PUCSYDIR
 10
0.0
 20
1.0
 30
0.0
  9
$USERI1
 70
     0
  9
$USERI2
 70
     0
  9
$USERI3
 70
     0
  9
$USERI4
 70
     0
  9
$USERI5
 70
     0
  9
$USERR1
 40
0.0
  9
$USERR2
 40
0.0
  9
$USERR3
 40
0.0
  9
$USERR4
 40
0.0
  9
$USERR5
 40
0.0
  9
$WORLDVIEW
 70
     1
  9
$SHADEDGE
 70
     3
  9
$SHADEDIF
 70
    70
  9
$TILEMODE
 70
     1
  9
$MAXACTVP
 70
    64
  9
$PINSBASE
 10
0.0
 20
0.0
 30
0.0
  9
$PLIMCHECK
 70
     0
  9
$PEXTMIN
 10
0.0
 20
0.0
 30
0.0
  9
$PEXTMAX
 10
0.0
 20
0.0
 30
0.0
  9
$PLIMMIN
 10
-20.0
 20
-7.5
  9
$PLIMMAX
 10
277.0
 20
202.5
  9
$UNITMODE
 70
     0
  9
$VISRETAIN
 70
     1
  9
$PLINEGEN
 70
     0
  9
$PSLTSCALE
 70
     1
  9
$TREEDEPTH
 70
  3020
  9
$PICKSTYLE
 70
     1
  9
$CMLSTYLE
  2
STANDARD
  9
$CMLJUST
 70
     0
  9
$CMLSCALE
 40
20.0
  9
$PROXYGRAPHICS
 70
     1
  9
$MEASUREMENT
 70
     1
  0
ENDSEC
  0
SECTION
  2
CLASSES
  0
CLASS
  1
ACDBDICTIONARYWDFLT
  2
AcDbDictionaryWithDefault
  3
ObjectDBX Classes
 90
        0
280
     0
281
     0
  0
CLASS
  1
VISUALSTYLE
  2
AcDbVisualStyle
  3
ObjectDBX Classes
 90
     4095
280
     0
281
     0
  0
CLASS
  1
MATERIAL
  2
AcDbMaterial
  3
ObjectDBX Classes
 90
     1153
280
     0
281
     0
  0
CLASS
  1
SCALE
  2
AcDbScale
  3
ObjectDBX Classes
 90
     1153
280
     0
281
     0
  0
CLASS
  1
TABLESTYLE
  2
AcDbTableStyle
  3
ObjectDBX Classes
 90
     4095
280
     0
281
     0
  0
CLASS
  1
MLEADERSTYLE
  2
AcDbMLeaderStyle
  3
ACDB_MLEADERSTYLE_CLASS
 90
     4095
280
     0
281
     0
  0
CLASS
  1
SUN
  2
AcDbSun
  3
SCENEOE
 90
     1153
280
     0
281
     0
  0
CLASS
  1
IMAGEDEF
  2
AcDbRasterImageDef
  3
ISM
 90
        0
280
     0
281
     0
  0
CLASS
  1
IMAGE
  2
AcDbRasterImage
  3
ISM
 90
      127
280
     0
281
     1
  0
CLASS
  1
RASTERVARIABLES
  2
AcDbRasterVariables
  3
ISM
 90
        0
280
     0
281
     0
  0
CLASS
  1
IMAGEDEF_REACTOR
  2
AcDbRasterImageDefReactor
  3
ISM
 90
        1
280
     0
281
     0
  0
CLASS
  1
DICTIONARYVAR
  2
AcDbDictionaryVar
  3
ObjectDBX Classes
 90
        0
280
     0
281
     0
  0
CLASS
  1
XRECORD
  2
AcDbXrecord
  3
ObjectDBX Classes
 90
        0
280
     0
281
     0
  0
CLASS
  1
LWPOLYLINE
  2
AcDbPolyline
  3
ObjectDBX Classes
 90
        0
280
     0
281
     1
  0
CLASS
  1
HATCH
  2
AcDbHatch
  3
ObjectDBX Classes
 90
        0
280
     0
281
     1
  0
CLASS
  1
ACDBPLACEHOLDER
  2
AcDbPlaceHolder
  3
ObjectDBX Classes
 90
        0
280
     0
281
     0
  0
CLASS
  1
LAYOUT
  2
AcDbLayout
  3
ObjectDBX Classes
 90
        0
280
     0
281
     0
  0
ENDSEC
  0
SECTION
  2
TABLES
  0
TABLE
  2
VPORT
  5
8
102
{ACAD_XDICTIONARY
360
383
102
}
330
0
100
AcDbSymbolTable
 70
     1
  0
VPORT
  5
29
330
8
100
AcDbSymbolTableRecord
100
AcDbViewportTableRecord
  2
*ACTIVE
 70
     0
 10
0.0
 20
0.0
 11
1.0
 21
1.0
 12
276.7145979095533
 22
309.7564840368306
 13
0.0
 23
0.0
 14
10.0
 24
10.0
 15
10.0
 25
10.0
 16
0.0
 26
0.0
 36
1.0
 17
0.0
 27
0.0
 37
0.0
 40
631.9032274351343
 41
1.36444148771814
 42
50.0
 43
0.0
 44
0.0
 50
0.0
 51
0.0
 71
     0
 72
   100
 73
     1
 74
     3
 75
     0
 76
     0
 77
     0
 78
     0
  0
ENDTAB
  0
TABLE
  2
LTYPE
  5
5
330
0
100
AcDbSymbolTable
 70
    10
  0
LTYPE
  5
14
330
5
100
AcDbSymbolTableRecord
100
AcDbLinetypeTableRecord
  2
BYBLOCK
 70
     0
  3

 72
    65
 73
     0
 40
0.0
  0
LTYPE
  5
15
330
5
100
AcDbSymbolTableRecord
100
AcDbLinetypeTableRecord
  2
BYLAYER
 70
     0
  3

 72
    65
 73
     0
 40
0.0
  0
LTYPE
  5
16
330
5
100
AcDbSymbolTableRecord
100
AcDbLinetypeTableRecord
  2
CONTINUOUS
 70
     0
  3
Solid line
 72
    65
 73
     0
 40
0.0
  0
LTYPE
  5
1E6
330
5
100
AcDbSymbolTableRecord
100
AcDbLinetypeTableRecord
  2
HIDDEN_PER2_SCALE0_547422
 70
     0
  3

 72
    83
 73
     2
 40
5.214195819106607
 49
3.476130546071071
 74
     0
 49
-1.738065273035536
 74
     0
  0
LTYPE
  5
28F
330
5
100
AcDbSymbolTableRecord
100
AcDbLinetypeTableRecord
  2
HIDDEN_PERB_SCALE0_939823
 70
     0
  3

 72
    83
 73
     2
 40
8.951818181818183
 49
5.967878787878789
 74
     0
 49
-2.983939393939394
 74
     0
  0
LTYPE
  5
291
330
5
100
AcDbSymbolTableRecord
100
AcDbLinetypeTableRecord
  2
HIDDEN_PER5_SCALE0_894891
 70
     0
  3

 72
    83
 73
     2
 40
8.523839163821298
 49
5.682559442547533
 74
     0
 49
-2.841279721273767
 74
     0
  0
LTYPE
  5
293
330
5
100
AcDbSymbolTableRecord
100
AcDbLinetypeTableRecord
  2
HIDDEN_PER9_SCALE0_997492
 70
     0
  3

 72
    83
 73
     2
 40
9.501111111111113
 49
6.334074074074076
 74
     0
 49
-3.167037037037038
 74
     0
  0
LTYPE
  5
295
330
5
100
AcDbSymbolTableRecord
100
AcDbLinetypeTableRecord
  2
HIDDEN_PERC_SCALE0_994408
 70
     0
  3

 72
    83
 73
     2
 40
9.471733681741126
 49
6.314489121160751
 74
     0
 49
-3.157244560580375
 74
     0
  0
LTYPE
  5
297
330
5
100
AcDbSymbolTableRecord
100
AcDbLinetypeTableRecord
  2
HIDDEN_PERB_SCALE0_961107
 70
     0
  3

 72
    83
 73
     2
 40
9.154545454545454
 49
6.103030303030303
 74
     0
 49
-3.051515151515152
 74
     0
  0
LTYPE
  5
299
330
5
100
AcDbSymbolTableRecord
100
AcDbLinetypeTableRecord
  2
HIDDEN_PER9_SCALE0_925868
 70
     0
  3

 72
    83
 73
     2
 40
8.818888888888889
 49
5.87925925925926
 74
     0
 49
-2.93962962962963
 74
     0
  0
LTYPE
  5
29B
330
5
100
AcDbSymbolTableRecord
100
AcDbLinetypeTableRecord
  2
HIDDEN_PER9_SCALE0_971479
 70
     0
  3

 72
    83
 73
     2
 40
9.253333333333332
 49
6.168888888888889
 74
     0
 49
-3.084444444444444
 74
     0
  0
LTYPE
  5
29D
330
5
100
AcDbSymbolTableRecord
100
AcDbLinetypeTableRecord
  2
HIDDEN_PER9_SCALE0_897171
 70
     0
  3

 72
    83
 73
     2
 40
8.545555555555557
 49
5.697037037037039
 74
     0
 49
-2.84851851851852
 74
     0
  0
ENDTAB
  0
TABLE
  2
LAYER
  5
2
330
0
100
AcDbSymbolTable
 70
     2
  0
LAYER
  5
10
330
2
100
AcDbSymbolTableRecord
100
AcDbLayerTableRecord
  2
0
 70
     0
 62
     7
  6
CONTINUOUS
  0
LAYER
  5
5E
330
2
100
AcDbSymbolTableRecord
100
AcDbLayerTableRecord
  2
1
 70
     5
 62
    -7
  6
CONTINUOUS
  0
ENDTAB
  0
TABLE
  2
STYLE
  5
3
330
0
100
AcDbSymbolTable
 70
     4
  0
STYLE
  5
11
330
3
100
AcDbSymbolTableRecord
100
AcDbTextStyleTableRecord
  2
STANDARD
 70
     0
 40
0.0
 41
1.0
 50
0.0
 71
     0
 42
2.5
  3
txt
  4

  0
STYLE
  5
2DD
330
3
100
AcDbSymbolTableRecord
100
AcDbTextStyleTableRecord
  2
TEXTSTYLE_1
 70
     0
 40
4.170101789794262
 41
1.0
 50
0.0
 71
     0
 42
2.5
  3
t-flex type b.TTF
  4

  0
STYLE
  5
2E0
330
3
100
AcDbSymbolTableRecord
100
AcDbTextStyleTableRecord
  2
TEXTSTYLE_2
 70
     0
 40
4.170101789794263
 41
1.0
 50
0.0
 71
     0
 42
2.5
  3
t-flex type b.TTF
  4

  0
STYLE
  5
32E
330
3
100
AcDbSymbolTableRecord
100
AcDbTextStyleTableRecord
  2
TEXTSTYLE_3
 70
     0
 40
4.0
 41
1.0
 50
14.99999999999999
 71
     0
 42
2.5
  3
T-FLEX Type A.TTF
  4

  0
ENDTAB
  0
TABLE
  2
VIEW
  5
6
330
0
100
AcDbSymbolTable
 70
     0
  0
ENDTAB
  0
TABLE
  2
UCS
  5
7
330
0
100
AcDbSymbolTable
 70
     0
  0
ENDTAB
  0
TABLE
  2
APPID
  5
9
330
0
100
AcDbSymbolTable
 70
     2
  0
APPID
  5
12
330
9
100
AcDbSymbolTableRecord
100
AcDbRegAppTableRecord
  2
ACAD
 70
     0
  0
APPID
  5
38D
330
9
100
AcDbSymbolTableRecord
100
AcDbRegAppTableRecord
  2
ACAD_MLEADERVER
 70
     0
  0
ENDTAB
  0
TABLE
  2
DIMSTYLE
  5
A
330
0
100
AcDbSymbolTable
 70
     1
  0
DIMSTYLE
105
27
330
A
100
AcDbSymbolTableRecord
100
AcDbDimStyleTableRecord
  2
ISO-25
 70
     0
  3

  4

  5

  6

  7

 40
1.0
 41
2.5
 42
0.625
 43
3.75
 44
1.25
 45
0.0
 46
0.0
 47
0.0
 48
0.0
140
2.5
141
2.5
142
0.0
143
0.03937007874016
144
1.0
145
0.0
146
1.0
147
0.625
 71
     0
 72
     0
 73
     0
 74
     0
 75
     0
 76
     0
 77
     1
 78
     8
170
     0
171
     3
172
     1
173
     0
174
     0
175
     0
176
     0
177
     0
178
     0
270
     2
271
     2
272
     2
273
     2
274
     3
340
11
275
     0
280
     0
281
     0
282
     0
283
     0
284
     8
285
     0
286
     0
287
     3
288
     0
  0
ENDTAB
  0
TABLE
  2
BLOCK_RECORD
  5
1
330
0
100
AcDbSymbolTable
 70
     5
  0
BLOCK_RECORD
  5
1F
330
1
100
AcDbSymbolTableRecord
100
AcDbBlockTableRecord
  2
*MODEL_SPACE
  0
BLOCK_RECORD
  5
34B
330
1
100
AcDbSymbolTableRecord
100
AcDbBlockTableRecord
  2
*PAPER_SPACE
  0
BLOCK_RECORD
  5
5F
330
1
100
AcDbSymbolTableRecord
100
AcDbBlockTableRecord
  2
MODEL
  0
BLOCK_RECORD
  5
330
330
1
100
AcDbSymbolTableRecord
100
AcDbBlockTableRecord
  2
_FR1ŃŇĐŔÍČÖŔ_1
  0
BLOCK_RECORD
  5
336
330
1
100
AcDbSymbolTableRecord
100
AcDbBlockTableRecord
  2
_FR2ŃŇĐŔÍČÖŔ_1
  0
BLOCK_RECORD
  5
33E
330
1
100
AcDbSymbolTableRecord
100
AcDbBlockTableRecord
  2
ËČŃŇ1
  0
BLOCK_RECORD
  5
34A
330
1
100
AcDbSymbolTableRecord
100
AcDbBlockTableRecord
  2
ËČŃŇ2
  0
ENDTAB
  0
ENDSEC
  0
SECTION
  2
BLOCKS
  0
BLOCK
  5
20
330
1F
100
AcDbEntity
  8
0
100
AcDbBlockBegin
  2
*MODEL_SPACE
 70
     0
 10
0.0
 20
0.0
 30
0.0
  3
*MODEL_SPACE
  1

  0
ENDBLK
  5
21
330
1F
100
AcDbEntity
  8
0
100
AcDbBlockEnd
  0
BLOCK
  5
34D
330
34B
100
AcDbEntity
 67
     1
  8
0
100
AcDbBlockBegin
  2
*PAPER_SPACE
 70
     0
 10
0.0
 20
0.0
 30
0.0
  3
*PAPER_SPACE
  1

  0
ENDBLK
  5
34E
330
34B
100
AcDbEntity
 67
     1
  8
0
100
AcDbBlockEnd
  0
BLOCK
  5
33C
330
5F
100
AcDbEntity
  8
0
100
AcDbBlockBegin
  2
MODEL
 70
     0
 10
0.0
 20
0.0
 30
0.0
  3
MODEL
  1

  0
HATCH
  5
69
330
5F
100
AcDbEntity
  8
0
 62
     0
100
AcDbHatch
 10
0.0
 20
0.0
 30
0.0
210
0.0
220
0.0
230
1.0
  2
SOLID
 70
     1
 71
     0
 91
        1
 92
        2
 72
     0
 73
     1
 93
        3
 10
308.0051807434135
 20
556.6605453787337
 10
308.0051807434135
 20
559.0504869078944
 10
311.4050187941172
 20
557.855516143314
 97
        0
 75
     0
 76
     1
 98
        0
  0
HATCH
  5
6A
330
5F
100
AcDbEntity
  8
0
 62
     0
100
AcDbHatch
 10
0.0
 20
0.0
 30
0.0
210
0.0
220
0.0
230
1.0
  2
SOLID
 70
     1
 71
     0
 91
        1
 92
        2
 72
     0
 73
     1
 93
        3
 10
352.5947581138722
 20
556.6605453787337
 10
352.5947581138722
 20
559.0504869078944
 10
349.1949200631685
 20
557.855516143314
 97
        0
 75
     0
 76
     1
 98
        0
  0
HATCH
  5
6B
330
5F
100
AcDbEntity
  8
0
 62
     0
100
AcDbHatch
 10
0.0
 20
0.0
 30
0.0
210
0.0
220
0.0
230
1.0
  2
SOLID
 70
     1
 71
     0
 91
        1
 92
        2
 72
     0
 73
     1
 93
        3
 10
287.1076523231806
 20
490.5245559815613
 10
287.1076523231806
 20
492.9144975107221
 10
290.5074903738843
 20
491.7195267461417
 97
        0
 75
     0
 76
     1
 98
        0
  0
HATCH
  5
6C
330
5F
100
AcDbEntity
  8
0
 62
     0
100
AcDbHatch
 10
0.0
 20
0.0
 30
0.0
210
0.0
220
0.0
230
1.0
  2
SOLID
 70
     1
 71
     0
 91
        1
 92
        2
 72
     0
 73
     1
 93
        3
 10
331.6972296936393
 20
490.5245559815613
 10
331.6972296936393
 20
492.9144975107221
 10
328.2973916429356
 20
491.7195267461417
 97
        0
 75
     0
 76
     1
 98
        0
  0
IMAGE
  5
6F
330
5F
100
AcDbEntity
  8
0
 92
        8
310
0800000000000000
100
AcDbRasterImage
 90
        0
 10
0.0
 20
0.0
 30
0.0
 11
1.0
 21
0.0
 31
0.0
 12
0.0
 22
1.0
 32
0.0
 13
0.0
 23
0.0
340
6E
 70
    11
280
     0
281
    50
282
    50
283
     0
360
71
 71
     1
 91
        2
 14
-0.5
 24
-0.5
 14
-0.5
 24
-0.5
  0
CIRCLE
  5
72
330
5F
100
AcDbEntity
  8
0
  6
CONTINUOUS
 62
     0
100
AcDbCircle
 10
138.6297257433085
 20
391.9842214399285
 30
0.0
 40
2.44740081528045
  0
LINE
  5
73
330
5F
100
AcDbEntity
  8
0
  6
CONTINUOUS
 62
     0
100
AcDbLine
 10
81.13631879306546
 20
407.1265148567994
 30
0.0
 11
81.13631879306546
 21
403.5615590607066
 31
0.0
  0
LINE
  5
74
330
5F
100
AcDbEntity
  8
0
  6
CONTINUOUS
 62
     0
100
AcDbLine
 10
87.39712297395896
 20
407.1265148567994
 30
0.0
 11
81.13631879306546
 21
403.5615590607066
 31
0.0
  0
LINE
  5
75
330
5F
100
AcDbEntity
  8
0
  6
CONTINUOUS
 62
     0
100
AcDbLine
 10
87.39712297395896
 20
403.5615590607066
 30
0.0
 11
81.13631879306546
 21
407.1265148567994
 31
0.0
  0
LINE
  5
76
330
5F
100
AcDbEntity
  8
0
  6
CONTINUOUS
 62
     0
100
AcDbLine
 10
87.39712297395896
 20
407.1265148567994
 30
0.0
 11
87.39712297395896
 21
403.5615590607066
 31
0.0
  0
LINE
  5
77
330
5F
100
AcDbEntity
  8
0
  6
CONTINUOUS
 62
     0
100
AcDbLine
 10
80.35941598503165
 20
407.1265148567992
 30
0.0
 11
80.35941598503165
 21
403.5615590607064
 31
0.0
  0
LINE
  5
78
330
5F
100
AcDbEntity
  8
0
  6
CONTINUOUS
 62
     0
100
AcDbLine
 10
88.17402578199277
 20
407.1265148567994
 30
0.0
 11
88.17402578199277
 21
403.5615590607066
 31
0.0
  0
LINE
  5
79
330
5F
100
AcDbEntity
  8
0
  6
CONTINUOUS
 62
     0
100
AcDbLine
 10
80.1597257558211
 20
428.0840800969955
 30
0.0
 11
80.1597257558211
 21
424.5191243009027
 31
0.0
  0
LINE
  5
7A
330
5F
100
AcDbEntity
  8
0
  6
CONTINUOUS
 62
     0
100
AcDbLine
 10
79.38282294778729
 20
428.0840800969955
 30
0.0
 11
79.38282294778729
 21
424.5191243009027
 31
0.0
  0
LINE
  5
7B
330
5F
100
AcDbEntity
  8
0
  6
CONTINUOUS
 62
     0
100
AcDbLine
 10
81.26195075665156
 20
429.8185581621673
 30
0.0
 11
81.26195075665156
 21
420.1336486427498
 31
0.0
  0
LINE
  5
7C
330
5F
100
AcDbEntity
  8
0
  6
CONTINUOUS
 62
     0
100
AcDbLine
 10
81.26195075665156
 20
429.8185581621673
 30
0.0
 11
87.27149101037217
 21
429.8185581621673
 31
0.0
  0
LINE
  5
7D
330
5F
100
AcDbEntity
  8
0
  6
CONTINUOUS
 62
     0
100
AcDbLine
 10
87.27149101037217
 20
429.8185581621673
 30
0.0
 11
87.27149101037217
 21
420.1336486427498
 31
0.0
  0
LINE
  5
7E
330
5F
100
AcDbEntity
  8
0
  6
CONTINUOUS
 62
     0
100
AcDbLine
 10
81.26195075665156
 20
420.1336486427498
 30
0.0
 11
84.26672088351198
 21
418.7471867251137
 31
0.0
  0
LINE
  5
7F
330
5F
100
AcDbEntity
  8
0
  6
CONTINUOUS
 62
     0
100
AcDbLine
 10
87.27149101037217
 20
420.1336486427498
 30
0.0
 11
84.26672088351198
 21
418.7471867251137
 31
0.0
  0
LINE
  5
80
330
5F
100
AcDbEntity
  8
0
  6
CONTINUOUS
 62
     0
100
AcDbLine
 10
80.1597257558211
 20
426.3016021989491
 30
0.0
 11
81.21005428243562
 21
426.3016021989491
 31
0.0
  0
LINE
  5
81
330
5F
100
AcDbEntity
  8
0
  6
CONTINUOUS
 62
     0
100
AcDbLine
 10
88.37371601120286
 20
428.0840800969955
 30
0.0
 11
88.37371601120286
 21
424.5191243009027
 31
0.0
  0
LINE
  5
82
330
5F
100
AcDbEntity
  8
0
  6
CONTINUOUS
 62
     0
100
AcDbLine
 10
88.37371601120286
 20
426.3016021989491
 30
0.0
 11
87.32338748458811
 21
426.3016021989491
 31
0.0
  0
LINE
  5
83
330
5F
100
AcDbEntity
  8
0
  6
CONTINUOUS
 62
     0
100
AcDbLine
 10
89.15061881923667
 20
428.0840800969958
 30
0.0
 11
89.15061881923667
 21
424.5191243009029
 31
0.0
  0
LINE
  5
84
330
5F
100
AcDbEntity
  8
0
  6
CONTINUOUS
 62
     0
100
AcDbLine
 10
85.96663990886383
 20
397.5317849773973
 30
0.0
 11
85.96663990886383
 21
395.5958879241688
 31
0.0
  0
LINE
  5
85
330
5F
100
AcDbEntity
  8
0
  6
CONTINUOUS
 62
     0
100
AcDbLine
 10
83.29877235689774
 20
394.8639174254312
 30
0.0
 11
85.23466941012622
 21
394.8639174254312
 31
0.0
  0
LINE
  5
86
330
5F
100
AcDbEntity
  8
0
  6
CONTINUOUS
 62
     0
100
AcDbLine
 10
83.29877235689774
 20
398.2637554761349
 30
0.0
 11
85.23466941012622
 21
394.8639174254312
 31
0.0
  0
LINE
  5
87
330
5F
100
AcDbEntity
  8
0
  6
CONTINUOUS
 62
     0
100
AcDbLine
 10
85.23466941012622
 20
398.2637554761349
 30
0.0
 11
83.29877235689774
 21
394.8639174254312
 31
0.0
  0
LINE
  5
88
330
5F
100
AcDbEntity
  8
0
  6
CONTINUOUS
 62
     0
100
AcDbLine
 10
83.29877235689774
 20
398.2637554761349
 30
0.0
 11
85.23466941012622
 21
398.2637554761349
 31
0.0
  0
LINE
  5
89
330
5F
100
AcDbEntity
  8
0
  6
CONTINUOUS
 62
     0
100
AcDbLine
 10
85.96663990886383
 20
397.5317849773973
 30
0.0
 11
84.26672088351198
 21
396.563836450783
 31
0.0
  0
LINE
  5
8A
330
5F
100
AcDbEntity
  8
0
  6
CONTINUOUS
 62
     0
100
AcDbLine
 10
84.26672088351198
 20
396.563836450783
 30
0.0
 11
85.96663990886383
 21
395.5958879241688
 31
0.0
  0
CIRCLE
  5
8B
330
5F
100
AcDbEntity
  8
0
  6
CONTINUOUS
 62
     0
100
AcDbCircle
 10
138.6297257433085
 20
416.4154797890152
 30
0.0
 40
2.44740081528045
  0
CIRCLE
  5
8C
330
5F
100
AcDbEntity
  8
0
  6
CONTINUOUS
 62
     0
100
AcDbCircle
 10
138.6297257433085
 20
408.5777764211583
 30
0.0
 40
2.44740081528045
  0
CIRCLE
  5
8D
330
5F
100
AcDbEntity
  8
0
  6
CONTINUOUS
 62
     0
100
AcDbCircle
 10
138.6297257433085
 20
400.2235713595986
 30
0.0
 40
2.44740081528045
  0
LINE
  5
8E
330
5F
100
AcDbEntity
  8
0
  6
CONTINUOUS
 62
     0
100
AcDbLine
 10
80.57387324917327
 20
411.5924540288269
 30
0.0
 11
80.57387324917327
 21
414.9419269398944
 31
0.0
  0
LINE
  5
8F
330
5F
100
AcDbEntity
  8
0
  6
CONTINUOUS
 62
     0
100
AcDbLine
 10
81.35077605720709
 20
411.5924540288269
 30
0.0
 11
81.35077605720709
 21
414.9419269398944
 31
0.0
  0
POLYLINE
  5
90
330
5F
100
AcDbEntity
  8
0
 62
     0
100
AcDb2dPolyline
 66
     1
 10
0.0
 20
0.0
 30
0.0
 70
   128
  0
VERTEX
  5
91
330
90
100
AcDbEntity
  8
0
 62
     0
100
AcDbVertex
100
AcDb2dVertex
 10
81.35077605720709
 20
413.2640306267539
 30
0.0
  0
VERTEX
  5
92
330
90
100
AcDbEntity
  8
0
 62
     0
100
AcDbVertex
100
AcDb2dVertex
 10
84.24044808197696
 20
416.1537026515238
 30
0.0
  0
VERTEX
  5
93
330
90
100
AcDbEntity
  8
0
 62
     0
100
AcDbVertex
100
AcDb2dVertex
 10
87.13012010674684
 20
413.2640306267539
 30
0.0
  0
VERTEX
  5
94
330
90
100
AcDbEntity
  8
0
 62
     0
100
AcDbVertex
100
AcDb2dVertex
 10
84.24044808197696
 20
410.374358601984
 30
0.0
  0
VERTEX
  5
95
330
90
100
AcDbEntity
  8
0
 62
     0
100
AcDbVertex
100
AcDb2dVertex
 10
81.35077605720709
 20
413.2640306267539
 30
0.0
  0
SEQEND
  5
96
330
90
100
AcDbEntity
  8
0
 62
     0
  0
LINE
  5
97
330
5F
100
AcDbEntity
  8
0
  6
CONTINUOUS
 62
     0
100
AcDbLine
 10
84.24044808197696
 20
416.1537026515238
 30
0.0
 11
84.24044808197696
 21
414.8111078189703
 31
0.0
  0
LINE
  5
98
330
5F
100
AcDbEntity
  8
0
  6
CONTINUOUS
 62
     0
100
AcDbLine
 10
84.24044808197696
 20
414.0006234634615
 30
0.0
 11
84.24044808197696
 21
412.6724445199737
 31
0.0
  0
LINE
  5
99
330
5F
100
AcDbEntity
  8
0
  6
CONTINUOUS
 62
     0
100
AcDbLine
 10
84.24044808197696
 20
411.7025375454722
 30
0.0
 11
84.24044808197696
 21
410.374358601984
 31
0.0
  0
LINE
  5
9A
330
5F
100
AcDbEntity
  8
0
  6
CONTINUOUS
 62
     0
100
AcDbLine
 10
87.13012010674684
 20
411.5924540288269
 30
0.0
 11
87.13012010674684
 21
414.9419269398944
 31
0.0
  0
LINE
  5
9B
330
5F
100
AcDbEntity
  8
0
  6
CONTINUOUS
 62
     0
100
AcDbLine
 10
87.90702291478111
 20
411.5924540288269
 30
0.0
 11
87.90702291478111
 21
414.9419269398944
 31
0.0
  0
CIRCLE
  5
9C
330
5F
100
AcDbEntity
  8
0
  6
CONTINUOUS
 62
     0
100
AcDbCircle
 10
138.6297257433085
 20
426.3016021989491
 30
0.0
 40
3.313303522594559
  0
LINE
  5
9D
330
5F
100
AcDbEntity
  8
0
  6
CONTINUOUS
 62
     0
100
AcDbLine
 10
141.0240971034137
 20
428.5917912790786
 30
0.0
 11
135.3164222207139
 21
426.3016021989489
 31
0.0
  0
LINE
  5
9E
330
5F
100
AcDbEntity
  8
0
  6
CONTINUOUS
 62
     0
100
AcDbLine
 10
135.3164222207139
 20
426.3016021989489
 30
0.0
 11
141.04320095483
 21
424.0315542619643
 31
0.0
  0
LINE
  5
9F
330
5F
100
AcDbEntity
  8
0
  6
CONTINUOUS
 62
     0
100
AcDbLine
 10
143.190403949547
 20
428.0840800969955
 30
0.0
 11
143.190403949547
 21
424.5191243009027
 31
0.0
  0
LINE
  5
A0
330
5F
100
AcDbEntity
  8
0
  6
CONTINUOUS
 62
     0
100
AcDbLine
 10
142.4135011415132
 20
428.0840800969955
 30
0.0
 11
142.4135011415132
 21
424.5191243009027
 31
0.0
  0
LINE
  5
A1
330
5F
100
AcDbEntity
  8
0
  6
CONTINUOUS
 62
     0
100
AcDbLine
 10
142.4135011415132
 20
426.3016021989491
 30
0.0
 11
141.943029265903
 21
426.3016021989491
 31
0.0
  0
LINE
  5
A2
330
5F
100
AcDbEntity
  8
0
  6
CONTINUOUS
 62
     0
100
AcDbLine
 10
134.0690475370701
 20
428.0840800969955
 30
0.0
 11
134.0690475370701
 21
424.5191243009027
 31
0.0
  0
LINE
  5
A3
330
5F
100
AcDbEntity
  8
0
  6
CONTINUOUS
 62
     0
100
AcDbLine
 10
134.8459503451039
 20
428.0840800969955
 30
0.0
 11
134.8459503451039
 21
424.5191243009027
 31
0.0
  0
LINE
  5
A4
330
5F
100
AcDbEntity
  8
0
  6
CONTINUOUS
 62
     0
100
AcDbLine
 10
134.8459503451039
 20
426.3016021989491
 30
0.0
 11
135.3164222207141
 21
426.3016021989491
 31
0.0
  0
LINE
  5
A5
330
5F
100
AcDbEntity
  8
0
  6
CONTINUOUS
 62
     0
100
AcDbLine
 10
138.6297257433085
 20
384.8746474180679
 30
0.0
 11
138.6297257433085
 21
386.0696181826482
 31
0.0
  0
LINE
  5
A6
330
5F
100
AcDbEntity
  8
0
  6
CONTINUOUS
 62
     0
100
AcDbLine
 10
138.6297257433085
 20
384.8746474180679
 30
0.0
 11
140.3296447686604
 21
385.4721328003581
 31
0.0
  0
LINE
  5
A7
330
5F
100
AcDbEntity
  8
0
  6
CONTINUOUS
 62
     0
100
AcDbLine
 10
138.6297257433085
 20
386.0696181826482
 30
0.0
 11
140.3296447686604
 21
385.4721328003581
 31
0.0
  0
LINE
  5
A8
330
5F
100
AcDbEntity
  8
0
  6
CONTINUOUS
 62
     0
100
AcDbLine
 10
84.26672088351198
 20
388.4332145814454
 30
0.0
 11
84.26672088351198
 21
387.1720518257097
 31
0.0
  0
LINE
  5
A9
330
5F
100
AcDbEntity
  8
0
  6
CONTINUOUS
 62
     0
100
AcDbLine
 10
83.29877235689774
 20
383.7722137750064
 30
0.0
 11
85.23466941012622
 21
383.7722137750064
 31
0.0
  0
LINE
  5
AA
330
5F
100
AcDbEntity
  8
0
  6
CONTINUOUS
 62
     0
100
AcDbLine
 10
83.29877235689774
 20
387.1720518257097
 30
0.0
 11
85.23466941012622
 21
383.7722137750064
 31
0.0
  0
LINE
  5
AB
330
5F
100
AcDbEntity
  8
0
  6
CONTINUOUS
 62
     0
100
AcDbLine
 10
85.23466941012622
 20
387.1720518257097
 30
0.0
 11
83.29877235689774
 21
383.7722137750064
 31
0.0
  0
LINE
  5
AC
330
5F
100
AcDbEntity
  8
0
  6
CONTINUOUS
 62
     0
100
AcDbLine
 10
83.29877235689774
 20
387.1720518257097
 30
0.0
 11
85.23466941012622
 21
387.1720518257097
 31
0.0
  0
LINE
  5
AD
330
5F
100
AcDbEntity
  8
0
  6
CONTINUOUS
 62
     0
100
AcDbLine
 10
190.7509989113056
 20
561.4204719394071
 30
0.0
 11
190.7509989113056
 21
554.2905603472215
 31
0.0
  0
LINE
  5
AE
330
5F
100
AcDbEntity
  8
0
  6
CONTINUOUS
 62
     0
100
AcDbLine
 10
178.2293905495188
 20
561.4204719394071
 30
0.0
 11
190.7509989113056
 21
554.2905603472215
 31
0.0
  0
LINE
  5
AF
330
5F
100
AcDbEntity
  8
0
  6
CONTINUOUS
 62
     0
100
AcDbLine
 10
178.2293905495188
 20
554.2905603472215
 30
0.0
 11
190.7509989113056
 21
561.4204719394071
 31
0.0
  0
LINE
  5
B0
330
5F
100
AcDbEntity
  8
0
  6
CONTINUOUS
 62
     0
100
AcDbLine
 10
178.2293905495188
 20
561.4204719394071
 30
0.0
 11
178.2293905495188
 21
554.2905603472215
 31
0.0
  0
LINE
  5
B1
330
5F
100
AcDbEntity
  8
0
  6
CONTINUOUS
 62
     0
100
AcDbLine
 10
192.3048045273732
 20
561.4204719394069
 30
0.0
 11
192.3048045273732
 21
554.2905603472212
 31
0.0
  0
LINE
  5
B2
330
5F
100
AcDbEntity
  8
0
  6
CONTINUOUS
 62
     0
100
AcDbLine
 10
176.6755849334508
 20
561.4204719394071
 30
0.0
 11
176.6755849334508
 21
554.2905603472215
 31
0.0
  0
LINE
  5
B3
330
5F
100
AcDbEntity
  8
0
  6
CONTINUOUS
 62
     0
100
AcDbLine
 10
190.7509989113061
 20
495.2844825422347
 30
0.0
 11
190.7509989113061
 21
488.1545709500491
 31
0.0
  0
LINE
  5
B4
330
5F
100
AcDbEntity
  8
0
  6
CONTINUOUS
 62
     0
100
AcDbLine
 10
178.2293905495193
 20
495.2844825422347
 30
0.0
 11
190.7509989113061
 21
488.1545709500491
 31
0.0
  0
LINE
  5
B5
330
5F
100
AcDbEntity
  8
0
  6
CONTINUOUS
 62
     0
100
AcDbLine
 10
178.2293905495193
 20
488.1545709500491
 30
0.0
 11
190.7509989113061
 21
495.2844825422347
 31
0.0
  0
LINE
  5
B6
330
5F
100
AcDbEntity
  8
0
  6
CONTINUOUS
 62
     0
100
AcDbLine
 10
178.2293905495193
 20
495.2844825422347
 30
0.0
 11
178.2293905495193
 21
488.1545709500491
 31
0.0
  0
LINE
  5
B7
330
5F
100
AcDbEntity
  8
0
  6
CONTINUOUS
 62
     0
100
AcDbLine
 10
192.3048045273737
 20
495.2844825422345
 30
0.0
 11
192.3048045273737
 21
488.1545709500489
 31
0.0
  0
LINE
  5
B8
330
5F
100
AcDbEntity
  8
0
  6
CONTINUOUS
 62
     0
100
AcDbLine
 10
176.6755849334512
 20
495.2844825422347
 30
0.0
 11
176.6755849334512
 21
488.1545709500491
 31
0.0
  0
LINE
  5
B9
330
5F
100
AcDbEntity
  8
0
  6
CONTINUOUS
 62
     0
100
AcDbLine
 10
253.2132801330227
 20
561.4204719394069
 30
0.0
 11
253.2132801330227
 21
554.2905603472212
 31
0.0
  0
LINE
  5
BA
330
5F
100
AcDbEntity
  8
0
  6
CONTINUOUS
 62
     0
100
AcDbLine
 10
254.7670857490903
 20
561.4204719394069
 30
0.0
 11
254.7670857490903
 21
554.2905603472212
 31
0.0
  0
LINE
  5
BB
330
5F
100
AcDbEntity
  8
0
  6
CONTINUOUS
 62
     0
100
AcDbLine
 10
251.0088301313616
 20
564.8894280697501
 30
0.0
 11
251.0088301313616
 21
545.5196090309156
 31
0.0
  0
LINE
  5
BC
330
5F
100
AcDbEntity
  8
0
  6
CONTINUOUS
 62
     0
100
AcDbLine
 10
251.0088301313616
 20
564.8894280697501
 30
0.0
 11
238.9897496239203
 21
564.8894280697501
 31
0.0
  0
LINE
  5
BD
330
5F
100
AcDbEntity
  8
0
  6
CONTINUOUS
 62
     0
100
AcDbLine
 10
238.9897496239203
 20
564.8894280697501
 30
0.0
 11
238.9897496239203
 21
545.5196090309156
 31
0.0
  0
LINE
  5
BE
330
5F
100
AcDbEntity
  8
0
  6
CONTINUOUS
 62
     0
100
AcDbLine
 10
251.0088301313616
 20
545.5196090309156
 30
0.0
 11
244.999289877641
 21
542.7466851956432
 31
0.0
  0
LINE
  5
BF
330
5F
100
AcDbEntity
  8
0
  6
CONTINUOUS
 62
     0
100
AcDbLine
 10
238.9897496239203
 20
545.5196090309156
 30
0.0
 11
244.999289877641
 21
542.7466851956432
 31
0.0
  0
LINE
  5
C0
330
5F
100
AcDbEntity
  8
0
  6
CONTINUOUS
 62
     0
100
AcDbLine
 10
253.2132801330227
 20
557.855516143314
 30
0.0
 11
251.1126230797932
 21
557.855516143314
 31
0.0
  0
LINE
  5
C1
330
5F
100
AcDbEntity
  8
0
  6
CONTINUOUS
 62
     0
100
AcDbLine
 10
236.7852996222592
 20
561.4204719394069
 30
0.0
 11
236.7852996222592
 21
554.2905603472212
 31
0.0
  0
LINE
  5
C2
330
5F
100
AcDbEntity
  8
0
  6
CONTINUOUS
 62
     0
100
AcDbLine
 10
236.7852996222592
 20
557.855516143314
 30
0.0
 11
238.8859566754885
 21
557.855516143314
 31
0.0
  0
LINE
  5
C3
330
5F
100
AcDbEntity
  8
0
  6
CONTINUOUS
 62
     0
100
AcDbLine
 10
235.2314940061916
 20
561.4204719394071
 30
0.0
 11
235.2314940061916
 21
554.2905603472215
 31
0.0
  0
LINE
  5
C4
330
5F
100
AcDbEntity
  8
0
  6
CONTINUOUS
 62
     0
100
AcDbLine
 10
244.999289877641
 20
542.7466851956432
 30
0.0
 11
244.999289877641
 21
540.2243596841716
 31
0.0
  0
LINE
  5
C5
330
5F
100
AcDbEntity
  8
0
  6
CONTINUOUS
 62
     0
100
AcDbLine
 10
246.9351869308697
 20
533.4246835827647
 30
0.0
 11
243.0633928244123
 21
533.4246835827647
 31
0.0
  0
LINE
  5
C6
330
5F
100
AcDbEntity
  8
0
  6
CONTINUOUS
 62
     0
100
AcDbLine
 10
246.9351869308697
 20
540.2243596841716
 30
0.0
 11
243.0633928244123
 21
533.4246835827647
 31
0.0
  0
LINE
  5
C7
330
5F
100
AcDbEntity
  8
0
  6
CONTINUOUS
 62
     0
100
AcDbLine
 10
243.0633928244123
 20
540.2243596841716
 30
0.0
 11
246.9351869308697
 21
533.4246835827647
 31
0.0
  0
LINE
  5
C8
330
5F
100
AcDbEntity
  8
0
  6
CONTINUOUS
 62
     0
100
AcDbLine
 10
246.9351869308697
 20
540.2243596841716
 30
0.0
 11
243.0633928244123
 21
540.2243596841716
 31
0.0
  0
LINE
  5
C9
330
5F
100
AcDbEntity
  8
0
  6
CONTINUOUS
 62
     0
100
AcDbLine
 10
244.9992898776414
 20
564.8894280697499
 30
0.0
 11
244.9992898776414
 21
567.4117535812214
 31
0.0
  0
LINE
  5
CA
330
5F
100
AcDbEntity
  8
0
  6
CONTINUOUS
 62
     0
100
AcDbLine
 10
243.0633928244127
 20
574.2114296826284
 30
0.0
 11
246.9351869308701
 21
574.2114296826284
 31
0.0
  0
LINE
  5
CB
330
5F
100
AcDbEntity
  8
0
  6
CONTINUOUS
 62
     0
100
AcDbLine
 10
243.0633928244127
 20
567.4117535812214
 30
0.0
 11
246.9351869308701
 21
574.2114296826284
 31
0.0
  0
LINE
  5
CC
330
5F
100
AcDbEntity
  8
0
  6
CONTINUOUS
 62
     0
100
AcDbLine
 10
246.9351869308701
 20
567.4117535812214
 30
0.0
 11
243.0633928244127
 21
574.2114296826284
 31
0.0
  0
LINE
  5
CD
330
5F
100
AcDbEntity
  8
0
  6
CONTINUOUS
 62
     0
100
AcDbLine
 10
243.0633928244127
 20
567.4117535812214
 30
0.0
 11
246.9351869308701
 21
567.4117535812214
 31
0.0
  0
LINE
  5
CE
330
5F
100
AcDbEntity
  8
0
  6
CONTINUOUS
 62
     0
100
AcDbLine
 10
227.1341162374843
 20
575.7417126139941
 30
0.0
 11
227.1341162374843
 21
557.8555161433143
 31
0.0
  0
CIRCLE
  5
CF
330
5F
100
AcDbEntity
  8
0
  6
CONTINUOUS
 62
     0
100
AcDbCircle
 10
227.1341162374843
 20
580.6365142445551
 30
0.0
 40
4.8948016305609
  0
LINE
  5
D0
330
5F
100
AcDbEntity
  8
0
  6
CONTINUOUS
 62
     0
100
AcDbLine
 10
264.4896909623081
 20
575.7417126139941
 30
0.0
 11
264.4896909623081
 21
573.2193871025228
 31
0.0
  0
LINE
  5
D1
330
5F
100
AcDbEntity
  8
0
  6
CONTINUOUS
 62
     0
100
AcDbLine
 10
264.4896909623081
 20
566.4197110011158
 30
0.0
 11
264.4896909623081
 21
557.8555161433143
 31
0.0
  0
CIRCLE
  5
D2
330
5F
100
AcDbEntity
  8
0
  6
CONTINUOUS
 62
     0
100
AcDbCircle
 10
264.4896909623081
 20
580.6365142445551
 30
0.0
 40
4.894801630560901
  0
LINE
  5
D3
330
5F
100
AcDbEntity
  8
0
  6
CONTINUOUS
 62
     0
100
AcDbLine
 10
261.0898529116049
 20
571.755446105048
 30
0.0
 11
261.0898529116049
 21
567.8836519985906
 31
0.0
  0
LINE
  5
D4
330
5F
100
AcDbEntity
  8
0
  6
CONTINUOUS
 62
     0
100
AcDbLine
 10
266.4255880155371
 20
566.4197110011158
 30
0.0
 11
262.5537939090792
 21
566.4197110011158
 31
0.0
  0
LINE
  5
D5
330
5F
100
AcDbEntity
  8
0
  6
CONTINUOUS
 62
     0
100
AcDbLine
 10
266.4255880155371
 20
573.2193871025228
 30
0.0
 11
262.5537939090792
 21
566.4197110011158
 31
0.0
  0
LINE
  5
D6
330
5F
100
AcDbEntity
  8
0
  6
CONTINUOUS
 62
     0
100
AcDbLine
 10
262.5537939090792
 20
573.2193871025228
 30
0.0
 11
266.4255880155371
 21
566.4197110011158
 31
0.0
  0
LINE
  5
D7
330
5F
100
AcDbEntity
  8
0
  6
CONTINUOUS
 62
     0
100
AcDbLine
 10
266.4255880155371
 20
573.2193871025228
 30
0.0
 11
262.5537939090792
 21
573.2193871025228
 31
0.0
  0
LINE
  5
D8
330
5F
100
AcDbEntity
  8
0
  6
CONTINUOUS
 62
     0
100
AcDbLine
 10
261.0898529116049
 20
571.755446105048
 30
0.0
 11
264.4896909623081
 21
569.8195490518193
 31
0.0
  0
LINE
  5
D9
330
5F
100
AcDbEntity
  8
0
  6
CONTINUOUS
 62
     0
100
AcDbLine
 10
264.4896909623081
 20
569.8195490518193
 30
0.0
 11
261.0898529116049
 21
567.8836519985906
 31
0.0
  0
LINE
  5
DA
330
5F
100
AcDbEntity
  8
0
  6
CONTINUOUS
 62
     0
100
AcDbLine
 10
213.3445129763628
 20
575.7417126139941
 30
0.0
 11
213.3445129763628
 21
573.2193871025228
 31
0.0
  0
LINE
  5
DB
330
5F
100
AcDbEntity
  8
0
  6
CONTINUOUS
 62
     0
100
AcDbLine
 10
213.3445129763628
 20
566.4197110011158
 30
0.0
 11
213.3445129763628
 21
557.8555161433143
 31
0.0
  0
CIRCLE
  5
DC
330
5F
100
AcDbEntity
  8
0
  6
CONTINUOUS
 62
     0
100
AcDbCircle
 10
213.3445129763628
 20
580.6365142445551
 30
0.0
 40
4.894801630560901
  0
LINE
  5
DD
330
5F
100
AcDbEntity
  8
0
  6
CONTINUOUS
 62
     0
100
AcDbLine
 10
209.9446749256595
 20
571.755446105048
 30
0.0
 11
209.9446749256595
 21
567.8836519985906
 31
0.0
  0
LINE
  5
DE
330
5F
100
AcDbEntity
  8
0
  6
CONTINUOUS
 62
     0
100
AcDbLine
 10
215.2804100295917
 20
566.4197110011158
 30
0.0
 11
211.4086159231339
 21
566.4197110011158
 31
0.0
  0
LINE
  5
DF
330
5F
100
AcDbEntity
  8
0
  6
CONTINUOUS
 62
     0
100
AcDbLine
 10
215.2804100295917
 20
573.2193871025228
 30
0.0
 11
211.4086159231339
 21
566.4197110011158
 31
0.0
  0
LINE
  5
E0
330
5F
100
AcDbEntity
  8
0
  6
CONTINUOUS
 62
     0
100
AcDbLine
 10
211.4086159231339
 20
573.2193871025228
 30
0.0
 11
215.2804100295917
 21
566.4197110011158
 31
0.0
  0
LINE
  5
E1
330
5F
100
AcDbEntity
  8
0
  6
CONTINUOUS
 62
     0
100
AcDbLine
 10
215.2804100295917
 20
573.2193871025228
 30
0.0
 11
211.4086159231339
 21
573.2193871025228
 31
0.0
  0
LINE
  5
E2
330
5F
100
AcDbEntity
  8
0
  6
CONTINUOUS
 62
     0
100
AcDbLine
 10
209.9446749256595
 20
571.755446105048
 30
0.0
 11
213.3445129763628
 21
569.8195490518193
 31
0.0
  0
LINE
  5
E3
330
5F
100
AcDbEntity
  8
0
  6
CONTINUOUS
 62
     0
100
AcDbLine
 10
213.3445129763628
 20
569.8195490518193
 30
0.0
 11
209.9446749256595
 21
567.8836519985906
 31
0.0
  0
LINE
  5
E4
330
5F
100
AcDbEntity
  8
0
  6
CONTINUOUS
 62
     0
100
AcDbLine
 10
213.3445129763628
 20
574.4805498582583
 30
0.0
 11
199.5549097152408
 21
574.4805498582583
 31
0.0
  0
LINE
  5
E5
330
5F
100
AcDbEntity
  8
0
  6
CONTINUOUS
 62
     0
100
AcDbLine
 10
213.3445129763628
 20
574.4805498582583
 30
0.0
 11
213.3445129763628
 21
575.7417126139941
 31
0.0
  0
LINE
  5
E6
330
5F
100
AcDbEntity
  8
0
  6
CONTINUOUS
 62
     0
100
AcDbLine
 10
199.5549097152408
 20
574.4805498582583
 30
0.0
 11
199.5549097152408
 21
575.7417126139941
 31
0.0
  0
CIRCLE
  5
E7
330
5F
100
AcDbEntity
  8
0
  6
CONTINUOUS
 62
     0
100
AcDbCircle
 10
199.5549097152408
 20
580.6365142445551
 30
0.0
 40
4.894801630560901
  0
LINE
  5
E8
330
5F
100
AcDbEntity
  8
0
  6
CONTINUOUS
 62
     0
100
AcDbLine
 10
289.9877989244411
 20
554.5060432322467
 30
0.0
 11
289.9877989244411
 21
561.2049890543818
 31
0.0
  0
LINE
  5
E9
330
5F
100
AcDbEntity
  8
0
  6
CONTINUOUS
 62
     0
100
AcDbLine
 10
288.4339933083735
 20
554.5060432322467
 30
0.0
 11
288.4339933083735
 21
561.2049890543818
 31
0.0
  0
POLYLINE
  5
EA
330
5F
100
AcDbEntity
  8
0
 62
     0
100
AcDb2dPolyline
 66
     1
 10
0.0
 20
0.0
 30
0.0
 70
   128
  0
VERTEX
  5
EB
330
EA
100
AcDbEntity
  8
0
 62
     0
100
AcDbVertex
100
AcDb2dVertex
 10
288.4339933083735
 20
557.8491964281008
 30
0.0
  0
VERTEX
  5
EC
330
EA
100
AcDbEntity
  8
0
 62
     0
100
AcDbVertex
100
AcDb2dVertex
 10
282.6546492588337
 20
563.6285404776405
 30
0.0
  0
VERTEX
  5
ED
330
EA
100
AcDbEntity
  8
0
 62
     0
100
AcDbVertex
100
AcDb2dVertex
 10
276.875305209294
 20
557.8491964281008
 30
0.0
  0
VERTEX
  5
EE
330
EA
100
AcDbEntity
  8
0
 62
     0
100
AcDbVertex
100
AcDb2dVertex
 10
282.6546492588337
 20
552.069852378561
 30
0.0
  0
VERTEX
  5
EF
330
EA
100
AcDbEntity
  8
0
 62
     0
100
AcDbVertex
100
AcDb2dVertex
 10
288.4339933083735
 20
557.8491964281008
 30
0.0
  0
SEQEND
  5
F0
330
EA
100
AcDbEntity
  8
0
 62
     0
  0
LINE
  5
F1
330
5F
100
AcDbEntity
  8
0
  6
CONTINUOUS
 62
     0
100
AcDbLine
 10
282.6546492588337
 20
563.6285404776405
 30
0.0
 11
282.6546492588337
 21
560.9433508125336
 31
0.0
  0
LINE
  5
F2
330
5F
100
AcDbEntity
  8
0
  6
CONTINUOUS
 62
     0
100
AcDbLine
 10
282.6546492588337
 20
559.3223821015159
 30
0.0
 11
282.6546492588337
 21
556.6660242145405
 31
0.0
  0
LINE
  5
F3
330
5F
100
AcDbEntity
  8
0
  6
CONTINUOUS
 62
     0
100
AcDbLine
 10
282.6546492588337
 20
554.7262102655378
 30
0.0
 11
282.6546492588337
 21
552.069852378561
 31
0.0
  0
LINE
  5
F4
330
5F
100
AcDbEntity
  8
0
  6
CONTINUOUS
 62
     0
100
AcDbLine
 10
276.875305209294
 20
554.5060432322467
 30
0.0
 11
276.875305209294
 21
561.2049890543818
 31
0.0
  0
LINE
  5
F5
330
5F
100
AcDbEntity
  8
0
  6
CONTINUOUS
 62
     0
100
AcDbLine
 10
275.3214995932254
 20
554.5060432322467
 30
0.0
 11
275.3214995932254
 21
561.2049890543818
 31
0.0
  0
LINE
  5
F6
330
5F
100
AcDbEntity
  8
0
  6
CONTINUOUS
 62
     0
100
AcDbLine
 10
298.2187125542283
 20
575.7417126139941
 30
0.0
 11
298.2187125542283
 21
573.2193871025228
 31
0.0
  0
LINE
  5
F7
330
5F
100
AcDbEntity
  8
0
  6
CONTINUOUS
 62
     0
100
AcDbLine
 10
298.2187125542283
 20
566.4197110011158
 30
0.0
 11
298.2187125542283
 21
557.8555161433143
 31
0.0
  0
CIRCLE
  5
F8
330
5F
100
AcDbEntity
  8
0
  6
CONTINUOUS
 62
     0
100
AcDbCircle
 10
298.2187125542283
 20
580.6365142445551
 30
0.0
 40
4.894801630560901
  0
LINE
  5
F9
330
5F
100
AcDbEntity
  8
0
  6
CONTINUOUS
 62
     0
100
AcDbLine
 10
294.8188745035251
 20
571.755446105048
 30
0.0
 11
294.8188745035251
 21
567.8836519985906
 31
0.0
  0
LINE
  5
FA
330
5F
100
AcDbEntity
  8
0
  6
CONTINUOUS
 62
     0
100
AcDbLine
 10
300.1546096074572
 20
566.4197110011158
 30
0.0
 11
296.2828155009994
 21
566.4197110011158
 31
0.0
  0
LINE
  5
FB
330
5F
100
AcDbEntity
  8
0
  6
CONTINUOUS
 62
     0
100
AcDbLine
 10
300.1546096074572
 20
573.2193871025228
 30
0.0
 11
296.2828155009994
 21
566.4197110011158
 31
0.0
  0
LINE
  5
FC
330
5F
100
AcDbEntity
  8
0
  6
CONTINUOUS
 62
     0
100
AcDbLine
 10
296.2828155009994
 20
573.2193871025228
 30
0.0
 11
300.1546096074572
 21
566.4197110011158
 31
0.0
  0
LINE
  5
FD
330
5F
100
AcDbEntity
  8
0
  6
CONTINUOUS
 62
     0
100
AcDbLine
 10
300.1546096074572
 20
573.2193871025228
 30
0.0
 11
296.2828155009994
 21
573.2193871025228
 31
0.0
  0
LINE
  5
FE
330
5F
100
AcDbEntity
  8
0
  6
CONTINUOUS
 62
     0
100
AcDbLine
 10
294.8188745035251
 20
571.755446105048
 30
0.0
 11
298.2187125542283
 21
569.8195490518193
 31
0.0
  0
LINE
  5
FF
330
5F
100
AcDbEntity
  8
0
  6
CONTINUOUS
 62
     0
100
AcDbLine
 10
298.2187125542283
 20
569.8195490518193
 30
0.0
 11
294.8188745035251
 21
567.8836519985906
 31
0.0
  0
CIRCLE
  5
100
330
5F
100
AcDbEntity
  8
0
  6
CONTINUOUS
 62
     0
100
AcDbCircle
 10
330.2999694286431
 20
558.7101315771077
 30
0.0
 40
6.626607045189117
  0
LINE
  5
101
330
5F
100
AcDbEntity
  8
0
  6
CONTINUOUS
 62
     0
100
AcDbLine
 10
335.0887121488535
 20
554.1297534168488
 30
0.0
 11
323.6733623834538
 21
558.7101315771082
 31
0.0
  0
LINE
  5
102
330
5F
100
AcDbEntity
  8
0
  6
CONTINUOUS
 62
     0
100
AcDbLine
 10
323.6733623834538
 20
558.7101315771082
 30
0.0
 11
335.126919851686
 21
563.2502274510774
 31
0.0
  0
LINE
  5
103
330
5F
100
AcDbEntity
  8
0
  6
CONTINUOUS
 62
     0
100
AcDbLine
 10
339.4213258411197
 20
555.1451757810149
 30
0.0
 11
339.4213258411197
 21
562.2750873732006
 31
0.0
  0
LINE
  5
104
330
5F
100
AcDbEntity
  8
0
  6
CONTINUOUS
 62
     0
100
AcDbLine
 10
337.8675202250521
 20
555.1451757810149
 30
0.0
 11
337.8675202250521
 21
562.2750873732006
 31
0.0
  0
LINE
  5
105
330
5F
100
AcDbEntity
  8
0
  6
CONTINUOUS
 62
     0
100
AcDbLine
 10
337.8675202250521
 20
558.7101315771077
 30
0.0
 11
336.9265764738321
 21
558.7101315771077
 31
0.0
  0
LINE
  5
106
330
5F
100
AcDbEntity
  8
0
  6
CONTINUOUS
 62
     0
100
AcDbLine
 10
321.1786130161664
 20
555.1451757810149
 30
0.0
 11
321.1786130161664
 21
562.2750873732006
 31
0.0
  0
LINE
  5
107
330
5F
100
AcDbEntity
  8
0
  6
CONTINUOUS
 62
     0
100
AcDbLine
 10
322.732418632234
 20
555.1451757810149
 30
0.0
 11
322.732418632234
 21
562.2750873732006
 31
0.0
  0
LINE
  5
108
330
5F
100
AcDbEntity
  8
0
  6
CONTINUOUS
 62
     0
100
AcDbLine
 10
322.732418632234
 20
558.7101315771077
 30
0.0
 11
323.673362383454
 21
558.7101315771077
 31
0.0
  0
LINE
  5
109
330
5F
100
AcDbEntity
  8
0
  6
CONTINUOUS
 62
   161
100
AcDbLine
 10
308.0051807434135
 20
556.6605453787337
 30
0.0
 11
308.0051807434135
 21
559.0504869078944
 31
0.0
  0
LINE
  5
10A
330
5F
100
AcDbEntity
  8
0
  6
CONTINUOUS
 62
   161
100
AcDbLine
 10
308.0051807434135
 20
559.0504869078944
 30
0.0
 11
311.4050187941172
 21
557.855516143314
 31
0.0
  0
LINE
  5
10B
330
5F
100
AcDbEntity
  8
0
  6
CONTINUOUS
 62
   161
100
AcDbLine
 10
311.4050187941172
 20
557.855516143314
 30
0.0
 11
308.0051807434135
 21
556.6605453787337
 31
0.0
  0
LINE
  5
10C
330
5F
100
AcDbEntity
  8
0
  6
CONTINUOUS
 62
     0
100
AcDbLine
 10
308.0051807434135
 20
559.0504869078944
 30
0.0
 11
308.0051807434135
 21
556.6605453787337
 31
0.0
  0
LINE
  5
10D
330
5F
100
AcDbEntity
  8
0
  6
CONTINUOUS
 62
     0
100
AcDbLine
 10
308.0051807434135
 20
559.0504869078944
 30
0.0
 11
311.4050187941172
 21
557.855516143314
 31
0.0
  0
LINE
  5
10E
330
5F
100
AcDbEntity
  8
0
  6
CONTINUOUS
 62
     0
100
AcDbLine
 10
308.0051807434135
 20
556.6605453787337
 30
0.0
 11
311.4050187941172
 21
557.855516143314
 31
0.0
  0
LINE
  5
10F
330
5F
100
AcDbEntity
  8
0
  6
CONTINUOUS
 62
   161
100
AcDbLine
 10
352.5947581138722
 20
556.6605453787337
 30
0.0
 11
352.5947581138722
 21
559.0504869078944
 31
0.0
  0
LINE
  5
110
330
5F
100
AcDbEntity
  8
0
  6
CONTINUOUS
 62
   161
100
AcDbLine
 10
352.5947581138722
 20
559.0504869078944
 30
0.0
 11
349.1949200631685
 21
557.855516143314
 31
0.0
  0
LINE
  5
111
330
5F
100
AcDbEntity
  8
0
  6
CONTINUOUS
 62
   161
100
AcDbLine
 10
349.1949200631685
 20
557.855516143314
 30
0.0
 11
352.5947581138722
 21
556.6605453787337
 31
0.0
  0
LINE
  5
112
330
5F
100
AcDbEntity
  8
0
  6
CONTINUOUS
 62
     0
100
AcDbLine
 10
352.5947581138722
 20
559.0504869078944
 30
0.0
 11
352.5947581138722
 21
556.6605453787337
 31
0.0
  0
LINE
  5
113
330
5F
100
AcDbEntity
  8
0
  6
CONTINUOUS
 62
     0
100
AcDbLine
 10
352.5947581138722
 20
559.0504869078944
 30
0.0
 11
349.1949200631685
 21
557.855516143314
 31
0.0
  0
LINE
  5
114
330
5F
100
AcDbEntity
  8
0
  6
CONTINUOUS
 62
     0
100
AcDbLine
 10
352.5947581138722
 20
556.6605453787337
 30
0.0
 11
349.1949200631685
 21
557.855516143314
 31
0.0
  0
LINE
  5
115
330
5F
100
AcDbEntity
  8
0
  6
CONTINUOUS
 62
     0
100
AcDbLine
 10
361.2544146892639
 20
575.7417126139941
 30
0.0
 11
361.2544146892639
 21
573.2193871025228
 31
0.0
  0
LINE
  5
116
330
5F
100
AcDbEntity
  8
0
  6
CONTINUOUS
 62
     0
100
AcDbLine
 10
361.2544146892639
 20
566.4197110011158
 30
0.0
 11
361.2544146892639
 21
557.8555161433143
 31
0.0
  0
LINE
  5
117
330
5F
100
AcDbEntity
  8
0
  6
CONTINUOUS
 62
     0
100
AcDbLine
 10
357.8545766385606
 20
571.755446105048
 30
0.0
 11
357.8545766385606
 21
567.8836519985906
 31
0.0
  0
LINE
  5
118
330
5F
100
AcDbEntity
  8
0
  6
CONTINUOUS
 62
     0
100
AcDbLine
 10
363.1903117424928
 20
566.4197110011158
 30
0.0
 11
359.3185176360349
 21
566.4197110011158
 31
0.0
  0
LINE
  5
119
330
5F
100
AcDbEntity
  8
0
  6
CONTINUOUS
 62
     0
100
AcDbLine
 10
363.1903117424928
 20
573.2193871025228
 30
0.0
 11
359.3185176360349
 21
566.4197110011158
 31
0.0
  0
LINE
  5
11A
330
5F
100
AcDbEntity
  8
0
  6
CONTINUOUS
 62
     0
100
AcDbLine
 10
359.3185176360349
 20
573.2193871025228
 30
0.0
 11
363.1903117424928
 21
566.4197110011158
 31
0.0
  0
LINE
  5
11B
330
5F
100
AcDbEntity
  8
0
  6
CONTINUOUS
 62
     0
100
AcDbLine
 10
363.1903117424928
 20
573.2193871025228
 30
0.0
 11
359.3185176360349
 21
573.2193871025228
 31
0.0
  0
LINE
  5
11C
330
5F
100
AcDbEntity
  8
0
  6
CONTINUOUS
 62
     0
100
AcDbLine
 10
357.8545766385606
 20
571.755446105048
 30
0.0
 11
361.2544146892639
 21
569.8195490518193
 31
0.0
  0
LINE
  5
11D
330
5F
100
AcDbEntity
  8
0
  6
CONTINUOUS
 62
     0
100
AcDbLine
 10
361.2544146892639
 20
569.8195490518193
 30
0.0
 11
357.8545766385606
 21
567.8836519985906
 31
0.0
  0
CIRCLE
  5
11E
330
5F
100
AcDbEntity
  8
0
  6
CONTINUOUS
 62
     0
100
AcDbCircle
 10
361.2544146892639
 20
580.6365142445551
 30
0.0
 40
4.8948016305609
  0
LINE
  5
11F
330
5F
100
AcDbEntity
  8
0
  6
CONTINUOUS
 62
     0
100
AcDbLine
 10
377.2691264788615
 20
575.7417126139941
 30
0.0
 11
377.2691264788615
 21
573.2193871025228
 31
0.0
  0
LINE
  5
120
330
5F
100
AcDbEntity
  8
0
  6
CONTINUOUS
 62
     0
100
AcDbLine
 10
377.2691264788615
 20
566.4197110011158
 30
0.0
 11
377.2691264788615
 21
557.8555161433143
 31
0.0
  0
CIRCLE
  5
121
330
5F
100
AcDbEntity
  8
0
  6
CONTINUOUS
 62
     0
100
AcDbCircle
 10
377.2691264788615
 20
580.6365142445551
 30
0.0
 40
4.894801630560901
  0
LINE
  5
122
330
5F
100
AcDbEntity
  8
0
  6
CONTINUOUS
 62
     0
100
AcDbLine
 10
373.8692884281583
 20
571.755446105048
 30
0.0
 11
373.8692884281583
 21
567.8836519985906
 31
0.0
  0
LINE
  5
123
330
5F
100
AcDbEntity
  8
0
  6
CONTINUOUS
 62
     0
100
AcDbLine
 10
379.2050235320904
 20
566.4197110011158
 30
0.0
 11
375.3332294256326
 21
566.4197110011158
 31
0.0
  0
LINE
  5
124
330
5F
100
AcDbEntity
  8
0
  6
CONTINUOUS
 62
     0
100
AcDbLine
 10
379.2050235320904
 20
573.2193871025228
 30
0.0
 11
375.3332294256326
 21
566.4197110011158
 31
0.0
  0
LINE
  5
125
330
5F
100
AcDbEntity
  8
0
  6
CONTINUOUS
 62
     0
100
AcDbLine
 10
375.3332294256326
 20
573.2193871025228
 30
0.0
 11
379.2050235320904
 21
566.4197110011158
 31
0.0
  0
LINE
  5
126
330
5F
100
AcDbEntity
  8
0
  6
CONTINUOUS
 62
     0
100
AcDbLine
 10
379.2050235320904
 20
573.2193871025228
 30
0.0
 11
375.3332294256326
 21
573.2193871025228
 31
0.0
  0
LINE
  5
127
330
5F
100
AcDbEntity
  8
0
  6
CONTINUOUS
 62
     0
100
AcDbLine
 10
373.8692884281583
 20
571.755446105048
 30
0.0
 11
377.2691264788615
 21
569.8195490518193
 31
0.0
  0
LINE
  5
128
330
5F
100
AcDbEntity
  8
0
  6
CONTINUOUS
 62
     0
100
AcDbLine
 10
377.2691264788615
 20
569.8195490518193
 30
0.0
 11
373.8692884281583
 21
567.8836519985906
 31
0.0
  0
LINE
  5
129
330
5F
100
AcDbEntity
  8
0
  6
CONTINUOUS
 62
     0
100
AcDbLine
 10
369.8464859393576
 20
557.8555161433143
 30
0.0
 11
369.8464859393576
 21
555.3331906318427
 31
0.0
  0
LINE
  5
12A
330
5F
100
AcDbEntity
  8
0
  6
CONTINUOUS
 62
     0
100
AcDbLine
 10
371.7823829925863
 20
548.5335145304358
 30
0.0
 11
367.9105888861289
 21
548.5335145304358
 31
0.0
  0
LINE
  5
12B
330
5F
100
AcDbEntity
  8
0
  6
CONTINUOUS
 62
     0
100
AcDbLine
 10
371.7823829925863
 20
555.3331906318427
 30
0.0
 11
367.9105888861289
 21
548.5335145304358
 31
0.0
  0
LINE
  5
12C
330
5F
100
AcDbEntity
  8
0
  6
CONTINUOUS
 62
     0
100
AcDbLine
 10
367.9105888861289
 20
555.3331906318427
 30
0.0
 11
371.7823829925863
 21
548.5335145304358
 31
0.0
  0
LINE
  5
12D
330
5F
100
AcDbEntity
  8
0
  6
CONTINUOUS
 62
     0
100
AcDbLine
 10
371.7823829925863
 20
555.3331906318427
 30
0.0
 11
367.9105888861289
 21
555.3331906318427
 31
0.0
  0
LINE
  5
12E
330
5F
100
AcDbEntity
  8
0
  6
CONTINUOUS
 62
     0
100
AcDbLine
 10
166.7727204758818
 20
575.7417126139941
 30
0.0
 11
166.7727204758818
 21
573.2193871025228
 31
0.0
  0
LINE
  5
12F
330
5F
100
AcDbEntity
  8
0
  6
CONTINUOUS
 62
     0
100
AcDbLine
 10
166.7727204758818
 20
566.4197110011158
 30
0.0
 11
166.7727204758818
 21
557.8555161433143
 31
0.0
  0
CIRCLE
  5
130
330
5F
100
AcDbEntity
  8
0
  6
CONTINUOUS
 62
     0
100
AcDbCircle
 10
166.7727204758818
 20
580.6365142445551
 30
0.0
 40
4.894801630560901
  0
LINE
  5
131
330
5F
100
AcDbEntity
  8
0
  6
CONTINUOUS
 62
     0
100
AcDbLine
 10
163.3728824251785
 20
571.755446105048
 30
0.0
 11
163.3728824251785
 21
567.8836519985906
 31
0.0
  0
LINE
  5
132
330
5F
100
AcDbEntity
  8
0
  6
CONTINUOUS
 62
     0
100
AcDbLine
 10
168.7086175291107
 20
566.4197110011158
 30
0.0
 11
164.8368234226529
 21
566.4197110011158
 31
0.0
  0
LINE
  5
133
330
5F
100
AcDbEntity
  8
0
  6
CONTINUOUS
 62
     0
100
AcDbLine
 10
168.7086175291107
 20
573.2193871025228
 30
0.0
 11
164.8368234226529
 21
566.4197110011158
 31
0.0
  0
LINE
  5
134
330
5F
100
AcDbEntity
  8
0
  6
CONTINUOUS
 62
     0
100
AcDbLine
 10
164.8368234226529
 20
573.2193871025228
 30
0.0
 11
168.7086175291107
 21
566.4197110011158
 31
0.0
  0
LINE
  5
135
330
5F
100
AcDbEntity
  8
0
  6
CONTINUOUS
 62
     0
100
AcDbLine
 10
168.7086175291107
 20
573.2193871025228
 30
0.0
 11
164.8368234226529
 21
573.2193871025228
 31
0.0
  0
LINE
  5
136
330
5F
100
AcDbEntity
  8
0
  6
CONTINUOUS
 62
     0
100
AcDbLine
 10
163.3728824251785
 20
571.755446105048
 30
0.0
 11
166.7727204758818
 21
569.8195490518193
 31
0.0
  0
LINE
  5
137
330
5F
100
AcDbEntity
  8
0
  6
CONTINUOUS
 62
     0
100
AcDbLine
 10
166.7727204758818
 20
569.8195490518193
 30
0.0
 11
163.3728824251785
 21
567.8836519985906
 31
0.0
  0
LINE
  5
138
330
5F
100
AcDbEntity
  8
0
  6
CONTINUOUS
 62
     0
100
AcDbLine
 10
167.628812395668
 20
509.6057232168215
 30
0.0
 11
167.628812395668
 21
507.0833977053502
 31
0.0
  0
LINE
  5
139
330
5F
100
AcDbEntity
  8
0
  6
CONTINUOUS
 62
     0
100
AcDbLine
 10
167.628812395668
 20
500.2837216039433
 30
0.0
 11
167.628812395668
 21
491.7195267461417
 31
0.0
  0
CIRCLE
  5
13A
330
5F
100
AcDbEntity
  8
0
  6
CONTINUOUS
 62
     0
100
AcDbCircle
 10
167.628812395668
 20
514.5005248473825
 30
0.0
 40
4.894801630560901
  0
LINE
  5
13B
330
5F
100
AcDbEntity
  8
0
  6
CONTINUOUS
 62
     0
100
AcDbLine
 10
164.2289743449645
 20
505.6194567078754
 30
0.0
 11
164.2289743449645
 21
501.747662601418
 31
0.0
  0
LINE
  5
13C
330
5F
100
AcDbEntity
  8
0
  6
CONTINUOUS
 62
     0
100
AcDbLine
 10
169.5647094488967
 20
500.2837216039433
 30
0.0
 11
165.6929153424393
 21
500.2837216039433
 31
0.0
  0
LINE
  5
13D
330
5F
100
AcDbEntity
  8
0
  6
CONTINUOUS
 62
     0
100
AcDbLine
 10
169.5647094488967
 20
507.0833977053502
 30
0.0
 11
165.6929153424393
 21
500.2837216039433
 31
0.0
  0
LINE
  5
13E
330
5F
100
AcDbEntity
  8
0
  6
CONTINUOUS
 62
     0
100
AcDbLine
 10
165.6929153424393
 20
507.0833977053502
 30
0.0
 11
169.5647094488967
 21
500.2837216039433
 31
0.0
  0
LINE
  5
13F
330
5F
100
AcDbEntity
  8
0
  6
CONTINUOUS
 62
     0
100
AcDbLine
 10
169.5647094488967
 20
507.0833977053502
 30
0.0
 11
165.6929153424393
 21
507.0833977053502
 31
0.0
  0
LINE
  5
140
330
5F
100
AcDbEntity
  8
0
  6
CONTINUOUS
 62
     0
100
AcDbLine
 10
164.2289743449645
 20
505.6194567078754
 30
0.0
 11
167.628812395668
 21
503.6835596546467
 31
0.0
  0
LINE
  5
141
330
5F
100
AcDbEntity
  8
0
  6
CONTINUOUS
 62
     0
100
AcDbLine
 10
167.628812395668
 20
503.6835596546467
 30
0.0
 11
164.2289743449645
 21
501.747662601418
 31
0.0
  0
LINE
  5
142
330
5F
100
AcDbEntity
  8
0
  6
CONTINUOUS
 62
     0
100
AcDbLine
 10
203.1562435257807
 20
509.6057232168215
 30
0.0
 11
203.1562435257807
 21
507.0833977053502
 31
0.0
  0
LINE
  5
143
330
5F
100
AcDbEntity
  8
0
  6
CONTINUOUS
 62
     0
100
AcDbLine
 10
203.1562435257807
 20
500.2837216039433
 30
0.0
 11
203.1562435257807
 21
491.7195267461417
 31
0.0
  0
CIRCLE
  5
144
330
5F
100
AcDbEntity
  8
0
  6
CONTINUOUS
 62
     0
100
AcDbCircle
 10
203.1562435257807
 20
514.5005248473825
 30
0.0
 40
4.894801630560901
  0
LINE
  5
145
330
5F
100
AcDbEntity
  8
0
  6
CONTINUOUS
 62
     0
100
AcDbLine
 10
199.7564054750775
 20
505.6194567078754
 30
0.0
 11
199.7564054750775
 21
501.747662601418
 31
0.0
  0
LINE
  5
146
330
5F
100
AcDbEntity
  8
0
  6
CONTINUOUS
 62
     0
100
AcDbLine
 10
205.0921405790096
 20
500.2837216039433
 30
0.0
 11
201.2203464725518
 21
500.2837216039433
 31
0.0
  0
LINE
  5
147
330
5F
100
AcDbEntity
  8
0
  6
CONTINUOUS
 62
     0
100
AcDbLine
 10
205.0921405790096
 20
507.0833977053502
 30
0.0
 11
201.2203464725518
 21
500.2837216039433
 31
0.0
  0
LINE
  5
148
330
5F
100
AcDbEntity
  8
0
  6
CONTINUOUS
 62
     0
100
AcDbLine
 10
201.2203464725518
 20
507.0833977053502
 30
0.0
 11
205.0921405790096
 21
500.2837216039433
 31
0.0
  0
LINE
  5
149
330
5F
100
AcDbEntity
  8
0
  6
CONTINUOUS
 62
     0
100
AcDbLine
 10
205.0921405790096
 20
507.0833977053502
 30
0.0
 11
201.2203464725518
 21
507.0833977053502
 31
0.0
  0
LINE
  5
14A
330
5F
100
AcDbEntity
  8
0
  6
CONTINUOUS
 62
     0
100
AcDbLine
 10
199.7564054750775
 20
505.6194567078754
 30
0.0
 11
203.1562435257807
 21
503.6835596546467
 31
0.0
  0
LINE
  5
14B
330
5F
100
AcDbEntity
  8
0
  6
CONTINUOUS
 62
     0
100
AcDbLine
 10
203.1562435257807
 20
503.6835596546467
 30
0.0
 11
199.7564054750775
 21
501.747662601418
 31
0.0
  0
LINE
  5
14C
330
5F
100
AcDbEntity
  8
0
  6
CONTINUOUS
 62
     0
100
AcDbLine
 10
216.9458467869023
 20
509.6057232168215
 30
0.0
 11
216.9458467869023
 21
491.7195267461417
 31
0.0
  0
CIRCLE
  5
14D
330
5F
100
AcDbEntity
  8
0
  6
CONTINUOUS
 62
     0
100
AcDbCircle
 10
216.9458467869023
 20
514.5005248473825
 30
0.0
 40
4.8948016305609
  0
LINE
  5
14E
330
5F
100
AcDbEntity
  8
0
  6
CONTINUOUS
 62
     0
100
AcDbLine
 10
264.5926490606677
 20
509.6057236384457
 30
0.0
 11
264.5926490606677
 21
507.0833981269744
 31
0.0
  0
LINE
  5
14F
330
5F
100
AcDbEntity
  8
0
  6
CONTINUOUS
 62
     0
100
AcDbLine
 10
264.5926490606677
 20
500.2837220255675
 30
0.0
 11
264.5926490606677
 21
491.7195271677659
 31
0.0
  0
LINE
  5
150
330
5F
100
AcDbEntity
  8
0
  6
CONTINUOUS
 62
     0
100
AcDbLine
 10
261.1928110099644
 20
505.6194571294997
 30
0.0
 11
261.1928110099644
 21
501.7476630230423
 31
0.0
  0
LINE
  5
151
330
5F
100
AcDbEntity
  8
0
  6
CONTINUOUS
 62
     0
100
AcDbLine
 10
266.5285461138966
 20
500.2837220255675
 30
0.0
 11
262.6567520074387
 21
500.2837220255675
 31
0.0
  0
LINE
  5
152
330
5F
100
AcDbEntity
  8
0
  6
CONTINUOUS
 62
     0
100
AcDbLine
 10
266.5285461138966
 20
507.0833981269744
 30
0.0
 11
262.6567520074387
 21
500.2837220255675
 31
0.0
  0
LINE
  5
153
330
5F
100
AcDbEntity
  8
0
  6
CONTINUOUS
 62
     0
100
AcDbLine
 10
262.6567520074387
 20
507.0833981269744
 30
0.0
 11
266.5285461138966
 21
500.2837220255675
 31
0.0
  0
LINE
  5
154
330
5F
100
AcDbEntity
  8
0
  6
CONTINUOUS
 62
     0
100
AcDbLine
 10
266.5285461138966
 20
507.0833981269744
 30
0.0
 11
262.6567520074387
 21
507.0833981269744
 31
0.0
  0
LINE
  5
155
330
5F
100
AcDbEntity
  8
0
  6
CONTINUOUS
 62
     0
100
AcDbLine
 10
261.1928110099644
 20
505.6194571294997
 30
0.0
 11
264.5926490606677
 21
503.683560076271
 31
0.0
  0
LINE
  5
156
330
5F
100
AcDbEntity
  8
0
  6
CONTINUOUS
 62
     0
100
AcDbLine
 10
264.5926490606677
 20
503.683560076271
 30
0.0
 11
261.1928110099644
 21
501.7476630230423
 31
0.0
  0
CIRCLE
  5
157
330
5F
100
AcDbEntity
  8
0
  6
CONTINUOUS
 62
     0
100
AcDbCircle
 10
264.5926490606677
 20
514.5005252690067
 30
0.0
 40
4.8948016305609
  0
LINE
  5
158
330
5F
100
AcDbEntity
  8
0
  6
CONTINUOUS
 62
     0
100
AcDbLine
 10
278.3822523217892
 20
509.6057236384457
 30
0.0
 11
278.3822523217892
 21
507.0833981269744
 31
0.0
  0
LINE
  5
159
330
5F
100
AcDbEntity
  8
0
  6
CONTINUOUS
 62
     0
100
AcDbLine
 10
278.3822523217892
 20
500.2837220255675
 30
0.0
 11
278.3822523217892
 21
491.7195271677659
 31
0.0
  0
LINE
  5
15A
330
5F
100
AcDbEntity
  8
0
  6
CONTINUOUS
 62
     0
100
AcDbLine
 10
274.982414271086
 20
505.6194571294997
 30
0.0
 11
274.982414271086
 21
501.7476630230423
 31
0.0
  0
LINE
  5
15B
330
5F
100
AcDbEntity
  8
0
  6
CONTINUOUS
 62
     0
100
AcDbLine
 10
280.3181493750182
 20
500.2837220255675
 30
0.0
 11
276.4463552685603
 21
500.2837220255675
 31
0.0
  0
LINE
  5
15C
330
5F
100
AcDbEntity
  8
0
  6
CONTINUOUS
 62
     0
100
AcDbLine
 10
280.3181493750182
 20
507.0833981269744
 30
0.0
 11
276.4463552685603
 21
500.2837220255675
 31
0.0
  0
LINE
  5
15D
330
5F
100
AcDbEntity
  8
0
  6
CONTINUOUS
 62
     0
100
AcDbLine
 10
276.4463552685603
 20
507.0833981269744
 30
0.0
 11
280.3181493750182
 21
500.2837220255675
 31
0.0
  0
LINE
  5
15E
330
5F
100
AcDbEntity
  8
0
  6
CONTINUOUS
 62
     0
100
AcDbLine
 10
280.3181493750182
 20
507.0833981269744
 30
0.0
 11
276.4463552685603
 21
507.0833981269744
 31
0.0
  0
LINE
  5
15F
330
5F
100
AcDbEntity
  8
0
  6
CONTINUOUS
 62
     0
100
AcDbLine
 10
274.982414271086
 20
505.6194571294997
 30
0.0
 11
278.3822523217892
 21
503.683560076271
 31
0.0
  0
LINE
  5
160
330
5F
100
AcDbEntity
  8
0
  6
CONTINUOUS
 62
     0
100
AcDbLine
 10
278.3822523217892
 20
503.683560076271
 30
0.0
 11
274.982414271086
 21
501.7476630230423
 31
0.0
  0
CIRCLE
  5
161
330
5F
100
AcDbEntity
  8
0
  6
CONTINUOUS
 62
     0
100
AcDbCircle
 10
278.3822523217892
 20
514.5005252690067
 30
0.0
 40
4.894801630560901
  0
LINE
  5
162
330
5F
100
AcDbEntity
  8
0
  6
CONTINUOUS
 62
   161
100
AcDbLine
 10
287.1076523231806
 20
490.5245559815613
 30
0.0
 11
287.1076523231806
 21
492.9144975107221
 31
0.0
  0
LINE
  5
163
330
5F
100
AcDbEntity
  8
0
  6
CONTINUOUS
 62
   161
100
AcDbLine
 10
287.1076523231806
 20
492.9144975107221
 30
0.0
 11
290.5074903738843
 21
491.7195267461417
 31
0.0
  0
LINE
  5
164
330
5F
100
AcDbEntity
  8
0
  6
CONTINUOUS
 62
   161
100
AcDbLine
 10
290.5074903738843
 20
491.7195267461417
 30
0.0
 11
287.1076523231806
 21
490.5245559815613
 31
0.0
  0
LINE
  5
165
330
5F
100
AcDbEntity
  8
0
  6
CONTINUOUS
 62
     0
100
AcDbLine
 10
287.1076523231806
 20
492.9144975107221
 30
0.0
 11
287.1076523231806
 21
490.5245559815613
 31
0.0
  0
LINE
  5
166
330
5F
100
AcDbEntity
  8
0
  6
CONTINUOUS
 62
     0
100
AcDbLine
 10
287.1076523231806
 20
492.9144975107221
 30
0.0
 11
290.5074903738843
 21
491.7195267461417
 31
0.0
  0
LINE
  5
167
330
5F
100
AcDbEntity
  8
0
  6
CONTINUOUS
 62
     0
100
AcDbLine
 10
287.1076523231806
 20
490.5245559815613
 30
0.0
 11
290.5074903738843
 21
491.7195267461417
 31
0.0
  0
LINE
  5
168
330
5F
100
AcDbEntity
  8
0
  6
CONTINUOUS
 62
   161
100
AcDbLine
 10
331.6972296936393
 20
490.5245559815613
 30
0.0
 11
331.6972296936393
 21
492.9144975107221
 31
0.0
  0
LINE
  5
169
330
5F
100
AcDbEntity
  8
0
  6
CONTINUOUS
 62
   161
100
AcDbLine
 10
331.6972296936393
 20
492.9144975107221
 30
0.0
 11
328.2973916429356
 21
491.7195267461417
 31
0.0
  0
LINE
  5
16A
330
5F
100
AcDbEntity
  8
0
  6
CONTINUOUS
 62
   161
100
AcDbLine
 10
328.2973916429356
 20
491.7195267461417
 30
0.0
 11
331.6972296936393
 21
490.5245559815613
 31
0.0
  0
LINE
  5
16B
330
5F
100
AcDbEntity
  8
0
  6
CONTINUOUS
 62
     0
100
AcDbLine
 10
331.6972296936393
 20
492.9144975107221
 30
0.0
 11
331.6972296936393
 21
490.5245559815613
 31
0.0
  0
LINE
  5
16C
330
5F
100
AcDbEntity
  8
0
  6
CONTINUOUS
 62
     0
100
AcDbLine
 10
331.6972296936393
 20
492.9144975107221
 30
0.0
 11
328.2973916429356
 21
491.7195267461417
 31
0.0
  0
LINE
  5
16D
330
5F
100
AcDbEntity
  8
0
  6
CONTINUOUS
 62
     0
100
AcDbLine
 10
331.6972296936393
 20
490.5245559815613
 30
0.0
 11
328.2973916429356
 21
491.7195267461417
 31
0.0
  0
CIRCLE
  5
16E
330
5F
100
AcDbEntity
  8
0
  6
CONTINUOUS
 62
     0
100
AcDbCircle
 10
309.4024410084102
 20
491.7195267461417
 30
0.0
 40
6.626607045189117
  0
LINE
  5
16F
330
5F
100
AcDbEntity
  8
0
  6
CONTINUOUS
 62
     0
100
AcDbLine
 10
304.6136982881998
 20
496.2999049064007
 30
0.0
 11
316.0290480535995
 21
491.7195267461412
 31
0.0
  0
LINE
  5
170
330
5F
100
AcDbEntity
  8
0
  6
CONTINUOUS
 62
     0
100
AcDbLine
 10
316.0290480535995
 20
491.7195267461412
 30
0.0
 11
304.5754905853672
 21
487.179430872172
 31
0.0
  0
LINE
  5
171
330
5F
100
AcDbEntity
  8
0
  6
CONTINUOUS
 62
     0
100
AcDbLine
 10
300.2810845959335
 20
495.2844825422345
 30
0.0
 11
300.2810845959335
 21
488.1545709500489
 31
0.0
  0
LINE
  5
172
330
5F
100
AcDbEntity
  8
0
  6
CONTINUOUS
 62
     0
100
AcDbLine
 10
301.8348902120011
 20
495.2844825422345
 30
0.0
 11
301.8348902120011
 21
488.1545709500489
 31
0.0
  0
LINE
  5
173
330
5F
100
AcDbEntity
  8
0
  6
CONTINUOUS
 62
     0
100
AcDbLine
 10
301.8348902120011
 20
491.7195267461417
 30
0.0
 11
302.7758339632211
 21
491.7195267461417
 31
0.0
  0
LINE
  5
174
330
5F
100
AcDbEntity
  8
0
  6
CONTINUOUS
 62
     0
100
AcDbLine
 10
318.5237974208868
 20
495.2844825422345
 30
0.0
 11
318.5237974208868
 21
488.1545709500489
 31
0.0
  0
LINE
  5
175
330
5F
100
AcDbEntity
  8
0
  6
CONTINUOUS
 62
     0
100
AcDbLine
 10
316.9699918048192
 20
495.2844825422345
 30
0.0
 11
316.9699918048192
 21
488.1545709500489
 31
0.0
  0
LINE
  5
176
330
5F
100
AcDbEntity
  8
0
  6
CONTINUOUS
 62
     0
100
AcDbLine
 10
316.9699918048192
 20
491.7195267461417
 30
0.0
 11
316.0290480535992
 21
491.7195267461417
 31
0.0
  0
LINE
  5
177
330
5F
100
AcDbEntity
  8
0
  6
CONTINUOUS
 62
     0
100
AcDbLine
 10
341.5518734185072
 20
509.6057232168215
 30
0.0
 11
341.5518734185072
 21
507.0833977053502
 31
0.0
  0
LINE
  5
178
330
5F
100
AcDbEntity
  8
0
  6
CONTINUOUS
 62
     0
100
AcDbLine
 10
341.5518734185072
 20
500.2837216039433
 30
0.0
 11
341.5518734185072
 21
491.7195267461417
 31
0.0
  0
LINE
  5
179
330
5F
100
AcDbEntity
  8
0
  6
CONTINUOUS
 62
     0
100
AcDbLine
 10
338.1520353678035
 20
505.6194567078754
 30
0.0
 11
338.1520353678035
 21
501.747662601418
 31
0.0
  0
LINE
  5
17A
330
5F
100
AcDbEntity
  8
0
  6
CONTINUOUS
 62
     0
100
AcDbLine
 10
343.4877704717356
 20
500.2837216039433
 30
0.0
 11
339.6159763652787
 21
500.2837216039433
 31
0.0
  0
LINE
  5
17B
330
5F
100
AcDbEntity
  8
0
  6
CONTINUOUS
 62
     0
100
AcDbLine
 10
343.4877704717356
 20
507.0833977053502
 30
0.0
 11
339.6159763652787
 21
500.2837216039433
 31
0.0
  0
LINE
  5
17C
330
5F
100
AcDbEntity
  8
0
  6
CONTINUOUS
 62
     0
100
AcDbLine
 10
339.6159763652787
 20
507.0833977053502
 30
0.0
 11
343.4877704717356
 21
500.2837216039433
 31
0.0
  0
LINE
  5
17D
330
5F
100
AcDbEntity
  8
0
  6
CONTINUOUS
 62
     0
100
AcDbLine
 10
343.4877704717356
 20
507.0833977053502
 30
0.0
 11
339.6159763652787
 21
507.0833977053502
 31
0.0
  0
LINE
  5
17E
330
5F
100
AcDbEntity
  8
0
  6
CONTINUOUS
 62
     0
100
AcDbLine
 10
338.1520353678035
 20
505.6194567078754
 30
0.0
 11
341.5518734185072
 21
503.6835596546467
 31
0.0
  0
LINE
  5
17F
330
5F
100
AcDbEntity
  8
0
  6
CONTINUOUS
 62
     0
100
AcDbLine
 10
341.5518734185072
 20
503.6835596546467
 30
0.0
 11
338.1520353678035
 21
501.747662601418
 31
0.0
  0
CIRCLE
  5
180
330
5F
100
AcDbEntity
  8
0
  6
CONTINUOUS
 62
     0
100
AcDbCircle
 10
341.5518734185072
 20
514.5005248473825
 30
0.0
 40
4.894801630560901
  0
LINE
  5
181
330
5F
100
AcDbEntity
  8
0
  6
CONTINUOUS
 62
     0
100
AcDbLine
 10
371.6876454964605
 20
488.3700538350741
 30
0.0
 11
371.6876454964605
 21
495.0689996572092
 31
0.0
  0
LINE
  5
182
330
5F
100
AcDbEntity
  8
0
  6
CONTINUOUS
 62
     0
100
AcDbLine
 10
370.1338398803929
 20
488.3700538350741
 30
0.0
 11
370.1338398803929
 21
495.0689996572092
 31
0.0
  0
POLYLINE
  5
183
330
5F
100
AcDbEntity
  8
0
 62
     0
100
AcDb2dPolyline
 66
     1
 10
0.0
 20
0.0
 30
0.0
 70
   128
  0
VERTEX
  5
184
330
183
100
AcDbEntity
  8
0
 62
     0
100
AcDbVertex
100
AcDb2dVertex
 10
370.1338398803929
 20
491.7132070309282
 30
0.0
  0
VERTEX
  5
185
330
183
100
AcDbEntity
  8
0
 62
     0
100
AcDbVertex
100
AcDb2dVertex
 10
364.3544958308531
 20
497.492551080468
 30
0.0
  0
VERTEX
  5
186
330
183
100
AcDbEntity
  8
0
 62
     0
100
AcDbVertex
100
AcDb2dVertex
 10
358.5751517813134
 20
491.7132070309282
 30
0.0
  0
VERTEX
  5
187
330
183
100
AcDbEntity
  8
0
 62
     0
100
AcDbVertex
100
AcDb2dVertex
 10
364.3544958308531
 20
485.9338629813884
 30
0.0
  0
VERTEX
  5
188
330
183
100
AcDbEntity
  8
0
 62
     0
100
AcDbVertex
100
AcDb2dVertex
 10
370.1338398803929
 20
491.7132070309282
 30
0.0
  0
SEQEND
  5
189
330
183
100
AcDbEntity
  8
0
 62
     0
  0
LINE
  5
18A
330
5F
100
AcDbEntity
  8
0
  6
CONTINUOUS
 62
     0
100
AcDbLine
 10
364.3544958308531
 20
497.4925510804679
 30
0.0
 11
364.3544958308531
 21
494.807361415361
 31
0.0
  0
LINE
  5
18B
330
5F
100
AcDbEntity
  8
0
  6
CONTINUOUS
 62
     0
100
AcDbLine
 10
364.3544958308531
 20
493.1863927043433
 30
0.0
 11
364.3544958308531
 21
490.5300348173679
 31
0.0
  0
LINE
  5
18C
330
5F
100
AcDbEntity
  8
0
  6
CONTINUOUS
 62
     0
100
AcDbLine
 10
364.3544958308531
 20
488.5902208683652
 30
0.0
 11
364.3544958308531
 21
485.9338629813884
 31
0.0
  0
LINE
  5
18D
330
5F
100
AcDbEntity
  8
0
  6
CONTINUOUS
 62
     0
100
AcDbLine
 10
358.5751517813134
 20
488.3700538350741
 30
0.0
 11
358.5751517813134
 21
495.0689996572092
 31
0.0
  0
LINE
  5
18E
330
5F
100
AcDbEntity
  8
0
  6
CONTINUOUS
 62
     0
100
AcDbLine
 10
357.0213461652448
 20
488.3700538350741
 30
0.0
 11
357.0213461652448
 21
495.0689996572092
 31
0.0
  0
LINE
  5
18F
330
5F
100
AcDbEntity
  8
0
  6
CONTINUOUS
 62
     0
100
AcDbLine
 10
381.2354041134273
 20
509.6057232168215
 30
0.0
 11
381.2354041134273
 21
507.0833977053502
 31
0.0
  0
LINE
  5
190
330
5F
100
AcDbEntity
  8
0
  6
CONTINUOUS
 62
     0
100
AcDbLine
 10
381.2354041134273
 20
500.2837216039433
 30
0.0
 11
381.2354041134273
 21
491.7195267461417
 31
0.0
  0
CIRCLE
  5
191
330
5F
100
AcDbEntity
  8
0
  6
CONTINUOUS
 62
     0
100
AcDbCircle
 10
381.2354041134273
 20
514.5005248473825
 30
0.0
 40
4.894801630560901
  0
LINE
  5
192
330
5F
100
AcDbEntity
  8
0
  6
CONTINUOUS
 62
     0
100
AcDbLine
 10
377.8355660627241
 20
505.6194567078754
 30
0.0
 11
377.8355660627241
 21
501.747662601418
 31
0.0
  0
LINE
  5
193
330
5F
100
AcDbEntity
  8
0
  6
CONTINUOUS
 62
     0
100
AcDbLine
 10
383.1713011666562
 20
500.2837216039433
 30
0.0
 11
379.2995070601984
 21
500.2837216039433
 31
0.0
  0
LINE
  5
194
330
5F
100
AcDbEntity
  8
0
  6
CONTINUOUS
 62
     0
100
AcDbLine
 10
383.1713011666562
 20
507.0833977053502
 30
0.0
 11
379.2995070601984
 21
500.2837216039433
 31
0.0
  0
LINE
  5
195
330
5F
100
AcDbEntity
  8
0
  6
CONTINUOUS
 62
     0
100
AcDbLine
 10
379.2995070601984
 20
507.0833977053502
 30
0.0
 11
383.1713011666562
 21
500.2837216039433
 31
0.0
  0
LINE
  5
196
330
5F
100
AcDbEntity
  8
0
  6
CONTINUOUS
 62
     0
100
AcDbLine
 10
383.1713011666562
 20
507.0833977053502
 30
0.0
 11
379.2995070601984
 21
507.0833977053502
 31
0.0
  0
LINE
  5
197
330
5F
100
AcDbEntity
  8
0
  6
CONTINUOUS
 62
     0
100
AcDbLine
 10
377.8355660627241
 20
505.6194567078754
 30
0.0
 11
381.2354041134273
 21
503.6835596546467
 31
0.0
  0
LINE
  5
198
330
5F
100
AcDbEntity
  8
0
  6
CONTINUOUS
 62
     0
100
AcDbLine
 10
381.2354041134273
 20
503.6835596546467
 30
0.0
 11
377.8355660627241
 21
501.747662601418
 31
0.0
  0
LINE
  5
199
330
5F
100
AcDbEntity
  8
0
  6
CONTINUOUS
 62
     0
100
AcDbLine
 10
349.7163106601521
 20
491.7195267461417
 30
0.0
 11
349.7163106601521
 21
489.1972012346702
 31
0.0
  0
LINE
  5
19A
330
5F
100
AcDbEntity
  8
0
  6
CONTINUOUS
 62
     0
100
AcDbLine
 10
351.6522077133808
 20
482.3975251332632
 30
0.0
 11
347.7804136069234
 21
482.3975251332632
 31
0.0
  0
LINE
  5
19B
330
5F
100
AcDbEntity
  8
0
  6
CONTINUOUS
 62
     0
100
AcDbLine
 10
351.6522077133808
 20
489.1972012346702
 30
0.0
 11
347.7804136069234
 21
482.3975251332632
 31
0.0
  0
LINE
  5
19C
330
5F
100
AcDbEntity
  8
0
  6
CONTINUOUS
 62
     0
100
AcDbLine
 10
347.7804136069234
 20
489.1972012346702
 30
0.0
 11
351.6522077133808
 21
482.3975251332632
 31
0.0
  0
LINE
  5
19D
330
5F
100
AcDbEntity
  8
0
  6
CONTINUOUS
 62
     0
100
AcDbLine
 10
351.6522077133808
 20
489.1972012346702
 30
0.0
 11
347.7804136069234
 21
489.1972012346702
 31
0.0
  0
LINE
  5
19E
330
5F
100
AcDbEntity
  8
0
  6
CONTINUOUS
 62
     0
100
AcDbLine
 10
151.2660767426129
 20
557.8555161433143
 30
0.0
 11
176.675584933451
 21
557.8555161433143
 31
0.0
  0
LINE
  5
19F
330
5F
100
AcDbEntity
  8
0
  6
CONTINUOUS
 62
     0
100
AcDbLine
 10
192.3048045273732
 20
557.855516143314
 30
0.0
 11
235.2314940061916
 21
557.855516143314
 31
0.0
  0
LINE
  5
1A0
330
5F
100
AcDbEntity
  8
0
  6
CONTINUOUS
 62
     0
100
AcDbLine
 10
254.7670857490903
 20
557.855516143314
 30
0.0
 11
275.3214995932254
 21
557.8555161433143
 31
0.0
  0
LINE
  5
1A1
330
5F
100
AcDbEntity
  8
0
  6
CONTINUOUS
 62
     0
100
AcDbLine
 10
289.9877989244411
 20
557.8555161433143
 30
0.0
 11
321.1786130161664
 21
557.8555161433143
 31
0.0
  0
LINE
  5
1A2
330
5F
100
AcDbEntity
  8
0
  6
CONTINUOUS
 62
     0
100
AcDbLine
 10
339.4213258411197
 20
557.8555161433143
 30
0.0
 11
392.1172901942961
 21
557.8555161433143
 31
0.0
  0
LINE
  5
1A3
330
5F
100
AcDbEntity
  8
0
  6
CONTINUOUS
 62
     0
100
AcDbLine
 10
391.772182296183
 20
491.7195267461412
 30
0.0
 11
371.6876454964605
 21
491.7195267461412
 31
0.0
  0
LINE
  5
1A4
330
5F
100
AcDbEntity
  8
0
  6
CONTINUOUS
 62
     0
100
AcDbLine
 10
357.0213461652448
 20
491.7195267461417
 30
0.0
 11
318.5237974208868
 21
491.7195267461417
 31
0.0
  0
LINE
  5
1A5
330
5F
100
AcDbEntity
  8
0
  6
CONTINUOUS
 62
     0
100
AcDbLine
 10
224.1221822961829
 20
491.7195267461415
 30
0.0
 11
192.3048045273737
 21
491.7195267461415
 31
0.0
  0
LINE
  5
1A6
330
5F
100
AcDbEntity
  8
0
  6
CONTINUOUS
 62
     0
100
AcDbLine
 10
176.675584933451
 20
491.7195267461417
 30
0.0
 11
151.2660767426129
 21
491.7195267461417
 31
0.0
  0
LINE
  5
1A7
330
5F
100
AcDbEntity
  8
0
  6
CONTINUOUS
 62
     0
100
AcDbLine
 10
227.8804379139117
 20
479.383619633743
 30
0.0
 11
233.8899781676323
 21
476.6106957984706
 31
0.0
  0
LINE
  5
1A8
330
5F
100
AcDbEntity
  8
0
  6
CONTINUOUS
 62
     0
100
AcDbLine
 10
231.9540811144036
 20
474.0883702869991
 30
0.0
 11
235.825875220861
 21
467.2886941855921
 31
0.0
  0
LINE
  5
1A9
330
5F
100
AcDbEntity
  8
0
  6
CONTINUOUS
 62
     0
100
AcDbLine
 10
233.8899781676328
 20
498.7534386725773
 30
0.0
 11
233.8899781676328
 21
501.2757641840489
 31
0.0
  0
LINE
  5
1AA
330
5F
100
AcDbEntity
  8
0
  6
CONTINUOUS
 62
     0
100
AcDbLine
 10
231.9540811144041
 20
501.2757641840489
 30
0.0
 11
235.8258752208615
 21
501.2757641840489
 31
0.0
  0
LINE
  5
1AB
330
5F
100
AcDbEntity
  8
0
  6
CONTINUOUS
 62
     0
100
AcDbLine
 10
242.1039684230141
 20
495.2844825422343
 30
0.0
 11
242.1039684230141
 21
488.1545709500487
 31
0.0
  0
LINE
  5
1AC
330
5F
100
AcDbEntity
  8
0
  6
CONTINUOUS
 62
     0
100
AcDbLine
 10
233.8899781676323
 20
476.6106957984706
 30
0.0
 11
233.8899781676323
 21
474.0883702869991
 31
0.0
  0
LINE
  5
1AD
330
5F
100
AcDbEntity
  8
0
  6
CONTINUOUS
 62
     0
100
AcDbLine
 10
235.825875220861
 20
467.2886941855921
 30
0.0
 11
231.9540811144036
 21
467.2886941855921
 31
0.0
  0
LINE
  5
1AE
330
5F
100
AcDbEntity
  8
0
  6
CONTINUOUS
 62
     0
100
AcDbLine
 10
225.6759879122505
 20
495.2844825422343
 30
0.0
 11
225.6759879122505
 21
488.1545709500487
 31
0.0
  0
LINE
  5
1AF
330
5F
100
AcDbEntity
  8
0
  6
CONTINUOUS
 62
     0
100
AcDbLine
 10
235.825875220861
 20
474.0883702869991
 30
0.0
 11
231.9540811144036
 21
467.2886941855921
 31
0.0
  0
LINE
  5
1B0
330
5F
100
AcDbEntity
  8
0
  6
CONTINUOUS
 62
     0
100
AcDbLine
 10
242.1039684230141
 20
491.7195267461415
 30
0.0
 11
240.0033113697846
 21
491.7195267461415
 31
0.0
  0
LINE
  5
1B1
330
5F
100
AcDbEntity
  8
0
  6
CONTINUOUS
 62
     0
100
AcDbLine
 10
224.1221822961829
 20
495.2844825422345
 30
0.0
 11
224.1221822961829
 21
488.1545709500489
 31
0.0
  0
LINE
  5
1B2
330
5F
100
AcDbEntity
  8
0
  6
CONTINUOUS
 62
     0
100
AcDbLine
 10
239.8995184213529
 20
498.7534386725775
 30
0.0
 11
239.8995184213529
 21
479.383619633743
 31
0.0
  0
LINE
  5
1B3
330
5F
100
AcDbEntity
  8
0
  6
CONTINUOUS
 62
     0
100
AcDbLine
 10
235.825875220861
 20
474.0883702869991
 30
0.0
 11
231.9540811144036
 21
474.0883702869991
 31
0.0
  0
LINE
  5
1B4
330
5F
100
AcDbEntity
  8
0
  6
CONTINUOUS
 62
     0
100
AcDbLine
 10
243.6577740390817
 20
495.2844825422343
 30
0.0
 11
243.6577740390817
 21
488.1545709500487
 31
0.0
  0
LINE
  5
1B5
330
5F
100
AcDbEntity
  8
0
  6
CONTINUOUS
 62
     0
100
AcDbLine
 10
235.8258752208615
 20
501.2757641840489
 30
0.0
 11
231.9540811144041
 21
508.0754402854558
 31
0.0
  0
LINE
  5
1B6
330
5F
100
AcDbEntity
  8
0
  6
CONTINUOUS
 62
     0
100
AcDbLine
 10
231.9540811144041
 20
501.2757641840489
 30
0.0
 11
235.8258752208615
 21
508.0754402854558
 31
0.0
  0
LINE
  5
1B7
330
5F
100
AcDbEntity
  8
0
  6
CONTINUOUS
 62
     0
100
AcDbLine
 10
239.8995184213529
 20
479.383619633743
 30
0.0
 11
233.8899781676323
 21
476.6106957984706
 31
0.0
  0
LINE
  5
1B8
330
5F
100
AcDbEntity
  8
0
  6
CONTINUOUS
 62
     0
100
AcDbLine
 10
227.8804379139117
 20
498.7534386725775
 30
0.0
 11
227.8804379139117
 21
479.383619633743
 31
0.0
  0
LINE
  5
1B9
330
5F
100
AcDbEntity
  8
0
  6
CONTINUOUS
 62
     0
100
AcDbLine
 10
225.6759879122505
 20
491.7195267461415
 30
0.0
 11
227.7766449654798
 21
491.7195267461415
 31
0.0
  0
LINE
  5
1BA
330
5F
100
AcDbEntity
  8
0
  6
CONTINUOUS
 62
     0
100
AcDbLine
 10
231.9540811144041
 20
508.0754402854558
 30
0.0
 11
235.8258752208615
 21
508.0754402854558
 31
0.0
  0
LINE
  5
1BB
330
5F
100
AcDbEntity
  8
0
  6
CONTINUOUS
 62
     0
100
AcDbLine
 10
239.8995184213529
 20
498.7534386725775
 30
0.0
 11
227.8804379139117
 21
498.7534386725775
 31
0.0
  0
LINE
  5
1BC
330
5F
100
AcDbEntity
  8
0
  6
CONTINUOUS
 62
     0
100
AcDbLine
 10
318.5237974208868
 20
491.7195267461417
 30
0.0
 11
243.6577740390817
 21
491.7195267461415
 31
0.0
  0
LINE
  5
1BD
330
5F
100
AcDbEntity
  8
0
  6
CONTINUOUS
 62
     0
100
AcDbLine
 10
592.2616964774054
 20
447.23625
 30
0.0
 11
595.3216964774053
 21
444.5262500000001
 31
0.0
  0
LINE
  5
1BE
330
5F
100
AcDbEntity
  8
0
  6
CONTINUOUS
 62
     0
100
AcDbLine
 10
612.3216964774055
 20
368.0962499999999
 30
0.0
 11
600.3216964774053
 21
368.09625
 31
0.0
  0
LINE
  5
1BF
330
5F
100
AcDbEntity
  8
0
  6
CONTINUOUS
 62
     0
100
AcDbLine
 10
595.3216964774053
 20
449.94625
 30
0.0
 11
598.3816964774053
 21
447.23625
 31
0.0
  0
LINE
  5
1C0
330
5F
100
AcDbEntity
  8
0
  6
CONTINUOUS
 62
     0
100
AcDbLine
 10
79.47777403908168
 20
154.79
 30
0.0
 11
87.6377740390817
 21
154.79
 31
0.0
  0
SOLID
  5
1C1
330
5F
100
AcDbEntity
  8
0
 62
     0
100
AcDbTrace
 10
87.6377740390817
 20
152.29
 30
0.0
 11
92.6377740390817
 21
154.79
 31
0.0
 12
87.6377740390817
 22
157.29
 32
0.0
 13
87.6377740390817
 23
157.29
 33
0.0
  0
LINE
  5
1C2
330
5F
100
AcDbEntity
  8
0
  6
CONTINUOUS
 62
     0
100
AcDbLine
 10
580.1735860014945
 20
379.3360880507035
 30
0.0
 11
582.1094830547235
 21
379.3360880507035
 31
0.0
  0
LINE
  5
1C3
330
5F
100
AcDbEntity
  8
0
  6
CONTINUOUS
 62
     0
100
AcDbLine
 10
608.533909900088
 20
388.2164119492965
 30
0.0
 11
608.533909900088
 21
383.77625
 31
0.0
  0
LINE
  5
1C4
330
5F
100
AcDbEntity
  8
0
  6
CONTINUOUS
 62
     0
100
AcDbLine
 10
608.533909900088
 20
395.0160880507034
 30
0.0
 11
610.469806953317
 21
395.0160880507034
 31
0.0
  0
LINE
  5
1C5
330
5F
100
AcDbEntity
  8
0
  6
CONTINUOUS
 62
     0
100
AcDbLine
 10
92.6377740390817
 20
154.79
 30
0.0
 11
101.0777740390817
 21
154.79
 31
0.0
  0
LINE
  5
1C6
330
5F
100
AcDbEntity
  8
0
  6
CONTINUOUS
 62
     0
100
AcDbLine
 10
606.5980128468591
 20
388.2164119492965
 30
0.0
 11
610.469806953317
 21
395.0160880507034
 31
0.0
  0
LINE
  5
1C7
330
5F
100
AcDbEntity
  8
0
  6
CONTINUOUS
 62
     0
100
AcDbLine
 10
101.0777740390817
 20
151.2250442039072
 30
0.0
 11
113.5993824008685
 21
158.3549557960928
 31
0.0
  0
LINE
  5
1C8
330
5F
100
AcDbEntity
  8
0
  6
CONTINUOUS
 62
     0
100
AcDbLine
 10
101.0777740390817
 20
158.3549557960928
 30
0.0
 11
113.5993824008685
 21
151.2250442039072
 31
0.0
  0
LINE
  5
1C9
330
5F
100
AcDbEntity
  8
0
  6
CONTINUOUS
 62
     0
100
AcDbLine
 10
113.5993824008685
 20
158.3549557960928
 30
0.0
 11
113.5993824008685
 21
151.2250442039072
 31
0.0
  0
LINE
  5
1CA
330
5F
100
AcDbEntity
  8
0
  6
CONTINUOUS
 62
     0
100
AcDbLine
 10
101.0777740390817
 20
158.3549557960928
 30
0.0
 11
101.0777740390817
 21
151.2250442039072
 31
0.0
  0
LINE
  5
1CB
330
5F
100
AcDbEntity
  8
0
  6
CONTINUOUS
 62
     0
100
AcDbLine
 10
113.5993824008685
 20
154.79
 30
0.0
 11
196.1311669938935
 21
154.79
 31
0.0
  0
LINE
  5
1CC
330
5F
100
AcDbEntity
  8
0
  6
CONTINUOUS
 62
     0
100
AcDbLine
 10
-145.93
 20
323.02
 30
0.0
 11
-135.93
 21
323.02
 31
0.0
  0
LINE
  5
1CD
330
5F
100
AcDbEntity
  8
0
  6
CONTINUOUS
 62
     0
100
AcDbLine
 10
-135.93
 20
323.02
 30
0.0
 11
-135.93
 21
333.02
 31
0.0
  0
LINE
  5
1CE
330
5F
100
AcDbEntity
  8
0
  6
CONTINUOUS
 62
     0
100
AcDbLine
 10
-135.93
 20
333.02
 30
0.0
 11
-145.93
 21
333.02
 31
0.0
  0
LINE
  5
1CF
330
5F
100
AcDbEntity
  8
0
  6
CONTINUOUS
 62
     0
100
AcDbLine
 10
-145.93
 20
333.02
 30
0.0
 11
-145.93
 21
323.02
 31
0.0
  0
LINE
  5
1D0
330
5F
100
AcDbEntity
  8
0
  6
CONTINUOUS
 62
     0
100
AcDbLine
 10
107.7577740390817
 20
263.07
 30
0.0
 11
107.7577740390817
 21
273.07
 31
0.0
  0
LINE
  5
1D1
330
5F
100
AcDbEntity
  8
0
  6
CONTINUOUS
 62
     0
100
AcDbLine
 10
97.75777403908171
 20
263.07
 30
0.0
 11
107.7577740390817
 21
263.07
 31
0.0
  0
LINE
  5
1D2
330
5F
100
AcDbEntity
  8
0
  6
CONTINUOUS
 62
     0
100
AcDbLine
 10
107.7577740390817
 20
273.07
 30
0.0
 11
97.75777403908171
 21
273.07
 31
0.0
  0
LINE
  5
1D3
330
5F
100
AcDbEntity
  8
0
  6
CONTINUOUS
 62
     0
100
AcDbLine
 10
97.75777403908171
 20
273.07
 30
0.0
 11
97.75777403908171
 21
263.07
 31
0.0
  0
LINE
  5
1D4
330
5F
100
AcDbEntity
  8
0
  6
CONTINUOUS
 62
     0
100
AcDbLine
 10
129.7977740390817
 20
256.42
 30
0.0
 11
129.7977740390817
 21
246.42
 31
0.0
  0
LINE
  5
1D5
330
5F
100
AcDbEntity
  8
0
  6
CONTINUOUS
 62
     0
100
AcDbLine
 10
97.75777403908174
 20
256.42
 30
0.0
 11
97.75777403908174
 21
246.42
 31
0.0
  0
LINE
  5
1D6
330
5F
100
AcDbEntity
  8
0
  6
CONTINUOUS
 62
     0
100
AcDbLine
 10
107.7577740390817
 20
246.42
 30
0.0
 11
107.7577740390817
 21
256.42
 31
0.0
  0
LINE
  5
1D7
330
5F
100
AcDbEntity
  8
0
  6
CONTINUOUS
 62
     0
100
AcDbLine
 10
129.7977740390817
 20
273.07
 30
0.0
 11
129.7977740390817
 21
263.07
 31
0.0
  0
LINE
  5
1D8
330
5F
100
AcDbEntity
  8
0
  6
CONTINUOUS
 62
     0
100
AcDbLine
 10
139.7977740390817
 20
263.07
 30
0.0
 11
139.7977740390817
 21
273.07
 31
0.0
  0
LINE
  5
1D9
330
5F
100
AcDbEntity
  8
0
  6
CONTINUOUS
 62
     0
100
AcDbLine
 10
129.7977740390817
 20
263.07
 30
0.0
 11
134.7977740390817
 21
263.07
 31
0.0
  0
LINE
  5
1DA
330
5F
100
AcDbEntity
  8
0
  6
CONTINUOUS
 62
     0
100
AcDbLine
 10
139.7977740390817
 20
273.07
 30
0.0
 11
129.7977740390817
 21
273.07
 31
0.0
  0
LINE
  5
1DB
330
5F
100
AcDbEntity
  8
0
  6
CONTINUOUS
 62
     0
100
AcDbLine
 10
139.7977740390817
 20
256.42
 30
0.0
 11
129.7977740390817
 21
256.42
 31
0.0
  0
LINE
  5
1DC
330
5F
100
AcDbEntity
  8
0
  6
CONTINUOUS
 62
     0
100
AcDbLine
 10
97.75777403908174
 20
246.42
 30
0.0
 11
107.7577740390817
 21
246.42
 31
0.0
  0
LINE
  5
1DD
330
5F
100
AcDbEntity
  8
0
  6
CONTINUOUS
 62
     0
100
AcDbLine
 10
107.7577740390817
 20
256.42
 30
0.0
 11
97.75777403908174
 21
256.42
 31
0.0
  0
LINE
  5
1DE
330
5F
100
AcDbEntity
  8
0
  6
CONTINUOUS
 62
     0
100
AcDbLine
 10
139.7977740390817
 20
246.42
 30
0.0
 11
139.7977740390817
 21
256.42
 31
0.0
  0
LINE
  5
1DF
330
5F
100
AcDbEntity
  8
0
  6
CONTINUOUS
 62
     0
100
AcDbLine
 10
129.7977740390817
 20
246.42
 30
0.0
 11
134.7977740390817
 21
246.42
 31
0.0
  0
LINE
  5
1E0
330
5F
100
AcDbEntity
  8
0
  6
CONTINUOUS
 62
     0
100
AcDbLine
 10
107.7577740390817
 20
268.07
 30
0.0
 11
129.7977740390817
 21
268.07
 31
0.0
  0
LINE
  5
1E1
330
5F
100
AcDbEntity
  8
0
  6
CONTINUOUS
 62
     0
100
AcDbLine
 10
107.7577740390817
 20
251.42
 30
0.0
 11
129.7977740390817
 21
251.42
 31
0.0
  0
LINE
  5
1E2
330
5F
100
AcDbEntity
  8
0
  6
CONTINUOUS
 62
     0
100
AcDbLine
 10
118.7777740390817
 20
268.07
 30
0.0
 11
118.7777740390817
 21
201.67
 31
0.0
  0
LINE
  5
1E3
330
5F
100
AcDbEntity
  8
0
  6
CONTINUOUS
 62
     0
100
AcDbLine
 10
580.1735860014945
 20
372.5364119492966
 30
0.0
 11
584.0453801079524
 21
379.3360880507035
 31
0.0
  0
LINE
  5
1E4
330
5F
100
AcDbEntity
  8
0
  6
CONTINUOUS
 62
     0
100
AcDbLine
 10
582.1094830547235
 20
383.77625
 30
0.0
 11
582.1094830547235
 21
379.3360880507035
 31
0.0
  0
LINE
  5
1E5
330
5F
100
AcDbEntity
  8
0
  6
CONTINUOUS
 62
     0
100
AcDbLine
 10
595.3216964774053
 20
447.23625
 30
0.0
 11
598.3816964774053
 21
447.23625
 31
0.0
  0
LINE
  5
1E7
330
5F
100
AcDbEntity
  8
0
  6
HIDDEN_PER2_SCALE0_547422
 62
     0
100
AcDbLine
 10
113.7193824008685
 20
107.01
 30
0.0
 11
124.1477740390817
 21
107.01
 31
0.0
  0
LINE
  5
1E8
330
5F
100
AcDbEntity
  8
0
  6
CONTINUOUS
 62
     0
100
AcDbLine
 10
158.7777740390815
 20
211.67
 30
0.0
 11
158.7777740390815
 21
221.67
 31
0.0
  0
LINE
  5
1E9
330
5F
100
AcDbEntity
  8
0
  6
CONTINUOUS
 62
     0
100
AcDbLine
 10
148.7777740390815
 20
211.67
 30
0.0
 11
158.7777740390815
 21
211.67
 31
0.0
  0
LINE
  5
1EA
330
5F
100
AcDbEntity
  8
0
  6
CONTINUOUS
 62
     0
100
AcDbLine
 10
158.7777740390815
 20
221.67
 30
0.0
 11
148.7777740390815
 21
221.67
 31
0.0
  0
LINE
  5
1EB
330
5F
100
AcDbEntity
  8
0
  6
CONTINUOUS
 62
     0
100
AcDbLine
 10
148.7777740390815
 20
221.67
 30
0.0
 11
148.7777740390815
 21
211.67
 31
0.0
  0
SOLID
  5
1EC
330
5F
100
AcDbEntity
  8
0
 62
     0
100
AcDbTrace
 10
567.7516964774054
 20
352.16625
 30
0.0
 11
572.7516964774054
 21
354.66625
 31
0.0
 12
567.7516964774054
 22
357.16625
 32
0.0
 13
567.7516964774054
 23
357.16625
 33
0.0
  0
LINE
  5
1ED
330
5F
100
AcDbEntity
  8
0
  6
CONTINUOUS
 62
     0
100
AcDbLine
 10
580.1735860014945
 20
372.5364119492966
 30
0.0
 11
584.0453801079524
 21
372.5364119492966
 31
0.0
  0
LINE
  5
1EE
330
5F
100
AcDbEntity
  8
0
  6
CONTINUOUS
 62
     0
100
AcDbLine
 10
600.3216964774053
 20
447.23625
 30
0.0
 11
600.3216964774053
 21
442.23625
 31
0.0
  0
LINE
  5
1EF
330
5F
100
AcDbEntity
  8
0
  6
CONTINUOUS
 62
     0
100
AcDbLine
 10
582.1094830547235
 20
442.7960880507035
 30
0.0
 11
582.1094830547235
 21
447.2362499999999
 31
0.0
  0
LINE
  5
1F0
330
5F
100
AcDbEntity
  8
0
  6
CONTINUOUS
 62
     0
100
AcDbLine
 10
158.7777740390815
 20
211.67
 30
0.0
 11
148.7777740390815
 21
211.67
 31
0.0
  0
LINE
  5
1F1
330
5F
100
AcDbEntity
  8
0
  6
CONTINUOUS
 62
     0
100
AcDbLine
 10
158.7777740390815
 20
201.67
 30
0.0
 11
158.7777740390815
 21
211.67
 31
0.0
  0
LINE
  5
1F2
330
5F
100
AcDbEntity
  8
0
  6
CONTINUOUS
 62
     0
100
AcDbLine
 10
148.7777740390815
 20
201.67
 30
0.0
 11
158.7777740390815
 21
201.67
 31
0.0
  0
LINE
  5
1F3
330
5F
100
AcDbEntity
  8
0
  6
CONTINUOUS
 62
     0
100
AcDbLine
 10
148.7777740390815
 20
211.67
 30
0.0
 11
148.7777740390815
 21
201.67
 31
0.0
  0
LINE
  5
1F4
330
5F
100
AcDbEntity
  8
0
  6
CONTINUOUS
 62
     0
100
AcDbLine
 10
148.7777740390815
 20
211.67
 30
0.0
 11
138.7777740390816
 21
211.67
 31
0.0
  0
LINE
  5
1F5
330
5F
100
AcDbEntity
  8
0
  6
CONTINUOUS
 62
     0
100
AcDbLine
 10
148.7777740390815
 20
201.67
 30
0.0
 11
148.7777740390815
 21
211.67
 31
0.0
  0
LINE
  5
1F6
330
5F
100
AcDbEntity
  8
0
  6
CONTINUOUS
 62
     0
100
AcDbLine
 10
138.7777740390816
 20
201.67
 30
0.0
 11
148.7777740390815
 21
201.67
 31
0.0
  0
LINE
  5
1F7
330
5F
100
AcDbEntity
  8
0
  6
CONTINUOUS
 62
     0
100
AcDbLine
 10
138.7777740390816
 20
211.67
 30
0.0
 11
138.7777740390816
 21
201.67
 31
0.0
  0
LINE
  5
1F8
330
5F
100
AcDbEntity
  8
0
  6
CONTINUOUS
 62
     0
100
AcDbLine
 10
148.7777740390815
 20
221.67
 30
0.0
 11
138.7777740390816
 21
221.67
 31
0.0
  0
LINE
  5
1F9
330
5F
100
AcDbEntity
  8
0
  6
CONTINUOUS
 62
     0
100
AcDbLine
 10
148.7777740390815
 20
211.67
 30
0.0
 11
148.7777740390815
 21
221.67
 31
0.0
  0
LINE
  5
1FA
330
5F
100
AcDbEntity
  8
0
  6
CONTINUOUS
 62
     0
100
AcDbLine
 10
138.7777740390816
 20
211.67
 30
0.0
 11
148.7777740390815
 21
211.67
 31
0.0
  0
LINE
  5
1FB
330
5F
100
AcDbEntity
  8
0
  6
CONTINUOUS
 62
     0
100
AcDbLine
 10
138.7777740390816
 20
221.67
 30
0.0
 11
138.7777740390816
 21
211.67
 31
0.0
  0
LINE
  5
1FC
330
5F
100
AcDbEntity
  8
0
  6
CONTINUOUS
 62
     0
100
AcDbLine
 10
138.7777740390816
 20
221.67
 30
0.0
 11
128.7777740390816
 21
221.67
 31
0.0
  0
LINE
  5
1FD
330
5F
100
AcDbEntity
  8
0
  6
CONTINUOUS
 62
     0
100
AcDbLine
 10
138.7777740390816
 20
211.67
 30
0.0
 11
138.7777740390816
 21
221.67
 31
0.0
  0
LINE
  5
1FE
330
5F
100
AcDbEntity
  8
0
  6
CONTINUOUS
 62
     0
100
AcDbLine
 10
128.7777740390816
 20
211.67
 30
0.0
 11
138.7777740390816
 21
211.67
 31
0.0
  0
LINE
  5
1FF
330
5F
100
AcDbEntity
  8
0
  6
CONTINUOUS
 62
     0
100
AcDbLine
 10
128.7777740390816
 20
221.67
 30
0.0
 11
128.7777740390816
 21
211.67
 31
0.0
  0
LINE
  5
200
330
5F
100
AcDbEntity
  8
0
  6
CONTINUOUS
 62
     0
100
AcDbLine
 10
138.7777740390816
 20
211.67
 30
0.0
 11
128.7777740390816
 21
211.67
 31
0.0
  0
LINE
  5
201
330
5F
100
AcDbEntity
  8
0
  6
CONTINUOUS
 62
     0
100
AcDbLine
 10
138.7777740390816
 20
201.67
 30
0.0
 11
138.7777740390816
 21
211.67
 31
0.0
  0
LINE
  5
202
330
5F
100
AcDbEntity
  8
0
  6
CONTINUOUS
 62
     0
100
AcDbLine
 10
128.7777740390816
 20
201.67
 30
0.0
 11
138.7777740390816
 21
201.67
 31
0.0
  0
LINE
  5
203
330
5F
100
AcDbEntity
  8
0
  6
CONTINUOUS
 62
     0
100
AcDbLine
 10
128.7777740390816
 20
211.67
 30
0.0
 11
128.7777740390816
 21
201.67
 31
0.0
  0
LINE
  5
204
330
5F
100
AcDbEntity
  8
0
  6
CONTINUOUS
 62
     0
100
AcDbLine
 10
128.7777740390816
 20
221.67
 30
0.0
 11
118.7777740390817
 21
221.67
 31
0.0
  0
LINE
  5
205
330
5F
100
AcDbEntity
  8
0
  6
CONTINUOUS
 62
     0
100
AcDbLine
 10
128.7777740390816
 20
211.67
 30
0.0
 11
128.7777740390816
 21
221.67
 31
0.0
  0
LINE
  5
206
330
5F
100
AcDbEntity
  8
0
  6
CONTINUOUS
 62
     0
100
AcDbLine
 10
118.7777740390817
 20
211.67
 30
0.0
 11
128.7777740390816
 21
211.67
 31
0.0
  0
LINE
  5
207
330
5F
100
AcDbEntity
  8
0
  6
CONTINUOUS
 62
     0
100
AcDbLine
 10
118.7777740390817
 20
221.67
 30
0.0
 11
118.7777740390817
 21
211.67
 31
0.0
  0
LINE
  5
208
330
5F
100
AcDbEntity
  8
0
  6
CONTINUOUS
 62
     0
100
AcDbLine
 10
128.7777740390816
 20
211.67
 30
0.0
 11
118.7777740390817
 21
211.67
 31
0.0
  0
LINE
  5
209
330
5F
100
AcDbEntity
  8
0
  6
CONTINUOUS
 62
     0
100
AcDbLine
 10
128.7777740390816
 20
201.67
 30
0.0
 11
128.7777740390816
 21
211.67
 31
0.0
  0
LINE
  5
20A
330
5F
100
AcDbEntity
  8
0
  6
CONTINUOUS
 62
     0
100
AcDbLine
 10
118.7777740390817
 20
201.67
 30
0.0
 11
128.7777740390816
 21
201.67
 31
0.0
  0
LINE
  5
20B
330
5F
100
AcDbEntity
  8
0
  6
CONTINUOUS
 62
     0
100
AcDbLine
 10
118.7777740390817
 20
211.67
 30
0.0
 11
118.7777740390817
 21
201.67
 31
0.0
  0
LINE
  5
20C
330
5F
100
AcDbEntity
  8
0
  6
CONTINUOUS
 62
     0
100
AcDbLine
 10
118.7777740390817
 20
221.67
 30
0.0
 11
108.7777740390817
 21
221.67
 31
0.0
  0
LINE
  5
20D
330
5F
100
AcDbEntity
  8
0
  6
CONTINUOUS
 62
     0
100
AcDbLine
 10
118.7777740390817
 20
211.67
 30
0.0
 11
118.7777740390817
 21
221.67
 31
0.0
  0
LINE
  5
20E
330
5F
100
AcDbEntity
  8
0
  6
CONTINUOUS
 62
     0
100
AcDbLine
 10
108.7777740390817
 20
211.67
 30
0.0
 11
118.7777740390817
 21
211.67
 31
0.0
  0
LINE
  5
20F
330
5F
100
AcDbEntity
  8
0
  6
CONTINUOUS
 62
     0
100
AcDbLine
 10
108.7777740390817
 20
221.67
 30
0.0
 11
108.7777740390817
 21
211.67
 31
0.0
  0
LINE
  5
210
330
5F
100
AcDbEntity
  8
0
  6
CONTINUOUS
 62
     0
100
AcDbLine
 10
118.7777740390817
 20
211.67
 30
0.0
 11
108.7777740390817
 21
211.67
 31
0.0
  0
LINE
  5
211
330
5F
100
AcDbEntity
  8
0
  6
CONTINUOUS
 62
     0
100
AcDbLine
 10
118.7777740390817
 20
201.67
 30
0.0
 11
118.7777740390817
 21
211.67
 31
0.0
  0
LINE
  5
212
330
5F
100
AcDbEntity
  8
0
  6
CONTINUOUS
 62
     0
100
AcDbLine
 10
108.7777740390817
 20
201.67
 30
0.0
 11
118.7777740390817
 21
201.67
 31
0.0
  0
LINE
  5
213
330
5F
100
AcDbEntity
  8
0
  6
CONTINUOUS
 62
     0
100
AcDbLine
 10
108.7777740390817
 20
211.67
 30
0.0
 11
108.7777740390817
 21
201.67
 31
0.0
  0
LINE
  5
214
330
5F
100
AcDbEntity
  8
0
  6
CONTINUOUS
 62
     0
100
AcDbLine
 10
108.7777740390817
 20
221.67
 30
0.0
 11
98.7777740390818
 21
221.67
 31
0.0
  0
LINE
  5
215
330
5F
100
AcDbEntity
  8
0
  6
CONTINUOUS
 62
     0
100
AcDbLine
 10
108.7777740390817
 20
211.67
 30
0.0
 11
108.7777740390817
 21
221.67
 31
0.0
  0
LINE
  5
216
330
5F
100
AcDbEntity
  8
0
  6
CONTINUOUS
 62
     0
100
AcDbLine
 10
98.7777740390818
 20
211.67
 30
0.0
 11
108.7777740390817
 21
211.67
 31
0.0
  0
LINE
  5
217
330
5F
100
AcDbEntity
  8
0
  6
CONTINUOUS
 62
     0
100
AcDbLine
 10
98.7777740390818
 20
221.67
 30
0.0
 11
98.7777740390818
 21
211.67
 31
0.0
  0
LINE
  5
218
330
5F
100
AcDbEntity
  8
0
  6
CONTINUOUS
 62
     0
100
AcDbLine
 10
108.7777740390817
 20
211.67
 30
0.0
 11
98.7777740390818
 21
211.67
 31
0.0
  0
LINE
  5
219
330
5F
100
AcDbEntity
  8
0
  6
CONTINUOUS
 62
     0
100
AcDbLine
 10
108.7777740390817
 20
201.67
 30
0.0
 11
108.7777740390817
 21
211.67
 31
0.0
  0
LINE
  5
21A
330
5F
100
AcDbEntity
  8
0
  6
CONTINUOUS
 62
     0
100
AcDbLine
 10
98.7777740390818
 20
201.67
 30
0.0
 11
108.7777740390817
 21
201.67
 31
0.0
  0
LINE
  5
21B
330
5F
100
AcDbEntity
  8
0
  6
CONTINUOUS
 62
     0
100
AcDbLine
 10
98.7777740390818
 20
211.67
 30
0.0
 11
98.7777740390818
 21
201.67
 31
0.0
  0
CIRCLE
  5
21C
330
5F
100
AcDbEntity
  8
0
  6
CONTINUOUS
 62
     0
100
AcDbCircle
 10
134.7977740390817
 20
235.06
 30
0.0
 40
5.000000000000005
  0
LINE
  5
21D
330
5F
100
AcDbEntity
  8
0
  6
CONTINUOUS
 62
     0
100
AcDbLine
 10
134.7977740390817
 20
246.42
 30
0.0
 11
139.7977740390817
 21
246.42
 31
0.0
  0
LINE
  5
21E
330
5F
100
AcDbEntity
  8
0
  6
CONTINUOUS
 62
     0
100
AcDbLine
 10
134.7977740390817
 20
263.07
 30
0.0
 11
139.7977740390817
 21
263.07
 31
0.0
  0
LINE
  5
21F
330
5F
100
AcDbEntity
  8
0
  6
CONTINUOUS
 62
     0
100
AcDbLine
 10
129.7977740390817
 20
235.06
 30
0.0
 11
118.7777740390817
 21
235.06
 31
0.0
  0
LINE
  5
220
330
5F
100
AcDbEntity
  8
0
  6
CONTINUOUS
 62
     0
100
AcDbLine
 10
228.4918769858528
 20
170.1538709592085
 30
0.0
 11
232.3636710923106
 21
163.3541948578016
 31
0.0
  0
LINE
  5
221
330
5F
100
AcDbEntity
  8
0
  6
CONTINUOUS
 62
     0
100
AcDbLine
 10
230.4277740390817
 20
163.3541948578016
 30
0.0
 11
230.4277740390817
 21
154.79
 31
0.0
  0
LINE
  5
222
330
5F
100
AcDbEntity
  8
0
  6
CONTINUOUS
 62
     0
100
AcDbLine
 10
227.0279359883785
 20
168.6899299617337
 30
0.0
 11
227.0279359883785
 21
164.8181358552763
 31
0.0
  0
LINE
  5
223
330
5F
100
AcDbEntity
  8
0
  6
CONTINUOUS
 62
     0
100
AcDbLine
 10
230.4277740390817
 20
172.6761964706798
 30
0.0
 11
230.4277740390817
 21
170.1538709592085
 31
0.0
  0
LINE
  5
224
330
5F
100
AcDbEntity
  8
0
  6
CONTINUOUS
 62
     0
100
AcDbLine
 10
232.3636710923106
 20
170.1538709592085
 30
0.0
 11
228.4918769858528
 21
163.3541948578016
 31
0.0
  0
LINE
  5
225
330
5F
100
AcDbEntity
  8
0
  6
CONTINUOUS
 62
     0
100
AcDbLine
 10
227.0279359883785
 20
168.6899299617337
 30
0.0
 11
230.4277740390817
 21
166.754032908505
 31
0.0
  0
LINE
  5
226
330
5F
100
AcDbEntity
  8
0
  6
CONTINUOUS
 62
     0
100
AcDbLine
 10
232.3636710923106
 20
163.3541948578016
 30
0.0
 11
228.4918769858528
 21
163.3541948578016
 31
0.0
  0
LINE
  5
227
330
5F
100
AcDbEntity
  8
0
  6
CONTINUOUS
 62
     0
100
AcDbLine
 10
232.3636710923106
 20
170.1538709592085
 30
0.0
 11
228.4918769858528
 21
170.1538709592085
 31
0.0
  0
LINE
  5
228
330
5F
100
AcDbEntity
  8
0
  6
CONTINUOUS
 62
     0
100
AcDbLine
 10
230.4277740390817
 20
166.754032908505
 30
0.0
 11
227.0279359883785
 21
164.8181358552763
 31
0.0
  0
CIRCLE
  5
229
330
5F
100
AcDbEntity
  8
0
  6
CONTINUOUS
 62
     0
100
AcDbCircle
 10
230.4277740390817
 20
177.5709981012408
 30
0.0
 40
4.894801630560901
  0
LINE
  5
22A
330
5F
100
AcDbEntity
  8
0
  6
CONTINUOUS
 62
     0
100
AcDbLine
 10
207.546516759292
 20
150.209621839741
 30
0.0
 11
196.1311669938924
 21
154.7900000000004
 31
0.0
  0
LINE
  5
22B
330
5F
100
AcDbEntity
  8
0
  6
CONTINUOUS
 62
     0
100
AcDbLine
 10
196.1311669938924
 20
154.7900000000004
 30
0.0
 11
207.5847244621246
 21
159.3300958739697
 31
0.0
  0
CIRCLE
  5
22C
330
5F
100
AcDbEntity
  8
0
  6
CONTINUOUS
 62
     0
100
AcDbCircle
 10
202.7577740390817
 20
154.79
 30
0.0
 40
6.626607045189117
  0
LINE
  5
22D
330
5F
100
AcDbEntity
  8
0
  6
CONTINUOUS
 62
     0
100
AcDbLine
 10
595.3216964774053
 20
442.23625
 30
0.0
 11
590.3216964774053
 21
442.23625
 31
0.0
  0
LINE
  5
22E
330
5F
100
AcDbEntity
  8
0
  6
CONTINUOUS
 62
     0
100
AcDbLine
 10
592.2616964774054
 20
447.23625
 30
0.0
 11
595.3216964774053
 21
447.23625
 31
0.0
  0
LINE
  5
22F
330
5F
100
AcDbEntity
  8
0
  6
CONTINUOUS
 62
     0
100
AcDbLine
 10
647.8283916382132
 20
220.2617703164885
 30
0.0
 11
660.35
 21
213.1318587243029
 31
0.0
  0
CIRCLE
  5
230
330
5F
100
AcDbEntity
  8
0
  6
CONTINUOUS
 62
     0
100
AcDbCircle
 10
202.7577740390817
 20
169.615
 30
0.0
 40
5.000000000000005
  0
LINE
  5
231
330
5F
100
AcDbEntity
  8
0
  6
CONTINUOUS
 62
     0
100
AcDbLine
 10
584.0453801079524
 20
372.5364119492966
 30
0.0
 11
580.1735860014945
 21
379.3360880507035
 31
0.0
  0
LINE
  5
232
330
5F
100
AcDbEntity
  8
0
  6
CONTINUOUS
 62
     0
100
AcDbLine
 10
612.3216964774055
 20
383.7762499999999
 30
0.0
 11
612.3216964774055
 21
379.3360880507033
 31
0.0
  0
LINE
  5
233
330
5F
100
AcDbEntity
  8
0
  6
CONTINUOUS
 62
     0
100
AcDbLine
 10
202.7577740390817
 20
161.4166070451891
 30
0.0
 11
202.7577740390817
 21
164.63
 31
0.0
  0
LINE
  5
234
330
5F
100
AcDbEntity
  8
0
  6
CONTINUOUS
 62
     0
100
AcDbLine
 10
202.7577740390817
 20
174.615
 30
0.0
 11
202.7577740390817
 21
191.26
 31
0.0
  0
LINE
  5
235
330
5F
100
AcDbEntity
  8
0
  6
CONTINUOUS
 62
     0
100
AcDbLine
 10
185.5379359883785
 20
120.9099299617338
 30
0.0
 11
188.9377740390817
 21
118.9740329085051
 31
0.0
  0
LINE
  5
236
330
5F
100
AcDbEntity
  8
0
  6
CONTINUOUS
 62
     0
100
AcDbLine
 10
188.9377740390817
 20
115.5741948578016
 30
0.0
 11
188.9377740390817
 21
107.01
 31
0.0
  0
LINE
  5
237
330
5F
100
AcDbEntity
  8
0
  6
CONTINUOUS
 62
     0
100
AcDbLine
 10
185.5379359883785
 20
120.9099299617338
 30
0.0
 11
185.5379359883785
 21
117.0381358552764
 31
0.0
  0
LINE
  5
238
330
5F
100
AcDbEntity
  8
0
  6
CONTINUOUS
 62
     0
100
AcDbLine
 10
187.0018769858528
 20
122.3738709592085
 30
0.0
 11
190.8736710923106
 21
115.5741948578016
 31
0.0
  0
LINE
  5
239
330
5F
100
AcDbEntity
  8
0
  6
CONTINUOUS
 62
     0
100
AcDbLine
 10
188.9377740390817
 20
124.8961964706798
 30
0.0
 11
188.9377740390817
 21
122.3738709592085
 31
0.0
  0
LINE
  5
23A
330
5F
100
AcDbEntity
  8
0
  6
CONTINUOUS
 62
     0
100
AcDbLine
 10
190.8736710923106
 20
122.3738709592085
 30
0.0
 11
187.0018769858528
 21
115.5741948578016
 31
0.0
  0
CIRCLE
  5
23B
330
5F
100
AcDbEntity
  8
0
  6
CONTINUOUS
 62
     0
100
AcDbCircle
 10
188.9377740390817
 20
129.7909981012408
 30
0.0
 40
4.894801630560901
  0
LINE
  5
23C
330
5F
100
AcDbEntity
  8
0
  6
CONTINUOUS
 62
     0
100
AcDbLine
 10
188.9377740390817
 20
118.9740329085051
 30
0.0
 11
185.5379359883785
 21
117.0381358552764
 31
0.0
  0
LINE
  5
23D
330
5F
100
AcDbEntity
  8
0
  6
CONTINUOUS
 62
     0
100
AcDbLine
 10
190.8736710923106
 20
122.3738709592085
 30
0.0
 11
187.0018769858528
 21
122.3738709592085
 31
0.0
  0
LINE
  5
23E
330
5F
100
AcDbEntity
  8
0
  6
CONTINUOUS
 62
     0
100
AcDbLine
 10
190.8736710923106
 20
115.5741948578016
 30
0.0
 11
187.0018769858528
 21
115.5741948578016
 31
0.0
  0
LINE
  5
23F
330
5F
100
AcDbEntity
  8
0
  6
CONTINUOUS
 62
     0
100
AcDbLine
 10
153.3577740390817
 20
166.754032908505
 30
0.0
 11
149.9579359883784
 21
164.8181358552763
 31
0.0
  0
LINE
  5
240
330
5F
100
AcDbEntity
  8
0
  6
CONTINUOUS
 62
     0
100
AcDbLine
 10
79.59777403908168
 20
107.01
 30
0.0
 11
87.75777403908171
 21
107.01
 31
0.0
  0
SOLID
  5
241
330
5F
100
AcDbEntity
  8
0
 62
     0
100
AcDbTrace
 10
87.75777403908171
 20
104.51
 30
0.0
 11
92.75777403908171
 21
107.01
 31
0.0
 12
87.75777403908171
 22
109.51
 32
0.0
 13
87.75777403908171
 23
109.51
 33
0.0
  0
LINE
  5
242
330
5F
100
AcDbEntity
  8
0
  6
CONTINUOUS
 62
     0
100
AcDbLine
 10
113.7193824008685
 20
107.01
 30
0.0
 11
209.9661745392363
 21
107.01
 31
0.0
  0
LINE
  5
243
330
5F
100
AcDbEntity
  8
0
  6
CONTINUOUS
 62
     0
100
AcDbLine
 10
101.1977740390817
 20
110.5749557960928
 30
0.0
 11
113.7193824008685
 21
103.4450442039072
 31
0.0
  0
LINE
  5
244
330
5F
100
AcDbEntity
  8
0
  6
CONTINUOUS
 62
     0
100
AcDbLine
 10
101.1977740390817
 20
110.5749557960928
 30
0.0
 11
101.1977740390817
 21
103.4450442039072
 31
0.0
  0
LINE
  5
245
330
5F
100
AcDbEntity
  8
0
  6
CONTINUOUS
 62
     0
100
AcDbLine
 10
113.7193824008685
 20
110.5749557960928
 30
0.0
 11
113.7193824008685
 21
103.4450442039072
 31
0.0
  0
LINE
  5
246
330
5F
100
AcDbEntity
  8
0
  6
CONTINUOUS
 62
     0
100
AcDbLine
 10
101.1977740390817
 20
103.4450442039072
 30
0.0
 11
113.7193824008685
 21
110.5749557960928
 31
0.0
  0
LINE
  5
247
330
5F
100
AcDbEntity
  8
0
  6
CONTINUOUS
 62
     0
100
AcDbLine
 10
92.75777403908171
 20
107.01
 30
0.0
 11
101.1977740390817
 21
107.01
 31
0.0
  0
LINE
  5
248
330
5F
100
AcDbEntity
  8
0
  6
CONTINUOUS
 62
     0
100
AcDbLine
 10
151.4218769858527
 20
170.1538709592085
 30
0.0
 11
155.2936710923106
 21
163.3541948578016
 31
0.0
  0
LINE
  5
249
330
5F
100
AcDbEntity
  8
0
  6
CONTINUOUS
 62
     0
100
AcDbLine
 10
155.2936710923106
 20
170.1538709592085
 30
0.0
 11
151.4218769858527
 21
163.3541948578016
 31
0.0
  0
LINE
  5
24A
330
5F
100
AcDbEntity
  8
0
  6
CONTINUOUS
 62
     0
100
AcDbLine
 10
153.3577740390817
 20
172.6761964706798
 30
0.0
 11
153.3577740390817
 21
170.1538709592085
 31
0.0
  0
LINE
  5
24B
330
5F
100
AcDbEntity
  8
0
  6
CONTINUOUS
 62
     0
100
AcDbLine
 10
155.2936710923106
 20
163.3541948578016
 30
0.0
 11
151.4218769858527
 21
163.3541948578016
 31
0.0
  0
LINE
  5
24C
330
5F
100
AcDbEntity
  8
0
  6
CONTINUOUS
 62
     0
100
AcDbLine
 10
155.2936710923106
 20
170.1538709592085
 30
0.0
 11
151.4218769858527
 21
170.1538709592085
 31
0.0
  0
LINE
  5
24D
330
5F
100
AcDbEntity
  8
0
  6
CONTINUOUS
 62
     0
100
AcDbLine
 10
153.3577740390817
 20
163.3541948578016
 30
0.0
 11
153.3577740390817
 21
154.79
 31
0.0
  0
LINE
  5
24E
330
5F
100
AcDbEntity
  8
0
  6
CONTINUOUS
 62
     0
100
AcDbLine
 10
149.9579359883784
 20
168.6899299617337
 30
0.0
 11
149.9579359883784
 21
164.8181358552763
 31
0.0
  0
LINE
  5
24F
330
5F
100
AcDbEntity
  8
0
  6
CONTINUOUS
 62
     0
100
AcDbLine
 10
149.9579359883784
 20
168.6899299617337
 30
0.0
 11
153.3577740390817
 21
166.754032908505
 31
0.0
  0
CIRCLE
  5
250
330
5F
100
AcDbEntity
  8
0
  6
CONTINUOUS
 62
     0
100
AcDbCircle
 10
153.3577740390817
 20
177.5709981012408
 30
0.0
 40
4.8948016305609
  0
LINE
  5
251
330
5F
100
AcDbEntity
  8
0
  6
CONTINUOUS
 62
     0
100
AcDbLine
 10
171.9477740390817
 20
118.9740329085051
 30
0.0
 11
168.5479359883784
 21
117.0381358552764
 31
0.0
  0
LINE
  5
252
330
5F
100
AcDbEntity
  8
0
  6
CONTINUOUS
 62
     0
100
AcDbLine
 10
170.0118769858528
 20
122.3738709592085
 30
0.0
 11
173.8836710923106
 21
115.5741948578016
 31
0.0
  0
LINE
  5
253
330
5F
100
AcDbEntity
  8
0
  6
CONTINUOUS
 62
     0
100
AcDbLine
 10
173.8836710923106
 20
122.3738709592085
 30
0.0
 11
170.0118769858528
 21
115.5741948578016
 31
0.0
  0
LINE
  5
254
330
5F
100
AcDbEntity
  8
0
  6
CONTINUOUS
 62
     0
100
AcDbLine
 10
171.9477740390817
 20
124.8961964706798
 30
0.0
 11
171.9477740390817
 21
122.3738709592085
 31
0.0
  0
LINE
  5
255
330
5F
100
AcDbEntity
  8
0
  6
CONTINUOUS
 62
     0
100
AcDbLine
 10
173.8836710923106
 20
115.5741948578016
 30
0.0
 11
170.0118769858528
 21
115.5741948578016
 31
0.0
  0
LINE
  5
256
330
5F
100
AcDbEntity
  8
0
  6
CONTINUOUS
 62
     0
100
AcDbLine
 10
173.8836710923106
 20
122.3738709592085
 30
0.0
 11
170.0118769858528
 21
122.3738709592085
 31
0.0
  0
LINE
  5
257
330
5F
100
AcDbEntity
  8
0
  6
CONTINUOUS
 62
     0
100
AcDbLine
 10
171.9477740390817
 20
115.5741948578016
 30
0.0
 11
171.9477740390817
 21
107.01
 31
0.0
  0
LINE
  5
258
330
5F
100
AcDbEntity
  8
0
  6
CONTINUOUS
 62
     0
100
AcDbLine
 10
168.5479359883784
 20
120.9099299617338
 30
0.0
 11
168.5479359883784
 21
117.0381358552764
 31
0.0
  0
LINE
  5
259
330
5F
100
AcDbEntity
  8
0
  6
CONTINUOUS
 62
     0
100
AcDbLine
 10
168.5479359883784
 20
120.9099299617338
 30
0.0
 11
171.9477740390817
 21
118.9740329085051
 31
0.0
  0
CIRCLE
  5
25A
330
5F
100
AcDbEntity
  8
0
  6
CONTINUOUS
 62
     0
100
AcDbCircle
 10
171.9477740390817
 20
129.7909981012408
 30
0.0
 40
4.8948016305609
  0
LINE
  5
25B
330
5F
100
AcDbEntity
  8
0
  6
CONTINUOUS
 62
     0
100
AcDbLine
 10
118.7777740390817
 20
201.67
 30
0.0
 11
118.7777740390817
 21
191.26
 31
0.0
  0
LINE
  5
25C
330
5F
100
AcDbEntity
  8
0
  6
CONTINUOUS
 62
     0
100
AcDbLine
 10
118.7777740390817
 20
191.26
 30
0.0
 11
230.4277740390817
 21
191.26
 31
0.0
  0
LINE
  5
25D
330
5F
100
AcDbEntity
  8
0
  6
CONTINUOUS
 62
     0
100
AcDbLine
 10
230.4277740390817
 20
182.4657997318017
 30
0.0
 11
230.4277740390817
 21
191.26
 31
0.0
  0
LINE
  5
25E
330
5F
100
AcDbEntity
  8
0
  6
CONTINUOUS
 62
     0
100
AcDbLine
 10
153.3577740390817
 20
182.4657997318017
 30
0.0
 11
153.3577740390817
 21
191.26
 31
0.0
  0
LINE
  5
25F
330
5F
100
AcDbEntity
  8
0
  6
CONTINUOUS
 62
     0
100
AcDbLine
 10
171.9477740390817
 20
134.6857997318018
 30
0.0
 11
171.9477740390817
 21
191.26
 31
0.0
  0
LINE
  5
260
330
5F
100
AcDbEntity
  8
0
  6
CONTINUOUS
 62
     0
100
AcDbLine
 10
223.2193795474441
 20
107.0245130802019
 30
0.0
 11
211.7689167879822
 21
102.4766177629033
 31
0.0
  0
LINE
  5
261
330
5F
100
AcDbEntity
  8
0
  6
CONTINUOUS
 62
     0
100
AcDbLine
 10
216.5927740390816
 20
113.6466070451891
 30
0.0
 11
216.5927740390816
 21
116.86
 31
0.0
  0
LINE
  5
262
330
5F
100
AcDbEntity
  8
0
  6
CONTINUOUS
 62
     0
100
AcDbLine
 10
211.800912942546
 20
111.5971157034594
 30
0.0
 11
223.2193795474441
 21
107.0245130802019
 31
0.0
  0
LINE
  5
263
330
5F
100
AcDbEntity
  8
0
  6
CONTINUOUS
 62
     0
100
AcDbLine
 10
216.5927740390817
 20
126.845
 30
0.0
 11
216.5927740390817
 21
191.26
 31
0.0
  0
CIRCLE
  5
264
330
5F
100
AcDbEntity
  8
0
  6
CONTINUOUS
 62
     0
100
AcDbCircle
 10
216.5927740390816
 20
107.02
 30
0.0
 40
6.626607045189117
  0
CIRCLE
  5
265
330
5F
100
AcDbEntity
  8
0
  6
CONTINUOUS
 62
     0
100
AcDbCircle
 10
216.5927740390817
 20
121.845
 30
0.0
 40
5.000000000000005
  0
LINE
  5
266
330
5F
100
AcDbEntity
  8
0
  6
CONTINUOUS
 62
     0
100
AcDbLine
 10
188.9377740390817
 20
134.6857997318018
 30
0.0
 11
188.9377740390817
 21
191.26
 31
0.0
  0
LINE
  5
267
330
5F
100
AcDbEntity
  8
0
  6
CONTINUOUS
 62
     0
100
AcDbLine
 10
209.3843810842708
 20
154.79
 30
0.0
 11
352.3277740390817
 21
154.79
 31
0.0
  0
LINE
  5
268
330
5F
100
AcDbEntity
  8
0
  6
CONTINUOUS
 62
     0
100
AcDbLine
 10
223.1828392419218
 20
107.01
 30
0.0
 11
298.6579359883782
 21
107.01
 31
0.0
  0
LINE
  5
269
330
5F
100
AcDbEntity
  8
0
  6
CONTINUOUS
 62
     0
100
AcDbLine
 10
610.3857994241765
 20
372.5364119492964
 30
0.0
 11
614.2575935306344
 21
372.5364119492964
 31
0.0
  0
LINE
  5
26A
330
5F
100
AcDbEntity
  8
0
  6
CONTINUOUS
 62
     0
100
AcDbLine
 10
614.2575935306344
 20
372.5364119492964
 30
0.0
 11
610.3857994241765
 21
379.3360880507033
 31
0.0
  0
LINE
  5
26B
330
5F
100
AcDbEntity
  8
0
  6
CONTINUOUS
 62
     0
100
AcDbLine
 10
610.3857994241765
 20
379.3360880507033
 30
0.0
 11
612.3216964774055
 21
379.3360880507033
 31
0.0
  0
LINE
  5
26C
330
5F
100
AcDbEntity
  8
0
  6
CONTINUOUS
 62
     0
100
AcDbLine
 10
610.3857994241765
 20
372.5364119492964
 30
0.0
 11
614.2575935306344
 21
379.3360880507033
 31
0.0
  0
LINE
  5
26D
330
5F
100
AcDbEntity
  8
0
  6
CONTINUOUS
 62
     0
100
AcDbLine
 10
580.1735860014945
 20
442.7960880507035
 30
0.0
 11
584.0453801079524
 21
435.9964119492965
 31
0.0
  0
LINE
  5
26E
330
5F
100
AcDbEntity
  8
0
  6
CONTINUOUS
 62
     0
100
AcDbLine
 10
590.3216964774053
 20
452.23625
 30
0.0
 11
595.3216964774053
 21
452.23625
 31
0.0
  0
LINE
  5
26F
330
5F
100
AcDbEntity
  8
0
  6
CONTINUOUS
 62
     0
100
AcDbLine
 10
608.5339099000872
 20
447.2362500000002
 30
0.0
 11
600.3216964774053
 21
447.23625
 31
0.0
  0
LINE
  5
270
330
5F
100
AcDbEntity
  8
0
  6
CONTINUOUS
 62
     0
100
AcDbLine
 10
580.1735860014945
 20
442.7960880507035
 30
0.0
 11
584.0453801079524
 21
442.7960880507035
 31
0.0
  0
LINE
  5
271
330
5F
100
AcDbEntity
  8
0
  6
CONTINUOUS
 62
     0
100
AcDbLine
 10
584.0453801079524
 20
442.7960880507035
 30
0.0
 11
580.1735860014945
 21
435.9964119492965
 31
0.0
  0
LINE
  5
272
330
5F
100
AcDbEntity
  8
0
  6
CONTINUOUS
 62
     0
100
AcDbLine
 10
590.3216964774053
 20
447.23625
 30
0.0
 11
582.1094830547235
 21
447.2362499999999
 31
0.0
  0
LINE
  5
273
330
5F
100
AcDbEntity
  8
0
  6
CONTINUOUS
 62
     0
100
AcDbLine
 10
590.3216964774053
 20
447.23625
 30
0.0
 11
590.3216964774053
 21
452.23625
 31
0.0
  0
LINE
  5
274
330
5F
100
AcDbEntity
  8
0
  6
CONTINUOUS
 62
     0
100
AcDbLine
 10
580.1735860014945
 20
435.9964119492965
 30
0.0
 11
582.1094830547235
 21
435.9964119492965
 31
0.0
  0
LINE
  5
275
330
5F
100
AcDbEntity
  8
0
  6
CONTINUOUS
 62
     0
100
AcDbLine
 10
600.3216964774053
 20
452.23625
 30
0.0
 11
600.3216964774053
 21
447.23625
 31
0.0
  0
LINE
  5
276
330
5F
100
AcDbEntity
  8
0
  6
CONTINUOUS
 62
     0
100
AcDbLine
 10
595.3216964774053
 20
452.23625
 30
0.0
 11
600.3216964774053
 21
452.23625
 31
0.0
  0
LINE
  5
277
330
5F
100
AcDbEntity
  8
0
  6
CONTINUOUS
 62
     0
100
AcDbLine
 10
600.3216964774053
 20
442.23625
 30
0.0
 11
595.3216964774053
 21
442.23625
 31
0.0
  0
LINE
  5
278
330
5F
100
AcDbEntity
  8
0
  6
CONTINUOUS
 62
     0
100
AcDbLine
 10
590.3216964774053
 20
442.23625
 30
0.0
 11
590.3216964774053
 21
447.23625
 31
0.0
  0
LINE
  5
279
330
5F
100
AcDbEntity
  8
0
  6
CONTINUOUS
 62
     0
100
AcDbLine
 10
582.1094830547235
 20
431.55625
 30
0.0
 11
582.1094830547235
 21
435.9964119492965
 31
0.0
  0
LINE
  5
27A
330
5F
100
AcDbEntity
  8
0
  6
CONTINUOUS
 62
     0
100
AcDbLine
 10
359.9677740390817
 20
128.1
 30
0.0
 11
359.9677740390817
 21
133.1
 31
0.0
  0
LINE
  5
27B
330
5F
100
AcDbEntity
  8
0
  6
CONTINUOUS
 62
     0
100
AcDbLine
 10
349.9677740390818
 20
133.1
 30
0.0
 11
349.9677740390818
 21
128.1
 31
0.0
  0
LINE
  5
27C
330
5F
100
AcDbEntity
  8
0
  6
CONTINUOUS
 62
     0
100
AcDbLine
 10
349.9677740390818
 20
128.1
 30
0.0
 11
354.9677740390817
 21
128.1
 31
0.0
  0
LINE
  5
27D
330
5F
100
AcDbEntity
  8
0
  6
CONTINUOUS
 62
     0
100
AcDbLine
 10
354.9677740390817
 20
128.1
 30
0.0
 11
359.9677740390817
 21
128.1
 31
0.0
  0
LINE
  5
27E
330
5F
100
AcDbEntity
  8
0
  6
CONTINUOUS
 62
     0
100
AcDbLine
 10
354.9677740390817
 20
138.1
 30
0.0
 11
359.9677740390816
 21
138.1
 31
0.0
  0
LINE
  5
27F
330
5F
100
AcDbEntity
  8
0
  6
CONTINUOUS
 62
     0
100
AcDbLine
 10
349.9677740390818
 20
138.1
 30
0.0
 11
349.9677740390818
 21
133.1
 31
0.0
  0
LINE
  5
280
330
5F
100
AcDbEntity
  8
0
  6
CONTINUOUS
 62
     0
100
AcDbLine
 10
359.9677740390817
 20
133.1
 30
0.0
 11
359.9677740390817
 21
138.1
 31
0.0
  0
LINE
  5
281
330
5F
100
AcDbEntity
  8
0
  6
CONTINUOUS
 62
     0
100
AcDbLine
 10
349.9677740390817
 20
138.1
 30
0.0
 11
354.9677740390817
 21
138.1
 31
0.0
  0
LINE
  5
282
330
5F
100
AcDbEntity
  8
0
  6
CONTINUOUS
 62
     0
100
AcDbLine
 10
354.9677740390817
 20
154.79
 30
0.0
 11
354.9677740390817
 21
138.1
 31
0.0
  0
LINE
  5
283
330
5F
100
AcDbEntity
  8
0
  6
CONTINUOUS
 62
     0
100
AcDbLine
 10
352.3277740390817
 20
154.79
 30
0.0
 11
354.9677740390817
 21
154.79
 31
0.0
  0
LINE
  5
284
330
5F
100
AcDbEntity
  8
0
  6
CONTINUOUS
 62
     0
100
AcDbLine
 10
354.9677740390817
 20
128.1
 30
0.0
 11
354.9677740390817
 21
107.01
 31
0.0
  0
LINE
  5
285
330
5F
100
AcDbEntity
  8
0
  6
CONTINUOUS
 62
     0
100
AcDbLine
 10
350.9677740390817
 20
138.1
 30
0.0
 11
350.9677740390816
 21
128.1
 31
0.0
  0
LINE
  5
286
330
5F
100
AcDbEntity
  8
0
  6
CONTINUOUS
 62
     0
100
AcDbLine
 10
351.9677740390817
 20
138.1
 30
0.0
 11
351.9677740390817
 21
128.1
 31
0.0
  0
LINE
  5
287
330
5F
100
AcDbEntity
  8
0
  6
CONTINUOUS
 62
     0
100
AcDbLine
 10
352.9677740390817
 20
138.1
 30
0.0
 11
352.9677740390817
 21
128.1
 31
0.0
  0
LINE
  5
288
330
5F
100
AcDbEntity
  8
0
  6
CONTINUOUS
 62
     0
100
AcDbLine
 10
353.9677740390817
 20
138.1
 30
0.0
 11
353.9677740390817
 21
128.1
 31
0.0
  0
LINE
  5
289
330
5F
100
AcDbEntity
  8
0
  6
CONTINUOUS
 62
     0
100
AcDbLine
 10
354.9677740390817
 20
138.1
 30
0.0
 11
354.9677740390817
 21
128.1
 31
0.0
  0
LINE
  5
28A
330
5F
100
AcDbEntity
  8
0
  6
CONTINUOUS
 62
     0
100
AcDbLine
 10
355.9677740390817
 20
138.1
 30
0.0
 11
355.9677740390817
 21
128.1
 31
0.0
  0
LINE
  5
28B
330
5F
100
AcDbEntity
  8
0
  6
CONTINUOUS
 62
     0
100
AcDbLine
 10
356.9677740390817
 20
138.1
 30
0.0
 11
356.9677740390817
 21
128.1
 31
0.0
  0
LINE
  5
28C
330
5F
100
AcDbEntity
  8
0
  6
CONTINUOUS
 62
     0
100
AcDbLine
 10
357.9677740390817
 20
138.1
 30
0.0
 11
357.9677740390817
 21
128.1
 31
0.0
  0
LINE
  5
28D
330
5F
100
AcDbEntity
  8
0
  6
CONTINUOUS
 62
     0
100
AcDbLine
 10
358.9677740390817
 20
138.1
 30
0.0
 11
358.9677740390817
 21
128.1
 31
0.0
  0
LINE
  5
28E
330
5F
100
AcDbEntity
  8
0
  6
CONTINUOUS
 62
     0
100
AcDbLine
 10
298.6579359883782
 20
107.01
 30
0.0
 11
354.9677740390817
 21
107.01
 31
0.0
  0
LINE
  5
290
330
5F
100
AcDbEntity
  8
0
  6
HIDDEN_PERB_SCALE0_939823
 62
     0
100
AcDbLine
 10
89.8977740390817
 20
280.31
 30
0.0
 11
89.8977740390817
 21
181.84
 31
0.0
  0
LINE
  5
292
330
5F
100
AcDbEntity
  8
0
  6
HIDDEN_PER5_SCALE0_894891
 62
     0
100
AcDbLine
 10
89.8977740390817
 20
181.84
 30
0.0
 11
132.5169698581882
 21
181.84
 31
0.0
  0
LINE
  5
294
330
5F
100
AcDbEntity
  8
0
  6
HIDDEN_PER9_SCALE0_997492
 62
     0
100
AcDbLine
 10
132.5169698581882
 20
181.84
 30
0.0
 11
132.5169698581882
 21
96.32999999999998
 31
0.0
  0
LINE
  5
296
330
5F
100
AcDbEntity
  8
0
  6
HIDDEN_PERC_SCALE0_994408
 62
     0
100
AcDbLine
 10
132.5169698581882
 20
96.32999999999998
 30
0.0
 11
246.1777740390817
 21
96.32999999999998
 31
0.0
  0
LINE
  5
298
330
5F
100
AcDbEntity
  8
0
  6
HIDDEN_PERB_SCALE0_961107
 62
     0
100
AcDbLine
 10
246.1777740390817
 20
96.32999999999998
 30
0.0
 11
246.1777740390817
 21
197.03
 31
0.0
  0
LINE
  5
29A
330
5F
100
AcDbEntity
  8
0
  6
HIDDEN_PER9_SCALE0_925868
 62
     0
100
AcDbLine
 10
246.1777740390817
 20
197.03
 30
0.0
 11
166.8077740390817
 21
197.03
 31
0.0
  0
LINE
  5
29C
330
5F
100
AcDbEntity
  8
0
  6
HIDDEN_PER9_SCALE0_971479
 62
     0
100
AcDbLine
 10
166.8077740390817
 20
197.03
 30
0.0
 11
166.8077740390817
 21
280.31
 31
0.0
  0
LINE
  5
29E
330
5F
100
AcDbEntity
  8
0
  6
HIDDEN_PER9_SCALE0_897171
 62
     0
100
AcDbLine
 10
166.8077740390817
 20
280.31
 30
0.0
 11
89.8977740390817
 21
280.31
 31
0.0
  0
LINE
  5
29F
330
5F
100
AcDbEntity
  8
0
  6
CONTINUOUS
 62
     0
100
AcDbLine
 10
595.3216964774053
 20
452.23625
 30
0.0
 11
595.3216964774053
 21
449.94625
 31
0.0
  0
LINE
  5
2A0
330
5F
100
AcDbEntity
  8
0
  6
CONTINUOUS
 62
     0
100
AcDbLine
 10
582.1094830547235
 20
435.9964119492965
 30
0.0
 11
584.0453801079524
 21
435.9964119492965
 31
0.0
  0
LINE
  5
2A1
330
5F
100
AcDbEntity
  8
0
  6
CONTINUOUS
 62
     0
100
AcDbLine
 10
595.3216964774053
 20
444.5262500000001
 30
0.0
 11
595.3216964774053
 21
442.23625
 31
0.0
  0
LINE
  5
2A2
330
5F
100
AcDbEntity
  8
0
  6
CONTINUOUS
 62
     0
100
AcDbLine
 10
614.1799999999998
 20
216.6968145203957
 30
0.0
 11
623.9425887739175
 21
216.6968145203957
 31
0.0
  0
LINE
  5
2A3
330
5F
100
AcDbEntity
  8
0
  6
CONTINUOUS
 62
     0
100
AcDbLine
 10
610.469806953317
 20
388.2164119492965
 30
0.0
 11
606.5980128468591
 21
395.0160880507034
 31
0.0
  0
LINE
  5
2A4
330
5F
100
AcDbEntity
  8
0
  6
CONTINUOUS
 62
     0
100
AcDbLine
 10
606.5980128468591
 20
395.0160880507034
 30
0.0
 11
608.533909900088
 21
395.0160880507034
 31
0.0
  0
LINE
  5
2A5
330
5F
100
AcDbEntity
  8
0
  6
CONTINUOUS
 62
     0
100
AcDbLine
 10
595.3216964774053
 20
442.23625
 30
0.0
 11
595.3216964774053
 21
373.09625
 31
0.0
  0
LINE
  5
2A6
330
5F
100
AcDbEntity
  8
0
  6
CONTINUOUS
 62
     0
100
AcDbLine
 10
612.3216964774055
 20
379.3360880507033
 30
0.0
 11
614.2575935306344
 21
379.3360880507033
 31
0.0
  0
LINE
  5
2A7
330
5F
100
AcDbEntity
  8
0
  6
CONTINUOUS
 62
     0
100
AcDbLine
 10
612.3216964774055
 20
372.5364119492964
 30
0.0
 11
612.3216964774055
 21
368.0962499999999
 31
0.0
  0
LINE
  5
2A8
330
5F
100
AcDbEntity
  8
0
  6
CONTINUOUS
 62
     0
100
AcDbLine
 10
608.5339099000872
 20
447.2362500000002
 30
0.0
 11
608.533909900088
 21
399.45625
 31
0.0
  0
LINE
  5
2A9
330
5F
100
AcDbEntity
  8
0
  6
CONTINUOUS
 62
     0
100
AcDbLine
 10
606.5980128468591
 20
388.2164119492965
 30
0.0
 11
610.469806953317
 21
388.2164119492965
 31
0.0
  0
LINE
  5
2AA
330
5F
100
AcDbEntity
  8
0
  6
CONTINUOUS
 62
     0
100
AcDbLine
 10
608.533909900088
 20
399.45625
 30
0.0
 11
608.533909900088
 21
395.0160880507034
 31
0.0
  0
LINE
  5
2AB
330
5F
100
AcDbEntity
  8
0
  6
CONTINUOUS
 62
     0
100
AcDbLine
 10
591.2215345281089
 20
381.8403529467711
 30
0.0
 11
584.421858426702
 21
385.7121470532289
 31
0.0
  0
LINE
  5
2AC
330
5F
100
AcDbEntity
  8
0
  6
CONTINUOUS
 62
     0
100
AcDbLine
 10
590.3216964774053
 20
368.09625
 30
0.0
 11
582.1094830547235
 21
368.0962500000001
 31
0.0
  0
LINE
  5
2AD
330
5F
100
AcDbEntity
  8
0
  6
CONTINUOUS
 62
     0
100
AcDbLine
 10
591.2215345281089
 20
385.7121470532289
 30
0.0
 11
584.421858426702
 21
381.8403529467711
 31
0.0
  0
LINE
  5
2AE
330
5F
100
AcDbEntity
  8
0
  6
CONTINUOUS
 62
     0
100
AcDbLine
 10
584.421858426702
 20
381.8403529467711
 30
0.0
 11
584.421858426702
 21
385.7121470532289
 31
0.0
  0
LINE
  5
2AF
330
5F
100
AcDbEntity
  8
0
  6
CONTINUOUS
 62
     0
100
AcDbLine
 10
591.2215345281089
 20
381.8403529467711
 30
0.0
 11
591.2215345281089
 21
385.7121470532289
 31
0.0
  0
LINE
  5
2B0
330
5F
100
AcDbEntity
  8
0
  6
CONTINUOUS
 62
     0
100
AcDbLine
 10
600.3216964774053
 20
363.09625
 30
0.0
 11
600.3216964774053
 21
368.09625
 31
0.0
  0
LINE
  5
2B1
330
5F
100
AcDbEntity
  8
0
  6
CONTINUOUS
 62
     0
100
AcDbLine
 10
590.3216964774053
 20
368.09625
 30
0.0
 11
590.3216964774053
 21
363.09625
 31
0.0
  0
LINE
  5
2B2
330
5F
100
AcDbEntity
  8
0
  6
CONTINUOUS
 62
     0
100
AcDbLine
 10
590.3216964774053
 20
363.09625
 30
0.0
 11
595.3216964774053
 21
363.09625
 31
0.0
  0
LINE
  5
2B3
330
5F
100
AcDbEntity
  8
0
  6
CONTINUOUS
 62
     0
100
AcDbLine
 10
595.3216964774053
 20
363.09625
 30
0.0
 11
600.3216964774053
 21
363.09625
 31
0.0
  0
LINE
  5
2B4
330
5F
100
AcDbEntity
  8
0
  6
CONTINUOUS
 62
     0
100
AcDbLine
 10
600.3216964774053
 20
373.09625
 30
0.0
 11
595.3216964774053
 21
373.09625
 31
0.0
  0
LINE
  5
2B5
330
5F
100
AcDbEntity
  8
0
  6
CONTINUOUS
 62
     0
100
AcDbLine
 10
590.3216964774053
 20
373.09625
 30
0.0
 11
590.3216964774053
 21
368.09625
 31
0.0
  0
LINE
  5
2B6
330
5F
100
AcDbEntity
  8
0
  6
CONTINUOUS
 62
     0
100
AcDbLine
 10
600.3216964774053
 20
368.09625
 30
0.0
 11
600.3216964774053
 21
373.09625
 31
0.0
  0
LINE
  5
2B7
330
5F
100
AcDbEntity
  8
0
  6
CONTINUOUS
 62
     0
100
AcDbLine
 10
595.3216964774053
 20
373.09625
 30
0.0
 11
590.3216964774053
 21
373.09625
 31
0.0
  0
LINE
  5
2B8
330
5F
100
AcDbEntity
  8
0
  6
CONTINUOUS
 62
     0
100
AcDbLine
 10
592.2616964774054
 20
368.09625
 30
0.0
 11
595.3216964774053
 21
368.09625
 31
0.0
  0
LINE
  5
2B9
330
5F
100
AcDbEntity
  8
0
  6
CONTINUOUS
 62
     0
100
AcDbLine
 10
595.3216964774053
 20
363.09625
 30
0.0
 11
595.3216964774053
 21
365.38625
 31
0.0
  0
LINE
  5
2BA
330
5F
100
AcDbEntity
  8
0
  6
CONTINUOUS
 62
     0
100
AcDbLine
 10
595.3216964774053
 20
363.09625
 30
0.0
 11
595.3216964774053
 21
354.66625
 31
0.0
  0
LINE
  5
2BB
330
5F
100
AcDbEntity
  8
0
  6
CONTINUOUS
 62
     0
100
AcDbLine
 10
595.3216964774053
 20
452.23625
 30
0.0
 11
595.3216964774053
 21
457.75625
 31
0.0
  0
SOLID
  5
2BC
330
5F
100
AcDbEntity
  8
0
 62
     0
100
AcDbTrace
 10
597.8216964774053
 20
457.75625
 30
0.0
 11
595.3216964774053
 21
462.75625
 31
0.0
 12
592.8216964774053
 22
457.75625
 32
0.0
 13
592.8216964774053
 23
457.75625
 33
0.0
  0
LINE
  5
2BD
330
5F
100
AcDbEntity
  8
0
  6
CONTINUOUS
 62
     0
100
AcDbLine
 10
595.3216964774053
 20
370.8062499999999
 30
0.0
 11
595.3216964774053
 21
373.09625
 31
0.0
  0
LINE
  5
2BE
330
5F
100
AcDbEntity
  8
0
  6
CONTINUOUS
 62
     0
100
AcDbLine
 10
595.3216964774053
 20
365.38625
 30
0.0
 11
598.3816964774053
 21
368.09625
 31
0.0
  0
LINE
  5
2BF
330
5F
100
AcDbEntity
  8
0
  6
CONTINUOUS
 62
     0
100
AcDbLine
 10
592.2616964774054
 20
368.09625
 30
0.0
 11
595.3216964774053
 21
370.8062499999999
 31
0.0
  0
LINE
  5
2C0
330
5F
100
AcDbEntity
  8
0
  6
CONTINUOUS
 62
     0
100
AcDbLine
 10
595.3216964774053
 20
354.66625
 30
0.0
 11
572.7516964774054
 21
354.66625
 31
0.0
  0
LINE
  5
2C1
330
5F
100
AcDbEntity
  8
0
  6
CONTINUOUS
 62
     0
100
AcDbLine
 10
595.3216964774053
 20
368.09625
 30
0.0
 11
598.3816964774053
 21
368.09625
 31
0.0
  0
LINE
  5
2C2
330
5F
100
AcDbEntity
  8
0
  6
CONTINUOUS
 62
     0
100
AcDbLine
 10
584.421858426702
 20
383.77625
 30
0.0
 11
582.1094830547235
 21
383.77625
 31
0.0
  0
LINE
  5
2C3
330
5F
100
AcDbEntity
  8
0
  6
CONTINUOUS
 62
     0
100
AcDbLine
 10
582.1094830547235
 20
372.5364119492966
 30
0.0
 11
582.1094830547235
 21
368.0962500000001
 31
0.0
  0
LINE
  5
2C4
330
5F
100
AcDbEntity
  8
0
  6
CONTINUOUS
 62
     0
100
AcDbLine
 10
582.1094830547235
 20
379.3360880507035
 30
0.0
 11
584.0453801079524
 21
379.3360880507035
 31
0.0
  0
LINE
  5
2C5
330
5F
100
AcDbEntity
  8
0
  6
CONTINUOUS
 62
     0
100
AcDbLine
 10
593.1616964774055
 20
383.77625
 30
0.0
 11
591.2215345281089
 21
383.77625
 31
0.0
  0
LINE
  5
2C6
330
5F
100
AcDbEntity
  8
0
  6
CONTINUOUS
 62
     0
100
AcDbLine
 10
647.8283916382132
 20
220.2617703164885
 30
0.0
 11
647.8283916382132
 21
213.1318587243029
 31
0.0
  0
LINE
  5
2C7
330
5F
100
AcDbEntity
  8
0
  6
CONTINUOUS
 62
     0
100
AcDbLine
 10
647.8283916382132
 20
220.2617703164885
 30
0.0
 11
660.35
 21
213.1318587243029
 31
0.0
  0
LINE
  5
2C8
330
5F
100
AcDbEntity
  8
0
  6
CONTINUOUS
 62
     0
100
AcDbLine
 10
647.8283916382132
 20
220.2617703164885
 30
0.0
 11
647.8283916382132
 21
213.1318587243029
 31
0.0
  0
LINE
  5
2C9
330
5F
100
AcDbEntity
  8
0
  6
CONTINUOUS
 62
     0
100
AcDbLine
 10
660.35
 20
220.2617703164885
 30
0.0
 11
660.35
 21
213.1318587243029
 31
0.0
  0
LINE
  5
2CA
330
5F
100
AcDbEntity
  8
0
  6
CONTINUOUS
 62
     0
100
AcDbLine
 10
660.35
 20
220.2617703164885
 30
0.0
 11
660.35
 21
213.1318587243029
 31
0.0
  0
LINE
  5
2CB
330
5F
100
AcDbEntity
  8
0
  6
CONTINUOUS
 62
     0
100
AcDbLine
 10
647.8283916382132
 20
213.1318587243029
 30
0.0
 11
660.35
 21
220.2617703164885
 31
0.0
  0
LINE
  5
2CC
330
5F
100
AcDbEntity
  8
0
  6
CONTINUOUS
 62
     0
100
AcDbLine
 10
637.1844385204612
 20
216.6968145203957
 30
0.0
 11
647.8283916382132
 21
216.6968145203957
 31
0.0
  0
LINE
  5
2CD
330
5F
100
AcDbEntity
  8
0
  6
CONTINUOUS
 62
     0
100
AcDbLine
 10
660.35
 20
216.6968145203957
 30
0.0
 11
699.3591958191066
 21
216.6968145203957
 31
0.0
  0
LINE
  5
2CE
330
5F
100
AcDbEntity
  8
0
  6
HIDDEN_PER2_SCALE0_547422
 62
     0
100
AcDbLine
 10
582.8608041808934
 20
258.8968145203957
 30
0.0
 11
593.2891958191067
 21
258.8968145203957
 31
0.0
  0
CIRCLE
  5
2CF
330
5F
100
AcDbEntity
  8
0
  6
CONTINUOUS
 62
     0
100
AcDbCircle
 10
630.5691958191067
 20
216.6968145203957
 30
0.0
 40
6.626607045189117
  0
CIRCLE
  5
2D0
330
5F
100
AcDbEntity
  8
0
  6
CONTINUOUS
 62
     0
100
AcDbCircle
 10
630.5691958191067
 20
231.5218145203957
 30
0.0
 40
5.000000000000005
  0
LINE
  5
2D1
330
5F
100
AcDbEntity
  8
0
  6
CONTINUOUS
 62
     0
100
AcDbLine
 10
647.8283916382132
 20
213.1318587243029
 30
0.0
 11
660.35
 21
220.2617703164885
 31
0.0
  0
LINE
  5
2D2
330
5F
100
AcDbEntity
  8
0
  6
CONTINUOUS
 62
     0
100
AcDbLine
 10
630.5691958191067
 20
223.3234215655848
 30
0.0
 11
630.5691958191067
 21
226.5368145203957
 31
0.0
  0
LINE
  5
2D3
330
5F
100
AcDbEntity
  8
0
  6
CONTINUOUS
 62
     0
100
AcDbLine
 10
601.6583916382131
 20
220.2617703164885
 30
0.0
 11
614.1799999999998
 21
213.1318587243029
 31
0.0
  0
LINE
  5
2D4
330
5F
100
AcDbEntity
  8
0
  6
CONTINUOUS
 62
     0
100
AcDbLine
 10
601.6583916382131
 20
220.2617703164885
 30
0.0
 11
601.6583916382131
 21
213.1318587243029
 31
0.0
  0
LINE
  5
2D5
330
5F
100
AcDbEntity
  8
0
  6
CONTINUOUS
 62
     0
100
AcDbLine
 10
681.5091958191066
 20
216.6968145203957
 30
0.0
 11
687.6291958191066
 21
216.6968145203957
 31
0.0
  0
SOLID
  5
2D6
330
5F
100
AcDbEntity
  8
0
 62
     0
100
AcDbTrace
 10
687.6291958191066
 20
214.1968145203957
 30
0.0
 11
692.6291958191066
 21
216.6968145203957
 31
0.0
 12
687.6291958191066
 22
219.1968145203957
 32
0.0
 13
687.6291958191066
 23
219.1968145203957
 33
0.0
  0
LINE
  5
2D7
330
5F
100
AcDbEntity
  8
0
  6
CONTINUOUS
 62
     0
100
AcDbLine
 10
593.2891958191067
 20
258.8968145203957
 30
0.0
 11
593.2891958191067
 21
216.6968145203957
 31
0.0
  0
LINE
  5
2D8
330
5F
100
AcDbEntity
  8
0
  6
CONTINUOUS
 62
     0
100
AcDbLine
 10
614.1799999999998
 20
220.2617703164885
 30
0.0
 11
614.1799999999998
 21
213.1318587243029
 31
0.0
  0
LINE
  5
2D9
330
5F
100
AcDbEntity
  8
0
  6
CONTINUOUS
 62
     0
100
AcDbLine
 10
625.777334722571
 20
221.2739302238551
 30
0.0
 11
637.1958013274691
 21
216.7013276005976
 31
0.0
  0
LINE
  5
2DA
330
5F
100
AcDbEntity
  8
0
  6
CONTINUOUS
 62
     0
100
AcDbLine
 10
637.1958013274691
 20
216.7013276005976
 30
0.0
 11
625.7453385680071
 21
212.153432283299
 31
0.0
  0
LINE
  5
2DB
330
5F
100
AcDbEntity
  8
0
  6
CONTINUOUS
 62
     0
100
AcDbLine
 10
593.2891958191067
 20
216.6968145203957
 30
0.0
 11
601.6583916382131
 21
216.6968145203957
 31
0.0
  0
LINE
  5
2DC
330
5F
100
AcDbEntity
  8
0
  6
CONTINUOUS
 62
     0
100
AcDbLine
 10
601.6583916382131
 20
213.1318587243029
 30
0.0
 11
614.1799999999998
 21
220.2617703164885
 31
0.0
  0
TEXT
  5
2DE
330
5F
100
AcDbEntity
  8
0
 62
     0
100
AcDbText
 10
225.4492435864975
 20
578.6105085757614
 30
0.0
 40
4.170101789794262
  1
Ň
  7
TEXTSTYLE_1
100
AcDbText
  0
TEXT
  5
2DF
330
5F
100
AcDbEntity
  8
0
 62
     0
100
AcDbText
 10
228.7522945091069
 20
578.6105085757614
 30
0.0
 40
4.170101789794262
  1
I
  7
TEXTSTYLE_1
100
AcDbText
  0
TEXT
  5
2E1
330
5F
100
AcDbEntity
  8
0
 62
     0
100
AcDbText
 10
262.80481912008
 20
578.6105085757619
 30
0.0
 40
4.170101789794263
  1
Đ
  7
TEXTSTYLE_2
100
AcDbText
  0
TEXT
  5
2E2
330
5F
100
AcDbEntity
  8
0
 62
     0
100
AcDbText
 10
266.1078700426893
 20
578.6105085757619
 30
0.0
 40
4.170101789794263
  1
I
  7
TEXTSTYLE_2
100
AcDbText
  0
TEXT
  5
2E3
330
5F
100
AcDbEntity
  8
0
 62
     0
100
AcDbText
 10
211.6596411341346
 20
578.6105085757619
 30
0.0
 40
4.170101789794263
  1
Đ
  7
TEXTSTYLE_2
100
AcDbText
  0
TEXT
  5
2E4
330
5F
100
AcDbEntity
  8
0
 62
     0
100
AcDbText
 10
214.962692056744
 20
578.6105085757619
 30
0.0
 40
4.170101789794263
  1
I
  7
TEXTSTYLE_2
100
AcDbText
  0
TEXT
  5
2E5
330
5F
100
AcDbEntity
  8
0
 62
     0
100
AcDbText
 10
196.6914935901269
 20
578.5561251351334
 30
0.0
 40
4.170101789794263
  1
ĐĹ
  7
TEXTSTYLE_2
100
AcDbText
  0
TEXT
  5
2E6
330
5F
100
AcDbEntity
  8
0
 62
     0
100
AcDbText
 10
296.5338407120001
 20
578.6105085757619
 30
0.0
 40
4.170101789794263
  1
Đ
  7
TEXTSTYLE_2
100
AcDbText
  0
TEXT
  5
2E7
330
5F
100
AcDbEntity
  8
0
 62
     0
100
AcDbText
 10
299.8368916346095
 20
578.6105085757619
 30
0.0
 40
4.170101789794263
  1
I
  7
TEXTSTYLE_2
100
AcDbText
  0
TEXT
  5
2E8
330
5F
100
AcDbEntity
  8
0
 62
     0
100
AcDbText
 10
358.0116457269138
 20
578.6105085757616
 30
0.0
 40
4.170101789794262
  1
ŇĹ
  7
TEXTSTYLE_1
100
AcDbText
  0
TEXT
  5
2E9
330
5F
100
AcDbEntity
  8
0
 62
     0
100
AcDbText
 10
375.5842546366333
 20
578.6105085757619
 30
0.0
 40
4.170101789794263
  1
Đ
  7
TEXTSTYLE_2
100
AcDbText
  0
TEXT
  5
2EA
330
5F
100
AcDbEntity
  8
0
 62
     0
100
AcDbText
 10
378.8873055592427
 20
578.6105085757619
 30
0.0
 40
4.170101789794263
  1
I
  7
TEXTSTYLE_2
100
AcDbText
  0
TEXT
  5
2EB
330
5F
100
AcDbEntity
  8
0
 62
     0
100
AcDbText
 10
165.0878486336536
 20
578.6105085757619
 30
0.0
 40
4.170101789794263
  1
Đ
  7
TEXTSTYLE_2
100
AcDbText
  0
TEXT
  5
2EC
330
5F
100
AcDbEntity
  8
0
 62
     0
100
AcDbText
 10
168.390899556263
 20
578.6105085757619
 30
0.0
 40
4.170101789794263
  1
I
  7
TEXTSTYLE_2
100
AcDbText
  0
TEXT
  5
2ED
330
5F
100
AcDbEntity
  8
0
 62
     0
100
AcDbText
 10
201.4713716835525
 20
512.4745191785893
 30
0.0
 40
4.170101789794263
  1
Đ
  7
TEXTSTYLE_2
100
AcDbText
  0
TEXT
  5
2EE
330
5F
100
AcDbEntity
  8
0
 62
     0
100
AcDbText
 10
204.7744226061619
 20
512.4745191785893
 30
0.0
 40
4.170101789794263
  1
I
  7
TEXTSTYLE_2
100
AcDbText
  0
TEXT
  5
2EF
330
5F
100
AcDbEntity
  8
0
 62
     0
100
AcDbText
 10
215.2609741359155
 20
512.4745191785888
 30
0.0
 40
4.170101789794262
  1
Ň
  7
TEXTSTYLE_1
100
AcDbText
  0
TEXT
  5
2F0
330
5F
100
AcDbEntity
  8
0
 62
     0
100
AcDbText
 10
218.5640250585248
 20
512.4745191785888
 30
0.0
 40
4.170101789794262
  1
I
  7
TEXTSTYLE_1
100
AcDbText
  0
TEXT
  5
2F1
330
5F
100
AcDbEntity
  8
0
 62
     0
100
AcDbText
 10
275.0893812530375
 20
512.5256553257248
 30
0.0
 40
4.170101789794262
  1
ŇĹ
  7
TEXTSTYLE_1
100
AcDbText
  0
TEXT
  5
2F2
330
5F
100
AcDbEntity
  8
0
 62
     0
100
AcDbText
 10
261.5993812530374
 20
512.3956553257248
 30
0.0
 40
4.170101789794263
  1
ĐĹ
  7
TEXTSTYLE_2
100
AcDbText
  0
TEXT
  5
2F3
330
5F
100
AcDbEntity
  8
0
 62
     0
100
AcDbText
 10
339.2748326887333
 20
512.4154739524854
 30
0.0
 40
4.170101789794263
  1
Đ
  7
TEXTSTYLE_2
100
AcDbText
  0
TEXT
  5
2F4
330
5F
100
AcDbEntity
  8
0
 62
     0
100
AcDbText
 10
379.5505322711991
 20
512.4745191785893
 30
0.0
 40
4.170101789794263
  1
Đ
  7
TEXTSTYLE_2
100
AcDbText
  0
TEXT
  5
2F5
330
5F
100
AcDbEntity
  8
0
 62
     0
100
AcDbText
 10
382.8535831938085
 20
512.4745191785893
 30
0.0
 40
4.170101789794263
  1
I
  7
TEXTSTYLE_2
100
AcDbText
  0
MTEXT
  5
2F6
330
5F
100
AcDbEntity
  8
0
 62
    18
100
AcDbMText
 10
137.1691998417556
 20
392.5078150563905
 30
0.0
 40
2.085050894897131
 41
4.913558777822897
 71
     1
 72
     1
  1
{\fT-FLEX Type B|b0|i0;\l\C0;ĐĹ\farial|b0|i0;\P}
  0
MTEXT
  5
2F7
330
5F
100
AcDbEntity
  8
0
 62
    18
100
AcDbMText
 10
137.4077548377919
 20
416.9662651257914
 30
0.0
 40
2.085050894897131
 41
4.913558777822897
 71
     1
 72
     1
  1
{\fT-FLEX Type B|b0|i0;\l\C0;ĐI\farial|b0|i0;\P}
  0
MTEXT
  5
2F8
330
5F
100
AcDbEntity
  8
0
 62
    18
100
AcDbMText
 10
137.407755242171
 20
409.1285617579345
 30
0.0
 40
2.085050894897131
 41
4.913558777822897
 71
     1
 72
     1
  1
{\fT-FLEX Type B|b0|i0;\l\C0;ŇI\farial|b0|i0;\P}
  0
MTEXT
  5
2F9
330
5F
100
AcDbEntity
  8
0
 62
    18
100
AcDbMText
 10
137.3588762603737
 20
400.7743566963748
 30
0.0
 40
2.085050894897131
 41
4.913558777822897
 71
     1
 72
     1
  1
{\fT-FLEX Type B|b0|i0;\l\C0;ŇĹ\farial|b0|i0;\P}
  0
MTEXT
  5
2FA
330
5F
100
AcDbEntity
  8
0
 62
    18
100
AcDbMText
 10
148.0942632441239
 20
393.0311996520816
 30
0.0
 40
2.085050894897131
 41
52.79571629712508
 71
     1
 72
     1
  1
{\fT-FLEX Type B|b0|i0;\l\C0;-Äŕň÷čę äŕâëĺíč˙\farial|b0|i0;\P}
  0
MTEXT
  5
2FB
330
5F
100
AcDbEntity
  8
0
 62
    18
100
AcDbMText
 10
94.34798241888357
 20
427.2922894768115
 30
0.0
 40
2.085050894897131
 41
52.7957162971251
 71
     1
 72
     1
  1
{\fT-FLEX Type B|b0|i0;\l\C0;-Ăđ˙çĺâčę\farial|b0|i0;\P}
  0
MTEXT
  5
2FC
330
5F
100
AcDbEntity
  8
0
 62
    18
100
AcDbMText
 10
94.3204632689045
 20
414.9728365658339
 30
0.0
 40
2.085050894897131
 41
52.7957162971251
 71
     1
 72
     1
  1
{\fT-FLEX Type B|b0|i0;\l\C0;-Ôčëüňđ ńĺň÷ŕňűé\farial|b0|i0;\P}
  0
MTEXT
  5
2FD
330
5F
100
AcDbEntity
  8
0
 62
    18
100
AcDbMText
 10
94.34798241888426
 20
406.3910151709059
 30
0.0
 40
2.085050894897131
 41
52.7957162971251
 71
     1
 72
     1
  1
{\fT-FLEX Type B|b0|i0;\l\C0;-Ęđŕí řŕđîâűé\farial|b0|i0;\P}
  0
MTEXT
  5
2FE
330
5F
100
AcDbEntity
  8
0
 62
    18
100
AcDbMText
 10
94.34798241888403
 20
397.6108146629361
 30
0.0
 40
2.085050894897131
 41
52.7957162971251
 71
     1
 72
     1
  1
{\fT-FLEX Type B|b0|i0;\l\C0;-Ęđŕí ňđĺőőîäîâîé \P (äë˙ ěŕíîěĺňđŕ)\farial|b0|i0;\P}
1001
ACAD
1000
MTEXTBEGIN
1070
    44
1040
1.0002
1000
MTEXTEND
  0
MTEXT
  5
2FF
330
5F
100
AcDbEntity
  8
0
 62
    18
100
AcDbMText
 10
148.0942632441244
 20
417.4624580011685
 30
0.0
 40
2.085050894897131
 41
52.79571629712508
 71
     1
 72
     1
  1
{\fT-FLEX Type B|b0|i0;\l\C0;-Ěŕíîěĺňđ\farial|b0|i0;\P}
  0
MTEXT
  5
300
330
5F
100
AcDbEntity
  8
0
 62
    18
100
AcDbMText
 10
148.0942632441244
 20
409.6247546333116
 30
0.0
 40
2.085050894897131
 41
52.79571629712508
 71
     1
 72
     1
  1
{\fT-FLEX Type B|b0|i0;\l\C0;-Ňĺđěîěĺňđ\farial|b0|i0;\P}
  0
MTEXT
  5
301
330
5F
100
AcDbEntity
  8
0
 62
    18
100
AcDbMText
 10
148.0942632441244
 20
401.2705495717519
 30
0.0
 40
2.085050894897131
 41
52.79571629712508
 71
     1
 72
     1
  1
{\fT-FLEX Type B|b0|i0;\l\C0;-Äŕň÷čę ňĺěďĺđŕňóđű\farial|b0|i0;\P}
  0
MTEXT
  5
302
330
5F
100
AcDbEntity
  8
0
 62
    18
100
AcDbMText
 10
97.37981662086723
 20
441.1693612946029
 30
0.0
 40
2.780067859862841
 41
53.14322477960795
 71
     1
 72
     1
  1
{\fT-FLEX Type B|b0|i0;\l\C0;Óńëîâíűĺ îáîçíŕ÷ĺíč˙\farial|b0|i0;\P}
  0
MTEXT
  5
303
330
5F
100
AcDbEntity
  8
0
 62
    18
100
AcDbMText
 10
148.1242086961169
 20
427.1873577704558
 30
0.0
 40
2.085050894897131
 41
52.79571629712508
 71
     1
 72
     1
  1
{\fT-FLEX Type B|b0|i0;\l\C0;-Đŕńőîäîěĺđ\farial|b0|i0;\P}
  0
MTEXT
  5
304
330
5F
100
AcDbEntity
  8
0
 62
    18
100
AcDbMText
 10
148.0176188559773
 20
386.3594869532333
 30
0.0
 40
2.085050894897131
 41
52.79571629712508
 71
     1
 72
     1
  1
{\fT-FLEX Type B|b0|i0;\l\C0;-Ďĺđĺőîä\farial|b0|i0;\P}
  0
MTEXT
  5
305
330
5F
100
AcDbEntity
  8
0
 62
    18
100
AcDbMText
 10
94.34798241888403
 20
386.2557446678032
 30
0.0
 40
2.085050894897131
 41
52.7957162971251
 71
     1
 72
     1
  1
{\fT-FLEX Type B|b0|i0;\l\C0;-Ęđŕí ěóôňîâűé ëŕňóííűé \farial|b0|i0;\P}
  0
MTEXT
  5
306
330
5F
100
AcDbEntity
  8
0
 62
     0
100
AcDbMText
 10
164.5921822961829
 20
515.9331298782762
 30
0.0
 40
4.170101789794263
 41
9.573117555645831
 71
     1
 72
     1
  1
{\fT-FLEX Type B|b0|i0;\l\C0;ĐI\farial|b0|i0;\P}
  0
MTEXT
  5
307
330
5F
100
AcDbEntity
  8
0
 62
    18
100
AcDbMText
 10
11.5596240814118
 20
617.9729205809945
 30
0.0
 40
4.170101789794263
 41
105.3374325942502
 71
     1
 72
     1
  1
{\fT-FLEX Type B|b0|i0;\l\C0;Čç ňĺďëîâîé\Pńĺňč\farial|b0|i0;\P}
1001
ACAD
1000
MTEXTBEGIN
1070
    44
1040
1.0002
1000
MTEXTEND
  0
MTEXT
  5
308
330
5F
100
AcDbEntity
  8
0
 62
    18
100
AcDbMText
 10
100.9654398000372
 20
501.7924030004784
 30
0.0
 40
4.170101789794263
 41
105.3374325942502
 71
     1
 72
     1
  1
{\fT-FLEX Type B|b0|i0;\l\C0;Â ňĺďëîâóţ \Pńĺňü\farial|b0|i0;\P}
1001
ACAD
1000
MTEXTBEGIN
1070
    44
1040
1.0002
1000
MTEXTEND
  0
TEXT
  5
309
330
5F
100
AcDbEntity
  8
0
 62
     0
100
AcDbText
 10
342.5778836113427
 20
512.4154739524854
 30
0.0
 40
4.170101789794263
  1
I
  7
TEXTSTYLE_2
100
AcDbText
  0
MTEXT
  5
30A
330
5F
100
AcDbEntity
  8
0
 62
     0
100
AcDbMText
 10
-140.93
 20
332.145
 30
0.0
 40
3.5
 41
11.74999999999994
 71
     2
 72
     1
  1
{\fT-FLEX Type A|b1|i0;\l\C0;Ěăâ\P}
1001
ACAD
1000
MTEXTBEGIN
1070
    73
1070
     2
1000
MTEXTEND
  0
MTEXT
  5
30B
330
5F
100
AcDbEntity
  8
0
 62
     0
100
AcDbMText
 10
102.7577740390817
 20
272.195
 30
0.0
 40
3.5
 41
11.74999999999994
 71
     2
 72
     1
  1
{\fT-FLEX Type A|b1|i0;\l\C0;Qo\P}
1001
ACAD
1000
MTEXTBEGIN
1070
    73
1070
     2
1000
MTEXTEND
  0
MTEXT
  5
30C
330
5F
100
AcDbEntity
  8
0
 62
     0
100
AcDbMText
 10
102.7577740390817
 20
255.545
 30
0.0
 40
3.5
 41
11.74999999999994
 71
     2
 72
     1
  1
{\fT-FLEX Type A|b1|i0;\l\C0;Qăâ\P}
1001
ACAD
1000
MTEXTBEGIN
1070
    73
1070
     2
1000
MTEXTEND
  0
MTEXT
  5
30D
330
5F
100
AcDbEntity
  8
0
 62
     0
100
AcDbMText
 10
134.7977740390817
 20
272.195
 30
0.0
 40
3.5
 41
11.74999999999994
 71
     2
 72
     1
  1
{\fT-FLEX Type A|b1|i0;\l\C0;Ň\P}
1001
ACAD
1000
MTEXTBEGIN
1070
    73
1070
     2
1000
MTEXTEND
  0
MTEXT
  5
30E
330
5F
100
AcDbEntity
  8
0
 62
     0
100
AcDbMText
 10
134.7977740390817
 20
255.545
 30
0.0
 40
3.5
 41
11.74999999999994
 71
     2
 72
     1
  1
{\fT-FLEX Type A|b1|i0;\l\C0;Ň\P}
1001
ACAD
1000
MTEXTBEGIN
1070
    73
1070
     2
1000
MTEXTEND
  0
MTEXT
  5
30F
330
5F
100
AcDbEntity
  8
0
 62
     0
100
AcDbMText
 10
153.7777740390815
 20
220.795
 30
0.0
 40
3.5
 41
11.74999999999994
 71
     2
 72
     1
  1
{\fT-FLEX Type A|b1|i0;\l\C0;t2î\P}
1001
ACAD
1000
MTEXTBEGIN
1070
    73
1070
     2
1000
MTEXTEND
  0
MTEXT
  5
310
330
5F
100
AcDbEntity
  8
0
 62
     0
100
AcDbMText
 10
595.8837943869589
 20
476.7662499999999
 30
0.0
 40
3.5
 41
34.56580418089311
 71
     2
 72
     1
  1
{\fT-FLEX Type A|b1|i0;\l\C0;Ăîđ˙÷ĺĺ\H0.514286x;\P\H1.94444x;âîäîńíŕáćĺíčĺ\P}
1001
ACAD
1000
MTEXTBEGIN
1070
    73
1070
     2
1070
    44
1040
1.242857142857143
1000
MTEXTEND
  0
MTEXT
  5
311
330
5F
100
AcDbEntity
  8
0
 62
     0
100
AcDbMText
 10
153.7777740390815
 20
210.795
 30
0.0
 40
3.5
 41
11.74999999999994
 71
     2
 72
     1
  1
{\fT-FLEX Type A|b1|i0;\l\C0;Đ2î\P}
1001
ACAD
1000
MTEXTBEGIN
1070
    73
1070
     2
1000
MTEXTEND
  0
MTEXT
  5
312
330
5F
100
AcDbEntity
  8
0
 62
     0
100
AcDbMText
 10
143.7777740390815
 20
210.795
 30
0.0
 40
3.5
 41
11.74999999999994
 71
     2
 72
     1
  1
{\fT-FLEX Type A|b1|i0;\l\C0;Đ1î\P}
1001
ACAD
1000
MTEXTBEGIN
1070
    73
1070
     2
1000
MTEXTEND
  0
MTEXT
  5
313
330
5F
100
AcDbEntity
  8
0
 62
     0
100
AcDbMText
 10
143.7777740390815
 20
220.795
 30
0.0
 40
3.5
 41
11.74999999999994
 71
     2
 72
     1
  1
{\fT-FLEX Type A|b1|i0;\l\C0;t1î\P}
1001
ACAD
1000
MTEXTBEGIN
1070
    73
1070
     2
1000
MTEXTEND
  0
MTEXT
  5
314
330
5F
100
AcDbEntity
  8
0
 62
     0
100
AcDbMText
 10
133.7777740390816
 20
220.795
 30
0.0
 40
3.5
 41
11.74999999999994
 71
     2
 72
     1
  1
{\fT-FLEX Type A|b1|i0;\l\C0;Ě1\P}
1001
ACAD
1000
MTEXTBEGIN
1070
    73
1070
     2
1000
MTEXTEND
  0
MTEXT
  5
315
330
5F
100
AcDbEntity
  8
0
 62
     0
100
AcDbMText
 10
133.7777740390816
 20
210.795
 30
0.0
 40
3.5
 41
11.74999999999994
 71
     2
 72
     1
  1
{\fT-FLEX Type A|b1|i0;\l\C0;Ě2\P}
1001
ACAD
1000
MTEXTBEGIN
1070
    73
1070
     2
1000
MTEXTEND
  0
MTEXT
  5
316
330
5F
100
AcDbEntity
  8
0
 62
     0
100
AcDbMText
 10
123.7777740390817
 20
220.795
 30
0.0
 40
3.5
 41
11.74999999999993
 71
     2
 72
     1
  1
{\fT-FLEX Type A|b1|i0;\l\C0;tö\P}
1001
ACAD
1000
MTEXTBEGIN
1070
    73
1070
     2
1000
MTEXTEND
  0
MTEXT
  5
317
330
5F
100
AcDbEntity
  8
0
 62
     0
100
AcDbMText
 10
123.7777740390817
 20
210.795
 30
0.0
 40
3.5
 41
11.74999999999993
 71
     2
 72
     1
  1
{\fT-FLEX Type A|b1|i0;\l\C0;Đö\P}
1001
ACAD
1000
MTEXTBEGIN
1070
    73
1070
     2
1000
MTEXTEND
  0
MTEXT
  5
318
330
5F
100
AcDbEntity
  8
0
 62
     0
100
AcDbMText
 10
113.7777740390817
 20
220.795
 30
0.0
 40
3.5
 41
11.74999999999996
 71
     2
 72
     1
  1
{\fT-FLEX Type A|b1|i0;\l\C0;tăâ\P}
1001
ACAD
1000
MTEXTBEGIN
1070
    73
1070
     2
1000
MTEXTEND
  0
MTEXT
  5
319
330
5F
100
AcDbEntity
  8
0
 62
     0
100
AcDbMText
 10
113.7777740390817
 20
210.795
 30
0.0
 40
3.5
 41
11.74999999999996
 71
     2
 72
     1
  1
{\fT-FLEX Type A|b1|i0;\l\C0;Đăâ\P}
1001
ACAD
1000
MTEXTBEGIN
1070
    73
1070
     2
1000
MTEXTEND
  0
MTEXT
  5
31A
330
5F
100
AcDbEntity
  8
0
 62
     0
100
AcDbMText
 10
103.7777740390818
 20
220.795
 30
0.0
 40
3.5
 41
11.74999999999994
 71
     2
 72
     1
  1
{\fT-FLEX Type A|b1|i0;\l\C0;Ěăâ\P}
1001
ACAD
1000
MTEXTBEGIN
1070
    73
1070
     2
1000
MTEXTEND
  0
MTEXT
  5
31B
330
5F
100
AcDbEntity
  8
0
 62
     0
100
AcDbMText
 10
103.7777740390818
 20
210.795
 30
0.0
 40
3.5
 41
11.74999999999994
 71
     2
 72
     1
  1
{\fT-FLEX Type A|b1|i0;\l\C0;Ěö\P}
1001
ACAD
1000
MTEXTBEGIN
1070
    73
1070
     2
1000
MTEXTEND
  0
MTEXT
  5
31C
330
5F
100
AcDbEntity
  8
0
 62
     0
100
AcDbMText
 10
134.8977740390817
 20
239.995
 30
0.0
 40
3.5
 41
13.19
 71
     2
 72
     1
  1
{\fT-FLEX Type A|b1|i0;\l\C0;txâ\P}
1001
ACAD
1000
MTEXTBEGIN
1070
    73
1070
     2
1000
MTEXTEND
  0
MTEXT
  5
31D
330
5F
100
AcDbEntity
  8
0
 62
     0
100
AcDbMText
 10
151.9227740390817
 20
275.08
 30
0.0
 40
3.5
 41
12.20000000000002
 71
     2
 72
     1
  1
{\fT-FLEX Type A|b1|i0;\l\C0;ÓÓŇÝ\P}
1001
ACAD
1000
MTEXTBEGIN
1070
    73
1070
     2
1000
MTEXTEND
  0
TEXT
  5
31E
330
5F
100
AcDbEntity
  8
0
 62
     0
100
AcDbText
 10
227.1349029703299
 20
175.5961281579588
 30
0.0
 40
4.170101789794262
  1
ŇĹ
  7
TEXTSTYLE_1
100
AcDbText
  0
MTEXT
  5
31F
330
5F
100
AcDbEntity
  8
0
 62
     0
100
AcDbMText
 10
202.8577740390817
 20
174.55
 30
0.0
 40
3.5
 41
13.19
 71
     2
 72
     1
  1
{\fT-FLEX Type A|b1|i0;\l\C0;G1\P}
1001
ACAD
1000
MTEXTBEGIN
1070
    73
1070
     2
1000
MTEXTEND
  0
MTEXT
  5
320
330
5F
100
AcDbEntity
  8
0
 62
     0
100
AcDbMText
 10
557.8416964774055
 20
364.51875
 30
0.0
 40
3.5
 41
34.56580418089322
 71
     2
 72
     1
  1
{\fT-FLEX Type A|b1|i0;\l\C0;Őîëîäíŕ˙\H0.514286x;\P\H1.94444x;âîäŕ\P}
1001
ACAD
1000
MTEXTBEGIN
1070
    73
1070
     2
1070
    44
1040
1.242857142857143
1000
MTEXTEND
  0
MTEXT
  5
321
330
5F
100
AcDbEntity
  8
0
 62
     0
100
AcDbMText
 10
630.5691958191067
 20
236.0518145203957
 30
0.0
 40
3.5
 41
13.19000000000005
 71
     2
 72
     1
  1
{\fT-FLEX Type A|b1|i0;\l\C0;G3\P}
1001
ACAD
1000
MTEXTBEGIN
1070
    73
1070
     2
1000
MTEXTEND
  0
TEXT
  5
322
330
5F
100
AcDbEntity
  8
0
 62
     0
100
AcDbText
 10
185.64490297033
 20
127.8161281579589
 30
0.0
 40
4.170101789794262
  1
ŇĹ
  7
TEXTSTYLE_1
100
AcDbText
  0
TEXT
  5
323
330
5F
100
AcDbEntity
  8
0
 62
     0
100
AcDbText
 10
150.3645062314515
 20
175.4661281579588
 30
0.0
 40
4.170101789794263
  1
ĐĹ
  7
TEXTSTYLE_2
100
AcDbText
  0
TEXT
  5
324
330
5F
100
AcDbEntity
  8
0
 62
     0
100
AcDbText
 10
168.9545062314515
 20
127.6861281579589
 30
0.0
 40
4.170101789794263
  1
ĐĹ
  7
TEXTSTYLE_2
100
AcDbText
  0
MTEXT
  5
325
330
5F
100
AcDbEntity
  8
0
 62
     0
100
AcDbMText
 10
216.5927740390817
 20
126.375
 30
0.0
 40
3.5
 41
13.19
 71
     2
 72
     1
  1
{\fT-FLEX Type A|b1|i0;\l\C0;G2\P}
1001
ACAD
1000
MTEXTBEGIN
1070
    73
1070
     2
1000
MTEXTEND
  0
MTEXT
  5
326
330
5F
100
AcDbEntity
  8
0
 62
     0
100
AcDbMText
 10
374.24
 20
136.3925
 30
0.0
 40
3.5
 41
34.56580418089311
 71
     2
 72
     1
  1
{\fT-FLEX Type A|b1|i0;\l\C0;Îňîďëĺíčĺ\P}
1001
ACAD
1000
MTEXTBEGIN
1070
    73
1070
     2
1000
MTEXTEND
  0
MTEXT
  5
327
330
5F
100
AcDbEntity
  8
0
 62
     0
100
AcDbMText
 10
66.31567612952819
 20
177.255
 30
0.0
 40
3.5
 41
34.56580418089311
 71
     2
 72
     1
  1
{\fT-FLEX Type A|b1|i0;\l\C0;Ďîäŕţůčé\Pňđóáîďđîâîä\Pîňîďëĺíč˙\P\P}
1001
ACAD
1000
MTEXTBEGIN
1070
    73
1070
     2
1070
    44
1040
1.242857142857143
1000
MTEXTEND
  0
MTEXT
  5
328
330
5F
100
AcDbEntity
  8
0
 62
     0
100
AcDbMText
 10
66.31567612952819
 20
127.35875
 30
0.0
 40
3.5
 41
34.56580418089311
 71
     2
 72
     1
  1
{\fT-FLEX Type A|b1|i0;\l\C0;Îáđŕňíűé\Pňđóáîďđîâîä\Pîňîďëĺíč˙\P\P}
1001
ACAD
1000
MTEXTBEGIN
1070
    73
1070
     2
1070
    44
1040
1.242857142857143
1000
MTEXTEND
  0
MTEXT
  5
329
330
5F
100
AcDbEntity
  8
0
 62
     0
100
AcDbMText
 10
675.3591958191066
 20
213.9593145203957
 30
0.0
 40
3.5
 41
34.56580418089311
 71
     2
 72
     1
  1
{\fT-FLEX Type A|b1|i0;\l\C0;Ďîäďčňęŕ\P}
1001
ACAD
1000
MTEXTBEGIN
1070
    73
1070
     2
1000
MTEXTEND
  0
LINE
  5
32A
330
5F
100
AcDbEntity
  8
0
  6
CONTINUOUS
 62
     0
100
AcDbLine
 10
163.194188833338
 20
246.2350544902364
 30
0.0
 11
178.6341798351128
 21
263.8099999999999
 31
0.0
  0
SOLID
  5
32B
330
5F
100
AcDbEntity
  8
0
 62
     0
100
AcDbTrace
 10
163.1029274603353
 20
247.6463203623518
 30
0.0
 11
160.5541798351128
 21
243.23
 31
0.0
 12
163.194188833338
 22
246.2350544902364
 32
0.0
 13
164.6054547054534
 23
246.3263158632392
 33
0.0
  0
LINE
  5
32C
330
5F
100
AcDbEntity
  8
0
  6
CONTINUOUS
 62
     0
100
AcDbLine
 10
178.6341798351128
 20
263.8099999999999
 30
0.0
 11
221.7379766048373
 21
263.8099999999999
 31
0.0
  0
LINE
  5
32D
330
5F
100
AcDbEntity
  8
0
  6
CONTINUOUS
 62
     0
100
AcDbLine
 10
178.6341798351128
 20
263.8099999999999
 30
0.0
 11
178.6341798351128
 21
263.8099999999999
 31
0.0
  0
TEXT
  5
32F
330
5F
100
AcDbEntity
  8
0
 62
     0
100
AcDbText
 10
180.6341798351128
 20
264.8099999999999
 30
0.0
 40
4.0
  1
Ňĺďëîâű÷čńëčňĺëü
 50
360.0
 51
14.99999999999999
  7
TEXTSTYLE_3
100
AcDbText
  0
INSERT
  5
331
330
5F
100
AcDbEntity
  8
0
100
AcDbBlockReference
  2
_FR1ŃŇĐŔÍČÖŔ_1
 10
141.7402496595756
 20
557.8555161433143
 30
0.0
 41
0.2780067859862841
 42
0.2780067859862841
 43
0.2780067859862841
  0
INSERT
  5
337
330
5F
100
AcDbEntity
  8
0
100
AcDbBlockReference
  2
_FR2ŃŇĐŔÍČÖŔ_1
 10
129.6020939864812
 20
491.7195267461417
 30
0.0
 41
0.2780067859862841
 42
0.2780067859862841
 43
0.2780067859862841
  0
ENDBLK
  5
33D
330
5F
100
AcDbEntity
  8
0
100
AcDbBlockEnd
  0
BLOCK
  5
334
330
330
100
AcDbEntity
  8
0
100
AcDbBlockBegin
  2
_FR1ŃŇĐŔÍČÖŔ_1
 70
     0
 10
0.0
 20
0.0
 30
0.0
  3
_FR1ŃŇĐŔÍČÖŔ_1
  1

  0
HATCH
  5
332
330
330
100
AcDbEntity
  8
0
 62
     0
100
AcDbHatch
 10
0.0
 20
0.0
 30
0.0
210
0.0
220
0.0
230
1.0
  2
SOLID
 70
     1
 71
     0
 91
        1
 92
        2
 72
     0
 73
     1
 93
        3
 10
-17.89379303939859
 20
2.982298839900068
 10
-17.89379303939859
 20
-2.982298839900068
 10
0.0
 20
0.0
 97
        0
 75
     0
 76
     1
 98
        0
  0
LINE
  5
333
330
330
100
AcDbEntity
  8
0
  6
CONTINUOUS
 62
    18
100
AcDbLine
 10
-43.66136470385754
 20
0.0000000000000568
 30
0.0
 11
-17.89379303939859
 21
0.0
 31
0.0
  0
ENDBLK
  5
335
330
330
100
AcDbEntity
  8
0
100
AcDbBlockEnd
  0
BLOCK
  5
33A
330
336
100
AcDbEntity
  8
0
100
AcDbBlockBegin
  2
_FR2ŃŇĐŔÍČÖŔ_1
 70
     0
 10
0.0
 20
0.0
 30
0.0
  3
_FR2ŃŇĐŔÍČÖŔ_1
  1

  0
HATCH
  5
338
330
336
100
AcDbEntity
  8
0
 62
     0
100
AcDbHatch
 10
0.0
 20
0.0
 30
0.0
210
0.0
220
0.0
230
1.0
  2
SOLID
 70
     1
 71
     0
 91
        1
 92
        2
 72
     0
 73
     1
 93
        3
 10
17.89379303939859
 20
-2.982298839900068
 10
17.89379303939859
 20
2.982298839900068
 10
0.0
 20
0.0
 97
        0
 75
     0
 76
     1
 98
        0
  0
LINE
  5
339
330
336
100
AcDbEntity
  8
0
  6
CONTINUOUS
 62
    18
100
AcDbLine
 10
43.66136470385754
 20
0.0
 30
0.0
 11
17.89379303939859
 21
0.0
 31
0.0
  0
ENDBLK
  5
33B
330
336
100
AcDbEntity
  8
0
100
AcDbBlockEnd
  0
BLOCK
  5
348
330
33E
100
AcDbEntity
  8
0
100
AcDbBlockBegin
  2
ËČŃŇ1
 70
     0
 10
0.0
 20
0.0
 30
0.0
  3
ËČŃŇ1
  1

  0
ENDBLK
  5
349
330
33E
100
AcDbEntity
  8
0
100
AcDbBlockEnd
  0
BLOCK
  5
354
330
34A
100
AcDbEntity
  8
0
100
AcDbBlockBegin
  2
ËČŃŇ2
 70
     0
 10
0.0
 20
0.0
 30
0.0
  3
ËČŃŇ2
  1

  0
ENDBLK
  5
355
330
34A
100
AcDbEntity
  8
0
100
AcDbBlockEnd
  0
ENDSEC
  0
SECTION
  2
ENTITIES
  0
INSERT
  5
68
330
1F
100
AcDbEntity
  8
0
100
AcDbBlockReference
  2
MODEL
 10
0.0
 20
0.0
 30
0.0
  0
INSERT
  5
347
330
1F
100
AcDbEntity
  8
0
100
AcDbBlockReference
  2
ËČŃŇ1
 10
878.7291958191065
 20
0.0
 30
0.0
  0
INSERT
  5
353
330
1F
100
AcDbEntity
  8
0
100
AcDbBlockReference
  2
ËČŃŇ2
 10
1186.069195819107
 20
0.0
 30
0.0
  0
VIEWPORT
  5
34F
330
34B
100
AcDbEntity
 67
     1
  8
0
100
AcDbViewport
 10
128.5
 20
97.5
 30
0.0
 40
314.226
 41
222.18
 68
     1
 69
     1
1001
ACAD
1000
MVIEW
1002
{
1070
    16
1010
0.0
1020
0.0
1030
0.0
1010
0.0
1020
0.0
1030
1.0
1040
0.0
1040
222.18
1040
128.5
1040
97.5
1040
50.0
1040
0.0
1040
0.0
1070
     0
1070
   100
1070
     0
1070
     3
1070
     0
1070
     0
1070
     0
1070
     0
1040
0.0
1040
0.0
1040
0.0
1040
10.0
1040
10.0
1040
10.0
1040
10.0
1070
     0
1002
{
1002
}
1002
}
  0
VIEWPORT
  5
351
330
34B
100
AcDbEntity
 67
     1
  8
0
100
AcDbViewport
 10
139.7
 20
107.95
 30
0.0
 40
279.4
 41
215.9
 68
     2
 69
     2
1001
ACAD
1000
MVIEW
1002
{
1070
    16
1010
0.0
1020
0.0
1030
0.0
1010
0.0
1020
0.0
1030
1.0
1040
0.0
1040
215.9
1040
1325.769195819107
1040
107.95
1040
50.0
1040
0.0
1040
0.0
1070
     0
1070
   100
1070
     0
1070
     3
1070
     0
1070
     0
1070
     0
1070
     0
1040
0.0
1040
0.0
1040
0.0
1040
0.5
1040
0.5
1040
0.0
1040
0.0
1070
     0
1002
{
1002
}
1002
}
  0
ENDSEC
  0
SECTION
  2
OBJECTS
  0
DICTIONARY
  5
C
330
0
100
AcDbDictionary
  3
ACAD_GROUP
350
D
  3
ACAD_IMAGE_DICT
350
6D
  3
ACAD_IMAGE_VARS
350
70
  3
ACAD_LAYOUT
350
1A
  3
ACAD_MATERIAL
350
43
  3
ACAD_MLEADERSTYLE
350
5B
  3
ACAD_MLINESTYLE
350
17
  3
ACAD_PLOTSETTINGS
350
19
  3
ACAD_SCALELIST
350
47
  3
ACAD_VISUALSTYLE
350
2A
  3
ACDBHEADERROUNDTRIPXREC
350
356
  3
ACDBVARIABLEDICTIONARY
350
377
  3
DWGPROPS
350
382
  0
DICTIONARY
  5
383
330
8
100
AcDbDictionary
280
     1
  3
ACAD_XREC_ROUNDTRIP
360
384
  0
IMAGEDEF_REACTOR
  5
71
330
6F
100
AcDbRasterImageDefReactor
 90
        2
330
6F
  0
DICTIONARY
  5
D
102
{ACAD_REACTORS
330
C
102
}
330
C
100
AcDbDictionary
  0
DICTIONARY
  5
6D
102
{ACAD_REACTORS
330
C
102
}
330
C
100
AcDbDictionary
  3
_IMAGE1
350
6E
  0
RASTERVARIABLES
  5
70
102
{ACAD_REACTORS
330
C
102
}
330
C
100
AcDbRasterVariables
 90
        0
 70
     0
 71
     1
 72
     1
  0
DICTIONARY
  5
1A
102
{ACAD_REACTORS
330
C
102
}
330
C
100
AcDbDictionary
  0
DICTIONARY
  5
43
102
{ACAD_REACTORS
330
C
102
}
330
C
100
AcDbDictionary
  3
BYBLOCK
350
45
  3
BYLAYER
350
44
  3
GLOBAL
350
46
  0
DICTIONARY
  5
5B
102
{ACAD_REACTORS
330
C
102
}
330
C
100
AcDbDictionary
  3
STANDARD
350
5C
  0
DICTIONARY
  5
17
102
{ACAD_REACTORS
330
C
102
}
330
C
100
AcDbDictionary
  3
STANDARD
350
18
  0
DICTIONARY
  5
19
102
{ACAD_REACTORS
330
C
102
}
330
C
100
AcDbDictionary
  0
DICTIONARY
  5
47
102
{ACAD_REACTORS
330
C
102
}
330
C
100
AcDbDictionary
  3
A0
350
48
  3
A1
350
49
  3
A2
350
4A
  3
A3
350
4B
  3
A4
350
4C
  3
A5
350
4D
  3
A6
350
4E
  3
A7
350
4F
  3
A8
350
50
  3
A9
350
51
  3
B0
350
52
  3
B1
350
53
  3
B2
350
54
  3
B3
350
55
  3
B4
350
56
  3
B5
350
57
  3
B6
350
58
  0
DICTIONARY
  5
2A
102
{ACAD_REACTORS
330
C
102
}
330
C
100
AcDbDictionary
  3
2DWIREFRAME
350
2F
  3
BASIC
350
32
  3
BRIGHTEN
350
36
  3
COLORCHANGE
350
3A
  3
CONCEPTUAL
350
34
  3
DIM
350
35
  3
EDGECOLOROFF
350
3D
  3
FACEPATTERN
350
39
  3
FLAT
350
2B
  3
FLATWITHEDGES
350
2C
  3
GOURAUD
350
2D
  3
GOURAUDWITHEDGES
350
2E
  3
HIDDEN
350
31
  3
JITTEROFF
350
3B
  3
LINEPATTERN
350
38
  3
OVERHANGOFF
350
3C
  3
REALISTIC
350
33
  3
SHADED
350
42
  3
SHADED_WITH_EDGES
350
41
  3
SHADES_OF_GRAY
350
3E
  3
SKETCHY
350
3F
  3
THICKEN
350
37
  3
WIREFRAME
350
30
  3
X-RAY
350
40
  0
DICTIONARY
  5
356
102
{ACAD_REACTORS
330
C
102
}
330
C
100
AcDbDictionary
  3
CEPSNID
350
360
  3
CEPSNTYPE
350
35F
  3
DIMSTYLEDATA
350
376
  3
FINGERPRINTGUID
350
361
  3
HYPERLINKBASE
350
359
  3
INSUNITS
350
35E
  3
LAYOUTDICT
350
35B
  3
LWETCUNION
350
35D
  3
PLOTSETDICT
350
35C
  3
PSVPSCALE
350
363
  3
PUCSBASE
350
366
  3
PUCSORGBACK
350
36C
  3
PUCSORGBOTTOM
350
368
  3
PUCSORGFRONT
350
36B
  3
PUCSORGLEFT
350
369
  3
PUCSORGRIGHT
350
36A
  3
PUCSORGTOP
350
367
  3
PUCSORTHOREF
350
364
  3
PUCSORTHOVIEW
350
365
  3
STYLESHEET
350
35A
  3
TSTACKALIGN
350
357
  3
TSTACKSIZE
350
358
  3
UCSBASE
350
36F
  3
UCSORGBACK
350
375
  3
UCSORGBOTTOM
350
371
  3
UCSORGFRONT
350
374
  3
UCSORGLEFT
350
372
  3
UCSORGRIGHT
350
373
  3
UCSORGTOP
350
370
  3
UCSORTHOREF
350
36D
  3
UCSORTHOVIEW
350
36E
  3
VERSIONGUID
350
362
  0
DICTIONARY
  5
377
102
{ACAD_REACTORS
330
C
102
}
330
C
100
AcDbDictionary
  3
CANNOSCALE
350
385
  3
CENTEREXE
350
37E
  3
CENTERLTYPEFILE
350
37F
  3
CMLEADERSTYLE
350
379
  3
CTABLESTYLE
350
378
  3
DIMASSOC
350
380
  3
HIDETEXT
350
381
  3
MSLTSCALE
350
386
  3
PSOLHEIGHT
350
37B
  3
PSOLWIDTH
350
37A
  0
XRECORD
  5
382
102
{ACAD_REACTORS
330
C
102
}
330
C
100
AcDbXrecord
  1
DWGPROPS COOKIE
  2

  3

  4

  6

  7

  8
User
  9

300
=
301
=
302
=
303
=
304
=
305
=
306
=
307
=
308
=
309
=
 40
0.0
 41
2461156.053158299
 42
2461156.053159364
  1

 90
        0
  0
XRECORD
  5
384
102
{ACAD_REACTORS
330
383
102
}
330
383
100
AcDbXrecord
102
VTR_0.000_0.000_1.000_1.000_VISUALSTYLE
340
2F
102
VTR_0.000_0.000_1.000_1.000_GRIDDISPLAY
 70
     3
102
VTR_0.000_0.000_1.000_1.000_GRIDMAJOR
 70
     5
102
VTR_0.000_0.000_1.000_1.000_DEFAULTLIGHTING
280
     1
102
VTR_0.000_0.000_1.000_1.000_DEFAULTLIGHTINGTYPE
 70
     1
102
VTR_0.000_0.000_1.000_1.000_BRIGHTNESS
141
0.0
102
VTR_0.000_0.000_1.000_1.000_CONTRAST
142
0.0
  0
IMAGEDEF
  5
6E
102
{ACAD_REACTORS
330
6D
330
71
102
}
330
6D
100
AcDbRasterImageDef
 90
        0
  1

 10
0.0
 20
0.0
 11
NaN
 21
NaN
280
     1
281
     1
  0
MATERIAL
  5
45
102
{ACAD_REACTORS
330
43
102
}
102
{ACAD_XDICTIONARY
360
389
102
}
330
43
100
AcDbMaterial
  1
BYBLOCK
  0
MATERIAL
  5
44
102
{ACAD_REACTORS
330
43
102
}
102
{ACAD_XDICTIONARY
360
387
102
}
330
43
100
AcDbMaterial
  1
BYLAYER
  0
MATERIAL
  5
46
102
{ACAD_REACTORS
330
43
102
}
102
{ACAD_XDICTIONARY
360
38B
102
}
330
43
100
AcDbMaterial
  1
GLOBAL
  0
ACAD_PROXY_OBJECT
  5
5C
102
{ACAD_REACTORS
330
5B
102
}
330
5B
100
AcDbProxyObject
 90
      499
 91
      505
 93
      610
310
40901902A4063FBFFFFFE0000000000000020400000000000020404214DD185B99185C990000000000000104090141901A00000000000004100000000000000041025764000000000000039000
340
14
340
0
340
11
340
0
 94
        0
1001
ACAD_MLEADERVER
1070
     2
  0
MLINESTYLE
  5
18
102
{ACAD_REACTORS
330
17
102
}
330
17
100
AcDbMlineStyle
  2
Standard
 70
     0
  3

 62
   256
 51
90.0
 52
90.0
 71
     2
 49
0.5
 62
   256
  6
BYLAYER
 49
-0.5
 62
   256
  6
BYLAYER
  0
ACAD_PROXY_OBJECT
  5
48
102
{ACAD_REACTORS
330
47
102
}
330
47
100
AcDbProxyObject
 90
      499
 91
      503
 93
       41
310
903313A31580
  0
ACAD_PROXY_OBJECT
  5
49
102
{ACAD_REACTORS
330
47
102
}
330
47
100
AcDbProxyObject
 90
      499
 91
      503
 93
      105
310
903313A324000000000000004000
  0
ACAD_PROXY_OBJECT
  5
4A
102
{ACAD_REACTORS
330
47
102
}
330
47
100
AcDbProxyObject
 90
      499
 91
      503
 93
      105
310
903313A344000000000000104000
  0
ACAD_PROXY_OBJECT
  5
4B
102
{ACAD_REACTORS
330
47
102
}
330
47
100
AcDbProxyObject
 90
      499
 91
      503
 93
      105
310
903313A354000000000000144000
  0
ACAD_PROXY_OBJECT
  5
4C
102
{ACAD_REACTORS
330
47
102
}
330
47
100
AcDbProxyObject
 90
      499
 91
      503
 93
      105
310
903313A384000000000000204000
  0
ACAD_PROXY_OBJECT
  5
4D
102
{ACAD_REACTORS
330
47
102
}
330
47
100
AcDbProxyObject
 90
      499
 91
      503
 93
      113
310
904313A31304000000000000244000
  0
ACAD_PROXY_OBJECT
  5
4E
102
{ACAD_REACTORS
330
47
102
}
330
47
100
AcDbProxyObject
 90
      499
 91
      503
 93
      113
310
904313A31364000000000000304000
  0
ACAD_PROXY_OBJECT
  5
4F
102
{ACAD_REACTORS
330
47
102
}
330
47
100
AcDbProxyObject
 90
      499
 91
      503
 93
      113
310
904313A32304000000000000344000
  0
ACAD_PROXY_OBJECT
  5
50
102
{ACAD_REACTORS
330
47
102
}
330
47
100
AcDbProxyObject
 90
      499
 91
      503
 93
      113
310
904313A333040000000000003E4000
  0
ACAD_PROXY_OBJECT
  5
51
102
{ACAD_REACTORS
330
47
102
}
330
47
100
AcDbProxyObject
 90
      499
 91
      503
 93
      113
310
904313A34304000000000000444000
  0
ACAD_PROXY_OBJECT
  5
52
102
{ACAD_REACTORS
330
47
102
}
330
47
100
AcDbProxyObject
 90
      499
 91
      503
 93
      113
310
904313A35304000000000000494000
  0
ACAD_PROXY_OBJECT
  5
53
102
{ACAD_REACTORS
330
47
102
}
330
47
100
AcDbProxyObject
 90
      499
 91
      503
 93
      121
310
905313A3130304000000000000594000
  0
ACAD_PROXY_OBJECT
  5
54
102
{ACAD_REACTORS
330
47
102
}
330
47
100
AcDbProxyObject
 90
      499
 91
      503
 93
      105
310
903323A310000000000000010100
  0
ACAD_PROXY_OBJECT
  5
55
102
{ACAD_REACTORS
330
47
102
}
330
47
100
AcDbProxyObject
 90
      499
 91
      503
 93
      105
310
903343A310000000000000410100
  0
ACAD_PROXY_OBJECT
  5
56
102
{ACAD_REACTORS
330
47
102
}
330
47
100
AcDbProxyObject
 90
      499
 91
      503
 93
      105
310
903383A310000000000000810100
  0
ACAD_PROXY_OBJECT
  5
57
102
{ACAD_REACTORS
330
47
102
}
330
47
100
AcDbProxyObject
 90
      499
 91
      503
 93
      113
310
90431303A310000000000000910100
  0
ACAD_PROXY_OBJECT
  5
58
102
{ACAD_REACTORS
330
47
102
}
330
47
100
AcDbProxyObject
 90
      499
 91
      503
 93
      121
310
9053130303A310000000000001650100
  0
ACAD_PROXY_OBJECT
  5
2F
102
{ACAD_REACTORS
330
2A
102
}
330
2A
100
AcDbProxyObject
 90
      499
 91
      501
 93
      436
310
42CC9915DA5C99599C985B595049028333333333333E33F0000000000000F90107901411070040501600405405064090741402480A0340
1001
ACAD
1000
AcDbSavedByObjectVersion
1070
     0
  0
ACAD_PROXY_OBJECT
  5
32
102
{ACAD_REACTORS
330
2A
102
}
330
2A
100
AcDbProxyObject
 90
      499
 91
      501
 93
      388
310
4150985CDA58D07406404333333333333E33F0000000000000F90107A41107004050150841D405064090741402480A0350
1001
ACAD
1000
AcDbSavedByObjectVersion
1070
     0
  0
ACAD_PROXY_OBJECT
  5
36
102
{ACAD_REACTORS
330
2A
102
}
330
2A
100
AcDbProxyObject
 90
      499
 91
      501
 93
      428
310
42109C9A59DA1D195B90C409028333333333333E33F0000000000000F9010790141107004050150841D405064090741402480A029950
1001
ACAD
1000
AcDbSavedByObjectVersion
1070
     0
  0
ACAD_PROXY_OBJECT
  5
3A
102
{ACAD_REACTORS
330
2A
102
}
330
2A
100
AcDbProxyObject
 90
      499
 91
      501
 93
      452
310
42D0DBDB1BDC90DA185B99D95104090240C333333333333E33F0000000000000F90108901411070040501508421405064090741402480A0350
1001
ACAD
1000
AcDbSavedByObjectVersion
1070
     0
  0
ACAD_PROXY_OBJECT
  5
34
102
{ACAD_REACTORS
330
2A
102
}
330
2A
100
AcDbProxyObject
 90
      499
 91
      501
 93
      500
310
4290DBDB98D95C1D1D585B10940D028333333333333E33F0000000000000F90107902409070040501000000000018199010841D405064090740C02480A0340
1001
ACAD
1000
AcDbSavedByObjectVersion
1070
     0
  0
ACAD_PROXY_OBJECT
  5
35
102
{ACAD_REACTORS
330
2A
102
}
330
2A
100
AcDbProxyObject
 90
      499
 91
      501
 93
      412
310
40D11A5B50B409028333333333333E33F0000000000000F9010790141107004050150841D405064090741402480A02677FFFFFD0
1001
ACAD
1000
AcDbSavedByObjectVersion
1070
     0
  0
ACAD_PROXY_OBJECT
  5
3D
102
{ACAD_REACTORS
330
2A
102
}
330
2A
100
AcDbProxyObject
 90
      499
 91
      501
 93
      452
310
43115919D950DBDB1BDC93D999916409028333333333333E33F0000000000000F9010790141107004050150841D405064090741402480A0350
1001
ACAD
1000
AcDbSavedByObjectVersion
1070
     0
  0
ACAD_PROXY_OBJECT
  5
39
102
{ACAD_REACTORS
330
2A
102
}
330
2A
100
AcDbProxyObject
 90
      499
 91
      501
 93
      444
310
42D19858D95C185D1D195C9B90F409028333333333333E33F0000000000000F9010790141107004050150841D405064090741402480A0350
1001
ACAD
1000
AcDbSavedByObjectVersion
1070
     0
  0
ACAD_PROXY_OBJECT
  5
2B
102
{ACAD_REACTORS
330
2A
102
}
330
2A
100
AcDbProxyObject
 90
      499
 91
      501
 93
      380
310
41119B185D240901404333333333333E33F0000000000000F9010740A907004050150841D405064090741402480A1B50
1001
ACAD
1000
AcDbSavedByObjectVersion
1070
     0
  0
ACAD_PROXY_OBJECT
  5
2C
102
{ACAD_REACTORS
330
2A
102
}
330
2A
100
AcDbProxyObject
 90
      499
 91
      501
 93
      468
310
43519B185D15DA5D1A115919D95CD0140901404333333333333E33F0000000000000F90107409019070040501600405405064090741402480A1B50
1001
ACAD
1000
AcDbSavedByObjectVersion
1070
     0
  0
ACAD_PROXY_OBJECT
  5
2D
102
{ACAD_REACTORS
330
2A
102
}
330
2A
100
AcDbProxyObject
 90
      499
 91
      501
 93
      404
310
41D1DBDD5C985D5910240902404333333333333E33F0000000000000F9010740A9070040501641D405064090741402480A1B50
1001
ACAD
1000
AcDbSavedByObjectVersion
1070
     0
  0
ACAD_PROXY_OBJECT
  5
2E
102
{ACAD_REACTORS
330
2A
102
}
330
2A
100
AcDbProxyObject
 90
      499
 91
      501
 93
      492
310
4411DBDD5C985D5915DA5D1A115919D95CD0340902404333333333333E33F0000000000000F90107409019070040501600405405064090741402480A1B50
1001
ACAD
1000
AcDbSavedByObjectVersion
1070
     0
  0
ACAD_PROXY_OBJECT
  5
31
102
{ACAD_REACTORS
330
2A
102
}
330
2A
100
AcDbProxyObject
 90
      499
 91
      501
 93
      476
310
41921A5919195B90640502408333333333333E33F0000000000000F901079024090700405020000000000001110200405405064090740C02480A0340
1001
ACAD
1000
AcDbSavedByObjectVersion
1070
     0
  0
ACAD_PROXY_OBJECT
  5
3B
102
{ACAD_REACTORS
330
2A
102
}
330
2A
100
AcDbProxyObject
 90
      499
 91
      501
 93
      428
310
42529A5D1D195C93D999914409028333333333333E33F0000000000000F9010790141107004050150A41D405064090741402480A0350
1001
ACAD
1000
AcDbSavedByObjectVersion
1070
     0
  0
ACAD_PROXY_OBJECT
  5
38
102
{ACAD_REACTORS
330
2A
102
}
330
2A
100
AcDbProxyObject
 90
      499
 91
      501
 93
      444
310
42D31A5B995C185D1D195C9B90E409028333333333333E33F0000000000000F9010790141107004050750841D405064090741402483A0350
1001
ACAD
1000
AcDbSavedByObjectVersion
1070
     0
  0
ACAD_PROXY_OBJECT
  5
3C
102
{ACAD_REACTORS
330
2A
102
}
330
2A
100
AcDbProxyObject
 90
      499
 91
      501
 93
      444
310
42D3DD995C9A185B99D3D999915409028333333333333E33F0000000000000F9010790141107004050150941D405064090741402480A0350
1001
ACAD
1000
AcDbSavedByObjectVersion
1070
     0
  0
ACAD_PROXY_OBJECT
  5
33
102
{ACAD_REACTORS
330
2A
102
}
330
2A
100
AcDbProxyObject
 90
      499
 91
      501
 93
      428
310
425499585B1A5CDD1A58D08409038333333333333E33F0000000000000F9010740A907004050150800405405064090740C02480A1B40
1001
ACAD
1000
AcDbSavedByObjectVersion
1070
     0
  0
ACAD_PROXY_OBJECT
  5
42
102
{ACAD_REACTORS
330
2A
102
}
330
2A
100
AcDbProxyObject
 90
      499
 91
      501
 93
      420
310
4194DA1859195911B40902404333333333333E33F0000000000000F9010740A41107004050150800405405064090840C02480A0B40
1001
ACAD
1000
AcDbSavedByObjectVersion
1070
     0
  0
ACAD_PROXY_OBJECT
  5
41
102
{ACAD_REACTORS
330
2A
102
}
330
2A
100
AcDbProxyObject
 90
      499
 91
      501
 93
      516
310
4454DA18591959081DDA5D1A08195919D95CD1A40902404333333333333E33F0000000000000F901074090142907004050250800405405064090740C02480A0B40
1001
ACAD
1000
AcDbSavedByObjectVersion
1070
     0
  0
ACAD_PROXY_OBJECT
  5
3E
102
{ACAD_REACTORS
330
2A
102
}
330
2A
100
AcDbProxyObject
 90
      499
 91
      501
 93
      532
310
4394DA1859195CC81BD98811DC985E5174090240C333333333333E33F0000000000000F901079024090741D01000000000000111010841D405064090740C02480A0340
1001
ACAD
1000
AcDbSavedByObjectVersion
1070
     0
  0
ACAD_PROXY_OBJECT
  5
3F
102
{ACAD_REACTORS
330
2A
102
}
330
2A
100
AcDbProxyObject
 90
      499
 91
      501
 93
      476
310
41D4DAD95D18DA1E51840502408333333333333E33F0000000000000F901079024090741D01000000000000111010B41D405064090741802480A0340
1001
ACAD
1000
AcDbSavedByObjectVersion
1070
     0
  0
ACAD_PROXY_OBJECT
  5
37
102
{ACAD_REACTORS
330
2A
102
}
330
2A
100
AcDbProxyObject
 90
      499
 91
      501
 93
      412
310
41D51A1A58DAD95B90D409028333333333333E33F0000000000000F9010790141107004050150C41D405064090741402480A0350
1001
ACAD
1000
AcDbSavedByObjectVersion
1070
     0
  0
ACAD_PROXY_OBJECT
  5
30
102
{ACAD_REACTORS
330
2A
102
}
330
2A
100
AcDbProxyObject
 90
      499
 91
      501
 93
      420
310
4255DA5C99599C985B595059028333333333333E33F0000000000000F90107901411070040501600405405064090740C02480A0340
1001
ACAD
1000
AcDbSavedByObjectVersion
1070
     0
  0
ACAD_PROXY_OBJECT
  5
40
102
{ACAD_REACTORS
330
2A
102
}
330
2A
100
AcDbProxyObject
 90
      499
 91
      501
 93
      404
310
41560B54985E51940902404000000000000E03F0000000000000F9010740501907004050150841D405064090740C02480A1B40
1001
ACAD
1000
AcDbSavedByObjectVersion
1070
     0
  0
XRECORD
  5
360
102
{ACAD_REACTORS
330
356
102
}
330
356
100
AcDbXrecord
340
0
  0
XRECORD
  5
35F
102
{ACAD_REACTORS
330
356
102
}
330
356
100
AcDbXrecord
 90
        0
  0
XRECORD
  5
376
102
{ACAD_REACTORS
330
356
102
}
330
356
100
AcDbXrecord
1000
DSTYLE
1002
{
1070
   340
340
11
1002
}
  0
XRECORD
  5
361
102
{ACAD_REACTORS
330
356
102
}
330
356
100
AcDbXrecord
  1
{12fe05b9-ddfe-463d-b9c4-b2efc9e10584}
  0
XRECORD
  5
359
102
{ACAD_REACTORS
330
356
102
}
330
356
100
AcDbXrecord
  1

  0
XRECORD
  5
35E
102
{ACAD_REACTORS
330
356
102
}
330
356
100
AcDbXrecord
 90
        1
  0
XRECORD
  5
35B
102
{ACAD_REACTORS
330
356
102
}
330
356
100
AcDbXrecord
340
1A
  0
XRECORD
  5
35D
102
{ACAD_REACTORS
330
356
102
}
330
356
100
AcDbXrecord
 90
    10269
  0
XRECORD
  5
35C
102
{ACAD_REACTORS
330
356
102
}
330
356
100
AcDbXrecord
340
19
  0
XRECORD
  5
363
102
{ACAD_REACTORS
330
356
102
}
330
356
100
AcDbXrecord
 40
0.0
  0
XRECORD
  5
366
102
{ACAD_REACTORS
330
356
102
}
330
356
100
AcDbXrecord
340
0
  0
XRECORD
  5
36C
102
{ACAD_REACTORS
330
356
102
}
330
356
100
AcDbXrecord
 10
0.0
 20
0.0
 30
0.0
  0
XRECORD
  5
368
102
{ACAD_REACTORS
330
356
102
}
330
356
100
AcDbXrecord
 10
0.0
 20
0.0
 30
0.0
  0
XRECORD
  5
36B
102
{ACAD_REACTORS
330
356
102
}
330
356
100
AcDbXrecord
 10
0.0
 20
0.0
 30
0.0
  0
XRECORD
  5
369
102
{ACAD_REACTORS
330
356
102
}
330
356
100
AcDbXrecord
 10
0.0
 20
0.0
 30
0.0
  0
XRECORD
  5
36A
102
{ACAD_REACTORS
330
356
102
}
330
356
100
AcDbXrecord
 10
0.0
 20
0.0
 30
0.0
  0
XRECORD
  5
367
102
{ACAD_REACTORS
330
356
102
}
330
356
100
AcDbXrecord
 10
0.0
 20
0.0
 30
0.0
  0
XRECORD
  5
364
102
{ACAD_REACTORS
330
356
102
}
330
356
100
AcDbXrecord
340
0
  0
XRECORD
  5
365
102
{ACAD_REACTORS
330
356
102
}
330
356
100
AcDbXrecord
 70
     0
  0
XRECORD
  5
35A
102
{ACAD_REACTORS
330
356
102
}
330
356
100
AcDbXrecord
  1

  0
XRECORD
  5
357
102
{ACAD_REACTORS
330
356
102
}
330
356
100
AcDbXrecord
 90
        1
  0
XRECORD
  5
358
102
{ACAD_REACTORS
330
356
102
}
330
356
100
AcDbXrecord
 90
       70
  0
XRECORD
  5
36F
102
{ACAD_REACTORS
330
356
102
}
330
356
100
AcDbXrecord
340
0
  0
XRECORD
  5
375
102
{ACAD_REACTORS
330
356
102
}
330
356
100
AcDbXrecord
 10
0.0
 20
0.0
 30
0.0
  0
XRECORD
  5
371
102
{ACAD_REACTORS
330
356
102
}
330
356
100
AcDbXrecord
 10
0.0
 20
0.0
 30
0.0
  0
XRECORD
  5
374
102
{ACAD_REACTORS
330
356
102
}
330
356
100
AcDbXrecord
 10
0.0
 20
0.0
 30
0.0
  0
XRECORD
  5
372
102
{ACAD_REACTORS
330
356
102
}
330
356
100
AcDbXrecord
 10
0.0
 20
0.0
 30
0.0
  0
XRECORD
  5
373
102
{ACAD_REACTORS
330
356
102
}
330
356
100
AcDbXrecord
 10
0.0
 20
0.0
 30
0.0
  0
XRECORD
  5
370
102
{ACAD_REACTORS
330
356
102
}
330
356
100
AcDbXrecord
 10
0.0
 20
0.0
 30
0.0
  0
XRECORD
  5
36D
102
{ACAD_REACTORS
330
356
102
}
330
356
100
AcDbXrecord
340
0
  0
XRECORD
  5
36E
102
{ACAD_REACTORS
330
356
102
}
330
356
100
AcDbXrecord
 70
     0
  0
XRECORD
  5
362
102
{ACAD_REACTORS
330
356
102
}
330
356
100
AcDbXrecord
  1
{FAEB1C32-E019-11D5-929B-00C0DF256EC4}
  0
DICTIONARYVAR
  5
385
102
{ACAD_REACTORS
330
377
102
}
330
377
100
DictionaryVariables
280
     0
  1
1:1
  0
DICTIONARYVAR
  5
37E
102
{ACAD_REACTORS
330
377
102
}
330
377
100
DictionaryVariables
280
     0
  1
3.500000
  0
DICTIONARYVAR
  5
37F
102
{ACAD_REACTORS
330
377
102
}
330
377
100
DictionaryVariables
280
     0
  1
acadiso.lin
  0
DICTIONARYVAR
  5
379
102
{ACAD_REACTORS
330
377
102
}
330
377
100
DictionaryVariables
280
     0
  1
Standard
  0
DICTIONARYVAR
  5
378
102
{ACAD_REACTORS
330
377
102
}
330
377
100
DictionaryVariables
280
     0
  1
Standard
  0
DICTIONARYVAR
  5
380
102
{ACAD_REACTORS
330
377
102
}
330
377
100
DictionaryVariables
280
     0
  1
2
  0
DICTIONARYVAR
  5
381
102
{ACAD_REACTORS
330
377
102
}
330
377
100
DictionaryVariables
280
     0
  1
1
  0
DICTIONARYVAR
  5
386
102
{ACAD_REACTORS
330
377
102
}
330
377
100
DictionaryVariables
280
     0
  1
1
  0
DICTIONARYVAR
  5
37B
102
{ACAD_REACTORS
330
377
102
}
330
377
100
DictionaryVariables
280
     0
  1
80.000000
  0
DICTIONARYVAR
  5
37A
102
{ACAD_REACTORS
330
377
102
}
330
377
100
DictionaryVariables
280
     0
  1
5.000000
  0
DICTIONARY
  5
389
330
45
100
AcDbDictionary
280
     1
  3
ACAD_XREC_ROUNDTRIP
360
38A
  0
DICTIONARY
  5
387
330
44
100
AcDbDictionary
280
     1
  3
ACAD_XREC_ROUNDTRIP
360
388
  0
DICTIONARY
  5
38B
330
46
100
AcDbDictionary
280
     1
  3
ACAD_XREC_ROUNDTRIP
360
38C
  0
XRECORD
  5
38A
102
{ACAD_REACTORS
330
389
102
}
330
389
100
AcDbXrecord
102
MATERIAL
148
0.0
149
0.0
149
0.0
 93
        0
 94
      127
282
     0
 72
     1
 77
     1
171
     1
175
     1
179
     1
273
     0
  0
XRECORD
  5
388
102
{ACAD_REACTORS
330
387
102
}
330
387
100
AcDbXrecord
102
MATERIAL
148
0.0
149
0.0
149
0.0
 93
        0
 94
      127
282
     0
 72
     1
 77
     1
171
     1
175
     1
179
     1
273
     0
  0
XRECORD
  5
38C
102
{ACAD_REACTORS
330
38B
102
}
330
38B
100
AcDbXrecord
102
MATERIAL
148
0.0
149
0.0
149
0.0
 93
        0
 94
      127
282
     0
 72
     1
 77
     1
171
     1
175
     1
179
     1
273
     0
  0
ENDSEC
  0
EOF
