  0
SECTION
  2
HEADER
  9
$ACADVER
  1
AC1027
  9
$ACADMAINTVER
 70
   105
  9
$DWGCODEPAGE
  3
ANSI_1251
  9
$LASTSAVEDBY
  1
User
  9
$REQUIREDVERSIONS
160
                 0
  9
$INSBASE
 10
0.0
 20
0.0
 30
0.0
  9
$EXTMIN
 10
0.0
 20
0.0
 30
0.0
  9
$EXTMAX
 10
420.0
 20
297.0
 30
0.0
  9
$LIMMIN
 10
0.0
 20
0.0
  9
$LIMMAX
 10
420.0
 20
297.0
  9
$ORTHOMODE
 70
     0
  9
$REGENMODE
 70
     1
  9
$FILLMODE
 70
     1
  9
$QTEXTMODE
 70
     0
  9
$MIRRTEXT
 70
     1
  9
$LTSCALE
 40
1.0
  9
$ATTMODE
 70
     1
  9
$TEXTSIZE
 40
2.5
  9
$TRACEWID
 40
1.0
  9
$TEXTSTYLE
  7
Standard
  9
$CLAYER
  8
0
  9
$CELTYPE
  6
ByLayer
  9
$CECOLOR
 62
   256
  9
$CELTSCALE
 40
1.0
  9
$DISPSILH
 70
     0
  9
$DIMSCALE
 40
1.0
  9
$DIMASZ
 40
2.5
  9
$DIMEXO
 40
0.625
  9
$DIMDLI
 40
3.75
  9
$DIMRND
 40
0.0
  9
$DIMDLE
 40
0.0
  9
$DIMEXE
 40
1.25
  9
$DIMTP
 40
0.0
  9
$DIMTM
 40
0.0
  9
$DIMTXT
 40
2.5
  9
$DIMCEN
 40
2.5
  9
$DIMTSZ
 40
0.0
  9
$DIMTOL
 70
     0
  9
$DIMLIM
 70
     0
  9
$DIMTIH
 70
     0
  9
$DIMTOH
 70
     0
  9
$DIMSE1
 70
     0
  9
$DIMSE2
 70
     0
  9
$DIMTAD
 70
     1
  9
$DIMZIN
 70
     8
  9
$DIMBLK
  1

  9
$DIMASO
 70
     1
  9
$DIMSHO
 70
     1
  9
$DIMPOST
  1

  9
$DIMAPOST
  1

  9
$DIMALT
 70
     0
  9
$DIMALTD
 70
     3
  9
$DIMALTF
 40
0.03937007874016
  9
$DIMLFAC
 40
1.0
  9
$DIMTOFL
 70
     1
  9
$DIMTVP
 40
0.0
  9
$DIMTIX
 70
     0
  9
$DIMSOXD
 70
     0
  9
$DIMSAH
 70
     0
  9
$DIMBLK1
  1

  9
$DIMBLK2
  1

  9
$DIMSTYLE
  2
ISO-25
  9
$DIMCLRD
 70
     0
  9
$DIMCLRE
 70
     0
  9
$DIMCLRT
 70
     0
  9
$DIMTFAC
 40
1.0
  9
$DIMGAP
 40
0.625
  9
$DIMJUST
 70
     0
  9
$DIMSD1
 70
     0
  9
$DIMSD2
 70
     0
  9
$DIMTOLJ
 70
     0
  9
$DIMTZIN
 70
     8
  9
$DIMALTZ
 70
     0
  9
$DIMALTTZ
 70
     0
  9
$DIMUPT
 70
     0
  9
$DIMDEC
 70
     2
  9
$DIMTDEC
 70
     2
  9
$DIMALTU
 70
     2
  9
$DIMALTTD
 70
     3
  9
$DIMTXSTY
  7
Standard
  9
$DIMAUNIT
 70
     0
  9
$DIMADEC
 70
     0
  9
$DIMALTRND
 40
0.0
  9
$DIMAZIN
 70
     0
  9
$DIMDSEP
 70
    44
  9
$DIMATFIT
 70
     3
  9
$DIMFRAC
 70
     0
  9
$DIMLDRBLK
  1

  9
$DIMLUNIT
 70
     2
  9
$DIMLWD
 70
    -2
  9
$DIMLWE
 70
    -2
  9
$DIMTMOVE
 70
     0
  9
$DIMFXL
 40
1.0
  9
$DIMFXLON
 70
     0
  9
$DIMJOGANG
 40
0.7853981633974483
  9
$DIMTFILL
 70
     0
  9
$DIMTFILLCLR
 70
     0
  9
$DIMARCSYM
 70
     0
  9
$DIMLTYPE
  6

  9
$DIMLTEX1
  6

  9
$DIMLTEX2
  6

  9
$DIMTXTDIRECTION
 70
     0
  9
$LUNITS
 70
     2
  9
$LUPREC
 70
     4
  9
$SKETCHINC
 40
1.0
  9
$FILLETRAD
 40
0.0
  9
$AUNITS
 70
     0
  9
$AUPREC
 70
     0
  9
$MENU
  1
.
  9
$ELEVATION
 40
0.0
  9
$PELEVATION
 40
0.0
  9
$THICKNESS
 40
0.0
  9
$LIMCHECK
 70
     0
  9
$CHAMFERA
 40
0.0
  9
$CHAMFERB
 40
0.0
  9
$CHAMFERC
 40
0.0
  9
$CHAMFERD
 40
0.0
  9
$SKPOLY
 70
     0
  9
$TDCREATE
 40
2461157.637767651
  9
$TDUCREATE
 40
2461157.262767651
  9
$TDUPDATE
 40
2461157.63776794
  9
$TDUUPDATE
 40
2461157.26276794
  9
$TDINDWG
 40
0.0000000116
  9
$TDUSRTIMER
 40
0.0000000116
  9
$USRTIMER
 70
     1
  9
$ANGBASE
 50
0.0
  9
$ANGDIR
 70
     0
  9
$PDMODE
 70
     0
  9
$PDSIZE
 40
0.0
  9
$PLINEWID
 40
0.0
  9
$SPLFRAME
 70
     0
  9
$SPLINETYPE
 70
     6
  9
$SPLINESEGS
 70
     8
  9
$HANDSEED
  5
1DF
  9
$SURFTAB1
 70
     6
  9
$SURFTAB2
 70
     6
  9
$SURFTYPE
 70
     6
  9
$SURFU
 70
     6
  9
$SURFV
 70
     6
  9
$UCSBASE
  2

  9
$UCSNAME
  2

  9
$UCSORG
 10
0.0
 20
0.0
 30
0.0
  9
$UCSXDIR
 10
1.0
 20
0.0
 30
0.0
  9
$UCSYDIR
 10
0.0
 20
1.0
 30
0.0
  9
$UCSORTHOREF
  2

  9
$UCSORTHOVIEW
 70
     0
  9
$UCSORGTOP
 10
0.0
 20
0.0
 30
0.0
  9
$UCSORGBOTTOM
 10
0.0
 20
0.0
 30
0.0
  9
$UCSORGLEFT
 10
0.0
 20
0.0
 30
0.0
  9
$UCSORGRIGHT
 10
0.0
 20
0.0
 30
0.0
  9
$UCSORGFRONT
 10
0.0
 20
0.0
 30
0.0
  9
$UCSORGBACK
 10
0.0
 20
0.0
 30
0.0
  9
$PUCSBASE
  2

  9
$PUCSNAME
  2

  9
$PUCSORG
 10
0.0
 20
0.0
 30
0.0
  9
$PUCSXDIR
 10
1.0
 20
0.0
 30
0.0
  9
$PUCSYDIR
 10
0.0
 20
1.0
 30
0.0
  9
$PUCSORTHOREF
  2

  9
$PUCSORTHOVIEW
 70
     0
  9
$PUCSORGTOP
 10
0.0
 20
0.0
 30
0.0
  9
$PUCSORGBOTTOM
 10
0.0
 20
0.0
 30
0.0
  9
$PUCSORGLEFT
 10
0.0
 20
0.0
 30
0.0
  9
$PUCSORGRIGHT
 10
0.0
 20
0.0
 30
0.0
  9
$PUCSORGFRONT
 10
0.0
 20
0.0
 30
0.0
  9
$PUCSORGBACK
 10
0.0
 20
0.0
 30
0.0
  9
$USERI1
 70
     0
  9
$USERI2
 70
     0
  9
$USERI3
 70
     0
  9
$USERI4
 70
     0
  9
$USERI5
 70
     0
  9
$USERR1
 40
0.0
  9
$USERR2
 40
0.0
  9
$USERR3
 40
0.0
  9
$USERR4
 40
0.0
  9
$USERR5
 40
0.0
  9
$WORLDVIEW
 70
     1
  9
$SHADEDGE
 70
     3
  9
$SHADEDIF
 70
    70
  9
$TILEMODE
 70
     1
  9
$MAXACTVP
 70
    64
  9
$PINSBASE
 10
0.0
 20
0.0
 30
0.0
  9
$PLIMCHECK
 70
     0
  9
$PEXTMIN
 10
1.000000000000000E+20
 20
1.000000000000000E+20
 30
1.000000000000000E+20
  9
$PEXTMAX
 10
-1.000000000000000E+20
 20
-1.000000000000000E+20
 30
-1.000000000000000E+20
  9
$PLIMMIN
 10
0.0
 20
0.0
  9
$PLIMMAX
 10
420.0
 20
297.0
  9
$UNITMODE
 70
     0
  9
$VISRETAIN
 70
     1
  9
$PLINEGEN
 70
     0
  9
$PSLTSCALE
 70
     1
  9
$TREEDEPTH
 70
  3020
  9
$CMLSTYLE
  2
Standard
  9
$CMLJUST
 70
     0
  9
$CMLSCALE
 40
20.0
  9
$PROXYGRAPHICS
 70
     1
  9
$MEASUREMENT
 70
     1
  9
$CELWEIGHT
370
    -1
  9
$ENDCAPS
280
     0
  9
$JOINSTYLE
280
     0
  9
$LWDISPLAY
290
     1
  9
$INSUNITS
 70
     4
  9
$HYPERLINKBASE
  1

  9
$STYLESHEET
  1

  9
$XEDIT
290
     1
  9
$CEPSNTYPE
380
     0
  9
$PSTYLEMODE
290
     1
  9
$FINGERPRINTGUID
  2
{268bb45c-cc5c-466f-869d-f9a2fd0904cb}
  9
$VERSIONGUID
  2
{FAEB1C32-E019-11D5-929B-00C0DF256EC4}
  9
$EXTNAMES
290
     1
  9
$PSVPSCALE
 40
0.0
  9
$OLESTARTUP
290
     0
  9
$SORTENTS
280
   127
  9
$INDEXCTL
280
     0
  9
$HIDETEXT
280
     1
  9
$XCLIPFRAME
280
     2
  9
$HALOGAP
280
     0
  9
$OBSCOLOR
 70
   257
  9
$OBSLTYPE
280
     0
  9
$INTERSECTIONDISPLAY
280
     0
  9
$INTERSECTIONCOLOR
 70
   257
  9
$DIMASSOC
280
     2
  9
$PROJECTNAME
  1

  9
$CAMERADISPLAY
290
     0
  9
$LENSLENGTH
 40
50.0
  9
$CAMERAHEIGHT
 40
0.0
  9
$STEPSPERSEC
 40
2.0
  9
$STEPSIZE
 40
6.0
  9
$3DDWFPREC
 40
2.0
  9
$PSOLWIDTH
 40
5.0
  9
$PSOLHEIGHT
 40
80.0
  9
$LOFTANG1
 40
1.570796326794897
  9
$LOFTANG2
 40
1.570796326794897
  9
$LOFTMAG1
 40
0.0
  9
$LOFTMAG2
 40
0.0
  9
$LOFTPARAM
 70
     7
  9
$LOFTNORMALS
280
     1
  9
$LATITUDE
 40
37.795
  9
$LONGITUDE
 40
-122.394
  9
$NORTHDIRECTION
 40
0.0
  9
$TIMEZONE
 70
 -8000
  9
$LIGHTGLYPHDISPLAY
280
     1
  9
$TILEMODELIGHTSYNCH
280
     1
  9
$CMATERIAL
347
44
  9
$SOLIDHIST
280
     0
  9
$SHOWHIST
280
     1
  9
$DWFFRAME
280
     2
  9
$DGNFRAME
280
     2
  9
$REALWORLDSCALE
290
     1
  9
$INTERFERECOLOR
 62
   256
  9
$CSHADOW
280
     0
  9
$SHADOWPLANELOCATION
 40
0.0
  0
ENDSEC
  0
SECTION
  2
CLASSES
  0
CLASS
  1
ACDBDICTIONARYWDFLT
  2
AcDbDictionaryWithDefault
  3
ObjectDBX Classes
 90
        0
 91
        3
280
     0
281
     0
  0
CLASS
  1
VISUALSTYLE
  2
AcDbVisualStyle
  3
ObjectDBX Classes
 90
     4095
 91
        3
280
     0
281
     0
  0
CLASS
  1
MATERIAL
  2
AcDbMaterial
  3
ObjectDBX Classes
 90
     1153
 91
        3
280
     0
281
     0
  0
CLASS
  1
SCALE
  2
AcDbScale
  3
ObjectDBX Classes
 90
     1153
 91
        3
280
     0
281
     0
  0
CLASS
  1
TABLESTYLE
  2
AcDbTableStyle
  3
ObjectDBX Classes
 90
     4095
 91
        3
280
     0
281
     0
  0
CLASS
  1
MLEADERSTYLE
  2
AcDbMLeaderStyle
  3
ACDB_MLEADERSTYLE_CLASS
 90
     4095
 91
        3
280
     0
281
     0
  0
CLASS
  1
SUN
  2
AcDbSun
  3
SCENEOE
 90
     1153
 91
        3
280
     0
281
     0
  0
CLASS
  1
IMAGEDEF
  2
AcDbRasterImageDef
  3
ISM
 90
        0
 91
        3
280
     0
281
     0
  0
CLASS
  1
IMAGE
  2
AcDbRasterImage
  3
ISM
 90
      127
 91
        4
280
     0
281
     1
  0
CLASS
  1
RASTERVARIABLES
  2
AcDbRasterVariables
  3
ISM
 90
        0
 91
        3
280
     0
281
     0
  0
CLASS
  1
IMAGEDEF_REACTOR
  2
AcDbRasterImageDefReactor
  3
ISM
 90
        1
 91
        3
280
     0
281
     0
  0
CLASS
  1
DICTIONARYVAR
  2
AcDbDictionaryVar
  3
ObjectDBX Classes
 90
        0
 91
        3
280
     0
281
     0
  0
CLASS
  1
CELLSTYLEMAP
  2
AcDbCellStyleMap
  3
ObjectDBX Classes
 90
     1152
 91
        3
280
     0
281
     0
  0
ENDSEC
  0
SECTION
  2
TABLES
  0
TABLE
  2
VPORT
  5
8
330
0
100
AcDbSymbolTable
 70
     1
  0
VPORT
  5
29
330
8
100
AcDbSymbolTableRecord
100
AcDbViewportTableRecord
  2
*Active
 70
     0
 10
0.0
 20
0.0
 11
1.0
 21
1.0
 12
195.642375
 22
91.47139322956124
 13
0.0
 23
0.0
 14
10.0
 24
10.0
 15
10.0
 25
10.0
 16
0.0
 26
0.0
 36
1.0
 17
0.0
 27
0.0
 37
0.0
 40
186.6016421883049
 41
2.138836723619219
 42
50.0
 43
0.0
 44
0.0
 50
0.0
 51
0.0
 71
     0
 72
   100
 73
     1
 74
     3
 75
     0
 76
     0
 77
     0
 78
     0
281
     0
 65
     1
110
0.0
120
0.0
130
0.0
111
1.0
121
0.0
131
0.0
112
0.0
122
1.0
132
0.0
 79
     0
146
0.0
348
2F
 60
     3
 61
     5
292
     1
282
     1
141
0.0
142
0.0
 63
   250
361
5D
  0
ENDTAB
  0
TABLE
  2
LTYPE
  5
5
330
0
100
AcDbSymbolTable
 70
     2
  0
LTYPE
  5
14
330
5
100
AcDbSymbolTableRecord
100
AcDbLinetypeTableRecord
  2
ByBlock
 70
     0
  3

 72
    65
 73
     0
 40
0.0
  0
LTYPE
  5
15
330
5
100
AcDbSymbolTableRecord
100
AcDbLinetypeTableRecord
  2
ByLayer
 70
     0
  3

 72
    65
 73
     0
 40
0.0
  0
LTYPE
  5
16
330
5
100
AcDbSymbolTableRecord
100
AcDbLinetypeTableRecord
  2
Continuous
 70
     0
  3
Solid line
 72
    65
 73
     0
 40
0.0
  0
LTYPE
  5
83
330
5
100
AcDbSymbolTableRecord
100
AcDbLinetypeTableRecord
  2
HIDDEN_per2_scale0.547422
 70
     0
  3

 72
    83
 73
     2
 40
5.214195819106607
 49
3.476130546071071
 74
     0
 49
-1.738065273035536
 74
     0
  0
ENDTAB
  0
TABLE
  2
LAYER
  5
2
330
0
100
AcDbSymbolTable
 70
     2
  0
LAYER
  5
10
330
2
100
AcDbSymbolTableRecord
100
AcDbLayerTableRecord
  2
0
 70
     0
 62
     7
  6
Continuous
370
    -3
390
F
347
46
348
0
  0
LAYER
  5
5E
330
2
100
AcDbSymbolTableRecord
100
AcDbLayerTableRecord
  2
1
 70
     5
 62
    -7
  6
Continuous
370
    -3
390
F
347
46
348
0
  0
ENDTAB
  0
TABLE
  2
STYLE
  5
3
330
0
100
AcDbSymbolTable
 70
     4
  0
STYLE
  5
11
330
3
100
AcDbSymbolTableRecord
100
AcDbTextStyleTableRecord
  2
Standard
 70
     0
 40
0.0
 41
1.0
 50
0.0
 71
     0
 42
2.5
  3
txt
  4

  0
STYLE
  5
1C5
330
3
100
AcDbSymbolTableRecord
100
AcDbTextStyleTableRecord
  2
TextStyle_1
 70
     0
 40
4.170101789794262
 41
1.0
 50
0.0
 71
     0
 42
2.5
  3
t-flex type b.TTF
  4

  0
STYLE
  5
1C7
330
3
100
AcDbSymbolTableRecord
100
AcDbTextStyleTableRecord
  2
TextStyle_2
 70
     0
 40
3.5
 41
1.0
 50
0.0
 71
     0
 42
2.5
  3
T-FLEX Type A.TTF
  4

  0
STYLE
  5
1CA
330
3
100
AcDbSymbolTableRecord
100
AcDbTextStyleTableRecord
  2
TextStyle_3
 70
     0
 40
4.170101789794263
 41
1.0
 50
0.0
 71
     0
 42
2.5
  3
t-flex type b.TTF
  4

  0
ENDTAB
  0
TABLE
  2
VIEW
  5
6
330
0
100
AcDbSymbolTable
 70
     0
  0
ENDTAB
  0
TABLE
  2
UCS
  5
7
330
0
100
AcDbSymbolTable
 70
     0
  0
ENDTAB
  0
TABLE
  2
APPID
  5
9
330
0
100
AcDbSymbolTable
 70
     1
  0
APPID
  5
12
330
9
100
AcDbSymbolTableRecord
100
AcDbRegAppTableRecord
  2
ACAD
 70
     0
  0
ENDTAB
  0
TABLE
  2
DIMSTYLE
  5
A
330
0
100
AcDbSymbolTable
 70
     1
100
AcDbDimStyleTable
  0
DIMSTYLE
105
27
330
A
100
AcDbSymbolTableRecord
100
AcDbDimStyleTableRecord
  2
ISO-25
 70
     0
 41
2.5
 42
0.625
 43
3.75
 44
1.25
 73
     0
 74
     0
 77
     1
 78
     8
140
2.5
141
2.5
143
0.03937007874016
147
0.625
171
     3
172
     1
178
     0
271
     2
272
     2
274
     3
278
    44
283
     0
284
     8
340
11
  0
ENDTAB
  0
TABLE
  2
BLOCK_RECORD
  5
1
330
0
100
AcDbSymbolTable
 70
     1
  0
BLOCK_RECORD
  5
1F
330
1
100
AcDbSymbolTableRecord
100
AcDbBlockTableRecord
  2
*Model_Space
340
22
 70
     0
280
     1
281
     0
  0
BLOCK_RECORD
  5
1B
330
1
100
AcDbSymbolTableRecord
100
AcDbBlockTableRecord
  2
*Paper_Space
340
1E
 70
     0
280
     1
281
     0
  0
BLOCK_RECORD
  5
5F
330
1
100
AcDbSymbolTableRecord
100
AcDbBlockTableRecord
  2
Model
340
0
102
{BLKREFS
331
60
102
}
 70
     0
280
     1
281
     0
  0
ENDTAB
  0
ENDSEC
  0
SECTION
  2
BLOCKS
  0
BLOCK
  5
20
330
1F
100
AcDbEntity
  8
0
100
AcDbBlockBegin
  2
*Model_Space
 70
     0
 10
0.0
 20
0.0
 30
0.0
  3
*Model_Space
  1

  0
ENDBLK
  5
21
330
1F
100
AcDbEntity
  8
0
100
AcDbBlockEnd
  0
BLOCK
  5
1C
330
1B
100
AcDbEntity
 67
     1
  8
0
100
AcDbBlockBegin
  2
*Paper_Space
 70
     0
 10
0.0
 20
0.0
 30
0.0
  3
*Paper_Space
  1

  0
ENDBLK
  5
1D
330
1B
100
AcDbEntity
 67
     1
  8
0
100
AcDbBlockEnd
  0
BLOCK
  5
1D2
330
5F
100
AcDbEntity
  8
0
100
AcDbBlockBegin
  2
Model
 70
     0
 10
0.0
 20
0.0
 30
0.0
  3
Model
  1

  0
IMAGE
  5
63
330
5F
100
AcDbEntity
  8
0
160
                 8
310
0800000000000000
100
AcDbRasterImage
 90
        0
 10
0.0
 20
0.0
 30
0.0
 11
1.0
 21
0.0
 31
0.0
 12
0.0
 22
1.0
 32
0.0
 13
0.0
 23
0.0
340
62
 70
    11
280
     0
281
    50
282
    50
283
     0
360
65
 71
     1
 91
        2
 14
-0.5
 24
-0.5
 14
-0.5
 24
-0.5
290
     0
  0
POLYLINE
  5
66
330
5F
100
AcDbEntity
  8
0
 62
     0
370
   100
100
AcDb2dPolyline
 66
     1
 10
0.0
 20
0.0
 30
0.0
 70
   128
  0
VERTEX
  5
67
330
66
100
AcDbEntity
  8
0
 62
     0
370
   100
100
AcDbVertex
100
AcDb2dVertex
 10
79.47777403908168
 20
154.79
 30
0.0
  0
VERTEX
  5
68
330
66
100
AcDbEntity
  8
0
 62
     0
370
   100
100
AcDbVertex
100
AcDb2dVertex
 10
87.6377740390817
 20
154.79
 30
0.0
  0
SEQEND
  5
69
330
66
100
AcDbEntity
  8
0
 62
     0
370
   100
  0
SOLID
  5
6A
330
5F
100
AcDbEntity
  8
0
 62
     0
100
AcDbTrace
 10
87.6377740390817
 20
152.29
 30
0.0
 11
92.6377740390817
 21
154.79
 31
0.0
 12
87.6377740390817
 22
157.29
 32
0.0
 13
87.6377740390817
 23
157.29
 33
0.0
  0
POLYLINE
  5
6B
330
5F
100
AcDbEntity
  8
0
 62
     0
370
   100
100
AcDb2dPolyline
 66
     1
 10
0.0
 20
0.0
 30
0.0
 70
   128
  0
VERTEX
  5
6C
330
6B
100
AcDbEntity
  8
0
 62
     0
370
   100
100
AcDbVertex
100
AcDb2dVertex
 10
92.6377740390817
 20
154.79
 30
0.0
  0
VERTEX
  5
6D
330
6B
100
AcDbEntity
  8
0
 62
     0
370
   100
100
AcDbVertex
100
AcDb2dVertex
 10
101.0777740390817
 20
154.79
 30
0.0
  0
SEQEND
  5
6E
330
6B
100
AcDbEntity
  8
0
 62
     0
370
   100
  0
POLYLINE
  5
6F
330
5F
100
AcDbEntity
  8
0
 62
     0
370
   100
100
AcDb2dPolyline
 66
     1
 10
0.0
 20
0.0
 30
0.0
 70
   128
  0
VERTEX
  5
70
330
6F
100
AcDbEntity
  8
0
 62
     0
370
   100
100
AcDbVertex
100
AcDb2dVertex
 10
101.0777740390817
 20
151.2250442039072
 30
0.0
  0
VERTEX
  5
71
330
6F
100
AcDbEntity
  8
0
 62
     0
370
   100
100
AcDbVertex
100
AcDb2dVertex
 10
113.5993824008685
 20
158.3549557960928
 30
0.0
  0
SEQEND
  5
72
330
6F
100
AcDbEntity
  8
0
 62
     0
370
   100
  0
POLYLINE
  5
73
330
5F
100
AcDbEntity
  8
0
 62
     0
370
   100
100
AcDb2dPolyline
 66
     1
 10
0.0
 20
0.0
 30
0.0
 70
   128
  0
VERTEX
  5
74
330
73
100
AcDbEntity
  8
0
 62
     0
370
   100
100
AcDbVertex
100
AcDb2dVertex
 10
101.0777740390817
 20
158.3549557960928
 30
0.0
  0
VERTEX
  5
75
330
73
100
AcDbEntity
  8
0
 62
     0
370
   100
100
AcDbVertex
100
AcDb2dVertex
 10
113.5993824008685
 20
151.2250442039072
 30
0.0
  0
SEQEND
  5
76
330
73
100
AcDbEntity
  8
0
 62
     0
370
   100
  0
POLYLINE
  5
77
330
5F
100
AcDbEntity
  8
0
 62
     0
370
   100
100
AcDb2dPolyline
 66
     1
 10
0.0
 20
0.0
 30
0.0
 70
   128
  0
VERTEX
  5
78
330
77
100
AcDbEntity
  8
0
 62
     0
370
   100
100
AcDbVertex
100
AcDb2dVertex
 10
113.5993824008685
 20
158.3549557960928
 30
0.0
  0
VERTEX
  5
79
330
77
100
AcDbEntity
  8
0
 62
     0
370
   100
100
AcDbVertex
100
AcDb2dVertex
 10
113.5993824008685
 20
151.2250442039072
 30
0.0
  0
SEQEND
  5
7A
330
77
100
AcDbEntity
  8
0
 62
     0
370
   100
  0
POLYLINE
  5
7B
330
5F
100
AcDbEntity
  8
0
 62
     0
370
   100
100
AcDb2dPolyline
 66
     1
 10
0.0
 20
0.0
 30
0.0
 70
   128
  0
VERTEX
  5
7C
330
7B
100
AcDbEntity
  8
0
 62
     0
370
   100
100
AcDbVertex
100
AcDb2dVertex
 10
101.0777740390817
 20
158.3549557960928
 30
0.0
  0
VERTEX
  5
7D
330
7B
100
AcDbEntity
  8
0
 62
     0
370
   100
100
AcDbVertex
100
AcDb2dVertex
 10
101.0777740390817
 20
151.2250442039072
 30
0.0
  0
SEQEND
  5
7E
330
7B
100
AcDbEntity
  8
0
 62
     0
370
   100
  0
POLYLINE
  5
7F
330
5F
100
AcDbEntity
  8
0
 62
     0
370
   100
100
AcDb2dPolyline
 66
     1
 10
0.0
 20
0.0
 30
0.0
 70
   128
  0
VERTEX
  5
80
330
7F
100
AcDbEntity
  8
0
 62
     0
370
   100
100
AcDbVertex
100
AcDb2dVertex
 10
113.5993824008685
 20
154.79
 30
0.0
  0
VERTEX
  5
81
330
7F
100
AcDbEntity
  8
0
 62
     0
370
   100
100
AcDbVertex
100
AcDb2dVertex
 10
196.1311669938935
 20
154.79
 30
0.0
  0
SEQEND
  5
82
330
7F
100
AcDbEntity
  8
0
 62
     0
370
   100
  0
POLYLINE
  5
84
330
5F
100
AcDbEntity
  8
0
 62
     0
370
    40
100
AcDb2dPolyline
 66
     1
 10
0.0
 20
0.0
 30
0.0
 70
   128
  0
VERTEX
  5
85
330
84
100
AcDbEntity
  8
0
 62
     0
370
    40
100
AcDbVertex
100
AcDb2dVertex
 10
113.7193824008685
 20
107.01
 30
0.0
  0
VERTEX
  5
86
330
84
100
AcDbEntity
  8
0
 62
     0
370
    40
100
AcDbVertex
100
AcDb2dVertex
 10
124.1477740390817
 20
107.01
 30
0.0
  0
SEQEND
  5
87
330
84
100
AcDbEntity
  8
0
 62
     0
370
    40
  0
POLYLINE
  5
88
330
5F
100
AcDbEntity
  8
0
 62
     0
370
   100
100
AcDb2dPolyline
 66
     1
 10
0.0
 20
0.0
 30
0.0
 70
   128
  0
VERTEX
  5
89
330
88
100
AcDbEntity
  8
0
 62
     0
370
   100
100
AcDbVertex
100
AcDb2dVertex
 10
228.4918769858528
 20
170.1538709592085
 30
0.0
  0
VERTEX
  5
8A
330
88
100
AcDbEntity
  8
0
 62
     0
370
   100
100
AcDbVertex
100
AcDb2dVertex
 10
232.3636710923106
 20
163.3541948578016
 30
0.0
  0
SEQEND
  5
8B
330
88
100
AcDbEntity
  8
0
 62
     0
370
   100
  0
POLYLINE
  5
8C
330
5F
100
AcDbEntity
  8
0
 62
     0
370
   100
100
AcDb2dPolyline
 66
     1
 10
0.0
 20
0.0
 30
0.0
 70
   128
  0
VERTEX
  5
8D
330
8C
100
AcDbEntity
  8
0
 62
     0
370
   100
100
AcDbVertex
100
AcDb2dVertex
 10
230.4277740390817
 20
163.3541948578016
 30
0.0
  0
VERTEX
  5
8E
330
8C
100
AcDbEntity
  8
0
 62
     0
370
   100
100
AcDbVertex
100
AcDb2dVertex
 10
230.4277740390817
 20
154.79
 30
0.0
  0
SEQEND
  5
8F
330
8C
100
AcDbEntity
  8
0
 62
     0
370
   100
  0
POLYLINE
  5
90
330
5F
100
AcDbEntity
  8
0
 62
     0
370
   100
100
AcDb2dPolyline
 66
     1
 10
0.0
 20
0.0
 30
0.0
 70
   128
  0
VERTEX
  5
91
330
90
100
AcDbEntity
  8
0
 62
     0
370
   100
100
AcDbVertex
100
AcDb2dVertex
 10
227.0279359883785
 20
168.6899299617337
 30
0.0
  0
VERTEX
  5
92
330
90
100
AcDbEntity
  8
0
 62
     0
370
   100
100
AcDbVertex
100
AcDb2dVertex
 10
227.0279359883785
 20
164.8181358552763
 30
0.0
  0
SEQEND
  5
93
330
90
100
AcDbEntity
  8
0
 62
     0
370
   100
  0
POLYLINE
  5
94
330
5F
100
AcDbEntity
  8
0
 62
     0
370
   100
100
AcDb2dPolyline
 66
     1
 10
0.0
 20
0.0
 30
0.0
 70
   128
  0
VERTEX
  5
95
330
94
100
AcDbEntity
  8
0
 62
     0
370
   100
100
AcDbVertex
100
AcDb2dVertex
 10
230.4277740390817
 20
172.6761964706798
 30
0.0
  0
VERTEX
  5
96
330
94
100
AcDbEntity
  8
0
 62
     0
370
   100
100
AcDbVertex
100
AcDb2dVertex
 10
230.4277740390817
 20
170.1538709592085
 30
0.0
  0
SEQEND
  5
97
330
94
100
AcDbEntity
  8
0
 62
     0
370
   100
  0
POLYLINE
  5
98
330
5F
100
AcDbEntity
  8
0
 62
     0
370
   100
100
AcDb2dPolyline
 66
     1
 10
0.0
 20
0.0
 30
0.0
 70
   128
  0
VERTEX
  5
99
330
98
100
AcDbEntity
  8
0
 62
     0
370
   100
100
AcDbVertex
100
AcDb2dVertex
 10
232.3636710923106
 20
170.1538709592085
 30
0.0
  0
VERTEX
  5
9A
330
98
100
AcDbEntity
  8
0
 62
     0
370
   100
100
AcDbVertex
100
AcDb2dVertex
 10
228.4918769858528
 20
163.3541948578016
 30
0.0
  0
SEQEND
  5
9B
330
98
100
AcDbEntity
  8
0
 62
     0
370
   100
  0
POLYLINE
  5
9C
330
5F
100
AcDbEntity
  8
0
 62
     0
370
   100
100
AcDb2dPolyline
 66
     1
 10
0.0
 20
0.0
 30
0.0
 70
   128
  0
VERTEX
  5
9D
330
9C
100
AcDbEntity
  8
0
 62
     0
370
   100
100
AcDbVertex
100
AcDb2dVertex
 10
227.0279359883785
 20
168.6899299617337
 30
0.0
  0
VERTEX
  5
9E
330
9C
100
AcDbEntity
  8
0
 62
     0
370
   100
100
AcDbVertex
100
AcDb2dVertex
 10
230.4277740390817
 20
166.754032908505
 30
0.0
  0
SEQEND
  5
9F
330
9C
100
AcDbEntity
  8
0
 62
     0
370
   100
  0
POLYLINE
  5
A0
330
5F
100
AcDbEntity
  8
0
 62
     0
370
   100
100
AcDb2dPolyline
 66
     1
 10
0.0
 20
0.0
 30
0.0
 70
   128
  0
VERTEX
  5
A1
330
A0
100
AcDbEntity
  8
0
 62
     0
370
   100
100
AcDbVertex
100
AcDb2dVertex
 10
232.3636710923106
 20
163.3541948578016
 30
0.0
  0
VERTEX
  5
A2
330
A0
100
AcDbEntity
  8
0
 62
     0
370
   100
100
AcDbVertex
100
AcDb2dVertex
 10
228.4918769858528
 20
163.3541948578016
 30
0.0
  0
SEQEND
  5
A3
330
A0
100
AcDbEntity
  8
0
 62
     0
370
   100
  0
POLYLINE
  5
A4
330
5F
100
AcDbEntity
  8
0
 62
     0
370
   100
100
AcDb2dPolyline
 66
     1
 10
0.0
 20
0.0
 30
0.0
 70
   128
  0
VERTEX
  5
A5
330
A4
100
AcDbEntity
  8
0
 62
     0
370
   100
100
AcDbVertex
100
AcDb2dVertex
 10
232.3636710923106
 20
170.1538709592085
 30
0.0
  0
VERTEX
  5
A6
330
A4
100
AcDbEntity
  8
0
 62
     0
370
   100
100
AcDbVertex
100
AcDb2dVertex
 10
228.4918769858528
 20
170.1538709592085
 30
0.0
  0
SEQEND
  5
A7
330
A4
100
AcDbEntity
  8
0
 62
     0
370
   100
  0
POLYLINE
  5
A8
330
5F
100
AcDbEntity
  8
0
 62
     0
370
   100
100
AcDb2dPolyline
 66
     1
 10
0.0
 20
0.0
 30
0.0
 70
   128
  0
VERTEX
  5
A9
330
A8
100
AcDbEntity
  8
0
 62
     0
370
   100
100
AcDbVertex
100
AcDb2dVertex
 10
230.4277740390817
 20
166.754032908505
 30
0.0
  0
VERTEX
  5
AA
330
A8
100
AcDbEntity
  8
0
 62
     0
370
   100
100
AcDbVertex
100
AcDb2dVertex
 10
227.0279359883785
 20
164.8181358552763
 30
0.0
  0
SEQEND
  5
AB
330
A8
100
AcDbEntity
  8
0
 62
     0
370
   100
  0
LWPOLYLINE
  5
AC
330
5F
100
AcDbEntity
  8
0
  6
Continuous
 62
     0
370
   100
100
AcDbPolyline
 90
        2
 70
     1
 43
1.0
 10
235.3225756696426
 20
177.5709981012408
 42
-1.0
 10
225.5329724085208
 20
177.5709981012408
 42
-1.0
  0
POLYLINE
  5
AD
330
5F
100
AcDbEntity
  8
0
 62
     0
370
   100
100
AcDb2dPolyline
 66
     1
 10
0.0
 20
0.0
 30
0.0
 70
   128
  0
VERTEX
  5
AE
330
AD
100
AcDbEntity
  8
0
 62
     0
370
   100
100
AcDbVertex
100
AcDb2dVertex
 10
207.546516759292
 20
150.209621839741
 30
0.0
  0
VERTEX
  5
AF
330
AD
100
AcDbEntity
  8
0
 62
     0
370
   100
100
AcDbVertex
100
AcDb2dVertex
 10
196.1311669938924
 20
154.7900000000004
 30
0.0
  0
SEQEND
  5
B0
330
AD
100
AcDbEntity
  8
0
 62
     0
370
   100
  0
POLYLINE
  5
B1
330
5F
100
AcDbEntity
  8
0
 62
     0
370
   100
100
AcDb2dPolyline
 66
     1
 10
0.0
 20
0.0
 30
0.0
 70
   128
  0
VERTEX
  5
B2
330
B1
100
AcDbEntity
  8
0
 62
     0
370
   100
100
AcDbVertex
100
AcDb2dVertex
 10
196.1311669938924
 20
154.7900000000004
 30
0.0
  0
VERTEX
  5
B3
330
B1
100
AcDbEntity
  8
0
 62
     0
370
   100
100
AcDbVertex
100
AcDb2dVertex
 10
207.5847244621246
 20
159.3300958739697
 30
0.0
  0
SEQEND
  5
B4
330
B1
100
AcDbEntity
  8
0
 62
     0
370
   100
  0
LWPOLYLINE
  5
B5
330
5F
100
AcDbEntity
  8
0
  6
Continuous
 62
     0
370
   100
100
AcDbPolyline
 90
        2
 70
     1
 43
1.0
 10
209.3843810842708
 20
154.79
 42
-1.0
 10
196.1311669938925
 20
154.79
 42
-1.0
  0
LWPOLYLINE
  5
B6
330
5F
100
AcDbEntity
  8
0
  6
Continuous
 62
     0
370
   100
100
AcDbPolyline
 90
        2
 70
     1
 43
1.0
 10
207.7577740390817
 20
169.615
 42
-1.0
 10
197.7577740390817
 20
169.615
 42
-1.0
  0
POLYLINE
  5
B7
330
5F
100
AcDbEntity
  8
0
 62
     0
370
   100
100
AcDb2dPolyline
 66
     1
 10
0.0
 20
0.0
 30
0.0
 70
   128
  0
VERTEX
  5
B8
330
B7
100
AcDbEntity
  8
0
 62
     0
370
   100
100
AcDbVertex
100
AcDb2dVertex
 10
202.7577740390817
 20
161.4166070451891
 30
0.0
  0
VERTEX
  5
B9
330
B7
100
AcDbEntity
  8
0
 62
     0
370
   100
100
AcDbVertex
100
AcDb2dVertex
 10
202.7577740390817
 20
164.63
 30
0.0
  0
SEQEND
  5
BA
330
B7
100
AcDbEntity
  8
0
 62
     0
370
   100
  0
POLYLINE
  5
BB
330
5F
100
AcDbEntity
  8
0
 62
     0
370
   100
100
AcDb2dPolyline
 66
     1
 10
0.0
 20
0.0
 30
0.0
 70
   128
  0
VERTEX
  5
BC
330
BB
100
AcDbEntity
  8
0
 62
     0
370
   100
100
AcDbVertex
100
AcDb2dVertex
 10
185.5379359883785
 20
120.9099299617338
 30
0.0
  0
VERTEX
  5
BD
330
BB
100
AcDbEntity
  8
0
 62
     0
370
   100
100
AcDbVertex
100
AcDb2dVertex
 10
188.9377740390817
 20
118.9740329085051
 30
0.0
  0
SEQEND
  5
BE
330
BB
100
AcDbEntity
  8
0
 62
     0
370
   100
  0
POLYLINE
  5
BF
330
5F
100
AcDbEntity
  8
0
 62
     0
370
   100
100
AcDb2dPolyline
 66
     1
 10
0.0
 20
0.0
 30
0.0
 70
   128
  0
VERTEX
  5
C0
330
BF
100
AcDbEntity
  8
0
 62
     0
370
   100
100
AcDbVertex
100
AcDb2dVertex
 10
188.9377740390817
 20
115.5741948578016
 30
0.0
  0
VERTEX
  5
C1
330
BF
100
AcDbEntity
  8
0
 62
     0
370
   100
100
AcDbVertex
100
AcDb2dVertex
 10
188.9377740390817
 20
107.01
 30
0.0
  0
SEQEND
  5
C2
330
BF
100
AcDbEntity
  8
0
 62
     0
370
   100
  0
POLYLINE
  5
C3
330
5F
100
AcDbEntity
  8
0
 62
     0
370
   100
100
AcDb2dPolyline
 66
     1
 10
0.0
 20
0.0
 30
0.0
 70
   128
  0
VERTEX
  5
C4
330
C3
100
AcDbEntity
  8
0
 62
     0
370
   100
100
AcDbVertex
100
AcDb2dVertex
 10
185.5379359883785
 20
120.9099299617338
 30
0.0
  0
VERTEX
  5
C5
330
C3
100
AcDbEntity
  8
0
 62
     0
370
   100
100
AcDbVertex
100
AcDb2dVertex
 10
185.5379359883785
 20
117.0381358552764
 30
0.0
  0
SEQEND
  5
C6
330
C3
100
AcDbEntity
  8
0
 62
     0
370
   100
  0
POLYLINE
  5
C7
330
5F
100
AcDbEntity
  8
0
 62
     0
370
   100
100
AcDb2dPolyline
 66
     1
 10
0.0
 20
0.0
 30
0.0
 70
   128
  0
VERTEX
  5
C8
330
C7
100
AcDbEntity
  8
0
 62
     0
370
   100
100
AcDbVertex
100
AcDb2dVertex
 10
187.0018769858528
 20
122.3738709592085
 30
0.0
  0
VERTEX
  5
C9
330
C7
100
AcDbEntity
  8
0
 62
     0
370
   100
100
AcDbVertex
100
AcDb2dVertex
 10
190.8736710923106
 20
115.5741948578016
 30
0.0
  0
SEQEND
  5
CA
330
C7
100
AcDbEntity
  8
0
 62
     0
370
   100
  0
POLYLINE
  5
CB
330
5F
100
AcDbEntity
  8
0
 62
     0
370
   100
100
AcDb2dPolyline
 66
     1
 10
0.0
 20
0.0
 30
0.0
 70
   128
  0
VERTEX
  5
CC
330
CB
100
AcDbEntity
  8
0
 62
     0
370
   100
100
AcDbVertex
100
AcDb2dVertex
 10
188.9377740390817
 20
124.8961964706798
 30
0.0
  0
VERTEX
  5
CD
330
CB
100
AcDbEntity
  8
0
 62
     0
370
   100
100
AcDbVertex
100
AcDb2dVertex
 10
188.9377740390817
 20
122.3738709592085
 30
0.0
  0
SEQEND
  5
CE
330
CB
100
AcDbEntity
  8
0
 62
     0
370
   100
  0
POLYLINE
  5
CF
330
5F
100
AcDbEntity
  8
0
 62
     0
370
   100
100
AcDb2dPolyline
 66
     1
 10
0.0
 20
0.0
 30
0.0
 70
   128
  0
VERTEX
  5
D0
330
CF
100
AcDbEntity
  8
0
 62
     0
370
   100
100
AcDbVertex
100
AcDb2dVertex
 10
190.8736710923106
 20
122.3738709592085
 30
0.0
  0
VERTEX
  5
D1
330
CF
100
AcDbEntity
  8
0
 62
     0
370
   100
100
AcDbVertex
100
AcDb2dVertex
 10
187.0018769858528
 20
115.5741948578016
 30
0.0
  0
SEQEND
  5
D2
330
CF
100
AcDbEntity
  8
0
 62
     0
370
   100
  0
LWPOLYLINE
  5
D3
330
5F
100
AcDbEntity
  8
0
  6
Continuous
 62
     0
370
   100
100
AcDbPolyline
 90
        2
 70
     1
 43
1.0
 10
193.8325756696426
 20
129.7909981012408
 42
-1.0
 10
184.0429724085208
 20
129.7909981012408
 42
-1.0
  0
POLYLINE
  5
D4
330
5F
100
AcDbEntity
  8
0
 62
     0
370
   100
100
AcDb2dPolyline
 66
     1
 10
0.0
 20
0.0
 30
0.0
 70
   128
  0
VERTEX
  5
D5
330
D4
100
AcDbEntity
  8
0
 62
     0
370
   100
100
AcDbVertex
100
AcDb2dVertex
 10
188.9377740390817
 20
118.9740329085051
 30
0.0
  0
VERTEX
  5
D6
330
D4
100
AcDbEntity
  8
0
 62
     0
370
   100
100
AcDbVertex
100
AcDb2dVertex
 10
185.5379359883785
 20
117.0381358552764
 30
0.0
  0
SEQEND
  5
D7
330
D4
100
AcDbEntity
  8
0
 62
     0
370
   100
  0
POLYLINE
  5
D8
330
5F
100
AcDbEntity
  8
0
 62
     0
370
   100
100
AcDb2dPolyline
 66
     1
 10
0.0
 20
0.0
 30
0.0
 70
   128
  0
VERTEX
  5
D9
330
D8
100
AcDbEntity
  8
0
 62
     0
370
   100
100
AcDbVertex
100
AcDb2dVertex
 10
190.8736710923106
 20
122.3738709592085
 30
0.0
  0
VERTEX
  5
DA
330
D8
100
AcDbEntity
  8
0
 62
     0
370
   100
100
AcDbVertex
100
AcDb2dVertex
 10
187.0018769858528
 20
122.3738709592085
 30
0.0
  0
SEQEND
  5
DB
330
D8
100
AcDbEntity
  8
0
 62
     0
370
   100
  0
POLYLINE
  5
DC
330
5F
100
AcDbEntity
  8
0
 62
     0
370
   100
100
AcDb2dPolyline
 66
     1
 10
0.0
 20
0.0
 30
0.0
 70
   128
  0
VERTEX
  5
DD
330
DC
100
AcDbEntity
  8
0
 62
     0
370
   100
100
AcDbVertex
100
AcDb2dVertex
 10
190.8736710923106
 20
115.5741948578016
 30
0.0
  0
VERTEX
  5
DE
330
DC
100
AcDbEntity
  8
0
 62
     0
370
   100
100
AcDbVertex
100
AcDb2dVertex
 10
187.0018769858528
 20
115.5741948578016
 30
0.0
  0
SEQEND
  5
DF
330
DC
100
AcDbEntity
  8
0
 62
     0
370
   100
  0
POLYLINE
  5
E0
330
5F
100
AcDbEntity
  8
0
 62
     0
370
   100
100
AcDb2dPolyline
 66
     1
 10
0.0
 20
0.0
 30
0.0
 70
   128
  0
VERTEX
  5
E1
330
E0
100
AcDbEntity
  8
0
 62
     0
370
   100
100
AcDbVertex
100
AcDb2dVertex
 10
153.3577740390817
 20
166.754032908505
 30
0.0
  0
VERTEX
  5
E2
330
E0
100
AcDbEntity
  8
0
 62
     0
370
   100
100
AcDbVertex
100
AcDb2dVertex
 10
149.9579359883784
 20
164.8181358552763
 30
0.0
  0
SEQEND
  5
E3
330
E0
100
AcDbEntity
  8
0
 62
     0
370
   100
  0
POLYLINE
  5
E4
330
5F
100
AcDbEntity
  8
0
 62
     0
370
   100
100
AcDb2dPolyline
 66
     1
 10
0.0
 20
0.0
 30
0.0
 70
   128
  0
VERTEX
  5
E5
330
E4
100
AcDbEntity
  8
0
 62
     0
370
   100
100
AcDbVertex
100
AcDb2dVertex
 10
79.59777403908168
 20
107.01
 30
0.0
  0
VERTEX
  5
E6
330
E4
100
AcDbEntity
  8
0
 62
     0
370
   100
100
AcDbVertex
100
AcDb2dVertex
 10
87.75777403908171
 20
107.01
 30
0.0
  0
SEQEND
  5
E7
330
E4
100
AcDbEntity
  8
0
 62
     0
370
   100
  0
SOLID
  5
E8
330
5F
100
AcDbEntity
  8
0
 62
     0
100
AcDbTrace
 10
87.75777403908171
 20
104.51
 30
0.0
 11
92.75777403908171
 21
107.01
 31
0.0
 12
87.75777403908171
 22
109.51
 32
0.0
 13
87.75777403908171
 23
109.51
 33
0.0
  0
POLYLINE
  5
E9
330
5F
100
AcDbEntity
  8
0
 62
     0
370
   100
100
AcDb2dPolyline
 66
     1
 10
0.0
 20
0.0
 30
0.0
 70
   128
  0
VERTEX
  5
EA
330
E9
100
AcDbEntity
  8
0
 62
     0
370
   100
100
AcDbVertex
100
AcDb2dVertex
 10
113.7193824008685
 20
107.01
 30
0.0
  0
VERTEX
  5
EB
330
E9
100
AcDbEntity
  8
0
 62
     0
370
   100
100
AcDbVertex
100
AcDb2dVertex
 10
209.9661745392363
 20
107.01
 30
0.0
  0
SEQEND
  5
EC
330
E9
100
AcDbEntity
  8
0
 62
     0
370
   100
  0
POLYLINE
  5
ED
330
5F
100
AcDbEntity
  8
0
 62
     0
370
   100
100
AcDb2dPolyline
 66
     1
 10
0.0
 20
0.0
 30
0.0
 70
   128
  0
VERTEX
  5
EE
330
ED
100
AcDbEntity
  8
0
 62
     0
370
   100
100
AcDbVertex
100
AcDb2dVertex
 10
101.1977740390817
 20
110.5749557960928
 30
0.0
  0
VERTEX
  5
EF
330
ED
100
AcDbEntity
  8
0
 62
     0
370
   100
100
AcDbVertex
100
AcDb2dVertex
 10
113.7193824008685
 20
103.4450442039072
 30
0.0
  0
SEQEND
  5
F0
330
ED
100
AcDbEntity
  8
0
 62
     0
370
   100
  0
POLYLINE
  5
F1
330
5F
100
AcDbEntity
  8
0
 62
     0
370
   100
100
AcDb2dPolyline
 66
     1
 10
0.0
 20
0.0
 30
0.0
 70
   128
  0
VERTEX
  5
F2
330
F1
100
AcDbEntity
  8
0
 62
     0
370
   100
100
AcDbVertex
100
AcDb2dVertex
 10
101.1977740390817
 20
110.5749557960928
 30
0.0
  0
VERTEX
  5
F3
330
F1
100
AcDbEntity
  8
0
 62
     0
370
   100
100
AcDbVertex
100
AcDb2dVertex
 10
101.1977740390817
 20
103.4450442039072
 30
0.0
  0
SEQEND
  5
F4
330
F1
100
AcDbEntity
  8
0
 62
     0
370
   100
  0
POLYLINE
  5
F5
330
5F
100
AcDbEntity
  8
0
 62
     0
370
   100
100
AcDb2dPolyline
 66
     1
 10
0.0
 20
0.0
 30
0.0
 70
   128
  0
VERTEX
  5
F6
330
F5
100
AcDbEntity
  8
0
 62
     0
370
   100
100
AcDbVertex
100
AcDb2dVertex
 10
113.7193824008685
 20
110.5749557960928
 30
0.0
  0
VERTEX
  5
F7
330
F5
100
AcDbEntity
  8
0
 62
     0
370
   100
100
AcDbVertex
100
AcDb2dVertex
 10
113.7193824008685
 20
103.4450442039072
 30
0.0
  0
SEQEND
  5
F8
330
F5
100
AcDbEntity
  8
0
 62
     0
370
   100
  0
POLYLINE
  5
F9
330
5F
100
AcDbEntity
  8
0
 62
     0
370
   100
100
AcDb2dPolyline
 66
     1
 10
0.0
 20
0.0
 30
0.0
 70
   128
  0
VERTEX
  5
FA
330
F9
100
AcDbEntity
  8
0
 62
     0
370
   100
100
AcDbVertex
100
AcDb2dVertex
 10
101.1977740390817
 20
103.4450442039072
 30
0.0
  0
VERTEX
  5
FB
330
F9
100
AcDbEntity
  8
0
 62
     0
370
   100
100
AcDbVertex
100
AcDb2dVertex
 10
113.7193824008685
 20
110.5749557960928
 30
0.0
  0
SEQEND
  5
FC
330
F9
100
AcDbEntity
  8
0
 62
     0
370
   100
  0
POLYLINE
  5
FD
330
5F
100
AcDbEntity
  8
0
 62
     0
370
   100
100
AcDb2dPolyline
 66
     1
 10
0.0
 20
0.0
 30
0.0
 70
   128
  0
VERTEX
  5
FE
330
FD
100
AcDbEntity
  8
0
 62
     0
370
   100
100
AcDbVertex
100
AcDb2dVertex
 10
92.75777403908171
 20
107.01
 30
0.0
  0
VERTEX
  5
FF
330
FD
100
AcDbEntity
  8
0
 62
     0
370
   100
100
AcDbVertex
100
AcDb2dVertex
 10
101.1977740390817
 20
107.01
 30
0.0
  0
SEQEND
  5
100
330
FD
100
AcDbEntity
  8
0
 62
     0
370
   100
  0
POLYLINE
  5
101
330
5F
100
AcDbEntity
  8
0
 62
     0
370
   100
100
AcDb2dPolyline
 66
     1
 10
0.0
 20
0.0
 30
0.0
 70
   128
  0
VERTEX
  5
102
330
101
100
AcDbEntity
  8
0
 62
     0
370
   100
100
AcDbVertex
100
AcDb2dVertex
 10
151.4218769858527
 20
170.1538709592085
 30
0.0
  0
VERTEX
  5
103
330
101
100
AcDbEntity
  8
0
 62
     0
370
   100
100
AcDbVertex
100
AcDb2dVertex
 10
155.2936710923106
 20
163.3541948578016
 30
0.0
  0
SEQEND
  5
104
330
101
100
AcDbEntity
  8
0
 62
     0
370
   100
  0
POLYLINE
  5
105
330
5F
100
AcDbEntity
  8
0
 62
     0
370
   100
100
AcDb2dPolyline
 66
     1
 10
0.0
 20
0.0
 30
0.0
 70
   128
  0
VERTEX
  5
106
330
105
100
AcDbEntity
  8
0
 62
     0
370
   100
100
AcDbVertex
100
AcDb2dVertex
 10
155.2936710923106
 20
170.1538709592085
 30
0.0
  0
VERTEX
  5
107
330
105
100
AcDbEntity
  8
0
 62
     0
370
   100
100
AcDbVertex
100
AcDb2dVertex
 10
151.4218769858527
 20
163.3541948578016
 30
0.0
  0
SEQEND
  5
108
330
105
100
AcDbEntity
  8
0
 62
     0
370
   100
  0
POLYLINE
  5
109
330
5F
100
AcDbEntity
  8
0
 62
     0
370
   100
100
AcDb2dPolyline
 66
     1
 10
0.0
 20
0.0
 30
0.0
 70
   128
  0
VERTEX
  5
10A
330
109
100
AcDbEntity
  8
0
 62
     0
370
   100
100
AcDbVertex
100
AcDb2dVertex
 10
153.3577740390817
 20
172.6761964706798
 30
0.0
  0
VERTEX
  5
10B
330
109
100
AcDbEntity
  8
0
 62
     0
370
   100
100
AcDbVertex
100
AcDb2dVertex
 10
153.3577740390817
 20
170.1538709592085
 30
0.0
  0
SEQEND
  5
10C
330
109
100
AcDbEntity
  8
0
 62
     0
370
   100
  0
POLYLINE
  5
10D
330
5F
100
AcDbEntity
  8
0
 62
     0
370
   100
100
AcDb2dPolyline
 66
     1
 10
0.0
 20
0.0
 30
0.0
 70
   128
  0
VERTEX
  5
10E
330
10D
100
AcDbEntity
  8
0
 62
     0
370
   100
100
AcDbVertex
100
AcDb2dVertex
 10
155.2936710923106
 20
163.3541948578016
 30
0.0
  0
VERTEX
  5
10F
330
10D
100
AcDbEntity
  8
0
 62
     0
370
   100
100
AcDbVertex
100
AcDb2dVertex
 10
151.4218769858527
 20
163.3541948578016
 30
0.0
  0
SEQEND
  5
110
330
10D
100
AcDbEntity
  8
0
 62
     0
370
   100
  0
POLYLINE
  5
111
330
5F
100
AcDbEntity
  8
0
 62
     0
370
   100
100
AcDb2dPolyline
 66
     1
 10
0.0
 20
0.0
 30
0.0
 70
   128
  0
VERTEX
  5
112
330
111
100
AcDbEntity
  8
0
 62
     0
370
   100
100
AcDbVertex
100
AcDb2dVertex
 10
155.2936710923106
 20
170.1538709592085
 30
0.0
  0
VERTEX
  5
113
330
111
100
AcDbEntity
  8
0
 62
     0
370
   100
100
AcDbVertex
100
AcDb2dVertex
 10
151.4218769858527
 20
170.1538709592085
 30
0.0
  0
SEQEND
  5
114
330
111
100
AcDbEntity
  8
0
 62
     0
370
   100
  0
POLYLINE
  5
115
330
5F
100
AcDbEntity
  8
0
 62
     0
370
   100
100
AcDb2dPolyline
 66
     1
 10
0.0
 20
0.0
 30
0.0
 70
   128
  0
VERTEX
  5
116
330
115
100
AcDbEntity
  8
0
 62
     0
370
   100
100
AcDbVertex
100
AcDb2dVertex
 10
153.3577740390817
 20
163.3541948578016
 30
0.0
  0
VERTEX
  5
117
330
115
100
AcDbEntity
  8
0
 62
     0
370
   100
100
AcDbVertex
100
AcDb2dVertex
 10
153.3577740390817
 20
154.79
 30
0.0
  0
SEQEND
  5
118
330
115
100
AcDbEntity
  8
0
 62
     0
370
   100
  0
POLYLINE
  5
119
330
5F
100
AcDbEntity
  8
0
 62
     0
370
   100
100
AcDb2dPolyline
 66
     1
 10
0.0
 20
0.0
 30
0.0
 70
   128
  0
VERTEX
  5
11A
330
119
100
AcDbEntity
  8
0
 62
     0
370
   100
100
AcDbVertex
100
AcDb2dVertex
 10
149.9579359883784
 20
168.6899299617337
 30
0.0
  0
VERTEX
  5
11B
330
119
100
AcDbEntity
  8
0
 62
     0
370
   100
100
AcDbVertex
100
AcDb2dVertex
 10
149.9579359883784
 20
164.8181358552763
 30
0.0
  0
SEQEND
  5
11C
330
119
100
AcDbEntity
  8
0
 62
     0
370
   100
  0
POLYLINE
  5
11D
330
5F
100
AcDbEntity
  8
0
 62
     0
370
   100
100
AcDb2dPolyline
 66
     1
 10
0.0
 20
0.0
 30
0.0
 70
   128
  0
VERTEX
  5
11E
330
11D
100
AcDbEntity
  8
0
 62
     0
370
   100
100
AcDbVertex
100
AcDb2dVertex
 10
149.9579359883784
 20
168.6899299617337
 30
0.0
  0
VERTEX
  5
11F
330
11D
100
AcDbEntity
  8
0
 62
     0
370
   100
100
AcDbVertex
100
AcDb2dVertex
 10
153.3577740390817
 20
166.754032908505
 30
0.0
  0
SEQEND
  5
120
330
11D
100
AcDbEntity
  8
0
 62
     0
370
   100
  0
LWPOLYLINE
  5
121
330
5F
100
AcDbEntity
  8
0
  6
Continuous
 62
     0
370
   100
100
AcDbPolyline
 90
        2
 70
     1
 43
1.0
 10
158.2525756696426
 20
177.5709981012408
 42
-1.0
 10
148.4629724085208
 20
177.5709981012408
 42
-1.0
  0
POLYLINE
  5
122
330
5F
100
AcDbEntity
  8
0
 62
     0
370
   100
100
AcDb2dPolyline
 66
     1
 10
0.0
 20
0.0
 30
0.0
 70
   128
  0
VERTEX
  5
123
330
122
100
AcDbEntity
  8
0
 62
     0
370
   100
100
AcDbVertex
100
AcDb2dVertex
 10
171.9477740390817
 20
118.9740329085051
 30
0.0
  0
VERTEX
  5
124
330
122
100
AcDbEntity
  8
0
 62
     0
370
   100
100
AcDbVertex
100
AcDb2dVertex
 10
168.5479359883784
 20
117.0381358552764
 30
0.0
  0
SEQEND
  5
125
330
122
100
AcDbEntity
  8
0
 62
     0
370
   100
  0
POLYLINE
  5
126
330
5F
100
AcDbEntity
  8
0
 62
     0
370
   100
100
AcDb2dPolyline
 66
     1
 10
0.0
 20
0.0
 30
0.0
 70
   128
  0
VERTEX
  5
127
330
126
100
AcDbEntity
  8
0
 62
     0
370
   100
100
AcDbVertex
100
AcDb2dVertex
 10
170.0118769858528
 20
122.3738709592085
 30
0.0
  0
VERTEX
  5
128
330
126
100
AcDbEntity
  8
0
 62
     0
370
   100
100
AcDbVertex
100
AcDb2dVertex
 10
173.8836710923106
 20
115.5741948578016
 30
0.0
  0
SEQEND
  5
129
330
126
100
AcDbEntity
  8
0
 62
     0
370
   100
  0
POLYLINE
  5
12A
330
5F
100
AcDbEntity
  8
0
 62
     0
370
   100
100
AcDb2dPolyline
 66
     1
 10
0.0
 20
0.0
 30
0.0
 70
   128
  0
VERTEX
  5
12B
330
12A
100
AcDbEntity
  8
0
 62
     0
370
   100
100
AcDbVertex
100
AcDb2dVertex
 10
173.8836710923106
 20
122.3738709592085
 30
0.0
  0
VERTEX
  5
12C
330
12A
100
AcDbEntity
  8
0
 62
     0
370
   100
100
AcDbVertex
100
AcDb2dVertex
 10
170.0118769858528
 20
115.5741948578016
 30
0.0
  0
SEQEND
  5
12D
330
12A
100
AcDbEntity
  8
0
 62
     0
370
   100
  0
POLYLINE
  5
12E
330
5F
100
AcDbEntity
  8
0
 62
     0
370
   100
100
AcDb2dPolyline
 66
     1
 10
0.0
 20
0.0
 30
0.0
 70
   128
  0
VERTEX
  5
12F
330
12E
100
AcDbEntity
  8
0
 62
     0
370
   100
100
AcDbVertex
100
AcDb2dVertex
 10
171.9477740390817
 20
124.8961964706798
 30
0.0
  0
VERTEX
  5
130
330
12E
100
AcDbEntity
  8
0
 62
     0
370
   100
100
AcDbVertex
100
AcDb2dVertex
 10
171.9477740390817
 20
122.3738709592085
 30
0.0
  0
SEQEND
  5
131
330
12E
100
AcDbEntity
  8
0
 62
     0
370
   100
  0
POLYLINE
  5
132
330
5F
100
AcDbEntity
  8
0
 62
     0
370
   100
100
AcDb2dPolyline
 66
     1
 10
0.0
 20
0.0
 30
0.0
 70
   128
  0
VERTEX
  5
133
330
132
100
AcDbEntity
  8
0
 62
     0
370
   100
100
AcDbVertex
100
AcDb2dVertex
 10
173.8836710923106
 20
115.5741948578016
 30
0.0
  0
VERTEX
  5
134
330
132
100
AcDbEntity
  8
0
 62
     0
370
   100
100
AcDbVertex
100
AcDb2dVertex
 10
170.0118769858528
 20
115.5741948578016
 30
0.0
  0
SEQEND
  5
135
330
132
100
AcDbEntity
  8
0
 62
     0
370
   100
  0
POLYLINE
  5
136
330
5F
100
AcDbEntity
  8
0
 62
     0
370
   100
100
AcDb2dPolyline
 66
     1
 10
0.0
 20
0.0
 30
0.0
 70
   128
  0
VERTEX
  5
137
330
136
100
AcDbEntity
  8
0
 62
     0
370
   100
100
AcDbVertex
100
AcDb2dVertex
 10
173.8836710923106
 20
122.3738709592085
 30
0.0
  0
VERTEX
  5
138
330
136
100
AcDbEntity
  8
0
 62
     0
370
   100
100
AcDbVertex
100
AcDb2dVertex
 10
170.0118769858528
 20
122.3738709592085
 30
0.0
  0
SEQEND
  5
139
330
136
100
AcDbEntity
  8
0
 62
     0
370
   100
  0
POLYLINE
  5
13A
330
5F
100
AcDbEntity
  8
0
 62
     0
370
   100
100
AcDb2dPolyline
 66
     1
 10
0.0
 20
0.0
 30
0.0
 70
   128
  0
VERTEX
  5
13B
330
13A
100
AcDbEntity
  8
0
 62
     0
370
   100
100
AcDbVertex
100
AcDb2dVertex
 10
171.9477740390817
 20
115.5741948578016
 30
0.0
  0
VERTEX
  5
13C
330
13A
100
AcDbEntity
  8
0
 62
     0
370
   100
100
AcDbVertex
100
AcDb2dVertex
 10
171.9477740390817
 20
107.01
 30
0.0
  0
SEQEND
  5
13D
330
13A
100
AcDbEntity
  8
0
 62
     0
370
   100
  0
POLYLINE
  5
13E
330
5F
100
AcDbEntity
  8
0
 62
     0
370
   100
100
AcDb2dPolyline
 66
     1
 10
0.0
 20
0.0
 30
0.0
 70
   128
  0
VERTEX
  5
13F
330
13E
100
AcDbEntity
  8
0
 62
     0
370
   100
100
AcDbVertex
100
AcDb2dVertex
 10
168.5479359883784
 20
120.9099299617338
 30
0.0
  0
VERTEX
  5
140
330
13E
100
AcDbEntity
  8
0
 62
     0
370
   100
100
AcDbVertex
100
AcDb2dVertex
 10
168.5479359883784
 20
117.0381358552764
 30
0.0
  0
SEQEND
  5
141
330
13E
100
AcDbEntity
  8
0
 62
     0
370
   100
  0
POLYLINE
  5
142
330
5F
100
AcDbEntity
  8
0
 62
     0
370
   100
100
AcDb2dPolyline
 66
     1
 10
0.0
 20
0.0
 30
0.0
 70
   128
  0
VERTEX
  5
143
330
142
100
AcDbEntity
  8
0
 62
     0
370
   100
100
AcDbVertex
100
AcDb2dVertex
 10
168.5479359883784
 20
120.9099299617338
 30
0.0
  0
VERTEX
  5
144
330
142
100
AcDbEntity
  8
0
 62
     0
370
   100
100
AcDbVertex
100
AcDb2dVertex
 10
171.9477740390817
 20
118.9740329085051
 30
0.0
  0
SEQEND
  5
145
330
142
100
AcDbEntity
  8
0
 62
     0
370
   100
  0
LWPOLYLINE
  5
146
330
5F
100
AcDbEntity
  8
0
  6
Continuous
 62
     0
370
   100
100
AcDbPolyline
 90
        2
 70
     1
 43
1.0
 10
176.8425756696426
 20
129.7909981012408
 42
-1.0
 10
167.0529724085208
 20
129.7909981012408
 42
-1.0
  0
POLYLINE
  5
147
330
5F
100
AcDbEntity
  8
0
 62
     0
370
   100
100
AcDb2dPolyline
 66
     1
 10
0.0
 20
0.0
 30
0.0
 70
   128
  0
VERTEX
  5
148
330
147
100
AcDbEntity
  8
0
 62
     0
370
   100
100
AcDbVertex
100
AcDb2dVertex
 10
223.2193795474441
 20
107.0245130802019
 30
0.0
  0
VERTEX
  5
149
330
147
100
AcDbEntity
  8
0
 62
     0
370
   100
100
AcDbVertex
100
AcDb2dVertex
 10
211.7689167879822
 20
102.4766177629033
 30
0.0
  0
SEQEND
  5
14A
330
147
100
AcDbEntity
  8
0
 62
     0
370
   100
  0
POLYLINE
  5
14B
330
5F
100
AcDbEntity
  8
0
 62
     0
370
   100
100
AcDb2dPolyline
 66
     1
 10
0.0
 20
0.0
 30
0.0
 70
   128
  0
VERTEX
  5
14C
330
14B
100
AcDbEntity
  8
0
 62
     0
370
   100
100
AcDbVertex
100
AcDb2dVertex
 10
216.5927740390816
 20
113.6466070451891
 30
0.0
  0
VERTEX
  5
14D
330
14B
100
AcDbEntity
  8
0
 62
     0
370
   100
100
AcDbVertex
100
AcDb2dVertex
 10
216.5927740390816
 20
116.86
 30
0.0
  0
SEQEND
  5
14E
330
14B
100
AcDbEntity
  8
0
 62
     0
370
   100
  0
POLYLINE
  5
14F
330
5F
100
AcDbEntity
  8
0
 62
     0
370
   100
100
AcDb2dPolyline
 66
     1
 10
0.0
 20
0.0
 30
0.0
 70
   128
  0
VERTEX
  5
150
330
14F
100
AcDbEntity
  8
0
 62
     0
370
   100
100
AcDbVertex
100
AcDb2dVertex
 10
211.800912942546
 20
111.5971157034594
 30
0.0
  0
VERTEX
  5
151
330
14F
100
AcDbEntity
  8
0
 62
     0
370
   100
100
AcDbVertex
100
AcDb2dVertex
 10
223.2193795474441
 20
107.0245130802019
 30
0.0
  0
SEQEND
  5
152
330
14F
100
AcDbEntity
  8
0
 62
     0
370
   100
  0
LWPOLYLINE
  5
153
330
5F
100
AcDbEntity
  8
0
  6
Continuous
 62
     0
370
   100
100
AcDbPolyline
 90
        2
 70
     1
 43
1.0
 10
223.2193810842707
 20
107.02
 42
-1.0
 10
209.9661669938925
 20
107.0199999999999
 42
-1.0
  0
LWPOLYLINE
  5
154
330
5F
100
AcDbEntity
  8
0
  6
Continuous
 62
     0
370
   100
100
AcDbPolyline
 90
        2
 70
     1
 43
1.0
 10
221.5927740390817
 20
121.845
 42
-1.0
 10
211.5927740390817
 20
121.8450000000001
 42
-1.0
  0
POLYLINE
  5
155
330
5F
100
AcDbEntity
  8
0
 62
     0
370
   100
100
AcDb2dPolyline
 66
     1
 10
0.0
 20
0.0
 30
0.0
 70
   128
  0
VERTEX
  5
156
330
155
100
AcDbEntity
  8
0
 62
     0
370
   100
100
AcDbVertex
100
AcDb2dVertex
 10
209.3843810842708
 20
154.79
 30
0.0
  0
VERTEX
  5
157
330
155
100
AcDbEntity
  8
0
 62
     0
370
   100
100
AcDbVertex
100
AcDb2dVertex
 10
329.15785501373
 20
154.79
 30
0.0
  0
SEQEND
  5
158
330
155
100
AcDbEntity
  8
0
 62
     0
370
   100
  0
POLYLINE
  5
159
330
5F
100
AcDbEntity
  8
0
 62
     0
370
   100
100
AcDb2dPolyline
 66
     1
 10
0.0
 20
0.0
 30
0.0
 70
   128
  0
VERTEX
  5
15A
330
159
100
AcDbEntity
  8
0
 62
     0
370
   100
100
AcDbVertex
100
AcDb2dVertex
 10
223.1828392419218
 20
107.01
 30
0.0
  0
VERTEX
  5
15B
330
159
100
AcDbEntity
  8
0
 62
     0
370
   100
100
AcDbVertex
100
AcDb2dVertex
 10
298.6579359883782
 20
107.01
 30
0.0
  0
SEQEND
  5
15C
330
159
100
AcDbEntity
  8
0
 62
     0
370
   100
  0
POLYLINE
  5
15D
330
5F
100
AcDbEntity
  8
0
 62
     0
370
    50
100
AcDb2dPolyline
 66
     1
 10
0.0
 20
0.0
 30
0.0
 70
   128
  0
VERTEX
  5
15E
330
15D
100
AcDbEntity
  8
0
 62
     0
370
    50
100
AcDbVertex
100
AcDb2dVertex
 10
359.9677740390817
 20
128.1
 30
0.0
  0
VERTEX
  5
15F
330
15D
100
AcDbEntity
  8
0
 62
     0
370
    50
100
AcDbVertex
100
AcDb2dVertex
 10
359.9677740390817
 20
133.1
 30
0.0
  0
SEQEND
  5
160
330
15D
100
AcDbEntity
  8
0
 62
     0
370
    50
  0
POLYLINE
  5
161
330
5F
100
AcDbEntity
  8
0
 62
     0
370
    50
100
AcDb2dPolyline
 66
     1
 10
0.0
 20
0.0
 30
0.0
 70
   128
  0
VERTEX
  5
162
330
161
100
AcDbEntity
  8
0
 62
     0
370
    50
100
AcDbVertex
100
AcDb2dVertex
 10
349.9677740390818
 20
133.1
 30
0.0
  0
VERTEX
  5
163
330
161
100
AcDbEntity
  8
0
 62
     0
370
    50
100
AcDbVertex
100
AcDb2dVertex
 10
349.9677740390818
 20
128.1
 30
0.0
  0
SEQEND
  5
164
330
161
100
AcDbEntity
  8
0
 62
     0
370
    50
  0
POLYLINE
  5
165
330
5F
100
AcDbEntity
  8
0
 62
     0
370
    50
100
AcDb2dPolyline
 66
     1
 10
0.0
 20
0.0
 30
0.0
 70
   128
  0
VERTEX
  5
166
330
165
100
AcDbEntity
  8
0
 62
     0
370
    50
100
AcDbVertex
100
AcDb2dVertex
 10
349.9677740390818
 20
128.1
 30
0.0
  0
VERTEX
  5
167
330
165
100
AcDbEntity
  8
0
 62
     0
370
    50
100
AcDbVertex
100
AcDb2dVertex
 10
354.9677740390817
 20
128.1
 30
0.0
  0
SEQEND
  5
168
330
165
100
AcDbEntity
  8
0
 62
     0
370
    50
  0
POLYLINE
  5
169
330
5F
100
AcDbEntity
  8
0
 62
     0
370
    50
100
AcDb2dPolyline
 66
     1
 10
0.0
 20
0.0
 30
0.0
 70
   128
  0
VERTEX
  5
16A
330
169
100
AcDbEntity
  8
0
 62
     0
370
    50
100
AcDbVertex
100
AcDb2dVertex
 10
354.9677740390817
 20
128.1
 30
0.0
  0
VERTEX
  5
16B
330
169
100
AcDbEntity
  8
0
 62
     0
370
    50
100
AcDbVertex
100
AcDb2dVertex
 10
359.9677740390817
 20
128.1
 30
0.0
  0
SEQEND
  5
16C
330
169
100
AcDbEntity
  8
0
 62
     0
370
    50
  0
POLYLINE
  5
16D
330
5F
100
AcDbEntity
  8
0
 62
     0
370
    50
100
AcDb2dPolyline
 66
     1
 10
0.0
 20
0.0
 30
0.0
 70
   128
  0
VERTEX
  5
16E
330
16D
100
AcDbEntity
  8
0
 62
     0
370
    50
100
AcDbVertex
100
AcDb2dVertex
 10
354.9677740390817
 20
138.1
 30
0.0
  0
VERTEX
  5
16F
330
16D
100
AcDbEntity
  8
0
 62
     0
370
    50
100
AcDbVertex
100
AcDb2dVertex
 10
359.9677740390816
 20
138.1
 30
0.0
  0
SEQEND
  5
170
330
16D
100
AcDbEntity
  8
0
 62
     0
370
    50
  0
POLYLINE
  5
171
330
5F
100
AcDbEntity
  8
0
 62
     0
370
    50
100
AcDb2dPolyline
 66
     1
 10
0.0
 20
0.0
 30
0.0
 70
   128
  0
VERTEX
  5
172
330
171
100
AcDbEntity
  8
0
 62
     0
370
    50
100
AcDbVertex
100
AcDb2dVertex
 10
349.9677740390818
 20
138.1
 30
0.0
  0
VERTEX
  5
173
330
171
100
AcDbEntity
  8
0
 62
     0
370
    50
100
AcDbVertex
100
AcDb2dVertex
 10
349.9677740390818
 20
133.1
 30
0.0
  0
SEQEND
  5
174
330
171
100
AcDbEntity
  8
0
 62
     0
370
    50
  0
POLYLINE
  5
175
330
5F
100
AcDbEntity
  8
0
 62
     0
370
    50
100
AcDb2dPolyline
 66
     1
 10
0.0
 20
0.0
 30
0.0
 70
   128
  0
VERTEX
  5
176
330
175
100
AcDbEntity
  8
0
 62
     0
370
    50
100
AcDbVertex
100
AcDb2dVertex
 10
359.9677740390817
 20
133.1
 30
0.0
  0
VERTEX
  5
177
330
175
100
AcDbEntity
  8
0
 62
     0
370
    50
100
AcDbVertex
100
AcDb2dVertex
 10
359.9677740390817
 20
138.1
 30
0.0
  0
SEQEND
  5
178
330
175
100
AcDbEntity
  8
0
 62
     0
370
    50
  0
POLYLINE
  5
179
330
5F
100
AcDbEntity
  8
0
 62
     0
370
    50
100
AcDb2dPolyline
 66
     1
 10
0.0
 20
0.0
 30
0.0
 70
   128
  0
VERTEX
  5
17A
330
179
100
AcDbEntity
  8
0
 62
     0
370
    50
100
AcDbVertex
100
AcDb2dVertex
 10
349.9677740390817
 20
138.1
 30
0.0
  0
VERTEX
  5
17B
330
179
100
AcDbEntity
  8
0
 62
     0
370
    50
100
AcDbVertex
100
AcDb2dVertex
 10
354.9677740390817
 20
138.1
 30
0.0
  0
SEQEND
  5
17C
330
179
100
AcDbEntity
  8
0
 62
     0
370
    50
  0
POLYLINE
  5
17D
330
5F
100
AcDbEntity
  8
0
 62
     0
370
   100
100
AcDb2dPolyline
 66
     1
 10
0.0
 20
0.0
 30
0.0
 70
   128
  0
VERTEX
  5
17E
330
17D
100
AcDbEntity
  8
0
 62
     0
370
   100
100
AcDbVertex
100
AcDb2dVertex
 10
354.9677740390817
 20
154.79
 30
0.0
  0
VERTEX
  5
17F
330
17D
100
AcDbEntity
  8
0
 62
     0
370
   100
100
AcDbVertex
100
AcDb2dVertex
 10
354.9677740390817
 20
138.1
 30
0.0
  0
SEQEND
  5
180
330
17D
100
AcDbEntity
  8
0
 62
     0
370
   100
  0
POLYLINE
  5
181
330
5F
100
AcDbEntity
  8
0
 62
     0
370
   100
100
AcDb2dPolyline
 66
     1
 10
0.0
 20
0.0
 30
0.0
 70
   128
  0
VERTEX
  5
182
330
181
100
AcDbEntity
  8
0
 62
     0
370
   100
100
AcDbVertex
100
AcDb2dVertex
 10
352.3277740390817
 20
154.79
 30
0.0
  0
VERTEX
  5
183
330
181
100
AcDbEntity
  8
0
 62
     0
370
   100
100
AcDbVertex
100
AcDb2dVertex
 10
354.9677740390817
 20
154.79
 30
0.0
  0
SEQEND
  5
184
330
181
100
AcDbEntity
  8
0
 62
     0
370
   100
  0
POLYLINE
  5
185
330
5F
100
AcDbEntity
  8
0
 62
     0
370
   100
100
AcDb2dPolyline
 66
     1
 10
0.0
 20
0.0
 30
0.0
 70
   128
  0
VERTEX
  5
186
330
185
100
AcDbEntity
  8
0
 62
     0
370
   100
100
AcDbVertex
100
AcDb2dVertex
 10
354.9677740390817
 20
128.1
 30
0.0
  0
VERTEX
  5
187
330
185
100
AcDbEntity
  8
0
 62
     0
370
   100
100
AcDbVertex
100
AcDb2dVertex
 10
354.9677740390817
 20
107.01
 30
0.0
  0
SEQEND
  5
188
330
185
100
AcDbEntity
  8
0
 62
     0
370
   100
  0
POLYLINE
  5
189
330
5F
100
AcDbEntity
  8
0
 62
     0
370
    50
100
AcDb2dPolyline
 66
     1
 10
0.0
 20
0.0
 30
0.0
 70
   128
  0
VERTEX
  5
18A
330
189
100
AcDbEntity
  8
0
 62
     0
370
    50
100
AcDbVertex
100
AcDb2dVertex
 10
350.9677740390817
 20
138.1
 30
0.0
  0
VERTEX
  5
18B
330
189
100
AcDbEntity
  8
0
 62
     0
370
    50
100
AcDbVertex
100
AcDb2dVertex
 10
350.9677740390816
 20
128.1
 30
0.0
  0
SEQEND
  5
18C
330
189
100
AcDbEntity
  8
0
 62
     0
370
    50
  0
POLYLINE
  5
18D
330
5F
100
AcDbEntity
  8
0
 62
     0
370
    50
100
AcDb2dPolyline
 66
     1
 10
0.0
 20
0.0
 30
0.0
 70
   128
  0
VERTEX
  5
18E
330
18D
100
AcDbEntity
  8
0
 62
     0
370
    50
100
AcDbVertex
100
AcDb2dVertex
 10
351.9677740390817
 20
138.1
 30
0.0
  0
VERTEX
  5
18F
330
18D
100
AcDbEntity
  8
0
 62
     0
370
    50
100
AcDbVertex
100
AcDb2dVertex
 10
351.9677740390817
 20
128.1
 30
0.0
  0
SEQEND
  5
190
330
18D
100
AcDbEntity
  8
0
 62
     0
370
    50
  0
POLYLINE
  5
191
330
5F
100
AcDbEntity
  8
0
 62
     0
370
    50
100
AcDb2dPolyline
 66
     1
 10
0.0
 20
0.0
 30
0.0
 70
   128
  0
VERTEX
  5
192
330
191
100
AcDbEntity
  8
0
 62
     0
370
    50
100
AcDbVertex
100
AcDb2dVertex
 10
352.9677740390817
 20
138.1
 30
0.0
  0
VERTEX
  5
193
330
191
100
AcDbEntity
  8
0
 62
     0
370
    50
100
AcDbVertex
100
AcDb2dVertex
 10
352.9677740390817
 20
128.1
 30
0.0
  0
SEQEND
  5
194
330
191
100
AcDbEntity
  8
0
 62
     0
370
    50
  0
POLYLINE
  5
195
330
5F
100
AcDbEntity
  8
0
 62
     0
370
    50
100
AcDb2dPolyline
 66
     1
 10
0.0
 20
0.0
 30
0.0
 70
   128
  0
VERTEX
  5
196
330
195
100
AcDbEntity
  8
0
 62
     0
370
    50
100
AcDbVertex
100
AcDb2dVertex
 10
353.9677740390817
 20
138.1
 30
0.0
  0
VERTEX
  5
197
330
195
100
AcDbEntity
  8
0
 62
     0
370
    50
100
AcDbVertex
100
AcDb2dVertex
 10
353.9677740390817
 20
128.1
 30
0.0
  0
SEQEND
  5
198
330
195
100
AcDbEntity
  8
0
 62
     0
370
    50
  0
POLYLINE
  5
199
330
5F
100
AcDbEntity
  8
0
 62
     0
370
    50
100
AcDb2dPolyline
 66
     1
 10
0.0
 20
0.0
 30
0.0
 70
   128
  0
VERTEX
  5
19A
330
199
100
AcDbEntity
  8
0
 62
     0
370
    50
100
AcDbVertex
100
AcDb2dVertex
 10
354.9677740390817
 20
138.1
 30
0.0
  0
VERTEX
  5
19B
330
199
100
AcDbEntity
  8
0
 62
     0
370
    50
100
AcDbVertex
100
AcDb2dVertex
 10
354.9677740390817
 20
128.1
 30
0.0
  0
SEQEND
  5
19C
330
199
100
AcDbEntity
  8
0
 62
     0
370
    50
  0
POLYLINE
  5
19D
330
5F
100
AcDbEntity
  8
0
 62
     0
370
    50
100
AcDb2dPolyline
 66
     1
 10
0.0
 20
0.0
 30
0.0
 70
   128
  0
VERTEX
  5
19E
330
19D
100
AcDbEntity
  8
0
 62
     0
370
    50
100
AcDbVertex
100
AcDb2dVertex
 10
355.9677740390817
 20
138.1
 30
0.0
  0
VERTEX
  5
19F
330
19D
100
AcDbEntity
  8
0
 62
     0
370
    50
100
AcDbVertex
100
AcDb2dVertex
 10
355.9677740390817
 20
128.1
 30
0.0
  0
SEQEND
  5
1A0
330
19D
100
AcDbEntity
  8
0
 62
     0
370
    50
  0
POLYLINE
  5
1A1
330
5F
100
AcDbEntity
  8
0
 62
     0
370
    50
100
AcDb2dPolyline
 66
     1
 10
0.0
 20
0.0
 30
0.0
 70
   128
  0
VERTEX
  5
1A2
330
1A1
100
AcDbEntity
  8
0
 62
     0
370
    50
100
AcDbVertex
100
AcDb2dVertex
 10
356.9677740390817
 20
138.1
 30
0.0
  0
VERTEX
  5
1A3
330
1A1
100
AcDbEntity
  8
0
 62
     0
370
    50
100
AcDbVertex
100
AcDb2dVertex
 10
356.9677740390817
 20
128.1
 30
0.0
  0
SEQEND
  5
1A4
330
1A1
100
AcDbEntity
  8
0
 62
     0
370
    50
  0
POLYLINE
  5
1A5
330
5F
100
AcDbEntity
  8
0
 62
     0
370
    50
100
AcDb2dPolyline
 66
     1
 10
0.0
 20
0.0
 30
0.0
 70
   128
  0
VERTEX
  5
1A6
330
1A5
100
AcDbEntity
  8
0
 62
     0
370
    50
100
AcDbVertex
100
AcDb2dVertex
 10
357.9677740390817
 20
138.1
 30
0.0
  0
VERTEX
  5
1A7
330
1A5
100
AcDbEntity
  8
0
 62
     0
370
    50
100
AcDbVertex
100
AcDb2dVertex
 10
357.9677740390817
 20
128.1
 30
0.0
  0
SEQEND
  5
1A8
330
1A5
100
AcDbEntity
  8
0
 62
     0
370
    50
  0
POLYLINE
  5
1A9
330
5F
100
AcDbEntity
  8
0
 62
     0
370
    50
100
AcDb2dPolyline
 66
     1
 10
0.0
 20
0.0
 30
0.0
 70
   128
  0
VERTEX
  5
1AA
330
1A9
100
AcDbEntity
  8
0
 62
     0
370
    50
100
AcDbVertex
100
AcDb2dVertex
 10
358.9677740390817
 20
138.1
 30
0.0
  0
VERTEX
  5
1AB
330
1A9
100
AcDbEntity
  8
0
 62
     0
370
    50
100
AcDbVertex
100
AcDb2dVertex
 10
358.9677740390817
 20
128.1
 30
0.0
  0
SEQEND
  5
1AC
330
1A9
100
AcDbEntity
  8
0
 62
     0
370
    50
  0
POLYLINE
  5
1AD
330
5F
100
AcDbEntity
  8
0
 62
     0
370
   100
100
AcDb2dPolyline
 66
     1
 10
0.0
 20
0.0
 30
0.0
 70
   128
  0
VERTEX
  5
1AE
330
1AD
100
AcDbEntity
  8
0
 62
     0
370
   100
100
AcDbVertex
100
AcDb2dVertex
 10
298.6579359883782
 20
107.01
 30
0.0
  0
VERTEX
  5
1AF
330
1AD
100
AcDbEntity
  8
0
 62
     0
370
   100
100
AcDbVertex
100
AcDb2dVertex
 10
354.9677740390817
 20
107.01
 30
0.0
  0
SEQEND
  5
1B0
330
1AD
100
AcDbEntity
  8
0
 62
     0
370
   100
  0
POLYLINE
  5
1B1
330
5F
100
AcDbEntity
  8
0
 62
     0
370
   100
100
AcDb2dPolyline
 66
     1
 10
0.0
 20
0.0
 30
0.0
 70
   128
  0
VERTEX
  5
1B2
330
1B1
100
AcDbEntity
  8
0
 62
     0
370
   100
100
AcDbVertex
100
AcDb2dVertex
 10
335.9575311151369
 20
152.8541029467711
 30
0.0
  0
VERTEX
  5
1B3
330
1B1
100
AcDbEntity
  8
0
 62
     0
370
   100
100
AcDbVertex
100
AcDb2dVertex
 10
329.15785501373
 20
156.7258970532289
 30
0.0
  0
SEQEND
  5
1B4
330
1B1
100
AcDbEntity
  8
0
 62
     0
370
   100
  0
POLYLINE
  5
1B5
330
5F
100
AcDbEntity
  8
0
 62
     0
370
   100
100
AcDb2dPolyline
 66
     1
 10
0.0
 20
0.0
 30
0.0
 70
   128
  0
VERTEX
  5
1B6
330
1B5
100
AcDbEntity
  8
0
 62
     0
370
   100
100
AcDbVertex
100
AcDb2dVertex
 10
335.9575311151369
 20
156.7258970532289
 30
0.0
  0
VERTEX
  5
1B7
330
1B5
100
AcDbEntity
  8
0
 62
     0
370
   100
100
AcDbVertex
100
AcDb2dVertex
 10
329.15785501373
 20
152.8541029467711
 30
0.0
  0
SEQEND
  5
1B8
330
1B5
100
AcDbEntity
  8
0
 62
     0
370
   100
  0
POLYLINE
  5
1B9
330
5F
100
AcDbEntity
  8
0
 62
     0
370
   100
100
AcDb2dPolyline
 66
     1
 10
0.0
 20
0.0
 30
0.0
 70
   128
  0
VERTEX
  5
1BA
330
1B9
100
AcDbEntity
  8
0
 62
     0
370
   100
100
AcDbVertex
100
AcDb2dVertex
 10
329.15785501373
 20
152.8541029467711
 30
0.0
  0
VERTEX
  5
1BB
330
1B9
100
AcDbEntity
  8
0
 62
     0
370
   100
100
AcDbVertex
100
AcDb2dVertex
 10
329.15785501373
 20
156.7258970532289
 30
0.0
  0
SEQEND
  5
1BC
330
1B9
100
AcDbEntity
  8
0
 62
     0
370
   100
  0
POLYLINE
  5
1BD
330
5F
100
AcDbEntity
  8
0
 62
     0
370
   100
100
AcDb2dPolyline
 66
     1
 10
0.0
 20
0.0
 30
0.0
 70
   128
  0
VERTEX
  5
1BE
330
1BD
100
AcDbEntity
  8
0
 62
     0
370
   100
100
AcDbVertex
100
AcDb2dVertex
 10
335.9575311151369
 20
152.8541029467711
 30
0.0
  0
VERTEX
  5
1BF
330
1BD
100
AcDbEntity
  8
0
 62
     0
370
   100
100
AcDbVertex
100
AcDb2dVertex
 10
335.9575311151369
 20
156.7258970532289
 30
0.0
  0
SEQEND
  5
1C0
330
1BD
100
AcDbEntity
  8
0
 62
     0
370
   100
  0
POLYLINE
  5
1C1
330
5F
100
AcDbEntity
  8
0
 62
     0
370
   100
100
AcDb2dPolyline
 66
     1
 10
0.0
 20
0.0
 30
0.0
 70
   128
  0
VERTEX
  5
1C2
330
1C1
100
AcDbEntity
  8
0
 62
     0
370
   100
100
AcDbVertex
100
AcDb2dVertex
 10
335.9575311151369
 20
154.79
 30
0.0
  0
VERTEX
  5
1C3
330
1C1
100
AcDbEntity
  8
0
 62
     0
370
   100
100
AcDbVertex
100
AcDb2dVertex
 10
353.6477740390817
 20
154.79
 30
0.0
  0
SEQEND
  5
1C4
330
1C1
100
AcDbEntity
  8
0
 62
     0
370
   100
  0
TEXT
  5
1C6
330
5F
100
AcDbEntity
  8
0
 62
     0
100
AcDbText
 10
227.1349029703299
 20
175.5961281579588
 30
0.0
 40
4.170101789794262
  1
ТЕ
  7
TextStyle_1
100
AcDbText
  0
TEXT
  5
1C8
330
5F
100
AcDbEntity
  8
0
 62
     0
100
AcDbText
 10
200.9922740390817
 20
168.175
 30
0.0
 40
3.5
  1
G1
  7
TextStyle_2
100
AcDbText
  0
TEXT
  5
1C9
330
5F
100
AcDbEntity
  8
0
 62
     0
100
AcDbText
 10
185.64490297033
 20
127.8161281579589
 30
0.0
 40
4.170101789794262
  1
ТЕ
  7
TextStyle_1
100
AcDbText
  0
TEXT
  5
1CB
330
5F
100
AcDbEntity
  8
0
 62
     0
100
AcDbText
 10
150.3645062314515
 20
175.4661281579588
 30
0.0
 40
4.170101789794263
  1
РЕ
  7
TextStyle_3
100
AcDbText
  0
TEXT
  5
1CC
330
5F
100
AcDbEntity
  8
0
 62
     0
100
AcDbText
 10
168.9545062314515
 20
127.6861281579589
 30
0.0
 40
4.170101789794263
  1
РЕ
  7
TextStyle_3
100
AcDbText
  0
TEXT
  5
1CD
330
5F
100
AcDbEntity
  8
0
 62
     0
100
AcDbText
 10
214.3562740390817
 20
120.0
 30
0.0
 40
3.5
  1
G2
  7
TextStyle_2
100
AcDbText
  0
TEXT
  5
1CE
330
5F
100
AcDbEntity
  8
0
 62
     0
100
AcDbText
 10
364.78475
 20
131.5175
 30
0.0
 40
3.5
  1
Отопление
  7
TextStyle_2
100
AcDbText
  0
TEXT
  5
1CF
330
5F
100
AcDbEntity
  8
0
 62
     0
100
AcDbText
 10
57.73367612952818
 20
122.48375
 30
0.0
 40
3.5
  1
Обратный
  7
TextStyle_2
100
AcDbText
  0
TEXT
  5
1D0
330
5F
100
AcDbEntity
  8
0
 62
     0
100
AcDbText
 10
54.99142612952819
 20
116.48375
 30
0.0
 40
3.5
  1
трубопровод
  7
TextStyle_2
100
AcDbText
  0
TEXT
  5
1D1
330
5F
100
AcDbEntity
  8
0
 62
     0
100
AcDbText
 10
56.98292612952819
 20
110.48375
 30
0.0
 40
3.5
  1
отопления
  7
TextStyle_2
100
AcDbText
  0
ENDBLK
  5
1D3
330
5F
100
AcDbEntity
  8
0
100
AcDbBlockEnd
  0
ENDSEC
  0
SECTION
  2
ENTITIES
  0
INSERT
  5
60
330
1F
100
AcDbEntity
  8
0
100
AcDbBlockReference
  2
Model
 10
0.0
 20
0.0
 30
0.0
  0
ENDSEC
  0
SECTION
  2
OBJECTS
  0
DICTIONARY
  5
C
330
0
100
AcDbDictionary
281
     1
  3
ACAD_DETAILVIEWSTYLE
350
1DB
  3
ACAD_GROUP
350
D
  3
ACAD_IMAGE_DICT
350
61
  3
ACAD_IMAGE_VARS
350
64
  3
ACAD_LAYOUT
350
1A
  3
ACAD_MATERIAL
350
43
  3
ACAD_MLEADERSTYLE
350
5B
  3
ACAD_MLINESTYLE
350
17
  3
ACAD_PLOTSETTINGS
350
19
  3
ACAD_PLOTSTYLENAME
350
E
  3
ACAD_SCALELIST
350
47
  3
ACAD_SECTIONVIEWSTYLE
350
1DC
  3
ACAD_TABLESTYLE
350
59
  3
ACAD_VISUALSTYLE
350
2A
  3
ACDB_RECOMPOSE_DATA
350
1D8
  3
AcDbVariableDictionary
350
1D4
  0
SUN
  5
5D
330
29
100
AcDbSun
 90
        1
290
     0
 63
     7
421
 16777215
 40
1.0
291
     1
 91
  2455826
 92
 54000000
292
     0
 70
     2
 71
   256
280
     1
  0
IMAGEDEF_REACTOR
  5
65
330
63
100
AcDbRasterImageDefReactor
 90
        2
330
63
  0
DICTIONARY
  5
1DB
102
{ACAD_REACTORS
330
C
102
}
330
C
100
AcDbDictionary
281
     1
  0
DICTIONARY
  5
D
102
{ACAD_REACTORS
330
C
102
}
330
C
100
AcDbDictionary
281
     1
  0
DICTIONARY
  5
61
102
{ACAD_REACTORS
330
C
102
}
330
C
100
AcDbDictionary
281
     1
  3
_IMAGE1
350
62
  0
RASTERVARIABLES
  5
64
102
{ACAD_REACTORS
330
C
102
}
330
C
100
AcDbRasterVariables
 90
        0
 70
     0
 71
     1
 72
     1
  0
DICTIONARY
  5
1A
102
{ACAD_REACTORS
330
C
102
}
330
C
100
AcDbDictionary
281
     1
  3
Layout1
350
1E
  3
Model
350
22
  0
DICTIONARY
  5
43
102
{ACAD_REACTORS
330
C
102
}
330
C
100
AcDbDictionary
281
     1
  3
ByBlock
350
45
  3
ByLayer
350
44
  3
Global
350
46
  0
DICTIONARY
  5
5B
102
{ACAD_REACTORS
330
C
102
}
330
C
100
AcDbDictionary
281
     1
  3
Standard
350
5C
  0
DICTIONARY
  5
17
102
{ACAD_REACTORS
330
C
102
}
330
C
100
AcDbDictionary
281
     1
  3
Standard
350
18
  0
DICTIONARY
  5
19
102
{ACAD_REACTORS
330
C
102
}
330
C
100
AcDbDictionary
281
     1
  0
ACDBDICTIONARYWDFLT
  5
E
102
{ACAD_REACTORS
330
C
102
}
330
C
100
AcDbDictionary
281
     1
  3
Normal
350
F
100
AcDbDictionaryWithDefault
340
F
  0
DICTIONARY
  5
47
102
{ACAD_REACTORS
330
C
102
}
330
C
100
AcDbDictionary
281
     1
  3
A0
350
48
  3
A1
350
49
  3
A2
350
4A
  3
A3
350
4B
  3
A4
350
4C
  3
A5
350
4D
  3
A6
350
4E
  3
A7
350
4F
  3
A8
350
50
  3
A9
350
51
  3
B0
350
52
  3
B1
350
53
  3
B2
350
54
  3
B3
350
55
  3
B4
350
56
  3
B5
350
57
  3
B6
350
58
  0
DICTIONARY
  5
1DC
102
{ACAD_REACTORS
330
C
102
}
330
C
100
AcDbDictionary
281
     1
  0
DICTIONARY
  5
59
102
{ACAD_REACTORS
330
C
102
}
330
C
100
AcDbDictionary
281
     1
  3
Standard
350
5A
  0
DICTIONARY
  5
2A
102
{ACAD_REACTORS
330
C
102
}
330
C
100
AcDbDictionary
281
     1
  3
2dWireframe
350
2F
  3
Basic
350
32
  3
Brighten
350
36
  3
ColorChange
350
3A
  3
Conceptual
350
34
  3
Dim
350
35
  3
EdgeColorOff
350
3D
  3
Facepattern
350
39
  3
Flat
350
2B
  3
FlatWithEdges
350
2C
  3
Gouraud
350
2D
  3
GouraudWithEdges
350
2E
  3
Hidden
350
31
  3
JitterOff
350
3B
  3
Linepattern
350
38
  3
OverhangOff
350
3C
  3
Realistic
350
33
  3
Shaded
350
42
  3
Shaded with edges
350
41
  3
Shades of Gray
350
3E
  3
Sketchy
350
3F
  3
Thicken
350
37
  3
Wireframe
350
30
  3
X-Ray
350
40
  0
XRECORD
  5
1D8
102
{ACAD_REACTORS
330
C
102
}
330
C
100
AcDbXrecord
280
     1
 90
        1
330
5A
  0
DICTIONARY
  5
1D4
102
{ACAD_REACTORS
330
C
102
}
330
C
100
AcDbDictionary
281
     1
  3
CANNOSCALE
350
1D5
  3
CENTEREXE
350
1DD
  3
CENTERLTYPEFILE
350
1DE
  3
CMLEADERSTYLE
350
1DA
  3
CTABLESTYLE
350
1D9
  0
IMAGEDEF
  5
62
102
{ACAD_REACTORS
330
61
330
65
102
}
330
61
100
AcDbRasterImageDef
 90
        0
  1

 10
0.0
 20
0.0
 11
NaN
 21
NaN
280
     1
281
     1
  0
LAYOUT
  5
1E
102
{ACAD_REACTORS
330
1A
102
}
330
1A
100
AcDbPlotSettings
  1

  2
none_device
  4

  6

 40
0.0
 41
0.0
 42
0.0
 43
0.0
 44
0.0
 45
0.0
 46
0.0
 47
0.0
 48
0.0
 49
0.0
140
0.0
141
0.0
142
1.0
143
1.0
 70
   688
 72
     1
 73
     0
 74
     5
  7

 75
    16
 76
     0
 77
     2
 78
   300
147
1.0
148
0.0
149
0.0
100
AcDbLayout
  1
Layout1
 70
     1
 71
     1
 10
0.0
 20
0.0
 11
420.0
 21
297.0
 12
0.0
 22
0.0
 32
0.0
 14
1.000000000000000E+20
 24
1.000000000000000E+20
 34
1.000000000000000E+20
 15
-1.000000000000000E+20
 25
-1.000000000000000E+20
 35
-1.000000000000000E+20
146
0.0
 13
0.0
 23
0.0
 33
0.0
 16
1.0
 26
0.0
 36
0.0
 17
0.0
 27
1.0
 37
0.0
 76
     0
330
1B
  0
LAYOUT
  5
22
102
{ACAD_REACTORS
330
1A
102
}
330
1A
100
AcDbPlotSettings
  1

  2
none_device
  4
Letter_(8.50_x_11.00_Inches)
  6

 40
6.35
 41
6.35
 42
6.35000508
 43
6.35000508
 44
215.9
 45
279.4
 46
0.0
 47
0.0
 48
0.0
 49
0.0
140
0.0
141
0.0
142
1.0
143
1.0
 70
  1712
 72
     1
 73
     0
 74
     0
  7

 75
     0
 76
     0
 77
     2
 78
   300
147
1.0
148
0.0
149
0.0
100
AcDbLayout
  1
Model
 70
     1
 71
     0
 10
0.0
 20
0.0
 11
420.0
 21
297.0
 12
0.0
 22
0.0
 32
0.0
 14
0.0
 24
0.0
 34
0.0
 15
420.0
 25
297.0
 35
0.0
146
0.0
 13
0.0
 23
0.0
 33
0.0
 16
1.0
 26
0.0
 36
0.0
 17
0.0
 27
1.0
 37
0.0
 76
     0
330
1F
331
29
  0
MATERIAL
  5
45
102
{ACAD_REACTORS
330
43
102
}
330
43
100
AcDbMaterial
  1
ByBlock
 72
     1
 94
      127
  0
MATERIAL
  5
44
102
{ACAD_REACTORS
330
43
102
}
330
43
100
AcDbMaterial
  1
ByLayer
 72
     1
 94
      127
  0
MATERIAL
  5
46
102
{ACAD_REACTORS
330
43
102
}
330
43
100
AcDbMaterial
  1
Global
 72
     1
 94
      127
  0
MLEADERSTYLE
  5
5C
102
{ACAD_REACTORS
330
5B
102
}
330
5B
100
AcDbMLeaderStyle
179
     2
170
     2
171
     1
172
     0
 90
        2
 40
0.0
 41
0.0
173
     1
 91
-1056964608
340
14
 92
       -2
290
     1
 42
2.0
291
     1
 43
8.0
  3
Standard
341
0
 44
4.0
300

342
11
174
     1
178
     6
175
     1
176
     0
 93
-1056964608
 45
4.0
292
     0
297
     0
 46
4.0
343
0
 94
-1056964608
 47
1.0
 49
1.0
140
1.0
293
     1
141
0.0
294
     1
177
     0
142
1.0
295
     0
296
     0
143
3.75
271
     0
272
     9
273
     9
298
     0
  0
MLINESTYLE
  5
18
102
{ACAD_REACTORS
330
17
102
}
330
17
100
AcDbMlineStyle
  2
Standard
 70
     0
  3

 62
   256
 51
90.0
 52
90.0
 71
     2
 49
0.5
 62
   256
  6
BYLAYER
 49
-0.5
 62
   256
  6
BYLAYER
  0
ACDBPLACEHOLDER
  5
F
102
{ACAD_REACTORS
330
E
102
}
330
E
  0
SCALE
  5
48
102
{ACAD_REACTORS
330
47
102
}
330
47
100
AcDbScale
 70
     0
300
1:1
140
1.0
141
1.0
290
     1
  0
SCALE
  5
49
102
{ACAD_REACTORS
330
47
102
}
330
47
100
AcDbScale
 70
     0
300
1:2
140
1.0
141
2.0
290
     0
  0
SCALE
  5
4A
102
{ACAD_REACTORS
330
47
102
}
330
47
100
AcDbScale
 70
     0
300
1:4
140
1.0
141
4.0
290
     0
  0
SCALE
  5
4B
102
{ACAD_REACTORS
330
47
102
}
330
47
100
AcDbScale
 70
     0
300
1:5
140
1.0
141
5.0
290
     0
  0
SCALE
  5
4C
102
{ACAD_REACTORS
330
47
102
}
330
47
100
AcDbScale
 70
     0
300
1:8
140
1.0
141
8.0
290
     0
  0
SCALE
  5
4D
102
{ACAD_REACTORS
330
47
102
}
330
47
100
AcDbScale
 70
     0
300
1:10
140
1.0
141
10.0
290
     0
  0
SCALE
  5
4E
102
{ACAD_REACTORS
330
47
102
}
330
47
100
AcDbScale
 70
     0
300
1:16
140
1.0
141
16.0
290
     0
  0
SCALE
  5
4F
102
{ACAD_REACTORS
330
47
102
}
330
47
100
AcDbScale
 70
     0
300
1:20
140
1.0
141
20.0
290
     0
  0
SCALE
  5
50
102
{ACAD_REACTORS
330
47
102
}
330
47
100
AcDbScale
 70
     0
300
1:30
140
1.0
141
30.0
290
     0
  0
SCALE
  5
51
102
{ACAD_REACTORS
330
47
102
}
330
47
100
AcDbScale
 70
     0
300
1:40
140
1.0
141
40.0
290
     0
  0
SCALE
  5
52
102
{ACAD_REACTORS
330
47
102
}
330
47
100
AcDbScale
 70
     0
300
1:50
140
1.0
141
50.0
290
     0
  0
SCALE
  5
53
102
{ACAD_REACTORS
330
47
102
}
330
47
100
AcDbScale
 70
     0
300
1:100
140
1.0
141
100.0
290
     0
  0
SCALE
  5
54
102
{ACAD_REACTORS
330
47
102
}
330
47
100
AcDbScale
 70
     0
300
2:1
140
2.0
141
1.0
290
     0
  0
SCALE
  5
55
102
{ACAD_REACTORS
330
47
102
}
330
47
100
AcDbScale
 70
     0
300
4:1
140
4.0
141
1.0
290
     0
  0
SCALE
  5
56
102
{ACAD_REACTORS
330
47
102
}
330
47
100
AcDbScale
 70
     0
300
8:1
140
8.0
141
1.0
290
     0
  0
SCALE
  5
57
102
{ACAD_REACTORS
330
47
102
}
330
47
100
AcDbScale
 70
     0
300
10:1
140
10.0
141
1.0
290
     0
  0
SCALE
  5
58
102
{ACAD_REACTORS
330
47
102
}
330
47
100
AcDbScale
 70
     0
300
100:1
140
100.0
141
1.0
290
     0
  0
TABLESTYLE
  5
5A
102
{ACAD_REACTORS
330
59
102
}
102
{ACAD_XDICTIONARY
360
1D6
102
}
330
59
100
AcDbTableStyle
  3
Standard
 70
     0
 71
     0
 40
0.06
 41
0.06
280
     0
281
     0
  7
Standard
140
4.5
170
     2
 62
     0
 63
   257
283
     0
 90
        4
 91
        0
  1

274
    -2
284
     1
 64
     0
275
    -2
285
     1
 65
     0
276
    -2
286
     1
 66
     0
277
    -2
287
     1
 67
     0
278
    -2
288
     1
 68
     0
279
    -2
289
     1
 69
     0
  7
Standard
140
6.0
170
     5
 62
     0
 63
   257
283
     0
 90
        4
 91
        0
  1

274
    -2
284
     1
 64
     0
275
    -2
285
     1
 65
     0
276
    -2
286
     1
 66
     0
277
    -2
287
     1
 67
     0
278
    -2
288
     1
 68
     0
279
    -2
289
     1
 69
     0
  7
Standard
140
4.5
170
     5
 62
     0
 63
   257
283
     0
 90
        4
 91
        0
  1

274
    -2
284
     1
 64
     0
275
    -2
285
     1
 65
     0
276
    -2
286
     1
 66
     0
277
    -2
287
     1
 67
     0
278
    -2
288
     1
 68
     0
279
    -2
289
     1
 69
     0
  0
VISUALSTYLE
  5
2F
102
{ACAD_REACTORS
330
2A
102
}
330
2A
100
AcDbVisualStyle
  2
2dWireframe
 70
     4
177
     3
291
     0
 70
    58
 90
        0
176
     1
 90
        2
176
     1
 90
        0
176
     1
 90
        0
176
     1
 40
0.6
176
     1
 40
30.0
176
     1
 62
     7
420
 16777215
176
     1
 90
        1
176
     1
 90
        4
176
     1
 62
     7
176
     1
 62
   257
176
     1
 90
        1
176
     1
 90
        1
176
     1
 40
1.0
176
     1
 90
        0
176
     1
 62
   257
176
     1
 40
1.0
176
     1
 90
        1
176
     1
 90
        6
176
     1
 90
        2
176
     1
 62
     7
176
     1
 90
        5
176
     1
 90
        0
176
     1
 90
        0
176
     1
290
     0
176
     1
 90
        1
176
     1
 40
0.0
176
     1
 90
        0
176
     1
290
     1
176
     1
290
     1
176
     1
290
     0
176
     1
290
     0
176
     1
290
     0
176
     1
290
     0
176
     1
290
     0
176
     1
290
     0
176
     1
290
     0
176
     1
 90
       50
176
     1
 40
0.0
176
     1
 40
1.0
176
     1
 90
        0
176
     1
 62
    18
420
        0
176
     1
 90
       50
176
     1
 90
        3
176
     1
 62
     5
420
      255
176
     1
290
     0
176
     1
 90
       50
176
     1
 90
       50
176
     1
 90
       50
176
     1
290
     0
176
     1
 90
       50
176
     1
 62
   256
176
     0
 40
1.0
176
     0
 90
        2
176
     1
  1
strokes_ogs.tif
176
     1
290
     0
176
     1
 40
1.0
176
     1
 40
1.0
176
     1
  0
VISUALSTYLE
  5
32
102
{ACAD_REACTORS
330
2A
102
}
330
2A
100
AcDbVisualStyle
  2
Basic
 70
     7
177
     3
291
     1
 70
    58
 90
        1
176
     1
 90
        0
176
     1
 90
        1
176
     1
 90
        0
176
     1
 40
0.6
176
     1
 40
30.0
176
     1
 62
     7
420
 16777215
176
     1
 90
        0
176
     1
 90
        4
176
     1
 62
     7
176
     1
 62
   257
176
     1
 90
        1
176
     1
 90
        1
176
     1
 40
1.0
176
     1
 90
        8
176
     1
 62
     7
176
     1
 40
1.0
176
     1
 90
        1
176
     1
 90
        6
176
     1
 90
        2
176
     1
 62
     7
176
     1
 90
        5
176
     1
 90
        0
176
     1
 90
        0
176
     1
290
     0
176
     1
 90
        1
176
     1
 40
0.0
176
     1
 90
        0
176
     1
290
     0
176
     1
290
     1
176
     1
290
     1
176
     1
290
     0
176
     1
290
     0
176
     1
290
     0
176
     1
290
     0
176
     1
290
     0
176
     1
290
     0
176
     1
 90
       50
176
     1
 40
0.0
176
     1
 40
1.0
176
     1
 90
        0
176
     1
 62
    18
420
        0
176
     1
 90
       50
176
     1
 90
        3
176
     1
 62
     5
420
      255
176
     1
290
     0
176
     1
 90
       50
176
     1
 90
       50
176
     1
 90
       50
176
     1
290
     0
176
     1
 90
       50
176
     1
 62
   256
176
     0
 40
1.0
176
     0
 90
        2
176
     1
  1
strokes_ogs.tif
176
     1
290
     0
176
     1
 40
1.0
176
     1
 40
1.0
176
     1
  0
VISUALSTYLE
  5
36
102
{ACAD_REACTORS
330
2A
102
}
330
2A
100
AcDbVisualStyle
  2
Brighten
 70
    12
177
     3
291
     1
 70
    58
 90
        2
176
     1
 90
        2
176
     1
 90
        0
176
     1
 90
        0
176
     1
 40
0.6
176
     1
 40
30.0
176
     1
 62
     7
420
 16777215
176
     1
 90
        1
176
     1
 90
        4
176
     1
 62
     7
176
     1
 62
   257
176
     1
 90
        1
176
     1
 90
        1
176
     1
 40
1.0
176
     1
 90
        8
176
     1
 62
     7
176
     1
 40
1.0
176
     1
 90
        1
176
     1
 90
        6
176
     1
 90
        2
176
     1
 62
     7
176
     1
 90
        5
176
     1
 90
        0
176
     1
 90
        0
176
     1
290
     0
176
     1
 90
        1
176
     1
 40
50.0
176
     1
 90
        0
176
     1
290
     0
176
     1
290
     1
176
     1
290
     1
176
     1
290
     0
176
     1
290
     0
176
     1
290
     0
176
     1
290
     0
176
     1
290
     0
176
     1
290
     0
176
     1
 90
       50
176
     1
 40
0.0
176
     1
 40
1.0
176
     1
 90
        0
176
     1
 62
    18
420
        0
176
     1
 90
       50
176
     1
 90
        3
176
     1
 62
     5
420
      255
176
     1
290
     0
176
     1
 90
       50
176
     1
 90
       50
176
     1
 90
       50
176
     1
290
     0
176
     1
 90
       50
176
     1
 62
   256
176
     0
 40
1.0
176
     0
 90
        2
176
     1
  1
strokes_ogs.tif
176
     1
290
     0
176
     1
 40
1.0
176
     1
 40
1.0
176
     1
  0
VISUALSTYLE
  5
3A
102
{ACAD_REACTORS
330
2A
102
}
330
2A
100
AcDbVisualStyle
  2
ColorChange
 70
    16
177
     3
291
     1
 70
    58
 90
        2
176
     1
 90
        2
176
     1
 90
        3
176
     1
 90
        0
176
     1
 40
0.6
176
     1
 40
30.0
176
     1
 62
     8
420
  8421504
176
     1
 90
        1
176
     1
 90
        4
176
     1
 62
     7
176
     1
 62
   257
176
     1
 90
        1
176
     1
 90
        1
176
     1
 40
1.0
176
     1
 90
        8
176
     1
 62
     8
420
  8421504
176
     1
 40
1.0
176
     1
 90
        1
176
     1
 90
        6
176
     1
 90
        2
176
     1
 62
     7
176
     1
 90
        5
176
     1
 90
        0
176
     1
 90
        0
176
     1
290
     0
176
     1
 90
        1
176
     1
 40
0.0
176
     1
 90
        0
176
     1
290
     0
176
     1
290
     1
176
     1
290
     1
176
     1
290
     0
176
     1
290
     0
176
     1
290
     0
176
     1
290
     0
176
     1
290
     0
176
     1
290
     0
176
     1
 90
       50
176
     1
 40
0.0
176
     1
 40
1.0
176
     1
 90
        0
176
     1
 62
    18
420
        0
176
     1
 90
       50
176
     1
 90
        3
176
     1
 62
     5
420
      255
176
     1
290
     0
176
     1
 90
       50
176
     1
 90
       50
176
     1
 90
       50
176
     1
290
     0
176
     1
 90
       50
176
     1
 62
   256
176
     0
 40
1.0
176
     0
 90
        2
176
     1
  1
strokes_ogs.tif
176
     1
290
     0
176
     1
 40
1.0
176
     1
 40
1.0
176
     1
  0
VISUALSTYLE
  5
34
102
{ACAD_REACTORS
330
2A
102
}
330
2A
100
AcDbVisualStyle
  2
Conceptual
 70
     9
177
     3
291
     0
 70
    58
 90
        3
176
     1
 90
        2
176
     1
 90
        0
176
     1
 90
        0
176
     1
 40
0.6
176
     1
 40
30.0
176
     1
 62
     7
420
 16777215
176
     1
 90
        2
176
     1
 90
        2
176
     1
 62
     7
176
     1
 62
   257
176
     1
 90
        1
176
     1
 90
        1
176
     1
 40
179.0
176
     1
 90
        8
176
     1
 62
     7
176
     1
 40
1.0
176
     1
 90
        1
176
     1
 90
        6
176
     1
 90
        2
176
     1
 62
     7
176
     1
 90
        3
176
     1
 90
        0
176
     1
 90
        0
176
     1
290
     0
176
     1
 90
        1
176
     1
 40
0.0
176
     1
 90
        0
176
     1
290
     0
176
     1
290
     1
176
     1
290
     1
176
     1
290
     0
176
     1
290
     0
176
     1
290
     0
176
     1
290
     0
176
     1
290
     0
176
     1
290
     0
176
     1
 90
       50
176
     1
 40
0.0
176
     1
 40
1.0
176
     1
 90
        0
176
     1
 62
    18
420
        0
176
     1
 90
       50
176
     1
 90
        3
176
     1
 62
     5
420
      255
176
     1
290
     0
176
     1
 90
       50
176
     1
 90
       50
176
     1
 90
       50
176
     1
290
     0
176
     1
 90
       50
176
     1
 62
   256
176
     0
 40
1.0
176
     0
 90
        2
176
     1
  1
strokes_ogs.tif
176
     1
290
     0
176
     1
 40
1.0
176
     1
 40
1.0
176
     1
  0
VISUALSTYLE
  5
35
102
{ACAD_REACTORS
330
2A
102
}
330
2A
100
AcDbVisualStyle
  2
Dim
 70
    11
177
     3
291
     1
 70
    58
 90
        2
176
     1
 90
        2
176
     1
 90
        0
176
     1
 90
        0
176
     1
 40
0.6
176
     1
 40
30.0
176
     1
 62
     7
420
 16777215
176
     1
 90
        1
176
     1
 90
        4
176
     1
 62
     7
176
     1
 62
   257
176
     1
 90
        1
176
     1
 90
        1
176
     1
 40
1.0
176
     1
 90
        8
176
     1
 62
     7
176
     1
 40
1.0
176
     1
 90
        1
176
     1
 90
        6
176
     1
 90
        2
176
     1
 62
     7
176
     1
 90
        5
176
     1
 90
        0
176
     1
 90
        0
176
     1
290
     0
176
     1
 90
        1
176
     1
 40
-50.0
176
     1
 90
        0
176
     1
290
     0
176
     1
290
     1
176
     1
290
     1
176
     1
290
     0
176
     1
290
     0
176
     1
290
     0
176
     1
290
     0
176
     1
290
     0
176
     1
290
     0
176
     1
 90
       50
176
     1
 40
0.0
176
     1
 40
1.0
176
     1
 90
        0
176
     1
 62
    18
420
        0
176
     1
 90
       50
176
     1
 90
        3
176
     1
 62
     5
420
      255
176
     1
290
     0
176
     1
 90
       50
176
     1
 90
       50
176
     1
 90
       50
176
     1
290
     0
176
     1
 90
       50
176
     1
 62
   256
176
     0
 40
1.0
176
     0
 90
        2
176
     1
  1
strokes_ogs.tif
176
     1
290
     0
176
     1
 40
1.0
176
     1
 40
1.0
176
     1
  0
VISUALSTYLE
  5
3D
102
{ACAD_REACTORS
330
2A
102
}
330
2A
100
AcDbVisualStyle
  2
EdgeColorOff
 70
    22
177
     3
291
     1
 70
    58
 90
        2
176
     0
 90
        2
176
     0
 90
        0
176
     0
 90
        0
176
     0
 40
0.6
176
     0
 40
30.0
176
     0
 62
     7
420
 16777215
176
     0
 90
        1
176
     0
 90
        4
176
     0
 62
     7
176
     0
 62
   257
176
     0
 90
        1
176
     0
 90
        1
176
     0
 40
1.0
176
     0
 90
        8
176
     2
 62
     7
176
     0
 40
1.0
176
     0
 90
        1
176
     0
 90
        6
176
     0
 90
        2
176
     0
 62
     7
176
     0
 90
        5
176
     0
 90
        0
176
     0
 90
        0
176
     0
290
     0
176
     0
 90
        1
176
     0
 40
0.0
176
     0
 90
        0
176
     0
290
     0
176
     0
290
     1
176
     0
290
     1
176
     0
290
     0
176
     0
290
     0
176
     0
290
     0
176
     0
290
     0
176
     0
290
     0
176
     0
290
     0
176
     0
 90
       50
176
     0
 40
0.0
176
     0
 40
1.0
176
     0
 90
        0
176
     0
 62
    18
420
        0
176
     0
 90
       50
176
     0
 90
        3
176
     0
 62
     5
420
      255
176
     0
290
     0
176
     0
 90
       50
176
     0
 90
       50
176
     0
 90
       50
176
     0
290
     0
176
     0
 90
       50
176
     0
 62
   256
176
     0
 40
1.0
176
     0
 90
        2
176
     0
  1
strokes_ogs.tif
176
     0
290
     0
176
     0
 40
1.0
176
     0
 40
1.0
176
     0
  0
VISUALSTYLE
  5
39
102
{ACAD_REACTORS
330
2A
102
}
330
2A
100
AcDbVisualStyle
  2
Facepattern
 70
    15
177
     3
291
     1
 70
    58
 90
        2
176
     1
 90
        2
176
     1
 90
        0
176
     1
 90
        0
176
     1
 40
0.6
176
     1
 40
30.0
176
     1
 62
     7
420
 16777215
176
     1
 90
        1
176
     1
 90
        4
176
     1
 62
     7
176
     1
 62
   257
176
     1
 90
        1
176
     1
 90
        1
176
     1
 40
1.0
176
     1
 90
        8
176
     1
 62
     7
176
     1
 40
1.0
176
     1
 90
        1
176
     1
 90
        6
176
     1
 90
        2
176
     1
 62
     7
176
     1
 90
        5
176
     1
 90
        0
176
     1
 90
        0
176
     1
290
     0
176
     1
 90
        1
176
     1
 40
0.0
176
     1
 90
        0
176
     1
290
     0
176
     1
290
     1
176
     1
290
     1
176
     1
290
     0
176
     1
290
     0
176
     1
290
     0
176
     1
290
     0
176
     1
290
     0
176
     1
290
     0
176
     1
 90
       50
176
     1
 40
0.0
176
     1
 40
1.0
176
     1
 90
        0
176
     1
 62
    18
420
        0
176
     1
 90
       50
176
     1
 90
        3
176
     1
 62
     5
420
      255
176
     1
290
     0
176
     1
 90
       50
176
     1
 90
       50
176
     1
 90
       50
176
     1
290
     0
176
     1
 90
       50
176
     1
 62
   256
176
     0
 40
1.0
176
     0
 90
        2
176
     1
  1
strokes_ogs.tif
176
     1
290
     0
176
     1
 40
1.0
176
     1
 40
1.0
176
     1
  0
VISUALSTYLE
  5
2B
102
{ACAD_REACTORS
330
2A
102
}
330
2A
100
AcDbVisualStyle
  2
Flat
 70
     0
177
     3
291
     1
 70
    58
 90
        2
176
     1
 90
        1
176
     1
 90
        1
176
     1
 90
        2
176
     1
 40
0.6
176
     1
 40
30.0
176
     1
 62
     7
420
 16777215
176
     1
 90
        0
176
     1
 90
        0
176
     1
 62
     7
176
     1
 62
   257
176
     1
 90
        1
176
     1
 90
        1
176
     1
 40
1.0
176
     1
 90
        8
176
     1
 62
     7
176
     1
 40
1.0
176
     1
 90
        1
176
     1
 90
        6
176
     1
 90
        2
176
     1
 62
     7
176
     1
 90
        5
176
     1
 90
        0
176
     1
 90
        0
176
     1
290
     0
176
     1
 90
       13
176
     1
 40
0.0
176
     1
 90
        0
176
     1
290
     0
176
     1
290
     1
176
     1
290
     1
176
     1
290
     0
176
     1
290
     0
176
     1
290
     0
176
     1
290
     0
176
     1
290
     0
176
     1
290
     0
176
     1
 90
       50
176
     1
 40
0.0
176
     1
 40
1.0
176
     1
 90
        0
176
     1
 62
    18
420
        0
176
     1
 90
       50
176
     1
 90
        3
176
     1
 62
     5
420
      255
176
     1
290
     0
176
     1
 90
       50
176
     1
 90
       50
176
     1
 90
       50
176
     1
290
     0
176
     1
 90
       50
176
     1
 62
   256
176
     0
 40
1.0
176
     0
 90
        2
176
     1
  1
strokes_ogs.tif
176
     1
290
     0
176
     1
 40
1.0
176
     1
 40
1.0
176
     1
  0
VISUALSTYLE
  5
2C
102
{ACAD_REACTORS
330
2A
102
}
330
2A
100
AcDbVisualStyle
  2
FlatWithEdges
 70
     1
177
     3
291
     1
 70
    58
 90
        2
176
     1
 90
        1
176
     1
 90
        1
176
     1
 90
        2
176
     1
 40
0.6
176
     1
 40
30.0
176
     1
 62
     7
420
 16777215
176
     1
 90
        1
176
     1
 90
        0
176
     1
 62
     7
176
     1
 62
   257
176
     1
 90
        1
176
     1
 90
        1
176
     1
 40
1.0
176
     1
 90
        0
176
     1
 62
   257
176
     1
 40
1.0
176
     1
 90
        1
176
     1
 90
        6
176
     1
 90
        2
176
     1
 62
     7
176
     1
 90
        5
176
     1
 90
        0
176
     1
 90
        0
176
     1
290
     0
176
     1
 90
       13
176
     1
 40
0.0
176
     1
 90
        0
176
     1
290
     0
176
     1
290
     1
176
     1
290
     1
176
     1
290
     0
176
     1
290
     0
176
     1
290
     0
176
     1
290
     0
176
     1
290
     0
176
     1
290
     0
176
     1
 90
       50
176
     1
 40
0.0
176
     1
 40
1.0
176
     1
 90
        0
176
     1
 62
    18
420
        0
176
     1
 90
       50
176
     1
 90
        3
176
     1
 62
     5
420
      255
176
     1
290
     0
176
     1
 90
       50
176
     1
 90
       50
176
     1
 90
       50
176
     1
290
     0
176
     1
 90
       50
176
     1
 62
   256
176
     0
 40
1.0
176
     0
 90
        2
176
     1
  1
strokes_ogs.tif
176
     1
290
     0
176
     1
 40
1.0
176
     1
 40
1.0
176
     1
  0
VISUALSTYLE
  5
2D
102
{ACAD_REACTORS
330
2A
102
}
330
2A
100
AcDbVisualStyle
  2
Gouraud
 70
     2
177
     3
291
     1
 70
    58
 90
        2
176
     1
 90
        2
176
     1
 90
        1
176
     1
 90
        2
176
     1
 40
0.6
176
     1
 40
30.0
176
     1
 62
     7
420
 16777215
176
     1
 90
        0
176
     1
 90
        0
176
     1
 62
     7
176
     1
 62
   257
176
     1
 90
        1
176
     1
 90
        1
176
     1
 40
1.0
176
     1
 90
        0
176
     1
 62
     7
176
     1
 40
1.0
176
     1
 90
        1
176
     1
 90
        6
176
     1
 90
        2
176
     1
 62
     7
176
     1
 90
        5
176
     1
 90
        0
176
     1
 90
        0
176
     1
290
     0
176
     1
 90
       13
176
     1
 40
0.0
176
     1
 90
        0
176
     1
290
     0
176
     1
290
     1
176
     1
290
     1
176
     1
290
     0
176
     1
290
     0
176
     1
290
     0
176
     1
290
     0
176
     1
290
     0
176
     1
290
     0
176
     1
 90
       50
176
     1
 40
0.0
176
     1
 40
1.0
176
     1
 90
        0
176
     1
 62
    18
420
        0
176
     1
 90
       50
176
     1
 90
        3
176
     1
 62
     5
420
      255
176
     1
290
     0
176
     1
 90
       50
176
     1
 90
       50
176
     1
 90
       50
176
     1
290
     0
176
     1
 90
       50
176
     1
 62
   256
176
     0
 40
1.0
176
     0
 90
        2
176
     1
  1
strokes_ogs.tif
176
     1
290
     0
176
     1
 40
1.0
176
     1
 40
1.0
176
     1
  0
VISUALSTYLE
  5
2E
102
{ACAD_REACTORS
330
2A
102
}
330
2A
100
AcDbVisualStyle
  2
GouraudWithEdges
 70
     3
177
     3
291
     1
 70
    58
 90
        2
176
     1
 90
        2
176
     1
 90
        1
176
     1
 90
        2
176
     1
 40
0.6
176
     1
 40
30.0
176
     1
 62
     7
420
 16777215
176
     1
 90
        1
176
     1
 90
        0
176
     1
 62
     7
176
     1
 62
   257
176
     1
 90
        1
176
     1
 90
        1
176
     1
 40
1.0
176
     1
 90
        0
176
     1
 62
   257
176
     1
 40
1.0
176
     1
 90
        1
176
     1
 90
        6
176
     1
 90
        2
176
     1
 62
     7
176
     1
 90
        5
176
     1
 90
        0
176
     1
 90
        0
176
     1
290
     0
176
     1
 90
       13
176
     1
 40
0.0
176
     1
 90
        0
176
     1
290
     0
176
     1
290
     1
176
     1
290
     1
176
     1
290
     0
176
     1
290
     0
176
     1
290
     0
176
     1
290
     0
176
     1
290
     0
176
     1
290
     0
176
     1
 90
       50
176
     1
 40
0.0
176
     1
 40
1.0
176
     1
 90
        0
176
     1
 62
    18
420
        0
176
     1
 90
       50
176
     1
 90
        3
176
     1
 62
     5
420
      255
176
     1
290
     0
176
     1
 90
       50
176
     1
 90
       50
176
     1
 90
       50
176
     1
290
     0
176
     1
 90
       50
176
     1
 62
   256
176
     0
 40
1.0
176
     0
 90
        2
176
     1
  1
strokes_ogs.tif
176
     1
290
     0
176
     1
 40
1.0
176
     1
 40
1.0
176
     1
  0
VISUALSTYLE
  5
31
102
{ACAD_REACTORS
330
2A
102
}
330
2A
100
AcDbVisualStyle
  2
Hidden
 70
     6
177
     3
291
     0
 70
    58
 90
        1
176
     1
 90
        2
176
     1
 90
        2
176
     1
 90
        0
176
     1
 40
0.6
176
     1
 40
30.0
176
     1
 62
     7
420
 16777215
176
     1
 90
        2
176
     1
 90
        2
176
     1
 62
     7
176
     1
 62
   257
176
     1
 90
        2
176
     1
 90
        1
176
     1
 40
40.0
176
     1
 90
        0
176
     1
 62
   257
176
     1
 40
1.0
176
     1
 90
        1
176
     1
 90
        6
176
     1
 90
        2
176
     1
 62
     7
176
     1
 90
        3
176
     1
 90
        0
176
     1
 90
        0
176
     1
290
     0
176
     1
 90
        1
176
     1
 40
0.0
176
     1
 90
        0
176
     1
290
     0
176
     1
290
     1
176
     1
290
     1
176
     1
290
     0
176
     1
290
     0
176
     1
290
     0
176
     1
290
     0
176
     1
290
     0
176
     1
290
     0
176
     1
 90
       50
176
     1
 40
0.0
176
     1
 40
1.0
176
     1
 90
        0
176
     1
 62
    18
420
        0
176
     1
 90
       50
176
     1
 90
        3
176
     1
 62
     5
420
      255
176
     1
290
     0
176
     1
 90
       50
176
     1
 90
       50
176
     1
 90
       50
176
     1
290
     0
176
     1
 90
       50
176
     1
 62
   256
176
     0
 40
1.0
176
     0
 90
        2
176
     1
  1
strokes_ogs.tif
176
     1
290
     0
176
     1
 40
1.0
176
     1
 40
1.0
176
     1
  0
VISUALSTYLE
  5
3B
102
{ACAD_REACTORS
330
2A
102
}
330
2A
100
AcDbVisualStyle
  2
JitterOff
 70
    20
177
     3
291
     1
 70
    58
 90
        2
176
     0
 90
        2
176
     0
 90
        0
176
     0
 90
        0
176
     0
 40
0.6
176
     0
 40
30.0
176
     0
 62
     7
420
 16777215
176
     0
 90
        1
176
     0
 90
        4
176
     0
 62
     7
176
     0
 62
   257
176
     0
 90
        1
176
     0
 90
        1
176
     0
 40
1.0
176
     0
 90
       10
176
     2
 62
     7
176
     0
 40
1.0
176
     0
 90
        1
176
     0
 90
        6
176
     0
 90
        2
176
     0
 62
     7
176
     0
 90
        5
176
     0
 90
        0
176
     0
 90
        0
176
     0
290
     0
176
     0
 90
        1
176
     0
 40
0.0
176
     0
 90
        0
176
     0
290
     0
176
     0
290
     1
176
     0
290
     1
176
     0
290
     0
176
     0
290
     0
176
     0
290
     0
176
     0
290
     0
176
     0
290
     0
176
     0
290
     0
176
     0
 90
       50
176
     0
 40
0.0
176
     0
 40
1.0
176
     0
 90
        0
176
     0
 62
    18
420
        0
176
     0
 90
       50
176
     0
 90
        3
176
     0
 62
     5
420
      255
176
     0
290
     0
176
     0
 90
       50
176
     0
 90
       50
176
     0
 90
       50
176
     0
290
     0
176
     0
 90
       50
176
     0
 62
   256
176
     0
 40
1.0
176
     0
 90
        2
176
     0
  1
strokes_ogs.tif
176
     0
290
     0
176
     0
 40
1.0
176
     0
 40
1.0
176
     0
  0
VISUALSTYLE
  5
38
102
{ACAD_REACTORS
330
2A
102
}
330
2A
100
AcDbVisualStyle
  2
Linepattern
 70
    14
177
     3
291
     1
 70
    58
 90
        2
176
     1
 90
        2
176
     1
 90
        0
176
     1
 90
        0
176
     1
 40
0.6
176
     1
 40
30.0
176
     1
 62
     7
420
 16777215
176
     1
 90
        1
176
     1
 90
        4
176
     1
 62
     7
176
     1
 62
   257
176
     1
 90
        7
176
     1
 90
        7
176
     1
 40
1.0
176
     1
 90
        8
176
     1
 62
     7
176
     1
 40
1.0
176
     1
 90
        1
176
     1
 90
        6
176
     1
 90
        2
176
     1
 62
     7
176
     1
 90
        5
176
     1
 90
        0
176
     1
 90
        0
176
     1
290
     0
176
     1
 90
        1
176
     1
 40
0.0
176
     1
 90
        0
176
     1
290
     0
176
     1
290
     1
176
     1
290
     1
176
     1
290
     0
176
     1
290
     0
176
     1
290
     0
176
     1
290
     0
176
     1
290
     0
176
     1
290
     0
176
     1
 90
       50
176
     1
 40
0.0
176
     1
 40
1.0
176
     1
 90
        0
176
     1
 62
    18
420
        0
176
     1
 90
       50
176
     1
 90
        3
176
     1
 62
     5
420
      255
176
     1
290
     0
176
     1
 90
       50
176
     1
 90
       50
176
     1
 90
       50
176
     1
290
     0
176
     1
 90
       50
176
     1
 62
   256
176
     0
 40
1.0
176
     0
 90
        2
176
     1
  1
strokes_ogs.tif
176
     1
290
     0
176
     1
 40
1.0
176
     1
 40
1.0
176
     1
  0
VISUALSTYLE
  5
3C
102
{ACAD_REACTORS
330
2A
102
}
330
2A
100
AcDbVisualStyle
  2
OverhangOff
 70
    21
177
     3
291
     1
 70
    58
 90
        2
176
     0
 90
        2
176
     0
 90
        0
176
     0
 90
        0
176
     0
 40
0.6
176
     0
 40
30.0
176
     0
 62
     7
420
 16777215
176
     0
 90
        1
176
     0
 90
        4
176
     0
 62
     7
176
     0
 62
   257
176
     0
 90
        1
176
     0
 90
        1
176
     0
 40
1.0
176
     0
 90
        9
176
     2
 62
     7
176
     0
 40
1.0
176
     0
 90
        1
176
     0
 90
        6
176
     0
 90
        2
176
     0
 62
     7
176
     0
 90
        5
176
     0
 90
        0
176
     0
 90
        0
176
     0
290
     0
176
     0
 90
        1
176
     0
 40
0.0
176
     0
 90
        0
176
     0
290
     0
176
     0
290
     1
176
     0
290
     1
176
     0
290
     0
176
     0
290
     0
176
     0
290
     0
176
     0
290
     0
176
     0
290
     0
176
     0
290
     0
176
     0
 90
       50
176
     0
 40
0.0
176
     0
 40
1.0
176
     0
 90
        0
176
     0
 62
    18
420
        0
176
     0
 90
       50
176
     0
 90
        3
176
     0
 62
     5
420
      255
176
     0
290
     0
176
     0
 90
       50
176
     0
 90
       50
176
     0
 90
       50
176
     0
290
     0
176
     0
 90
       50
176
     0
 62
   256
176
     0
 40
1.0
176
     0
 90
        2
176
     0
  1
strokes_ogs.tif
176
     0
290
     0
176
     0
 40
1.0
176
     0
 40
1.0
176
     0
  0
VISUALSTYLE
  5
33
102
{ACAD_REACTORS
330
2A
102
}
330
2A
100
AcDbVisualStyle
  2
Realistic
 70
     8
177
     3
291
     0
 70
    58
 90
        2
176
     1
 90
        3
176
     1
 90
        0
176
     1
 90
        2
176
     1
 40
0.6
176
     1
 40
30.0
176
     1
 62
     7
420
 16777215
176
     1
 90
        0
176
     1
 90
        0
176
     1
 62
     7
176
     1
 62
   257
176
     1
 90
        1
176
     1
 90
        1
176
     1
 40
1.0
176
     1
 90
        8
176
     1
 62
   257
176
     1
 40
1.0
176
     1
 90
        1
176
     1
 90
        6
176
     1
 90
        2
176
     1
 62
     7
176
     1
 90
        3
176
     1
 90
        0
176
     1
 90
        0
176
     1
290
     0
176
     1
 90
       13
176
     1
 40
0.0
176
     1
 90
        0
176
     1
290
     0
176
     1
290
     1
176
     1
290
     1
176
     1
290
     0
176
     1
290
     0
176
     1
290
     0
176
     1
290
     0
176
     1
290
     0
176
     1
290
     0
176
     1
 90
       50
176
     1
 40
0.0
176
     1
 40
1.0
176
     1
 90
        0
176
     1
 62
    18
420
        0
176
     1
 90
       50
176
     1
 90
        3
176
     1
 62
     5
420
      255
176
     1
290
     0
176
     1
 90
       50
176
     1
 90
       50
176
     1
 90
       50
176
     1
290
     0
176
     1
 90
       50
176
     1
 62
   256
176
     0
 40
1.0
176
     0
 90
        2
176
     1
  1
strokes_ogs.tif
176
     1
290
     0
176
     1
 40
1.0
176
     1
 40
1.0
176
     1
  0
VISUALSTYLE
  5
42
102
{ACAD_REACTORS
330
2A
102
}
330
2A
100
AcDbVisualStyle
  2
Shaded
 70
    27
177
     3
291
     0
 70
    58
 90
        2
176
     1
 90
        2
176
     1
 90
        1
176
     1
 90
        2
176
     1
 40
0.6
176
     1
 40
30.0
176
     1
 62
     7
420
 16777215
176
     1
 90
        0
176
     1
 90
        4
176
     1
 62
     7
176
     1
 62
   257
176
     1
 90
        1
176
     1
 90
        1
176
     1
 40
1.0
176
     1
 90
        8
176
     1
 62
   257
176
     1
 40
1.0
176
     1
 90
        1
176
     1
 90
        6
176
     1
 90
        2
176
     1
 62
     8
420
  7895160
176
     1
 90
        3
176
     1
 90
        0
176
     1
 90
        0
176
     1
290
     0
176
     1
 90
        5
176
     1
 40
0.0
176
     1
 90
        0
176
     1
290
     0
176
     1
290
     1
176
     1
290
     1
176
     1
290
     0
176
     1
290
     0
176
     1
290
     0
176
     1
290
     0
176
     1
290
     0
176
     1
290
     0
176
     1
 90
       50
176
     1
 40
0.0
176
     1
 40
1.0
176
     1
 90
        0
176
     1
 62
    18
420
        0
176
     1
 90
       50
176
     1
 90
        3
176
     1
 62
     5
420
      255
176
     1
290
     0
176
     1
 90
       50
176
     1
 90
       50
176
     1
 90
       50
176
     1
290
     0
176
     1
 90
       50
176
     1
 62
   256
176
     0
 40
1.0
176
     0
 90
        2
176
     1
  1
strokes_ogs.tif
176
     1
290
     0
176
     1
 40
1.0
176
     1
 40
1.0
176
     1
  0
VISUALSTYLE
  5
41
102
{ACAD_REACTORS
330
2A
102
}
330
2A
100
AcDbVisualStyle
  2
Shaded with edges
 70
    26
177
     3
291
     0
 70
    58
 90
        2
176
     1
 90
        2
176
     1
 90
        1
176
     1
 90
        2
176
     1
 40
0.6
176
     1
 40
30.0
176
     1
 62
     7
420
 16777215
176
     1
 90
        1
176
     1
 90
       10
176
     1
 62
     7
176
     1
 62
   257
176
     1
 90
        2
176
     1
 90
        1
176
     1
 40
1.0
176
     1
 90
        8
176
     1
 62
   257
176
     1
 40
1.0
176
     1
 90
        1
176
     1
 90
        6
176
     1
 90
        2
176
     1
 62
     7
176
     1
 90
        3
176
     1
 90
        0
176
     1
 90
        0
176
     1
290
     0
176
     1
 90
        5
176
     1
 40
0.0
176
     1
 90
        0
176
     1
290
     0
176
     1
290
     1
176
     1
290
     1
176
     1
290
     0
176
     1
290
     0
176
     1
290
     0
176
     1
290
     0
176
     1
290
     0
176
     1
290
     0
176
     1
 90
       50
176
     1
 40
0.0
176
     1
 40
1.0
176
     1
 90
        0
176
     1
 62
    18
420
        0
176
     1
 90
       50
176
     1
 90
        3
176
     1
 62
     5
420
      255
176
     1
290
     0
176
     1
 90
       50
176
     1
 90
       50
176
     1
 90
       50
176
     1
290
     0
176
     1
 90
       50
176
     1
 62
   256
176
     0
 40
1.0
176
     0
 90
        2
176
     1
  1
strokes_ogs.tif
176
     1
290
     0
176
     1
 40
1.0
176
     1
 40
1.0
176
     1
  0
VISUALSTYLE
  5
3E
102
{ACAD_REACTORS
330
2A
102
}
330
2A
100
AcDbVisualStyle
  2
Shades of Gray
 70
    23
177
     3
291
     0
 70
    58
 90
        2
176
     1
 90
        2
176
     1
 90
        3
176
     1
 90
        0
176
     1
 40
0.6
176
     1
 40
30.0
176
     1
 62
     7
420
 16777215
176
     1
 90
        2
176
     1
 90
        2
176
     1
 62
     7
176
     1
 62
     7
176
     1
 90
        1
176
     1
 90
        1
176
     1
 40
40.0
176
     1
 90
        8
176
     1
 62
     7
176
     1
 40
1.0
176
     1
 90
        1
176
     1
 90
        6
176
     1
 90
        2
176
     1
 62
     7
176
     1
 90
        3
176
     1
 90
        0
176
     1
 90
        0
176
     1
290
     0
176
     1
 90
        1
176
     1
 40
0.0
176
     1
 90
        0
176
     1
290
     0
176
     1
290
     1
176
     1
290
     1
176
     1
290
     0
176
     1
290
     0
176
     1
290
     0
176
     1
290
     0
176
     1
290
     0
176
     1
290
     0
176
     1
 90
       50
176
     1
 40
0.0
176
     1
 40
1.0
176
     1
 90
        0
176
     1
 62
    18
420
        0
176
     1
 90
       50
176
     1
 90
        3
176
     1
 62
     5
420
      255
176
     1
290
     0
176
     1
 90
       50
176
     1
 90
       50
176
     1
 90
       50
176
     1
290
     0
176
     1
 90
       50
176
     1
 62
   256
176
     0
 40
1.0
176
     0
 90
        2
176
     1
  1
strokes_ogs.tif
176
     1
290
     0
176
     1
 40
1.0
176
     1
 40
1.0
176
     1
  0
VISUALSTYLE
  5
3F
102
{ACAD_REACTORS
330
2A
102
}
330
2A
100
AcDbVisualStyle
  2
Sketchy
 70
    24
177
     3
291
     0
 70
    58
 90
        1
176
     1
 90
        2
176
     1
 90
        2
176
     1
 90
        0
176
     1
 40
0.6
176
     1
 40
30.0
176
     1
 62
     7
420
 16777215
176
     1
 90
        2
176
     1
 90
        2
176
     1
 62
     7
176
     1
 62
     7
176
     1
 90
        1
176
     1
 90
        1
176
     1
 40
40.0
176
     1
 90
       11
176
     1
 62
     7
176
     1
 40
1.0
176
     1
 90
        1
176
     1
 90
        6
176
     1
 90
        2
176
     1
 62
     7
176
     1
 90
        6
176
     1
 90
        0
176
     1
 90
        0
176
     1
290
     0
176
     1
 90
        1
176
     1
 40
0.0
176
     1
 90
        0
176
     1
290
     0
176
     1
290
     1
176
     1
290
     1
176
     1
290
     0
176
     1
290
     0
176
     1
290
     0
176
     1
290
     0
176
     1
290
     0
176
     1
290
     0
176
     1
 90
       50
176
     1
 40
0.0
176
     1
 40
1.0
176
     1
 90
        0
176
     1
 62
    18
420
        0
176
     1
 90
       50
176
     1
 90
        3
176
     1
 62
     5
420
      255
176
     1
290
     0
176
     1
 90
       50
176
     1
 90
       50
176
     1
 90
       50
176
     1
290
     0
176
     1
 90
       50
176
     1
 62
   256
176
     0
 40
1.0
176
     0
 90
        2
176
     1
  1
strokes_ogs.tif
176
     1
290
     0
176
     1
 40
1.0
176
     1
 40
1.0
176
     1
  0
VISUALSTYLE
  5
37
102
{ACAD_REACTORS
330
2A
102
}
330
2A
100
AcDbVisualStyle
  2
Thicken
 70
    13
177
     3
291
     1
 70
    58
 90
        2
176
     1
 90
        2
176
     1
 90
        0
176
     1
 90
        0
176
     1
 40
0.6
176
     1
 40
30.0
176
     1
 62
     7
420
 16777215
176
     1
 90
        1
176
     1
 90
        4
176
     1
 62
     7
176
     1
 62
   257
176
     1
 90
        1
176
     1
 90
        1
176
     1
 40
1.0
176
     1
 90
       12
176
     1
 62
     7
176
     1
 40
1.0
176
     1
 90
        1
176
     1
 90
        6
176
     1
 90
        2
176
     1
 62
     7
176
     1
 90
        5
176
     1
 90
        0
176
     1
 90
        0
176
     1
290
     0
176
     1
 90
        1
176
     1
 40
0.0
176
     1
 90
        0
176
     1
290
     0
176
     1
290
     1
176
     1
290
     1
176
     1
290
     0
176
     1
290
     0
176
     1
290
     0
176
     1
290
     0
176
     1
290
     0
176
     1
290
     0
176
     1
 90
       50
176
     1
 40
0.0
176
     1
 40
1.0
176
     1
 90
        0
176
     1
 62
    18
420
        0
176
     1
 90
       50
176
     1
 90
        3
176
     1
 62
     5
420
      255
176
     1
290
     0
176
     1
 90
       50
176
     1
 90
       50
176
     1
 90
       50
176
     1
290
     0
176
     1
 90
       50
176
     1
 62
   256
176
     0
 40
1.0
176
     0
 90
        2
176
     1
  1
strokes_ogs.tif
176
     1
290
     0
176
     1
 40
1.0
176
     1
 40
1.0
176
     1
  0
VISUALSTYLE
  5
30
102
{ACAD_REACTORS
330
2A
102
}
330
2A
100
AcDbVisualStyle
  2
Wireframe
 70
     5
177
     3
291
     0
 70
    58
 90
        0
176
     1
 90
        2
176
     1
 90
        0
176
     1
 90
        0
176
     1
 40
0.6
176
     1
 40
30.0
176
     1
 62
     7
420
 16777215
176
     1
 90
        1
176
     1
 90
        4
176
     1
 62
     7
176
     1
 62
   257
176
     1
 90
        1
176
     1
 90
        1
176
     1
 40
1.0
176
     1
 90
        0
176
     1
 62
   257
176
     1
 40
1.0
176
     1
 90
        1
176
     1
 90
        6
176
     1
 90
        2
176
     1
 62
     7
176
     1
 90
        3
176
     1
 90
        0
176
     1
 90
        0
176
     1
290
     0
176
     1
 90
        1
176
     1
 40
0.0
176
     1
 90
        0
176
     1
290
     0
176
     1
290
     1
176
     1
290
     1
176
     1
290
     0
176
     1
290
     0
176
     1
290
     0
176
     1
290
     0
176
     1
290
     0
176
     1
290
     0
176
     1
 90
       50
176
     1
 40
0.0
176
     1
 40
1.0
176
     1
 90
        0
176
     1
 62
    18
420
        0
176
     1
 90
       50
176
     1
 90
        3
176
     1
 62
     5
420
      255
176
     1
290
     0
176
     1
 90
       50
176
     1
 90
       50
176
     1
 90
       50
176
     1
290
     0
176
     1
 90
       50
176
     1
 62
   256
176
     0
 40
1.0
176
     0
 90
        2
176
     1
  1
strokes_ogs.tif
176
     1
290
     0
176
     1
 40
1.0
176
     1
 40
1.0
176
     1
  0
VISUALSTYLE
  5
40
102
{ACAD_REACTORS
330
2A
102
}
330
2A
100
AcDbVisualStyle
  2
X-Ray
 70
    25
177
     3
291
     0
 70
    58
 90
        2
176
     1
 90
        2
176
     1
 90
        1
176
     1
 90
        1
176
     1
 40
0.5
176
     1
 40
30.0
176
     1
 62
     7
420
 16777215
176
     1
 90
        1
176
     1
 90
        0
176
     1
 62
     7
176
     1
 62
   257
176
     1
 90
        1
176
     1
 90
        1
176
     1
 40
1.0
176
     1
 90
        8
176
     1
 62
     7
176
     1
 40
1.0
176
     1
 90
        1
176
     1
 90
        6
176
     1
 90
        2
176
     1
 62
     7
176
     1
 90
        3
176
     1
 90
        0
176
     1
 90
        0
176
     1
290
     0
176
     1
 90
       13
176
     1
 40
0.0
176
     1
 90
        0
176
     1
290
     0
176
     1
290
     1
176
     1
290
     1
176
     1
290
     0
176
     1
290
     0
176
     1
290
     0
176
     1
290
     0
176
     1
290
     0
176
     1
290
     0
176
     1
 90
       50
176
     1
 40
0.0
176
     1
 40
1.0
176
     1
 90
        0
176
     1
 62
    18
420
        0
176
     1
 90
       50
176
     1
 90
        3
176
     1
 62
     5
420
      255
176
     1
290
     0
176
     1
 90
       50
176
     1
 90
       50
176
     1
 90
       50
176
     1
290
     0
176
     1
 90
       50
176
     1
 62
   256
176
     0
 40
1.0
176
     0
 90
        2
176
     1
  1
strokes_ogs.tif
176
     1
290
     0
176
     1
 40
1.0
176
     1
 40
1.0
176
     1
  0
DICTIONARYVAR
  5
1D5
102
{ACAD_REACTORS
330
1D4
102
}
330
1D4
100
DictionaryVariables
280
     0
  1
1:1
  0
DICTIONARYVAR
  5
1DD
102
{ACAD_REACTORS
330
1D4
102
}
330
1D4
100
DictionaryVariables
280
     0
  1
3.500000
  0
DICTIONARYVAR
  5
1DE
102
{ACAD_REACTORS
330
1D4
102
}
330
1D4
100
DictionaryVariables
280
     0
  1
acadiso.lin
  0
DICTIONARYVAR
  5
1DA
102
{ACAD_REACTORS
330
1D4
102
}
330
1D4
100
DictionaryVariables
280
     0
  1
Standard
  0
DICTIONARYVAR
  5
1D9
102
{ACAD_REACTORS
330
1D4
102
}
330
1D4
100
DictionaryVariables
280
     0
  1
Standard
  0
DICTIONARY
  5
1D6
330
5A
100
AcDbDictionary
280
     1
281
     1
  3
ACAD_ROUNDTRIP_2008_TABLESTYLE_CELLSTYLEMAP
360
1D7
  0
CELLSTYLEMAP
  5
1D7
102
{ACAD_REACTORS
330
1D6
102
}
330
1D6
100
AcDbCellStyleMap
 90
        3
300
CELLSTYLE
  1
TABLEFORMAT_BEGIN
 90
        5
170
     1
 91
        0
 92
    32768
 62
   257
 93
        1
300
CONTENTFORMAT
  1
CONTENTFORMAT_BEGIN
 90
        0
 91
        0
 92
        4
 93
        0
300

 40
0.0
140
1.0
 94
        5
 62
     0
340
11
144
6.0
309
CONTENTFORMAT_END
171
     1
301
MARGIN
  1
CELLMARGIN_BEGIN
 40
1.5
 40
1.5
 40
1.5
 40
1.5
 40
1.5
 40
1.5
309
CELLMARGIN_END
 94
        6
 95
        1
302
GRIDFORMAT
  1
GRIDFORMAT_BEGIN
 90
        0
 91
        1
 62
     0
 92
       -2
340
14
 93
        0
 40
0.045
309
GRIDFORMAT_END
 95
        2
302
GRIDFORMAT
  1
GRIDFORMAT_BEGIN
 90
        0
 91
        1
 62
     0
 92
       -2
340
14
 93
        0
 40
0.045
309
GRIDFORMAT_END
 95
        4
302
GRIDFORMAT
  1
GRIDFORMAT_BEGIN
 90
        0
 91
        1
 62
     0
 92
       -2
340
14
 93
        0
 40
0.045
309
GRIDFORMAT_END
 95
        8
302
GRIDFORMAT
  1
GRIDFORMAT_BEGIN
 90
        0
 91
        1
 62
     0
 92
       -2
340
14
 93
        0
 40
0.045
309
GRIDFORMAT_END
 95
       16
302
GRIDFORMAT
  1
GRIDFORMAT_BEGIN
 90
        0
 91
        1
 62
     0
 92
       -2
340
14
 93
        0
 40
0.045
309
GRIDFORMAT_END
 95
       32
302
GRIDFORMAT
  1
GRIDFORMAT_BEGIN
 90
        0
 91
        1
 62
     0
 92
       -2
340
14
 93
        0
 40
0.045
309
GRIDFORMAT_END
309
TABLEFORMAT_END
  1
CELLSTYLE_BEGIN
 90
        1
 91
        1
300
_TITLE
309
CELLSTYLE_END
300
CELLSTYLE
  1
TABLEFORMAT_BEGIN
 90
        5
170
     1
 91
        0
 92
        0
 62
   257
 93
        1
300
CONTENTFORMAT
  1
CONTENTFORMAT_BEGIN
 90
        0
 91
        0
 92
        4
 93
        0
300

 40
0.0
140
1.0
 94
        5
 62
     0
340
11
144
4.5
309
CONTENTFORMAT_END
171
     1
301
MARGIN
  1
CELLMARGIN_BEGIN
 40
1.5
 40
1.5
 40
1.5
 40
1.5
 40
1.5
 40
1.5
309
CELLMARGIN_END
 94
        6
 95
        1
302
GRIDFORMAT
  1
GRIDFORMAT_BEGIN
 90
        0
 91
        1
 62
     0
 92
       -2
340
14
 93
        0
 40
0.045
309
GRIDFORMAT_END
 95
        2
302
GRIDFORMAT
  1
GRIDFORMAT_BEGIN
 90
        0
 91
        1
 62
     0
 92
       -2
340
14
 93
        0
 40
0.045
309
GRIDFORMAT_END
 95
        4
302
GRIDFORMAT
  1
GRIDFORMAT_BEGIN
 90
        0
 91
        1
 62
     0
 92
       -2
340
14
 93
        0
 40
0.045
309
GRIDFORMAT_END
 95
        8
302
GRIDFORMAT
  1
GRIDFORMAT_BEGIN
 90
        0
 91
        1
 62
     0
 92
       -2
340
14
 93
        0
 40
0.045
309
GRIDFORMAT_END
 95
       16
302
GRIDFORMAT
  1
GRIDFORMAT_BEGIN
 90
        0
 91
        1
 62
     0
 92
       -2
340
14
 93
        0
 40
0.045
309
GRIDFORMAT_END
 95
       32
302
GRIDFORMAT
  1
GRIDFORMAT_BEGIN
 90
        0
 91
        1
 62
     0
 92
       -2
340
14
 93
        0
 40
0.045
309
GRIDFORMAT_END
309
TABLEFORMAT_END
  1
CELLSTYLE_BEGIN
 90
        2
 91
        1
300
_HEADER
309
CELLSTYLE_END
300
CELLSTYLE
  1
TABLEFORMAT_BEGIN
 90
        5
170
     1
 91
        0
 92
        0
 62
   257
 93
        1
300
CONTENTFORMAT
  1
CONTENTFORMAT_BEGIN
 90
        0
 91
        0
 92
        4
 93
        0
300

 40
0.0
140
1.0
 94
        2
 62
     0
340
11
144
4.5
309
CONTENTFORMAT_END
171
     1
301
MARGIN
  1
CELLMARGIN_BEGIN
 40
1.5
 40
1.5
 40
1.5
 40
1.5
 40
1.5
 40
1.5
309
CELLMARGIN_END
 94
        6
 95
        1
302
GRIDFORMAT
  1
GRIDFORMAT_BEGIN
 90
        0
 91
        1
 62
     0
 92
       -2
340
14
 93
        0
 40
0.045
309
GRIDFORMAT_END
 95
        2
302
GRIDFORMAT
  1
GRIDFORMAT_BEGIN
 90
        0
 91
        1
 62
     0
 92
       -2
340
14
 93
        0
 40
0.045
309
GRIDFORMAT_END
 95
        4
302
GRIDFORMAT
  1
GRIDFORMAT_BEGIN
 90
        0
 91
        1
 62
     0
 92
       -2
340
14
 93
        0
 40
0.045
309
GRIDFORMAT_END
 95
        8
302
GRIDFORMAT
  1
GRIDFORMAT_BEGIN
 90
        0
 91
        1
 62
     0
 92
       -2
340
14
 93
        0
 40
0.045
309
GRIDFORMAT_END
 95
       16
302
GRIDFORMAT
  1
GRIDFORMAT_BEGIN
 90
        0
 91
        1
 62
     0
 92
       -2
340
14
 93
        0
 40
0.045
309
GRIDFORMAT_END
 95
       32
302
GRIDFORMAT
  1
GRIDFORMAT_BEGIN
 90
        0
 91
        1
 62
     0
 92
       -2
340
14
 93
        0
 40
0.045
309
GRIDFORMAT_END
309
TABLEFORMAT_END
  1
CELLSTYLE_BEGIN
 90
        3
 91
        2
300
_DATA
309
CELLSTYLE_END
  0
ENDSEC
  0
EOF
